<svg width="269" height="254" viewBox="0 0 269 254" fill="none" xmlns="http://www.w3.org/2000/svg">
<g opacity="0.39967">
<mask id="mask0_0_7" style="mask-type:luminance" maskUnits="userSpaceOnUse" x="71" y="6" width="102" height="141">
<path fill-rule="evenodd" clip-rule="evenodd" d="M84.7509 6.20183L71.8458 15.3062L163.906 146.5L172.046 130.618L84.7509 6.20183Z" fill="white"/>
</mask>
<g mask="url(#mask0_0_7)">
<path fill-rule="evenodd" clip-rule="evenodd" d="M58.6699 123.082C59.141 122.739 59.6429 122.43 60.0805 122.049C104.995 82.9023 149.905 43.751 194.818 4.60145C195.183 4.28463 195.578 4.00167 195.958 3.7041L195.39 11.8276C194.958 12.1337 194.496 12.4059 194.1 12.7524C155.881 46.0624 117.67 79.3821 79.4517 112.692C72.35 118.88 65.219 125.035 58.1019 131.205L58.6699 123.082Z" fill="#231F20"/>
</g>
<mask id="mask1_0_7" style="mask-type:luminance" maskUnits="userSpaceOnUse" x="71" y="6" width="102" height="141">
<path fill-rule="evenodd" clip-rule="evenodd" d="M84.7509 6.20183L71.8458 15.3062L163.906 146.5L172.046 130.618L84.7509 6.20183Z" fill="white"/>
</mask>
<g mask="url(#mask1_0_7)">
<path fill-rule="evenodd" clip-rule="evenodd" d="M57.5338 139.329C58.0868 138.916 58.6707 138.537 59.1903 138.084C103.982 99.0445 148.77 59.9982 193.56 20.9551C193.965 20.6017 194.4 20.2852 194.822 19.9512L194.254 28.0747C193.699 28.4873 193.115 28.8676 192.596 29.3206C147.844 68.3239 103.096 107.334 58.3471 146.34C57.9016 146.729 57.4267 147.082 56.9658 147.452L57.5338 139.329Z" fill="#231F20"/>
</g>
<mask id="mask2_0_7" style="mask-type:luminance" maskUnits="userSpaceOnUse" x="71" y="6" width="102" height="141">
<path fill-rule="evenodd" clip-rule="evenodd" d="M84.7509 6.20183L71.8458 15.3062L163.906 146.5L172.046 130.618L84.7509 6.20183Z" fill="white"/>
</mask>
<g mask="url(#mask2_0_7)">
<path fill-rule="evenodd" clip-rule="evenodd" d="M56.3977 155.575C56.9105 155.198 57.4527 154.854 57.9319 154.438C102.806 115.326 147.675 76.2082 192.546 37.0936C192.91 36.7767 193.305 36.4953 193.686 36.1978L193.118 44.3213C192.685 44.6274 192.224 44.8995 191.826 45.2459C153.485 78.6625 115.15 112.087 76.8085 145.502C69.8304 151.586 62.823 157.635 55.8297 163.699L56.3977 155.575Z" fill="#231F20"/>
</g>
<mask id="mask3_0_7" style="mask-type:luminance" maskUnits="userSpaceOnUse" x="71" y="6" width="102" height="141">
<path fill-rule="evenodd" clip-rule="evenodd" d="M84.7509 6.20183L71.8458 15.3062L163.906 146.5L172.046 130.618L84.7509 6.20183Z" fill="white"/>
</mask>
<g mask="url(#mask3_0_7)">
<path fill-rule="evenodd" clip-rule="evenodd" d="M55.2616 171.822C55.7744 171.445 56.318 171.103 56.7958 170.685C101.63 131.61 146.458 92.5269 191.288 53.4487C191.693 53.0954 192.127 52.7789 192.55 52.4448C192.36 55.1522 192.171 57.861 191.982 60.5684C191.427 60.981 190.843 61.3598 190.324 61.8127C145.572 100.816 100.824 139.826 56.075 178.832C55.6294 179.221 55.1545 179.575 54.6936 179.946L55.2616 171.822Z" fill="#231F20"/>
</g>
<mask id="mask4_0_7" style="mask-type:luminance" maskUnits="userSpaceOnUse" x="71" y="6" width="102" height="141">
<path fill-rule="evenodd" clip-rule="evenodd" d="M84.7509 6.20183L71.8458 15.3062L163.906 146.5L172.046 130.618L84.7509 6.20183Z" fill="white"/>
</mask>
<g mask="url(#mask4_0_7)">
<path fill-rule="evenodd" clip-rule="evenodd" d="M54.1256 188.069C54.5967 187.726 55.0986 187.418 55.5362 187.036C100.451 147.89 145.361 108.738 190.274 69.5888C190.639 69.2719 191.033 68.989 191.414 68.6914L190.846 76.8149C190.413 77.121 189.953 77.3933 189.556 77.7397C151.336 111.05 113.127 144.37 74.9074 177.68C67.8057 183.868 60.6746 190.022 53.5576 196.193L54.1256 188.069Z" fill="#231F20"/>
</g>
<mask id="mask5_0_7" style="mask-type:luminance" maskUnits="userSpaceOnUse" x="71" y="6" width="102" height="141">
<path fill-rule="evenodd" clip-rule="evenodd" d="M84.7509 6.20183L71.8458 15.3062L163.906 146.5L172.046 130.618L84.7509 6.20183Z" fill="white"/>
</mask>
<g mask="url(#mask5_0_7)">
<path fill-rule="evenodd" clip-rule="evenodd" d="M52.9895 204.316C53.5425 203.903 54.1264 203.525 54.646 203.072C99.4381 164.032 144.226 124.986 189.015 85.9424C189.421 85.589 189.855 85.2725 190.277 84.9385L189.709 93.062C189.195 93.4396 188.653 93.7834 188.174 94.2013C144.125 132.593 100.081 170.989 56.0424 209.391C55.6049 209.772 55.2301 210.228 54.8261 210.649L52.5578 210.491L52.9895 204.316Z" fill="#231F20"/>
</g>
<mask id="mask6_0_7" style="mask-type:luminance" maskUnits="userSpaceOnUse" x="71" y="6" width="102" height="141">
<path fill-rule="evenodd" clip-rule="evenodd" d="M84.7509 6.20183L71.8458 15.3062L163.906 146.5L172.046 130.618" fill="white"/>
</mask>
<g mask="url(#mask6_0_7)">
<path fill-rule="evenodd" clip-rule="evenodd" d="M196.525 -4.41928C195.972 -4.00654 195.388 -3.62777 194.869 -3.17482C150.117 35.8285 105.369 74.8382 60.6189 113.845C60.1733 114.233 59.6999 114.588 59.2374 114.958L59.8055 106.835C60.2781 106.492 60.78 106.183 61.2175 105.802C103.186 69.2247 145.15 32.6424 187.109 -3.94468C187.588 -4.36257 188.003 -4.85313 188.448 -5.31134C190.938 -5.13717 193.428 -4.97064 195.917 -4.77386C196.128 -4.75763 196.323 -4.54253 196.525 -4.41928Z" fill="#231F20"/>
</g>
<mask id="mask7_0_7" style="mask-type:luminance" maskUnits="userSpaceOnUse" x="71" y="6" width="102" height="141">
<path fill-rule="evenodd" clip-rule="evenodd" d="M84.7509 6.20183L71.8458 15.3062L163.906 146.5L172.046 130.618L84.7509 6.20183Z" fill="white"/>
</mask>
<g mask="url(#mask7_0_7)">
<path fill-rule="evenodd" clip-rule="evenodd" d="M62.9264 211.215C69.6867 205.286 76.4346 199.341 83.2117 193.432C118.217 162.904 153.231 132.386 188.245 101.866C188.526 101.621 188.841 101.411 189.141 101.185L188.573 109.309C188.141 109.616 187.679 109.888 187.282 110.235C148.971 143.623 110.665 177.017 72.3642 210.416C71.8863 210.834 71.4714 211.325 71.0271 211.782L62.9264 211.215Z" fill="#231F20"/>
</g>
<mask id="mask8_0_7" style="mask-type:luminance" maskUnits="userSpaceOnUse" x="71" y="6" width="102" height="141">
<path fill-rule="evenodd" clip-rule="evenodd" d="M84.7509 6.20183L71.8458 15.3062L163.906 146.5L172.046 130.618" fill="white"/>
</mask>
<g mask="url(#mask8_0_7)">
<path fill-rule="evenodd" clip-rule="evenodd" d="M180.347 -5.87744C174.035 -0.339866 167.738 5.21384 161.41 10.7321C128.116 39.7649 94.8139 68.7895 61.5134 97.8128C61.1483 98.1311 60.754 98.4125 60.3736 98.7116L60.9416 90.5881C61.3739 90.282 61.8355 90.0098 62.2313 89.6633C98.5445 58.0166 134.85 26.3648 171.154 -5.29179C171.551 -5.63816 171.884 -6.05871 172.246 -6.44389C174.946 -6.25511 177.647 -6.06622 180.347 -5.87744Z" fill="#231F20"/>
</g>
<mask id="mask9_0_7" style="mask-type:luminance" maskUnits="userSpaceOnUse" x="71" y="6" width="102" height="141">
<path fill-rule="evenodd" clip-rule="evenodd" d="M84.7509 6.20183L71.8458 15.3062L163.906 146.5L172.046 130.618L84.7509 6.20183Z" fill="white"/>
</mask>
<g mask="url(#mask9_0_7)">
<path fill-rule="evenodd" clip-rule="evenodd" d="M79.1274 212.348C79.4354 212.048 79.7293 211.734 80.0526 211.452C115.696 180.375 151.342 149.298 186.992 118.226C187.315 117.944 187.666 117.696 188.005 117.432L187.437 125.556C187.004 125.862 186.543 126.134 186.146 126.48C153.532 154.902 120.924 183.33 88.3207 211.762C87.9235 212.107 87.5903 212.529 87.2281 212.914L79.1274 212.348Z" fill="#231F20"/>
</g>
<mask id="mask10_0_7" style="mask-type:luminance" maskUnits="userSpaceOnUse" x="71" y="6" width="102" height="141">
<path fill-rule="evenodd" clip-rule="evenodd" d="M84.7509 6.20183L71.8458 15.3062L163.906 146.5L172.046 130.618" fill="white"/>
</mask>
<g mask="url(#mask10_0_7)">
<path fill-rule="evenodd" clip-rule="evenodd" d="M164.146 -7.01025C163.881 -6.74399 163.632 -6.4615 163.349 -6.21469C129.703 23.1207 96.0563 52.453 62.4066 81.7836C62.1235 82.0289 61.8098 82.2387 61.51 82.4646L62.0781 74.3411C62.5088 74.0349 62.9704 73.7627 63.3677 73.4179C93.9011 46.8096 124.429 20.1949 154.953 -6.4246C155.35 -6.77098 155.683 -7.19153 156.045 -7.57671C158.745 -7.38792 161.446 -7.19904 164.146 -7.01025Z" fill="#231F20"/>
</g>
<mask id="mask11_0_7" style="mask-type:luminance" maskUnits="userSpaceOnUse" x="71" y="6" width="102" height="141">
<path fill-rule="evenodd" clip-rule="evenodd" d="M84.7509 6.20183L71.8458 15.3062L163.906 146.5L172.046 130.618L84.7509 6.20183Z" fill="white"/>
</mask>
<g mask="url(#mask11_0_7)">
<path fill-rule="evenodd" clip-rule="evenodd" d="M95.3285 213.481C101.805 207.802 108.268 202.108 114.761 196.447C138.453 175.783 162.155 155.129 185.855 134.473C186.179 134.191 186.53 133.943 186.868 133.679C186.679 136.387 186.49 139.095 186.3 141.803C185.87 142.109 185.408 142.381 185.011 142.727C158.175 166.11 131.346 189.501 104.522 212.895C104.124 213.242 103.791 213.662 103.429 214.047L95.3285 213.481Z" fill="#231F20"/>
</g>
<mask id="mask12_0_7" style="mask-type:luminance" maskUnits="userSpaceOnUse" x="71" y="6" width="102" height="141">
<path fill-rule="evenodd" clip-rule="evenodd" d="M84.7509 6.20183L71.8458 15.3062L163.906 146.5L172.046 130.618" fill="white"/>
</mask>
<g mask="url(#mask12_0_7)">
<path fill-rule="evenodd" clip-rule="evenodd" d="M147.945 -8.14307C141.468 -2.46407 135.003 3.23095 128.511 8.89372C106.984 27.6731 85.4453 46.4426 63.9082 65.2137C63.503 65.5656 63.0668 65.8835 62.6462 66.2176L63.2143 58.0941C63.645 57.7879 64.1066 57.5157 64.5039 57.1709C89.2161 35.6346 113.924 14.095 138.626 -7.45105C139.064 -7.83399 139.44 -8.28788 139.844 -8.70952C142.544 -8.52074 145.245 -8.33185 147.945 -8.14307Z" fill="#231F20"/>
</g>
<mask id="mask13_0_7" style="mask-type:luminance" maskUnits="userSpaceOnUse" x="71" y="6" width="102" height="141">
<path fill-rule="evenodd" clip-rule="evenodd" d="M84.7509 6.20183L71.8458 15.3062L163.906 146.5L172.046 130.618L84.7509 6.20183Z" fill="white"/>
</mask>
<g mask="url(#mask13_0_7)">
<path fill-rule="evenodd" clip-rule="evenodd" d="M111.53 214.614C112.327 213.886 113.108 213.143 113.922 212.435C137.477 191.894 161.035 171.358 184.594 150.822C184.958 150.505 185.352 150.224 185.732 149.926C185.543 152.634 185.354 155.341 185.164 158.05C184.733 158.356 184.272 158.628 183.876 158.973C162.819 177.32 141.767 195.671 120.721 214.03C120.324 214.374 119.993 214.795 119.63 215.18L111.53 214.614Z" fill="#231F20"/>
</g>
<mask id="mask14_0_7" style="mask-type:luminance" maskUnits="userSpaceOnUse" x="71" y="6" width="102" height="141">
<path fill-rule="evenodd" clip-rule="evenodd" d="M84.7509 6.20183L71.8458 15.3062L163.906 146.5L172.046 130.618" fill="white"/>
</mask>
<g mask="url(#mask14_0_7)">
<path fill-rule="evenodd" clip-rule="evenodd" d="M131.744 -9.27588C131.518 -9.04629 131.307 -8.80197 131.066 -8.59011C108.898 10.7397 86.7266 30.0679 64.5526 49.3928C64.3113 49.6032 64.0392 49.7795 63.7826 49.9706L64.3507 41.8471C64.7396 41.5774 65.1595 41.3402 65.5165 41.0303C84.5728 24.4261 103.626 7.81719 122.673 -8.79831C123.03 -9.10963 123.321 -9.49221 123.643 -9.84233C126.343 -9.65355 129.044 -9.46466 131.744 -9.27588Z" fill="#231F20"/>
</g>
<mask id="mask15_0_7" style="mask-type:luminance" maskUnits="userSpaceOnUse" x="71" y="6" width="102" height="141">
<path fill-rule="evenodd" clip-rule="evenodd" d="M84.7509 6.20183L71.8458 15.3062L163.906 146.5L172.046 130.618" fill="white"/>
</mask>
<g mask="url(#mask15_0_7)">
<path fill-rule="evenodd" clip-rule="evenodd" d="M115.543 -10.4087C109.445 -5.06064 103.358 0.297194 97.2495 5.63235C86.8168 14.7399 76.373 23.8346 65.9306 32.9309C65.6072 33.2128 65.256 33.4609 64.919 33.7236L65.487 25.6001C65.8358 25.364 66.214 25.1617 66.5293 24.8868C79.8879 13.2511 93.2424 1.60907 106.593 -10.0393C106.908 -10.3142 107.16 -10.6616 107.442 -10.9751C110.142 -10.7864 112.843 -10.5975 115.543 -10.4087Z" fill="#231F20"/>
</g>
<mask id="mask16_0_7" style="mask-type:luminance" maskUnits="userSpaceOnUse" x="71" y="6" width="102" height="141">
<path fill-rule="evenodd" clip-rule="evenodd" d="M84.7509 6.20183L71.8458 15.3062L163.906 146.5L172.046 130.618" fill="white"/>
</mask>
<g mask="url(#mask16_0_7)">
<path fill-rule="evenodd" clip-rule="evenodd" d="M99.3418 -11.5415C95.157 -7.86081 90.9877 -4.16237 86.7847 -0.502639C79.8861 5.50286 72.965 11.4856 66.0553 17.4767L66.6232 9.35462C66.9317 9.15503 67.2695 8.99082 67.5445 8.75253C75.207 2.08244 82.8655 -4.594 90.5184 -11.2769C90.7919 -11.5153 91.0011 -11.8294 91.2412 -12.108C93.9409 -11.9192 96.6421 -11.7303 99.3418 -11.5415Z" fill="#231F20"/>
</g>
<path fill-rule="evenodd" clip-rule="evenodd" d="M164.513 147.768L197.791 194.203L152.29 171.134L164.513 147.768Z" fill="#231F20"/>
<path fill-rule="evenodd" clip-rule="evenodd" d="M221.736 199.972L172.983 130.486L186.947 103.309L253.671 137.769L221.736 199.972Z" fill="#231F20"/>
<path fill-rule="evenodd" clip-rule="evenodd" d="M85.0194 7.44206L73.3371 15.6814L164.307 145.29L171.672 130.922L85.0194 7.44206ZM71.2376 15.3148L85.3858 5.33698L173.431 130.799L164.508 148.204L163.791 147.183L71.2376 15.3148Z" fill="#231F20"/>
<path fill-rule="evenodd" clip-rule="evenodd" d="M252.542 242.798L220.981 198.31L218.314 203.442L194.98 191.501L238.381 252.677L252.542 242.798ZM218.967 205.46L221.18 201.196L250.437 242.434L238.745 250.591L199.753 195.63L218.967 205.46Z" fill="#231F20"/>
<path fill-rule="evenodd" clip-rule="evenodd" d="M217.804 49.5142C218.544 38.9239 210.521 29.7062 199.92 28.9648C189.318 28.2235 180.092 36.235 179.351 46.8254C178.611 57.4157 186.632 66.6333 197.234 67.3747C207.835 68.116 217.063 60.1046 217.804 49.5142ZM177.848 46.7203C178.647 35.3027 188.596 26.6644 200.025 27.4635C211.456 28.2629 220.105 38.2018 219.307 49.6193C218.508 61.0369 208.56 69.6754 197.129 68.876C185.7 68.0768 177.05 58.1378 177.848 46.7203Z" fill="#231F20"/>
<path fill-rule="evenodd" clip-rule="evenodd" d="M107.704 126.956L15.0998 112.155L111.516 198.793L107.704 126.956ZM10.2959 109.863L109.146 125.661L109.176 126.269L113.211 202.342L10.2959 109.863Z" fill="#231F20"/>
</g>
</svg>
