<svg width="74" height="105" viewBox="0 0 74 105" fill="none" xmlns="http://www.w3.org/2000/svg">
<path d="M46.0792 1.28965C45.3891 2.0204 43.7537 3.56786 42.4485 4.75711C38.0976 8.68307 37.2124 10.0872 37.0923 13.2968C37.0023 15.9046 37.6325 17.8819 39.2678 20.1314C39.7029 20.7332 40.063 21.1917 40.063 21.1344C40.063 21.0914 39.7929 20.5326 39.4628 19.9022C38.2026 17.495 37.8275 14.572 38.5176 12.4944C39.1628 10.5458 40.108 9.37083 43.3037 6.54815C43.9788 5.96069 44.804 5.14397 45.149 4.75711L45.7942 4.04069L45.7042 7.04964C45.6591 9.04128 45.5541 10.4168 45.3891 11.1332C44.834 13.5547 43.7537 15.4747 41.7883 17.581C40.363 19.1141 39.958 19.9881 40.348 20.7045C40.408 20.8335 40.5131 21.378 40.5731 21.8938L40.6631 22.8395L39.8079 23.3839C36.9123 25.218 34.8719 27.8687 34.0467 30.8777C33.8217 31.68 33.7316 32.4538 33.7316 33.7003C33.7166 36.3511 34.2267 38.5576 35.517 41.3373L36.1922 42.7988L35.9521 43.9451C35.7121 45.1057 35.637 48.5588 35.8471 49.4615C35.9221 49.8197 36.0121 49.8914 36.3872 49.8914H36.8373L36.9423 48.043C37.3324 41.452 39.6129 37.6263 44.969 34.5744C49.0949 32.2245 50.3101 30.9063 53.0557 25.8054C55.2162 21.7505 55.9063 20.6759 57.5716 18.6269L58.5168 17.4663L57.1816 18.0108C55.0211 18.8992 51.9155 19.7875 48.1647 20.5899C44.5639 21.3493 42.9286 21.7935 41.6833 22.3953C41.2932 22.5816 40.9332 22.7392 40.8881 22.7392C40.8431 22.7392 40.8281 22.166 40.8731 21.4496C40.9482 19.9165 40.9632 19.8878 43.2887 17.5666C44.5489 16.3201 45.074 15.661 45.5091 14.8443C46.4693 13.0246 46.5443 12.4944 46.4393 8.98397C46.3343 5.68845 46.5143 3.5392 47.1145 1.14637C47.2645 0.530254 47.3845 0.014431 47.3695 0.000102997C47.3545 -0.014225 46.7694 0.573238 46.0792 1.28965ZM52.9957 23.7565C49.9801 29.058 47.8796 31.3075 43.0636 34.4168C42.1184 35.0329 41.0082 35.8066 40.6031 36.1218C39.1178 37.2968 37.4224 39.6179 36.7773 41.3517C36.6273 41.7672 36.4622 42.0538 36.4172 41.9821C36.1772 41.6239 35.532 38.7009 35.382 37.3397C34.8869 32.8263 36.6423 28.8717 40.333 26.221C42.4485 24.6878 44.3689 23.9857 48.2397 23.3123C49.89 23.0257 52.5156 22.295 53.6408 21.8222C53.8959 21.7219 54.1059 21.6502 54.1359 21.6645C54.1509 21.6789 53.6408 22.6245 52.9957 23.7565Z" fill="#151618"/>
<path d="M19.681 4.86848C20.5758 8.09682 20.8442 12.3295 20.4117 16.2896C19.8749 21.2254 20.3223 22.7176 23.5136 26.7781C24.3786 27.8686 25.3479 29.289 25.6909 29.9203C26.6602 31.7999 27.1822 34.4687 27.1971 37.6827V39.0171L26.8392 38.8736C26.0041 38.5723 24.4979 38.4431 20.71 38.3714C18.5029 38.3283 16.2212 38.2279 15.6396 38.1705C15.0729 38.0988 14.5808 38.0701 14.5659 38.0844C14.5361 38.0988 14.8343 38.3283 15.237 38.601C16.9221 39.7632 18.6222 41.2697 20.5907 43.3502C21.7539 44.5698 23.1408 45.9185 23.6926 46.3346C26.0488 48.1281 28.748 49.1755 32.0139 49.5486C33.3561 49.7064 32.8192 49.2186 30.5525 48.2716C26.9436 46.7507 25.1391 45.5168 22.3653 42.6902C21.3214 41.6284 20.0538 40.4949 19.5617 40.1649L18.6669 39.591H20.4267C25.0496 39.591 27.6594 40.4519 29.8814 42.7045C30.985 43.8093 31.7753 45.1868 32.178 46.6646C32.2973 47.1381 32.4315 47.5542 32.4762 47.5972C32.6254 47.7264 32.5806 45.9042 32.4166 44.8998C32.0736 42.8193 30.3437 40.5236 28.3603 39.5192L27.4953 39.0888V36.7214C27.4953 32.0152 27.0629 30.3938 24.7961 26.7207C21.7986 21.8423 21.3065 19.9197 21.396 13.1617C21.4258 11.0669 21.4706 9.3451 21.4855 9.35946C21.4855 9.3738 21.7986 9.77555 22.1565 10.249C22.5294 10.7225 23.8566 12.143 25.1242 13.4056C28.1962 16.4618 29.3744 18.2266 30.1051 20.881C30.9253 23.7937 30.2542 27.8686 28.3156 31.7999C27.9576 32.5317 27.6892 33.1343 27.7041 33.1343C27.7339 33.1343 27.9875 32.79 28.2857 32.3595C30.627 28.9734 31.8052 25.1568 31.6262 21.5841C31.5218 19.6327 31.1192 18.1118 30.2691 16.4187C29.4042 14.6683 28.405 13.4343 25.5119 10.5504C23.2601 8.29769 21.7092 6.63331 20.0837 4.79675L19.4573 4.07934L19.681 4.86848Z" fill="#151618"/>
<path d="M46.5727 40.0358C43.1472 40.7347 40.8185 43.6444 40.8034 47.2102C40.8034 47.9234 40.7734 47.9805 40.3377 48.1231C39.5565 48.3798 40.1274 48.5082 42.5462 48.608C46.0017 48.7507 48.1201 48.3656 49.923 47.253C50.4188 46.9535 51.6658 45.9979 52.7024 45.1278C54.8058 43.3877 55.8875 42.646 57.6604 41.7474L58.8473 41.1483L57.4049 41.0485C56.6237 41.0057 55.2265 40.8203 54.295 40.6634C53.3635 40.5065 51.8911 40.2497 51.0198 40.1071C49.1868 39.7933 47.8647 39.7648 46.5727 40.0358ZM51.5306 41.8187C52.2667 41.9899 53.4086 42.1753 54.0396 42.2181L55.2114 42.3179L53.5738 43.5731C51.0799 45.4844 49.4272 46.3544 47.3088 46.8679C46.2271 47.1389 41.3894 47.8378 41.2842 47.738C41.149 47.6096 41.5847 46.2831 42.1105 45.2419C43.027 43.4305 44.7548 42.1325 46.9332 41.6048C48.045 41.3337 49.7878 41.4193 51.5306 41.8187Z" fill="#151618"/>
<path d="M13.0565 55.6404C12.876 63.3893 13.2971 66.0107 15.3276 69.9139C16.3955 71.9592 18.1251 74.3501 19.3584 75.4735C19.6592 75.7472 19.8999 76.0065 19.8999 76.0497C19.8999 76.1073 16.1548 76.1217 11.5975 76.0929C7.02522 76.0641 3.12973 76.0929 2.9342 76.1361C2.75371 76.1793 2.51307 76.3809 2.42282 76.5682C2.28746 76.8707 2.3025 76.9715 2.52811 77.2163C2.79884 77.5044 2.96428 77.5044 36.4745 77.5044C59.4113 77.5044 70.2405 77.4612 70.4511 77.3604C70.8421 77.1587 70.8421 76.4098 70.4511 76.2081C70.2555 76.1217 67.1572 76.0641 61.4117 76.0641H52.6732L53.5906 75.0126C56.2077 72.06 57.9073 68.8193 59.0203 64.6856C59.3361 63.5477 59.3662 63.058 59.4113 57.2968L59.4865 51.1466H36.3241H13.1617L13.0565 55.6404Z" fill="#151618"/>
<path d="M6.81415 79.4547C11.8963 81.7458 19.7301 83.6127 27.0377 84.2774C28.3308 84.4047 28.9172 84.5037 28.6916 84.5603C28.3759 84.6451 28.3608 84.6593 28.6164 84.6734C28.7818 84.6876 29.8043 84.7583 30.8719 84.8431C36.375 85.225 48.1633 84.9987 47.8325 84.5037C47.7874 84.433 47.8025 84.4047 47.8927 84.4471C47.9679 84.4896 48.2385 84.4754 48.4791 84.4047C48.9001 84.2916 48.9001 84.2916 48.3137 84.2633C47.9528 84.2491 48.7197 84.0794 50.1932 83.839C54.7792 83.1036 58.5532 82.2125 61.6507 81.1377C63.4249 80.5154 66.8682 79.1011 67.1088 78.8748C67.1839 78.8041 55.4408 78.7475 36.2848 78.7617L5.31055 78.7758L6.81415 79.4547Z" fill="#151618"/>
<path d="M5.82715 100.451H5.625C5.61914 100.451 5.60156 100.454 5.57227 100.46C5.54883 100.466 5.52246 100.474 5.49316 100.486C5.46387 100.492 5.43457 100.498 5.40527 100.504C5.37598 100.51 5.3584 100.512 5.35254 100.512C5.05371 100.542 4.75195 100.559 4.44727 100.565C4.14258 100.577 3.83789 100.583 3.5332 100.583C3.46875 100.583 3.38672 100.58 3.28711 100.574C3.19336 100.574 3.10254 100.562 3.01465 100.539C2.92676 100.51 2.85059 100.469 2.78613 100.416C2.72168 100.363 2.68945 100.287 2.68945 100.187C2.68945 100.111 2.70703 100.035 2.74219 99.9587C2.77734 99.8826 2.82715 99.8298 2.8916 99.8005C2.9502 99.7947 3.05273 99.7888 3.19922 99.783C3.3457 99.7771 3.49805 99.7712 3.65625 99.7654C3.82031 99.7537 3.97559 99.7449 4.12207 99.739C4.26855 99.7273 4.37109 99.7156 4.42969 99.7039C4.46484 99.7039 4.51172 99.7039 4.57031 99.7039C4.62891 99.698 4.6875 99.6892 4.74609 99.6775C4.81055 99.6599 4.86621 99.6394 4.91309 99.616C4.96582 99.5925 5.00684 99.5603 5.03613 99.5193C5.10645 99.3728 5.1416 99.2175 5.1416 99.0535V98.781V98.0779C5.1416 98.0603 5.14453 98.0193 5.15039 97.9548C5.16211 97.8904 5.1709 97.8201 5.17676 97.7439C5.18848 97.6677 5.2002 97.5945 5.21191 97.5242C5.22363 97.4539 5.22949 97.4099 5.22949 97.3923C5.25879 96.783 5.27637 96.1707 5.28223 95.5554C5.28809 94.9402 5.29102 94.3279 5.29102 93.7185C5.29102 93.4607 5.28809 93.2087 5.28223 92.9626C5.27637 92.7166 5.27344 92.4705 5.27344 92.2244C5.27344 92.1365 5.27344 91.9929 5.27344 91.7937C5.2793 91.5886 5.28223 91.3777 5.28223 91.1609C5.28223 90.9382 5.28223 90.7302 5.28223 90.5369C5.28809 90.3376 5.29102 90.2 5.29102 90.1238C5.26172 90.0066 5.2207 89.9099 5.16797 89.8337C5.12109 89.7517 5.05664 89.6726 4.97461 89.5964C4.94531 89.5906 4.89258 89.5847 4.81641 89.5789C4.74609 89.5671 4.66992 89.5583 4.58789 89.5525C4.51172 89.5408 4.43555 89.532 4.35938 89.5261C4.28906 89.5203 4.23926 89.5173 4.20996 89.5173C4.19824 89.5173 4.16895 89.5232 4.12207 89.5349C4.08105 89.5408 4.03418 89.5496 3.98145 89.5613C3.93457 89.5671 3.8877 89.5759 3.84082 89.5876C3.79395 89.5935 3.76465 89.5964 3.75293 89.5964C3.71777 89.6023 3.64453 89.6052 3.5332 89.6052C3.42773 89.6052 3.31348 89.6052 3.19043 89.6052C3.07324 89.6052 2.96191 89.6052 2.85645 89.6052C2.75098 89.6052 2.6748 89.6023 2.62793 89.5964C2.54004 89.6316 2.44336 89.658 2.33789 89.6755C2.23242 89.6873 2.13281 89.7253 2.03906 89.7898C2.03906 89.8015 2.02148 89.825 1.98633 89.8601C1.95117 89.8953 1.92773 89.9187 1.91602 89.9304C1.86914 89.9832 1.80469 90.0564 1.72266 90.1501C1.64648 90.238 1.57031 90.3289 1.49414 90.4226C1.41797 90.5164 1.34766 90.5984 1.2832 90.6687C1.22461 90.739 1.19238 90.7771 1.18652 90.783C1.14551 90.8357 1.10449 90.9089 1.06348 91.0027C1.02832 91.0906 0.987305 91.1785 0.94043 91.2664C0.893555 91.3484 0.837891 91.4216 0.773438 91.4861C0.708984 91.5505 0.629883 91.5828 0.536133 91.5828C0.46582 91.5828 0.416016 91.5652 0.386719 91.53C0.357422 91.489 0.333984 91.4421 0.316406 91.3894C0.316406 91.3718 0.316406 91.3455 0.316406 91.3103C0.316406 91.2693 0.313477 91.2283 0.307617 91.1873C0.307617 91.1404 0.307617 91.0964 0.307617 91.0554C0.307617 91.0085 0.307617 90.9763 0.307617 90.9587C0.307617 90.9412 0.307617 90.9148 0.307617 90.8796C0.307617 90.8386 0.307617 90.8005 0.307617 90.7654C0.313477 90.7244 0.316406 90.6892 0.316406 90.6599C0.316406 90.6248 0.316406 90.6042 0.316406 90.5984C0.322266 90.5808 0.333984 90.5369 0.351562 90.4666C0.375 90.3904 0.398438 90.3113 0.421875 90.2292C0.445312 90.1472 0.46582 90.071 0.483398 90.0007C0.506836 89.9304 0.524414 89.8865 0.536133 89.8689C0.536133 89.8513 0.541992 89.8132 0.553711 89.7546C0.56543 89.696 0.577148 89.6345 0.588867 89.5701C0.606445 89.4998 0.621094 89.4382 0.632812 89.3855C0.644531 89.3269 0.65332 89.2888 0.65918 89.2712C0.65918 89.2595 0.667969 89.2273 0.685547 89.1746C0.708984 89.1218 0.732422 89.0632 0.755859 88.9988C0.779297 88.9343 0.799805 88.8757 0.817383 88.823C0.84082 88.7703 0.852539 88.738 0.852539 88.7263C0.870117 88.6794 0.887695 88.6267 0.905273 88.5681C0.928711 88.5037 0.955078 88.4451 0.984375 88.3923C1.01953 88.3396 1.06055 88.2957 1.10742 88.2605C1.1543 88.2195 1.20996 88.199 1.27441 88.199C1.37402 88.199 1.45312 88.2253 1.51172 88.2781C1.57617 88.3308 1.63477 88.3894 1.6875 88.4539C1.74023 88.5183 1.79297 88.5857 1.8457 88.656C1.89844 88.7205 1.96289 88.7644 2.03906 88.7878C2.16211 88.7878 2.29102 88.7849 2.42578 88.7791C2.56055 88.7732 2.69531 88.7703 2.83008 88.7703C3.08203 88.7703 3.33105 88.7761 3.57715 88.7878C3.82324 88.7996 4.06641 88.8259 4.30664 88.8669C4.30664 88.8669 4.31836 88.8728 4.3418 88.8845C4.36523 88.8904 4.38867 88.8992 4.41211 88.9109C4.44141 88.9167 4.46777 88.9226 4.49121 88.9285C4.52051 88.9343 4.53809 88.9373 4.54395 88.9373H4.8252C4.97754 88.9373 5.11523 88.9226 5.23828 88.8933C5.36719 88.864 5.51074 88.8494 5.66895 88.8494C5.69238 88.8494 5.72461 88.8494 5.76562 88.8494C5.8125 88.8494 5.85938 88.8494 5.90625 88.8494C5.95312 88.8494 5.99414 88.8523 6.0293 88.8582C6.06445 88.8582 6.08789 88.8611 6.09961 88.8669C6.12305 88.8669 6.16992 88.8728 6.24023 88.8845C6.31641 88.8904 6.39844 88.8992 6.48633 88.9109C6.57422 88.9167 6.65332 88.9226 6.72363 88.9285C6.7998 88.9343 6.84961 88.9373 6.87305 88.9373C6.91992 88.9197 6.97559 88.905 7.04004 88.8933C7.11035 88.8816 7.20117 88.8728 7.3125 88.8669C7.42969 88.8611 7.57617 88.8582 7.75195 88.8582C7.92773 88.8523 8.14746 88.8494 8.41113 88.8494L10.002 88.8669C10.1016 88.8669 10.2041 88.8347 10.3096 88.7703C10.415 88.7 10.5205 88.6208 10.626 88.533C10.7314 88.4392 10.834 88.3484 10.9336 88.2605C11.0391 88.1726 11.1416 88.1111 11.2412 88.0759H11.3467C11.5166 88.0759 11.6367 88.1667 11.707 88.3484C11.7129 88.4187 11.7246 88.5505 11.7422 88.7439C11.7598 88.9314 11.7773 89.1306 11.7949 89.3416C11.8184 89.5525 11.8418 89.7517 11.8652 89.9392C11.8887 90.1267 11.9062 90.2585 11.918 90.3347C11.918 90.3464 11.9209 90.3669 11.9268 90.3962C11.9326 90.4255 11.9385 90.4607 11.9443 90.5017C11.9561 90.5369 11.9648 90.572 11.9707 90.6072C11.9766 90.6365 11.9795 90.6541 11.9795 90.6599V90.7917C11.9795 90.9441 11.9736 91.0818 11.9619 91.2048C11.9502 91.3279 11.9355 91.4685 11.918 91.6267C11.8945 91.6736 11.8652 91.7058 11.8301 91.7234C11.8008 91.7351 11.7715 91.741 11.7422 91.741C11.7246 91.741 11.707 91.7322 11.6895 91.7146C11.6719 91.7087 11.6572 91.7 11.6455 91.6882C11.5576 91.6472 11.4814 91.5886 11.417 91.5125C11.3584 91.4363 11.3057 91.3542 11.2588 91.2664C11.2178 91.1785 11.1797 91.0876 11.1445 90.9939C11.1094 90.8943 11.0742 90.8035 11.0391 90.7214C10.9395 90.4695 10.7754 90.2673 10.5469 90.115C10.3242 89.9626 10.0928 89.8337 9.85254 89.7283C9.7002 89.6638 9.55078 89.6316 9.4043 89.6316C9.25781 89.6316 9.09961 89.6199 8.92969 89.5964C8.91797 89.5964 8.87402 89.5847 8.79785 89.5613C8.72754 89.532 8.68066 89.5173 8.65723 89.5173H8.26172H7.81348C7.7666 89.5173 7.69922 89.5291 7.61133 89.5525C7.52344 89.5701 7.47656 89.5847 7.4707 89.5964C7.45312 89.6199 7.43262 89.6433 7.40918 89.6667C7.36816 89.7195 7.3418 89.7605 7.33008 89.7898C7.30664 89.8308 7.28027 89.8865 7.25098 89.9568C7.22168 90.0212 7.20703 90.0564 7.20703 90.0623C7.20117 90.0798 7.19531 90.1121 7.18945 90.1589C7.18359 90.2 7.17773 90.2439 7.17188 90.2908C7.17188 90.3376 7.16895 90.3845 7.16309 90.4314C7.15723 90.4724 7.15137 90.5017 7.14551 90.5193C7.14551 90.613 7.14844 90.7742 7.1543 91.0027C7.16016 91.2312 7.16309 91.4773 7.16309 91.741C7.16309 92.0046 7.16016 92.2537 7.1543 92.488C7.14844 92.7166 7.14551 92.8718 7.14551 92.9539C7.14551 93.2527 7.12207 93.5457 7.0752 93.8328C7.03418 94.114 7.01367 94.4041 7.01367 94.7029C7.01367 95.0251 7.02246 95.3474 7.04004 95.6697C7.06348 95.9861 7.0752 96.3113 7.0752 96.6453C7.0752 97.0496 7.06348 97.4568 7.04004 97.8669C7.02246 98.2771 7.01367 98.6873 7.01367 99.0974C7.01367 99.2205 7.04004 99.3171 7.09277 99.3875C7.15137 99.4578 7.22461 99.5105 7.3125 99.5457C7.40039 99.5808 7.49707 99.6042 7.60254 99.616C7.71387 99.6277 7.81934 99.6365 7.91895 99.6423C7.96582 99.6482 8.03906 99.6541 8.13867 99.6599C8.24414 99.6658 8.35254 99.6716 8.46387 99.6775C8.58105 99.6833 8.68945 99.6892 8.78906 99.6951C8.88867 99.7009 8.95898 99.7039 9 99.7039C9.11133 99.7449 9.19336 99.8093 9.24609 99.8972C9.30469 99.9851 9.33398 100.082 9.33398 100.187C9.33398 100.322 9.2959 100.427 9.21973 100.504C9.14355 100.574 9.04688 100.647 8.92969 100.723H8.91211C8.69531 100.723 8.49316 100.706 8.30566 100.671C8.12402 100.641 7.93066 100.612 7.72559 100.583C7.09863 100.495 6.46582 100.451 5.82715 100.451ZM12.6738 100.556C12.6738 100.533 12.6562 100.501 12.6211 100.46C12.5918 100.413 12.5742 100.375 12.5684 100.345V100.31V100.302C12.5801 100.278 12.6064 100.243 12.6475 100.196C12.6885 100.149 12.7324 100.102 12.7793 100.055C12.832 100.003 12.8789 99.9558 12.9199 99.9148C12.9668 99.8738 12.999 99.8445 13.0166 99.8269C13.0283 99.8152 13.0664 99.8035 13.1309 99.7917C13.2012 99.7742 13.251 99.7654 13.2803 99.7654H13.9043C13.9219 99.7654 13.9453 99.7625 13.9746 99.7566C14.0098 99.7449 14.042 99.7361 14.0713 99.7302C14.1064 99.7185 14.1357 99.7068 14.1592 99.6951C14.1885 99.6833 14.2031 99.6775 14.2031 99.6775C14.2852 99.6365 14.332 99.572 14.3438 99.4841C14.3613 99.3904 14.3701 99.3025 14.3701 99.2205V99.0798C14.3701 98.8748 14.3643 98.6814 14.3525 98.4998C14.3467 98.3123 14.3438 98.116 14.3438 97.9109V97.8494C14.3438 97.8318 14.3467 97.7996 14.3525 97.7527C14.3584 97.7058 14.3643 97.656 14.3701 97.6033C14.3818 97.5447 14.3936 97.4919 14.4053 97.4451C14.417 97.3982 14.4258 97.366 14.4316 97.3484V93.5164C14.4316 93.3992 14.4111 93.3054 14.3701 93.2351C14.3291 93.1648 14.2764 93.1121 14.2119 93.0769C14.1475 93.0359 14.0713 93.0095 13.9834 92.9978C13.9014 92.9861 13.8135 92.9802 13.7197 92.9802H13.3594C13.1953 92.9802 13.0576 92.9597 12.9463 92.9187C12.835 92.8777 12.7793 92.7781 12.7793 92.6199C12.7793 92.5671 12.7793 92.5203 12.7793 92.4792C12.7852 92.4382 12.7998 92.3826 12.8232 92.3123C13.1045 92.324 13.3799 92.3152 13.6494 92.2859C13.9189 92.2566 14.1914 92.2419 14.4668 92.2419H14.6953C14.7188 92.2478 14.7656 92.2537 14.8359 92.2595C14.9121 92.2654 14.9883 92.2712 15.0645 92.2771C15.1465 92.283 15.2227 92.2888 15.293 92.2947C15.3633 92.3005 15.4131 92.3064 15.4424 92.3123H19.5732C19.749 92.3123 19.875 92.3591 19.9512 92.4529C20.0273 92.5408 20.083 92.6521 20.1182 92.7869V93.2878V93.8064C20.1182 93.8416 20.1123 93.906 20.1006 93.9998C20.0889 94.0876 20.0742 94.1843 20.0566 94.2898C20.0449 94.3894 20.0303 94.489 20.0127 94.5886C20.001 94.6824 19.9922 94.7498 19.9863 94.7908C19.9746 94.8083 19.9541 94.8347 19.9248 94.8699C19.8955 94.8992 19.875 94.9138 19.8633 94.9138C19.8633 94.9255 19.8574 94.9314 19.8457 94.9314H19.8369H19.8105C19.793 94.9314 19.7842 94.9255 19.7842 94.9138C19.6846 94.8435 19.6084 94.7644 19.5557 94.6765C19.5029 94.5828 19.459 94.4861 19.4238 94.3865C19.3887 94.2869 19.3564 94.1873 19.3271 94.0876C19.2979 93.988 19.2539 93.8943 19.1953 93.8064C19.1836 93.783 19.1455 93.7449 19.0811 93.6921C19.0225 93.6335 18.9902 93.6013 18.9844 93.5955C18.9727 93.5837 18.9463 93.5515 18.9053 93.4988C18.8701 93.446 18.8291 93.3904 18.7822 93.3318C18.7412 93.2673 18.7002 93.2087 18.6592 93.156C18.624 93.1033 18.6006 93.071 18.5889 93.0593C18.5654 93.0066 18.5391 92.9802 18.5098 92.9802C18.5039 92.9802 18.4834 92.9773 18.4482 92.9714C18.4189 92.9656 18.3838 92.9597 18.3428 92.9539C18.3076 92.9421 18.2725 92.9333 18.2373 92.9275C18.208 92.9216 18.1934 92.9158 18.1934 92.9099C18.1758 92.9099 18.1436 92.9041 18.0967 92.8923C18.0498 92.8806 17.9971 92.8689 17.9385 92.8572C17.8857 92.8455 17.8359 92.8337 17.7891 92.822C17.7422 92.8044 17.7129 92.7927 17.7012 92.7869H17.6572C17.6338 92.7869 17.6016 92.7957 17.5605 92.8132C17.5195 92.825 17.4902 92.8308 17.4727 92.8308H17.4463C17.4287 92.825 17.3789 92.8191 17.2969 92.8132C17.2207 92.8074 17.1357 92.8044 17.042 92.8044C16.9482 92.7986 16.8604 92.7957 16.7783 92.7957C16.7021 92.7898 16.6553 92.7869 16.6377 92.7869H16.6113C16.5059 92.7869 16.418 92.8074 16.3477 92.8484C16.2773 92.8894 16.2188 92.9421 16.1719 93.0066C16.1309 93.071 16.0928 93.1443 16.0576 93.2263C16.0283 93.3025 15.999 93.3787 15.9697 93.4548C15.9639 93.5193 15.9521 93.6248 15.9346 93.7712C15.9229 93.9177 15.9082 94.073 15.8906 94.2371C15.8789 94.4011 15.8672 94.5564 15.8555 94.7029C15.8438 94.8494 15.8379 94.9519 15.8379 95.0105V95.0808V95.1248C15.8379 95.1541 15.8408 95.2039 15.8467 95.2742C15.8525 95.3445 15.8584 95.4207 15.8643 95.5027C15.8701 95.5789 15.876 95.655 15.8818 95.7312C15.8936 95.8015 15.9023 95.8484 15.9082 95.8718C15.9492 95.9246 15.9961 95.9773 16.0488 96.03C16.1074 96.0828 16.1689 96.1179 16.2334 96.1355H16.7168C16.916 96.1355 17.0889 96.1326 17.2354 96.1267C17.3877 96.1208 17.5693 96.1033 17.7803 96.074C17.7861 96.0623 17.7949 96.0417 17.8066 96.0125C17.8184 95.9832 17.833 95.9539 17.8506 95.9246C17.8682 95.8953 17.8828 95.8689 17.8945 95.8455C17.9062 95.822 17.915 95.8074 17.9209 95.8015C17.9443 95.7605 17.9736 95.7019 18.0088 95.6257C18.0439 95.5437 18.0791 95.4646 18.1143 95.3884C18.1494 95.3064 18.1787 95.2361 18.2021 95.1775C18.2314 95.1189 18.249 95.0867 18.2549 95.0808C18.2666 95.0574 18.2783 95.0076 18.29 94.9314C18.3018 94.8494 18.3135 94.8025 18.3252 94.7908C18.3721 94.738 18.4336 94.7029 18.5098 94.6853C18.5859 94.6677 18.6621 94.6589 18.7383 94.6589C18.8203 94.6589 18.8701 94.6912 18.8877 94.7556C18.9111 94.8142 18.9229 94.8816 18.9229 94.9578V95.1775V95.283C18.9229 95.3357 18.917 95.3884 18.9053 95.4412C18.8936 95.488 18.873 95.5349 18.8438 95.5818C18.8379 95.6345 18.832 95.7224 18.8262 95.8455C18.8203 95.9685 18.8145 96.0974 18.8086 96.2322C18.8027 96.3669 18.7969 96.4958 18.791 96.6189C18.7852 96.7361 18.7822 96.8181 18.7822 96.865V97.0935V97.6208C18.7764 97.6326 18.7705 97.6589 18.7646 97.7C18.7588 97.741 18.7529 97.7878 18.7471 97.8406C18.7471 97.8875 18.7441 97.9343 18.7383 97.9812C18.7324 98.0281 18.7266 98.0603 18.7207 98.0779C18.6562 98.1248 18.5977 98.1599 18.5449 98.1833C18.498 98.2068 18.4395 98.2185 18.3691 98.2185C18.3223 98.2185 18.2783 98.2009 18.2373 98.1658C18.1963 98.1248 18.1582 98.075 18.123 98.0164C18.0879 97.9578 18.0586 97.8992 18.0352 97.8406C18.0117 97.7761 17.9971 97.7175 17.9912 97.6648C17.9854 97.6472 17.9766 97.6091 17.9648 97.5505C17.959 97.4861 17.9531 97.4187 17.9473 97.3484C17.9414 97.2722 17.9355 97.2019 17.9297 97.1375C17.9238 97.073 17.9209 97.0261 17.9209 96.9968C17.9033 96.9734 17.8711 96.9529 17.8242 96.9353C17.7832 96.9119 17.7422 96.8884 17.7012 96.865C17.666 96.8533 17.6104 96.8386 17.5342 96.821C17.458 96.8035 17.376 96.7888 17.2881 96.7771C17.2061 96.7595 17.127 96.7478 17.0508 96.7419C16.9805 96.7302 16.9336 96.7244 16.9102 96.7244C16.8926 96.7244 16.8604 96.7244 16.8135 96.7244C16.7725 96.7185 16.7227 96.7156 16.6641 96.7156C16.6113 96.7156 16.5586 96.7156 16.5059 96.7156C16.4531 96.7097 16.4121 96.7068 16.3828 96.7068C16.3652 96.7068 16.3359 96.7097 16.2949 96.7156C16.2598 96.7156 16.2217 96.7156 16.1807 96.7156C16.1455 96.7156 16.1133 96.7185 16.084 96.7244C16.0547 96.7244 16.0371 96.7244 16.0312 96.7244L15.9082 96.865V97.1638C15.9082 97.5095 15.8965 97.8435 15.873 98.1658C15.8496 98.4822 15.8379 98.8132 15.8379 99.1589C15.8379 99.3347 15.8525 99.4636 15.8818 99.5457C15.9111 99.6277 15.958 99.6863 16.0225 99.7214C16.0869 99.7566 16.1689 99.783 16.2686 99.8005C16.3682 99.8181 16.4912 99.8474 16.6377 99.8884C16.6494 99.8884 16.6699 99.8972 16.6992 99.9148C16.7285 99.9324 16.749 99.95 16.7607 99.9675H17.4463H18.0967C18.1084 99.9675 18.1348 99.9646 18.1758 99.9587C18.2168 99.947 18.2607 99.9382 18.3076 99.9324C18.3545 99.9207 18.3955 99.9119 18.4307 99.906C18.4717 99.8943 18.498 99.8884 18.5098 99.8884H18.9316H19.0986C19.1104 99.8884 19.1309 99.8796 19.1602 99.8621C19.1895 99.8386 19.2188 99.8152 19.248 99.7917C19.2832 99.7625 19.3125 99.7361 19.3359 99.7126C19.3594 99.6892 19.374 99.6775 19.3799 99.6775C19.4209 99.6599 19.4531 99.6511 19.4766 99.6511C19.5059 99.6453 19.5293 99.6423 19.5469 99.6423C19.5645 99.6365 19.582 99.6277 19.5996 99.616C19.6172 99.5984 19.6348 99.572 19.6523 99.5369C19.7168 99.4431 19.7637 99.3464 19.793 99.2468C19.8223 99.1472 19.8604 99.0476 19.9072 98.948C19.9307 98.9304 19.96 98.8953 19.9951 98.8425C20.0303 98.7839 20.0508 98.7458 20.0566 98.7283C20.0625 98.7283 20.0801 98.7195 20.1094 98.7019C20.1387 98.6785 20.168 98.655 20.1973 98.6316C20.2266 98.6023 20.2529 98.5759 20.2764 98.5525C20.2998 98.5232 20.3145 98.5027 20.3203 98.491C20.3262 98.4734 20.3379 98.45 20.3555 98.4207C20.3789 98.3855 20.4023 98.3503 20.4258 98.3152C20.4492 98.2742 20.4697 98.239 20.4873 98.2097C20.5107 98.1746 20.5254 98.1511 20.5312 98.1394C20.5312 98.1335 20.54 98.1218 20.5576 98.1042C20.5693 98.0984 20.5811 98.0896 20.5928 98.0779C20.5928 98.0662 20.5957 98.0603 20.6016 98.0603H20.6191C20.707 98.0603 20.7598 98.0955 20.7773 98.1658C20.7949 98.2302 20.8037 98.2976 20.8037 98.3679V98.5525C20.8037 98.5818 20.8066 98.6521 20.8125 98.7634C20.8184 98.8748 20.8213 98.9949 20.8213 99.1238C20.8271 99.2468 20.833 99.364 20.8389 99.4753C20.8447 99.5867 20.8477 99.6541 20.8477 99.6775V99.7039C20.8477 99.78 20.833 99.8679 20.8037 99.9675C20.7744 100.061 20.7334 100.152 20.6807 100.24C20.6279 100.328 20.5635 100.401 20.4873 100.46C20.417 100.518 20.3408 100.551 20.2588 100.556C20.2178 100.551 20.1416 100.545 20.0303 100.539C19.9248 100.533 19.8105 100.527 19.6875 100.521C19.5645 100.515 19.4473 100.51 19.3359 100.504C19.2246 100.498 19.1455 100.489 19.0986 100.477H18.9316H18.7822C18.7529 100.489 18.6855 100.501 18.5801 100.512C18.4746 100.518 18.3604 100.524 18.2373 100.53C18.1201 100.536 18.0059 100.542 17.8945 100.548C17.7891 100.553 17.7246 100.556 17.7012 100.556H14.3701C14.3525 100.562 14.3232 100.568 14.2822 100.574C14.2471 100.58 14.2061 100.583 14.1592 100.583C14.1182 100.589 14.0771 100.592 14.0361 100.592C13.9951 100.597 13.9658 100.6 13.9482 100.6C13.9482 100.612 13.9277 100.618 13.8867 100.618C13.8457 100.618 13.8076 100.615 13.7725 100.609C13.7373 100.603 13.7139 100.6 13.7021 100.6C13.6787 100.618 13.6318 100.638 13.5615 100.662C13.4912 100.685 13.4414 100.697 13.4121 100.697C13.3828 100.697 13.333 100.691 13.2627 100.679C13.1982 100.668 13.1279 100.653 13.0518 100.635C12.9756 100.624 12.9023 100.609 12.832 100.592C12.7617 100.58 12.709 100.568 12.6738 100.556ZM24.293 97.0759C24.293 97.158 24.3311 97.2166 24.4072 97.2517C24.4834 97.2869 24.5537 97.3044 24.6182 97.3044H25.084C25.1484 97.3044 25.2129 97.3074 25.2773 97.3132C25.3418 97.3191 25.4062 97.322 25.4707 97.322C25.623 97.322 25.7549 97.2986 25.8662 97.2517C25.9775 97.199 26.0332 97.0847 26.0332 96.9089V96.7595C25.9805 96.49 25.9014 96.2234 25.7959 95.9597C25.6904 95.6902 25.5908 95.4294 25.4971 95.1775C25.4854 95.1365 25.4678 95.0925 25.4443 95.0457C25.4268 94.9929 25.4033 94.946 25.374 94.905C25.3447 94.8582 25.3125 94.8201 25.2773 94.7908C25.2422 94.7615 25.2041 94.7468 25.1631 94.7468C25.0869 94.7468 25.0254 94.7791 24.9785 94.8435C24.9375 94.908 24.9023 94.9841 24.873 95.072C24.8496 95.1599 24.8291 95.2507 24.8115 95.3445C24.7939 95.4324 24.7734 95.5027 24.75 95.5554C24.7324 95.6082 24.7002 95.7019 24.6533 95.8367C24.6123 95.9714 24.5684 96.115 24.5215 96.2673C24.4746 96.4138 24.4277 96.5544 24.3809 96.6892C24.3398 96.824 24.3105 96.9177 24.293 96.9705V97.0759ZM22.2451 100.512H22.2012C22.1895 100.512 22.1602 100.518 22.1133 100.53C22.0664 100.536 22.0137 100.545 21.9551 100.556C21.8965 100.562 21.8408 100.568 21.7881 100.574C21.7412 100.58 21.7119 100.583 21.7002 100.583H21.6475C21.6123 100.583 21.583 100.568 21.5596 100.539C21.5361 100.51 21.5186 100.477 21.5068 100.442C21.4951 100.401 21.4893 100.363 21.4893 100.328C21.4834 100.287 21.4805 100.26 21.4805 100.249V100.222C21.4805 100.117 21.5156 100.047 21.5859 100.011C21.6621 99.9763 21.7354 99.9441 21.8057 99.9148C21.8174 99.9148 21.8467 99.906 21.8936 99.8884C21.9404 99.865 21.9902 99.8416 22.043 99.8181C22.1016 99.7947 22.1543 99.7742 22.2012 99.7566C22.248 99.7332 22.2773 99.7156 22.2891 99.7039C22.2949 99.698 22.3125 99.6833 22.3418 99.6599C22.3711 99.6306 22.4033 99.5984 22.4385 99.5632C22.4736 99.5281 22.5059 99.4929 22.5352 99.4578C22.5703 99.4226 22.5996 99.3933 22.623 99.3699C22.6289 99.3582 22.6377 99.3435 22.6494 99.3259C22.6729 99.2908 22.6846 99.2644 22.6846 99.2468C22.6846 99.2351 22.6904 99.2 22.7021 99.1414C22.7197 99.0828 22.7344 99.0476 22.7461 99.0359C22.9043 98.7195 23.0625 98.4001 23.2207 98.0779C23.3789 97.7498 23.5283 97.4216 23.6689 97.0935C23.6865 97.0759 23.71 97.0261 23.7393 96.9441C23.7744 96.8562 23.7979 96.7947 23.8096 96.7595C23.8154 96.7478 23.8301 96.7126 23.8535 96.6541C23.877 96.5896 23.9004 96.5251 23.9238 96.4607C23.9473 96.3904 23.9678 96.3259 23.9854 96.2673C24.0088 96.2087 24.0205 96.1736 24.0205 96.1619C24.0264 96.1443 24.0439 96.1033 24.0732 96.0388C24.1084 95.9744 24.1436 95.9041 24.1787 95.8279C24.2197 95.7517 24.2549 95.6785 24.2842 95.6082C24.3193 95.5378 24.3428 95.4939 24.3545 95.4763C24.4014 95.3708 24.4453 95.2771 24.4863 95.1951C24.5332 95.1072 24.5771 95.0046 24.6182 94.8875C24.6416 94.8406 24.6709 94.7878 24.7061 94.7292C24.7471 94.6707 24.7852 94.6091 24.8203 94.5447C24.8555 94.4744 24.8848 94.407 24.9082 94.3425C24.9375 94.2781 24.9521 94.2166 24.9521 94.158V94.0349C24.9521 94.0115 24.9434 93.9734 24.9258 93.9207C24.9141 93.8621 24.9082 93.8298 24.9082 93.824C24.9082 93.783 24.9316 93.7302 24.9785 93.6658C25.0254 93.6013 25.0605 93.5603 25.084 93.5427C25.0957 93.5369 25.1221 93.5251 25.1631 93.5076C25.21 93.49 25.2568 93.4695 25.3037 93.446C25.3506 93.4226 25.3916 93.4021 25.4268 93.3845C25.4678 93.3669 25.4912 93.3552 25.4971 93.3494C25.5088 93.3376 25.5322 93.3142 25.5674 93.2791C25.6025 93.2439 25.6406 93.2058 25.6816 93.1648C25.7285 93.1179 25.7695 93.074 25.8047 93.033C25.8457 92.9861 25.875 92.9539 25.8926 92.9363C25.8984 92.9304 25.9102 92.9128 25.9277 92.8835C25.9453 92.8484 25.9658 92.8162 25.9893 92.7869C26.0127 92.7517 26.0391 92.7224 26.0684 92.699C26.0977 92.6697 26.1299 92.658 26.165 92.6638C26.2236 92.6814 26.2734 92.7341 26.3145 92.822C26.3613 92.9099 26.3994 93.0066 26.4287 93.1121C26.4639 93.2117 26.4932 93.3113 26.5166 93.4109C26.54 93.5046 26.5605 93.5691 26.5781 93.6042C26.584 93.6335 26.5928 93.6746 26.6045 93.7273C26.6221 93.78 26.6367 93.8328 26.6484 93.8855C26.666 93.9382 26.6807 93.9851 26.6924 94.0261C26.7041 94.0671 26.71 94.0906 26.71 94.0964C26.7158 94.114 26.7246 94.155 26.7363 94.2195C26.748 94.2839 26.7598 94.3542 26.7715 94.4304C26.7891 94.5066 26.8037 94.5769 26.8154 94.6414C26.8271 94.7 26.833 94.7351 26.833 94.7468C26.8389 94.7644 26.8535 94.8201 26.877 94.9138C26.9062 95.0076 26.9385 95.116 26.9736 95.239C27.0088 95.3621 27.0439 95.4851 27.0791 95.6082C27.1143 95.7253 27.1436 95.8191 27.167 95.8894C27.2139 96.0476 27.2725 96.2058 27.3428 96.364C27.4131 96.5164 27.4658 96.6716 27.501 96.8298C27.5303 96.9646 27.5479 97.073 27.5537 97.155C27.5654 97.2312 27.5947 97.325 27.6416 97.4363C27.6475 97.448 27.6592 97.4744 27.6768 97.5154C27.7002 97.5505 27.7236 97.5916 27.7471 97.6384C27.7705 97.6794 27.791 97.7205 27.8086 97.7615C27.8262 97.8025 27.8379 97.8318 27.8438 97.8494C27.8438 97.8611 27.8467 97.8816 27.8525 97.9109C27.8584 97.9402 27.8643 97.9753 27.8701 98.0164C27.8818 98.0515 27.8906 98.0867 27.8965 98.1218C27.9023 98.1511 27.9082 98.1716 27.9141 98.1833C27.9141 98.1892 27.9199 98.2097 27.9316 98.2449C27.9434 98.2742 27.958 98.3093 27.9756 98.3503C27.9932 98.3855 28.0078 98.4207 28.0195 98.4558C28.0371 98.4851 28.0488 98.4998 28.0547 98.4998C28.084 98.6521 28.1221 98.8162 28.1689 98.9919C28.2158 99.1677 28.2891 99.323 28.3887 99.4578C28.4355 99.5281 28.5205 99.5867 28.6436 99.6335C28.7725 99.6804 28.9014 99.7273 29.0303 99.7742C29.165 99.821 29.2822 99.8738 29.3818 99.9324C29.4814 99.991 29.5312 100.067 29.5312 100.161C29.5312 100.26 29.5049 100.34 29.4521 100.398C29.4053 100.451 29.3438 100.492 29.2676 100.521C29.1914 100.551 29.1064 100.568 29.0127 100.574C28.9189 100.58 28.8311 100.583 28.749 100.583H28.5732H28.3887C28.2949 100.583 28.1309 100.58 27.8965 100.574C27.6621 100.568 27.4102 100.562 27.1406 100.556C26.877 100.545 26.625 100.536 26.3848 100.53C26.1504 100.518 25.9863 100.512 25.8926 100.512C25.8281 100.489 25.79 100.463 25.7783 100.433C25.7666 100.398 25.7607 100.348 25.7607 100.284V100.222C25.7607 100.211 25.7637 100.199 25.7695 100.187C25.8223 100.076 25.8955 100.003 25.9893 99.9675C26.083 99.9265 26.1797 99.8943 26.2793 99.8708C26.3848 99.8474 26.4873 99.821 26.5869 99.7917C26.6865 99.7566 26.7686 99.6863 26.833 99.5808L26.8506 99.5193L26.833 99.4578C26.8271 99.405 26.8125 99.3318 26.7891 99.238C26.7715 99.1443 26.751 99.0505 26.7275 98.9568C26.71 98.863 26.6924 98.781 26.6748 98.7107C26.6572 98.6345 26.6455 98.5906 26.6396 98.5789C26.6279 98.5671 26.6104 98.5378 26.5869 98.491C26.5635 98.4441 26.5371 98.3914 26.5078 98.3328C26.4844 98.2742 26.458 98.2185 26.4287 98.1658C26.4053 98.1072 26.3848 98.0632 26.3672 98.0339C26.3027 97.9343 26.2119 97.8757 26.0947 97.8582C25.9834 97.8347 25.8721 97.823 25.7607 97.823H25.585C25.374 97.823 25.1748 97.8376 24.9873 97.8669C24.8057 97.8962 24.6123 97.9109 24.4072 97.9109C24.3662 97.9109 24.3252 97.908 24.2842 97.9021C24.2432 97.8962 24.2021 97.8933 24.1611 97.8933C24.1201 97.9343 24.0996 97.9666 24.0996 97.99C24.0879 97.9958 24.0732 98.0193 24.0557 98.0603C24.0439 98.0955 24.0293 98.1365 24.0117 98.1833C24 98.2244 23.9854 98.2654 23.9678 98.3064C23.9561 98.3416 23.9502 98.3621 23.9502 98.3679C23.9502 98.3796 23.9297 98.4148 23.8887 98.4734C23.8535 98.532 23.8271 98.5671 23.8096 98.5789C23.7393 98.7253 23.6982 98.8777 23.6865 99.0359C23.6748 99.1882 23.6689 99.3464 23.6689 99.5105C23.6689 99.6042 23.6982 99.6746 23.7568 99.7214C23.8154 99.7625 23.8887 99.7947 23.9766 99.8181C24.0645 99.8416 24.1582 99.8621 24.2578 99.8796C24.3574 99.8914 24.4512 99.9119 24.5391 99.9412C24.627 99.9646 24.7002 100.003 24.7588 100.055C24.8174 100.108 24.8467 100.184 24.8467 100.284C24.8467 100.477 24.7559 100.597 24.5742 100.644C24.5508 100.644 24.5068 100.641 24.4424 100.635C24.3838 100.63 24.3223 100.624 24.2578 100.618C24.1934 100.612 24.1318 100.606 24.0732 100.6C24.0146 100.594 23.9736 100.589 23.9502 100.583H23.3262H23.0801C23.0625 100.583 23.0156 100.58 22.9395 100.574C22.8633 100.568 22.7783 100.562 22.6846 100.556C22.5908 100.545 22.5059 100.536 22.4297 100.53C22.3535 100.518 22.3066 100.512 22.2891 100.512H22.2451ZM31.1924 100.556C31.1807 100.556 31.1455 100.562 31.0869 100.574C31.0342 100.592 31.0049 100.6 30.999 100.6H30.9639C30.8877 100.6 30.8115 100.597 30.7354 100.592C30.665 100.586 30.6006 100.571 30.542 100.548C30.4893 100.524 30.4453 100.489 30.4102 100.442C30.375 100.395 30.3574 100.331 30.3574 100.249V100.117C30.3633 100.058 30.4336 100.017 30.5684 99.9939C30.709 99.9646 30.8643 99.947 31.0342 99.9412C31.2041 99.9294 31.3652 99.9207 31.5176 99.9148C31.6699 99.9031 31.7607 99.8796 31.79 99.8445C31.7959 99.8152 31.8018 99.7888 31.8076 99.7654C31.8135 99.7419 31.8193 99.7214 31.8252 99.7039C31.8311 99.6863 31.834 99.6716 31.834 99.6599C31.834 99.6365 31.8369 99.6013 31.8428 99.5544C31.8545 99.5017 31.8633 99.449 31.8691 99.3962C31.8809 99.3376 31.8896 99.2849 31.8955 99.238C31.9014 99.1912 31.9043 99.1589 31.9043 99.1414C31.9043 99.0945 31.9072 98.9978 31.9131 98.8513C31.9189 98.699 31.9248 98.5349 31.9307 98.3591C31.9365 98.1833 31.9424 98.0134 31.9482 97.8494C31.9541 97.6853 31.957 97.5681 31.957 97.4978C31.957 97.4685 31.957 97.4158 31.957 97.3396C31.9629 97.2576 31.9658 97.1697 31.9658 97.0759C31.9658 96.9822 31.9629 96.8972 31.957 96.821C31.957 96.7449 31.957 96.6863 31.957 96.6453L32.001 96.531C32.001 96.5251 32.0039 96.4666 32.0098 96.3552C32.0156 96.238 32.0215 96.1003 32.0273 95.9421C32.0391 95.7839 32.0479 95.6228 32.0537 95.4587C32.0654 95.2947 32.0713 95.1599 32.0713 95.0544V94.4568V93.8328C32.0713 93.8093 32.0654 93.7742 32.0537 93.7273C32.0479 93.6804 32.042 93.6335 32.0361 93.5867C32.0303 93.5339 32.0215 93.49 32.0098 93.4548C32.0039 93.4138 32.001 93.3875 32.001 93.3757C31.9717 93.2878 31.9131 93.2263 31.8252 93.1912C31.7432 93.1501 31.6436 93.1208 31.5264 93.1033C31.415 93.0857 31.2949 93.0769 31.166 93.0769C31.043 93.071 30.9287 93.0593 30.8232 93.0417C30.7178 93.0242 30.6299 92.9949 30.5596 92.9539C30.4951 92.907 30.4629 92.8367 30.4629 92.7429C30.4629 92.6902 30.4805 92.6433 30.5156 92.6023C30.5508 92.5554 30.5918 92.5144 30.6387 92.4792C30.6855 92.4441 30.7354 92.4177 30.7881 92.4001C30.8467 92.3767 30.8965 92.365 30.9375 92.365C31.0195 92.365 31.1191 92.3767 31.2363 92.4001C31.3535 92.4236 31.4443 92.4294 31.5088 92.4177C31.5264 92.4177 31.5615 92.4148 31.6143 92.4089C31.667 92.4031 31.7227 92.3972 31.7812 92.3914C31.8457 92.3855 31.9043 92.3796 31.957 92.3738C32.0156 92.3679 32.0537 92.365 32.0713 92.365C32.1006 92.365 32.168 92.3679 32.2734 92.3738C32.3789 92.3796 32.4902 92.3855 32.6074 92.3914C32.7305 92.3972 32.8447 92.406 32.9502 92.4177C33.0557 92.4236 33.123 92.4294 33.1523 92.4353H33.2578H33.3369C33.3486 92.4294 33.375 92.4236 33.416 92.4177C33.457 92.406 33.498 92.3972 33.5391 92.3914C33.5859 92.3855 33.627 92.3796 33.6621 92.3738C33.7031 92.3679 33.7266 92.365 33.7324 92.365H34.1719C34.1777 92.365 34.1982 92.3621 34.2334 92.3562C34.2686 92.3503 34.3037 92.3445 34.3389 92.3386C34.3799 92.3328 34.415 92.3269 34.4443 92.321C34.4795 92.3152 34.5 92.3123 34.5059 92.3123H34.541C34.5527 92.3123 34.5615 92.3123 34.5674 92.3123C34.5791 92.3064 34.5908 92.3035 34.6025 92.3035C34.6729 92.3035 34.7432 92.3064 34.8135 92.3123C34.8838 92.3181 34.9482 92.3328 35.0068 92.3562C35.0654 92.3738 35.1123 92.406 35.1475 92.4529C35.1885 92.4998 35.209 92.5642 35.209 92.6462C35.209 92.6638 35.2031 92.6902 35.1914 92.7253C35.1797 92.7546 35.1738 92.7751 35.1738 92.7869C35.127 92.8162 35.0537 92.8601 34.9541 92.9187C34.8545 92.9714 34.7725 93.0037 34.708 93.0154C34.6846 93.0154 34.6318 93.0212 34.5498 93.033C34.4736 93.0388 34.3916 93.0476 34.3037 93.0593C34.2158 93.0652 34.1338 93.074 34.0576 93.0857C33.9814 93.0916 33.9346 93.0945 33.917 93.0945C33.8701 93.1003 33.8291 93.1208 33.7939 93.156C33.7646 93.1853 33.7441 93.2234 33.7324 93.2703C33.6797 93.5339 33.6445 93.7947 33.627 94.0525C33.6152 94.3103 33.6094 94.574 33.6094 94.8435V95.6873V95.9685C33.6094 95.9744 33.6035 96.0095 33.5918 96.074C33.5859 96.1326 33.5771 96.2 33.5654 96.2761C33.5596 96.3464 33.5508 96.4138 33.5391 96.4783C33.5332 96.5427 33.5303 96.5837 33.5303 96.6013V97.9373V98.447C33.5303 98.4646 33.5273 98.5027 33.5215 98.5613C33.5156 98.6199 33.5098 98.6814 33.5039 98.7458C33.498 98.8103 33.4922 98.8689 33.4863 98.9216C33.4805 98.9744 33.4775 99.0066 33.4775 99.0183V99.0623V99.1414C33.4775 99.1531 33.4863 99.1853 33.5039 99.238C33.5215 99.2849 33.5303 99.3142 33.5303 99.3259C33.5303 99.3376 33.5215 99.3582 33.5039 99.3875C33.4863 99.4109 33.4775 99.4314 33.4775 99.449C33.4717 99.4666 33.4688 99.4841 33.4688 99.5017C33.4629 99.5134 33.46 99.5281 33.46 99.5457C33.46 99.5574 33.46 99.5691 33.46 99.5808C33.46 99.6921 33.4922 99.7976 33.5566 99.8972C33.627 99.991 33.7148 100.038 33.8203 100.038H33.873C34.043 100.009 34.2188 99.9822 34.4004 99.9587C34.5879 99.9294 34.7666 99.9148 34.9365 99.9148H36.4219C36.4453 99.9148 36.4834 99.9119 36.5361 99.906C36.5947 99.9001 36.6504 99.8943 36.7031 99.8884C36.7559 99.8826 36.8027 99.8767 36.8438 99.8708C36.8848 99.8591 36.9082 99.8503 36.9141 99.8445C36.9258 99.8386 36.9492 99.821 36.9844 99.7917C37.0195 99.7566 37.0576 99.7185 37.0986 99.6775C37.1455 99.6306 37.1865 99.5867 37.2217 99.5457C37.2627 99.5046 37.292 99.4724 37.3096 99.449C37.3096 99.4431 37.3154 99.4285 37.3271 99.405C37.3389 99.3757 37.3506 99.3494 37.3623 99.3259C37.374 99.2966 37.3857 99.2703 37.3975 99.2468C37.4092 99.2234 37.418 99.2087 37.4238 99.2029C37.4238 99.197 37.4326 99.1882 37.4502 99.1765C37.4736 99.1589 37.4971 99.1414 37.5205 99.1238C37.5439 99.1062 37.5645 99.0916 37.582 99.0798C37.6055 99.0681 37.6201 99.0623 37.626 99.0623L37.6699 99.0183C37.6816 99.0125 37.7051 98.9802 37.7402 98.9216C37.7754 98.8572 37.793 98.8191 37.793 98.8074C37.8164 98.7839 37.8457 98.7488 37.8809 98.7019C37.9219 98.6492 37.9629 98.5964 38.0039 98.5437C38.0508 98.4851 38.0918 98.4324 38.127 98.3855C38.1621 98.3328 38.1885 98.2976 38.2061 98.28C38.2295 98.2507 38.2441 98.2332 38.25 98.2273C38.2617 98.2214 38.291 98.2185 38.3379 98.2185C38.4316 98.2185 38.5049 98.2566 38.5576 98.3328C38.6104 98.4031 38.6484 98.488 38.6719 98.5876C38.6953 98.6873 38.707 98.7898 38.707 98.8953C38.7129 98.9949 38.7158 99.0769 38.7158 99.1414C38.7158 99.1707 38.7158 99.2058 38.7158 99.2468C38.7158 99.2878 38.7158 99.3289 38.7158 99.3699C38.7158 99.4109 38.7129 99.446 38.707 99.4753C38.707 99.5046 38.707 99.5193 38.707 99.5193C38.707 99.531 38.6982 99.5632 38.6807 99.616C38.6631 99.6628 38.6543 99.6921 38.6543 99.7039C38.6426 99.8386 38.6367 99.9558 38.6367 100.055C38.6367 100.149 38.6221 100.231 38.5928 100.302C38.5693 100.372 38.5225 100.43 38.4521 100.477C38.3877 100.524 38.2793 100.565 38.127 100.6C38.0742 100.606 37.9775 100.609 37.8369 100.609C37.6963 100.615 37.5439 100.618 37.3799 100.618C37.2217 100.618 37.0693 100.618 36.9229 100.618C36.7822 100.618 36.6826 100.618 36.624 100.618C36.5186 100.618 36.3838 100.618 36.2197 100.618C36.0557 100.618 35.8945 100.618 35.7363 100.618C35.584 100.618 35.4492 100.615 35.332 100.609C35.2148 100.609 35.1533 100.606 35.1475 100.6C35.1182 100.6 35.0596 100.597 34.9717 100.592C34.8896 100.592 34.7959 100.589 34.6904 100.583C34.5908 100.583 34.4912 100.58 34.3916 100.574C34.2979 100.568 34.2246 100.562 34.1719 100.556C34.166 100.556 34.1484 100.553 34.1191 100.548C34.0898 100.542 34.0576 100.536 34.0225 100.53C33.9873 100.524 33.9551 100.518 33.9258 100.512C33.8965 100.507 33.8789 100.501 33.873 100.495H33.8203H33.7324C33.7031 100.501 33.6445 100.507 33.5566 100.512C33.4688 100.518 33.375 100.524 33.2754 100.53C33.1758 100.536 33.0791 100.542 32.9854 100.548C32.8975 100.553 32.8418 100.556 32.8184 100.556H32.2295C32.2178 100.556 32.1768 100.562 32.1064 100.574C32.042 100.592 32.0068 100.6 32.001 100.6C31.96 100.624 31.9102 100.635 31.8516 100.635C31.7988 100.641 31.7578 100.644 31.7285 100.644C31.7109 100.644 31.6758 100.638 31.623 100.627C31.5703 100.621 31.5117 100.612 31.4473 100.6C31.3887 100.589 31.333 100.577 31.2803 100.565C31.2275 100.559 31.1982 100.556 31.1924 100.556ZM40.4912 93.5955C40.4736 93.4841 40.4502 93.3962 40.4209 93.3318C40.3916 93.2615 40.3535 93.2058 40.3066 93.1648C40.2598 93.1179 40.2012 93.0769 40.1309 93.0417C40.0605 93.0066 39.9727 92.9626 39.8672 92.9099C39.8027 92.8806 39.7354 92.8601 39.665 92.8484C39.6006 92.8308 39.5596 92.8162 39.542 92.8044C39.5068 92.7634 39.4805 92.7078 39.4629 92.6375C39.4453 92.5613 39.4365 92.5056 39.4365 92.4705C39.4365 92.4587 39.4365 92.4353 39.4365 92.4001C39.4424 92.3591 39.457 92.3298 39.4805 92.3123C39.4922 92.3064 39.5244 92.2976 39.5771 92.2859C39.6299 92.2742 39.6709 92.2625 39.7002 92.2507C39.7588 92.2449 39.8232 92.239 39.8936 92.2332C39.9697 92.2273 40.04 92.2244 40.1045 92.2244C40.2041 92.2244 40.3066 92.2332 40.4121 92.2507C40.5176 92.2625 40.6553 92.283 40.8252 92.3123H41.1592C41.2705 92.3123 41.376 92.3123 41.4756 92.3123C41.5752 92.3123 41.6719 92.3093 41.7656 92.3035C41.8594 92.2976 41.9531 92.2917 42.0469 92.2859C42.1406 92.28 42.2432 92.2683 42.3545 92.2507C42.3721 92.2507 42.4072 92.2419 42.46 92.2244C42.5127 92.2068 42.5449 92.198 42.5566 92.198H42.6182C42.7529 92.198 42.876 92.2214 42.9873 92.2683C43.1045 92.3152 43.1631 92.4119 43.1631 92.5583C43.1631 92.658 43.1279 92.7341 43.0576 92.7869C42.9873 92.8396 42.9023 92.8865 42.8027 92.9275C42.709 92.9685 42.6123 93.0095 42.5127 93.0505C42.4189 93.0857 42.3457 93.1355 42.293 93.2C42.2344 93.2644 42.1875 93.3435 42.1523 93.4373C42.1172 93.5251 42.0879 93.6218 42.0645 93.7273C42.0469 93.8269 42.0352 93.9265 42.0293 94.0261C42.0234 94.1257 42.0205 94.2136 42.0205 94.2898C42.0205 94.3835 42.0322 94.4597 42.0557 94.5183C42.085 94.5769 42.0996 94.6472 42.0996 94.7292C42.0996 94.7468 42.0967 94.7732 42.0908 94.8083C42.0908 94.8376 42.082 94.8582 42.0645 94.8699C42.0645 94.8816 42.0615 94.9138 42.0557 94.9666C42.0498 95.0193 42.0439 95.0779 42.0381 95.1423C42.0381 95.2009 42.0352 95.2566 42.0293 95.3093C42.0234 95.3621 42.0205 95.3972 42.0205 95.4148V96.1882C42.0205 96.2175 42.0088 96.2673 41.9854 96.3376C41.9678 96.408 41.9561 96.4548 41.9502 96.4783V96.575V96.6628C41.9502 96.6746 41.9531 96.7039 41.959 96.7507C41.9707 96.7976 41.9795 96.8474 41.9854 96.9001C41.9971 96.9529 42.0059 97.0027 42.0117 97.0496C42.0176 97.0964 42.0205 97.1257 42.0205 97.1375C42.0264 97.1667 42.0293 97.2195 42.0293 97.2957C42.0352 97.366 42.041 97.4421 42.0469 97.5242C42.0527 97.6003 42.0557 97.6736 42.0557 97.7439C42.0615 97.8142 42.0645 97.864 42.0645 97.8933C42.0703 97.9402 42.082 98.0017 42.0996 98.0779C42.1172 98.1482 42.1348 98.2214 42.1523 98.2976C42.1758 98.3738 42.1992 98.447 42.2227 98.5173C42.2461 98.5876 42.2695 98.6433 42.293 98.6843C42.3164 98.7429 42.3574 98.8162 42.416 98.9041C42.4805 98.9919 42.5508 99.0798 42.627 99.1677C42.7031 99.2498 42.7793 99.323 42.8555 99.3875C42.9375 99.4519 43.0137 99.4929 43.084 99.5105C43.0957 99.5105 43.1221 99.5222 43.1631 99.5457C43.2041 99.5632 43.2393 99.572 43.2686 99.572C43.3096 99.572 43.3301 99.575 43.3301 99.5808C43.3945 99.5867 43.4531 99.6013 43.5059 99.6248C43.5586 99.6423 43.6084 99.6628 43.6553 99.6863C43.7021 99.7039 43.752 99.7214 43.8047 99.739C43.8574 99.7566 43.916 99.7654 43.9805 99.7654H44.1035C44.1094 99.7595 44.1299 99.7478 44.165 99.7302C44.2002 99.7126 44.2354 99.6951 44.2705 99.6775C44.3115 99.6599 44.3467 99.6453 44.376 99.6335C44.4111 99.6218 44.4316 99.616 44.4375 99.616H44.5781C44.6367 99.5984 44.6982 99.5808 44.7627 99.5632C44.8096 99.5515 44.8594 99.5427 44.9121 99.5369C44.9648 99.5251 45.0059 99.5164 45.0352 99.5105C45.1934 99.4578 45.334 99.3611 45.457 99.2205C45.5859 99.074 45.6885 98.9421 45.7646 98.825C45.7705 98.8132 45.7793 98.7869 45.791 98.7458C45.8086 98.7048 45.8232 98.6638 45.835 98.6228C45.8525 98.5759 45.8672 98.532 45.8789 98.491C45.8906 98.45 45.8965 98.4236 45.8965 98.4119C45.9668 98.2302 46.0195 98.0398 46.0547 97.8406C46.0898 97.6414 46.1133 97.4392 46.125 97.2341C46.1367 97.0232 46.1455 96.8152 46.1514 96.6101C46.1572 96.405 46.1689 96.2058 46.1865 96.0125C46.1865 96.0066 46.1895 95.989 46.1953 95.9597C46.2012 95.9246 46.2041 95.8894 46.2041 95.8542C46.21 95.8132 46.2158 95.7781 46.2217 95.7488C46.2275 95.7136 46.2305 95.6902 46.2305 95.6785V95.3093V94.9138C46.2246 94.8669 46.2158 94.782 46.2041 94.6589C46.1924 94.5359 46.1777 94.4041 46.1602 94.2634C46.1484 94.1228 46.1367 93.991 46.125 93.8679C46.1191 93.739 46.1162 93.6482 46.1162 93.5955C46.1045 93.5662 46.0811 93.5105 46.0459 93.4285C46.0107 93.3406 45.9814 93.2849 45.958 93.2615C45.9521 93.2322 45.9434 93.2029 45.9316 93.1736C45.9199 93.1384 45.9082 93.1208 45.8965 93.1208C45.8555 93.0798 45.8174 93.0593 45.7822 93.0593C45.7529 93.0593 45.7266 93.0623 45.7031 93.0681C45.6855 93.074 45.665 93.0769 45.6416 93.0769C45.6123 93.0769 45.5859 93.071 45.5625 93.0593C45.416 93.03 45.2812 92.9949 45.1582 92.9539C45.041 92.9128 44.9326 92.8279 44.833 92.699C44.8213 92.6697 44.8125 92.6492 44.8066 92.6375C44.8066 92.6257 44.8066 92.5994 44.8066 92.5583C44.8066 92.5466 44.8096 92.5349 44.8154 92.5232C44.8213 92.5056 44.8271 92.491 44.833 92.4792C44.9268 92.3621 45.041 92.2917 45.1758 92.2683C45.3105 92.239 45.4512 92.2244 45.5977 92.2244C45.7031 92.2244 45.8086 92.2302 45.9141 92.2419C46.0195 92.2478 46.1221 92.2507 46.2217 92.2507C46.2686 92.2507 46.3359 92.2419 46.4238 92.2244C46.5176 92.2068 46.5967 92.198 46.6611 92.198H47.2061C47.2588 92.198 47.3203 92.1951 47.3906 92.1892C47.4668 92.1833 47.543 92.1804 47.6191 92.1804C47.7363 92.1804 47.8506 92.1892 47.9619 92.2068C48.0732 92.2244 48.167 92.2595 48.2432 92.3123C48.2549 92.3298 48.2607 92.3621 48.2607 92.4089C48.2666 92.4558 48.2695 92.4851 48.2695 92.4968C48.2695 92.614 48.2402 92.7048 48.1816 92.7693C48.1289 92.8279 48.0586 92.8748 47.9707 92.9099C47.8887 92.9392 47.7979 92.9626 47.6982 92.9802C47.6045 92.9978 47.5166 93.0242 47.4346 93.0593C47.3408 93.1003 47.2646 93.1648 47.2061 93.2527C47.1475 93.3406 47.1182 93.4373 47.1182 93.5427C47.1182 93.6365 47.127 93.7185 47.1445 93.7888C47.168 93.8591 47.1797 93.9412 47.1797 94.0349V94.1843C47.1797 94.2019 47.168 94.24 47.1445 94.2986C47.127 94.3572 47.1182 94.3894 47.1182 94.3953V94.615V95.1248C47.1123 95.1892 47.1064 95.3005 47.1006 95.4587C47.0947 95.6169 47.0859 95.7869 47.0742 95.9685C47.0684 96.1443 47.0625 96.3113 47.0566 96.4695C47.0508 96.6277 47.0449 96.739 47.0391 96.8035C47.0098 96.8621 46.9893 96.9207 46.9775 96.9792C46.9658 97.032 46.957 97.0876 46.9512 97.1462C46.9453 97.199 46.9395 97.2517 46.9336 97.3044C46.9336 97.3572 46.9248 97.4128 46.9072 97.4714C46.9014 97.489 46.8926 97.5212 46.8809 97.5681C46.8691 97.6091 46.8545 97.656 46.8369 97.7087C46.8252 97.7615 46.8135 97.8113 46.8018 97.8582C46.79 97.8992 46.7842 97.9255 46.7842 97.9373C46.7725 97.949 46.7637 97.9783 46.7578 98.0251C46.752 98.0662 46.7461 98.1101 46.7402 98.157C46.7402 98.198 46.7344 98.239 46.7227 98.28C46.7168 98.3152 46.7109 98.3328 46.7051 98.3328C46.7051 98.3503 46.6846 98.3914 46.6436 98.4558C46.6025 98.5144 46.5791 98.5496 46.5732 98.5613C46.5615 98.573 46.541 98.6111 46.5117 98.6755C46.4824 98.74 46.4473 98.8103 46.4062 98.8865C46.3711 98.9626 46.3359 99.033 46.3008 99.0974C46.2656 99.1619 46.2422 99.2029 46.2305 99.2205C46.125 99.4197 45.9873 99.5984 45.8174 99.7566C45.6533 99.9148 45.4775 100.076 45.29 100.24C45.2666 100.258 45.2314 100.284 45.1846 100.319C45.1377 100.348 45.0879 100.381 45.0352 100.416C44.9883 100.451 44.9443 100.483 44.9033 100.512C44.8623 100.536 44.8389 100.551 44.833 100.556H44.5781C44.4668 100.568 44.3672 100.58 44.2793 100.592C44.1973 100.609 44.1152 100.624 44.0332 100.635C43.9512 100.653 43.8662 100.668 43.7783 100.679C43.6904 100.691 43.5908 100.697 43.4795 100.697H42.9521C42.8877 100.668 42.8203 100.647 42.75 100.635C42.6797 100.624 42.6094 100.612 42.5391 100.6C42.4746 100.594 42.4102 100.583 42.3457 100.565C42.2812 100.553 42.2197 100.53 42.1611 100.495C42.1436 100.489 42.1055 100.469 42.0469 100.433C41.9883 100.392 41.9209 100.345 41.8447 100.293C41.7744 100.24 41.7041 100.19 41.6338 100.143C41.5635 100.091 41.5107 100.047 41.4756 100.011L41.4141 99.9675C41.3672 99.8914 41.3174 99.8269 41.2646 99.7742C41.2119 99.7156 41.1592 99.6599 41.1064 99.6072C41.0537 99.5544 41.001 99.4988 40.9482 99.4402C40.9014 99.3757 40.8604 99.3025 40.8252 99.2205C40.7021 98.9392 40.6143 98.6375 40.5615 98.3152C40.5146 97.9871 40.4912 97.6648 40.4912 97.3484C40.4854 97.2781 40.4795 97.1814 40.4736 97.0583C40.4736 96.9294 40.4736 96.783 40.4736 96.6189C40.4736 96.449 40.4736 96.2673 40.4736 96.074C40.4736 95.8806 40.4736 95.6814 40.4736 95.4763C40.4736 95.2771 40.4736 95.0808 40.4736 94.8875C40.4736 94.6941 40.4736 94.5154 40.4736 94.3513C40.4736 94.1814 40.4736 94.032 40.4736 93.9031C40.4795 93.7683 40.4854 93.6658 40.4912 93.5955ZM54.1318 93.5603C54.1787 93.5369 54.2109 93.4958 54.2285 93.4373C54.2461 93.3787 54.2549 93.3201 54.2549 93.2615C54.2549 93.1384 54.208 93.0535 54.1143 93.0066C54.0264 92.9539 53.9268 92.9158 53.8154 92.8923C53.71 92.863 53.6104 92.8337 53.5166 92.8044C53.4287 92.7693 53.3848 92.7078 53.3848 92.6199C53.3848 92.5906 53.3965 92.5671 53.4199 92.5496C53.4434 92.5261 53.4727 92.5085 53.5078 92.4968C53.543 92.4792 53.5781 92.4646 53.6133 92.4529C53.6543 92.4412 53.6895 92.4294 53.7188 92.4177C53.748 92.406 53.7949 92.3943 53.8594 92.3826C53.9297 92.3708 53.9707 92.365 53.9824 92.365H55.5293C55.6348 92.3181 55.7373 92.2917 55.8369 92.2859C55.9365 92.2742 56.0361 92.2683 56.1357 92.2683C56.2119 92.2683 56.2822 92.2712 56.3467 92.2771C56.417 92.2771 56.4756 92.2859 56.5225 92.3035C56.5752 92.321 56.6162 92.3533 56.6455 92.4001C56.6748 92.447 56.6895 92.5144 56.6895 92.6023C56.6895 92.7253 56.6543 92.8191 56.584 92.8835C56.5195 92.948 56.4375 92.9978 56.3379 93.033C56.2383 93.0623 56.1328 93.0857 56.0215 93.1033C55.916 93.1208 55.8223 93.1414 55.7402 93.1648C55.4766 93.2585 55.2422 93.3845 55.0371 93.5427C54.8379 93.6951 54.6475 93.8826 54.4658 94.1052C54.4482 94.1228 54.416 94.1609 54.3691 94.2195C54.3223 94.2722 54.2695 94.3308 54.2109 94.3953C54.1582 94.4597 54.1084 94.5212 54.0615 94.5798C54.0146 94.6326 53.9824 94.6677 53.9648 94.6853C53.9414 94.7146 53.915 94.7498 53.8857 94.7908C53.8564 94.8318 53.8213 94.8669 53.7803 94.8962C53.7041 94.9607 53.6309 95.0427 53.5605 95.1423C53.4902 95.2419 53.4316 95.3386 53.3848 95.4324C53.3613 95.4734 53.3408 95.5115 53.3232 95.5466C53.3115 95.5818 53.3057 95.6287 53.3057 95.6873C53.3057 95.8103 53.3379 95.9392 53.4023 96.074C53.4668 96.2087 53.5283 96.3347 53.5869 96.4519C53.6104 96.4871 53.6396 96.5398 53.6748 96.6101C53.71 96.6746 53.7451 96.739 53.7803 96.8035C53.8154 96.8679 53.8447 96.9265 53.8682 96.9792C53.8975 97.032 53.915 97.0642 53.9209 97.0759C53.9268 97.0876 53.9473 97.1228 53.9824 97.1814C54.0234 97.2341 54.0674 97.2957 54.1143 97.366C54.1611 97.4304 54.2021 97.4919 54.2373 97.5505C54.2783 97.6091 54.3047 97.6472 54.3164 97.6648L54.5273 98.0603C54.5977 98.2244 54.6709 98.3884 54.7471 98.5525C54.8232 98.7107 54.9053 98.866 54.9932 99.0183C55.0811 99.1648 55.1807 99.3054 55.292 99.4402C55.4033 99.575 55.5322 99.7039 55.6787 99.8269C55.7314 99.8679 55.7988 99.9031 55.8809 99.9324C55.9629 99.9558 56.042 99.9822 56.1182 100.011C56.2002 100.041 56.2676 100.082 56.3203 100.135C56.3789 100.181 56.4082 100.252 56.4082 100.345C56.4082 100.463 56.3701 100.536 56.2939 100.565C56.2236 100.6 56.1416 100.618 56.0479 100.618C55.9951 100.618 55.9395 100.615 55.8809 100.609C55.8281 100.603 55.7812 100.6 55.7402 100.6C55.7168 100.612 55.6582 100.621 55.5645 100.627C55.4707 100.638 55.3682 100.65 55.2568 100.662C55.1514 100.674 55.0518 100.682 54.958 100.688C54.8643 100.694 54.8057 100.697 54.7822 100.697H54.7383C54.7324 100.697 54.7119 100.694 54.6768 100.688C54.6416 100.682 54.6035 100.674 54.5625 100.662C54.5273 100.65 54.4893 100.638 54.4482 100.627C54.4131 100.621 54.3926 100.612 54.3867 100.6C54.3574 100.6 54.2959 100.597 54.2021 100.592C54.1143 100.586 54.0176 100.58 53.9121 100.574C53.8125 100.574 53.7188 100.571 53.6309 100.565C53.543 100.559 53.4873 100.556 53.4639 100.556C53.4404 100.556 53.3906 100.551 53.3145 100.539C53.2441 100.521 53.1973 100.507 53.1738 100.495V100.433C53.1738 100.34 53.1943 100.275 53.2354 100.24C53.2822 100.205 53.3291 100.176 53.376 100.152C53.4287 100.123 53.4756 100.088 53.5166 100.047C53.5635 100.006 53.5869 99.9324 53.5869 99.8269C53.5869 99.7683 53.5693 99.6746 53.5342 99.5457C53.499 99.4167 53.4492 99.2761 53.3848 99.1238C53.3262 98.9656 53.2588 98.8044 53.1826 98.6404C53.1123 98.4763 53.0361 98.3269 52.9541 98.1921C52.8779 98.0574 52.8047 97.946 52.7344 97.8582C52.6641 97.7703 52.6025 97.7263 52.5498 97.7263C52.4502 97.7263 52.3682 97.7556 52.3037 97.8142C52.2393 97.8669 52.1836 97.9343 52.1367 98.0164C52.0898 98.0925 52.0488 98.1746 52.0137 98.2625C51.9785 98.3503 51.9434 98.4265 51.9082 98.491C51.8906 98.5203 51.8467 98.5906 51.7764 98.7019C51.7061 98.8074 51.627 98.9246 51.5391 99.0535C51.457 99.1824 51.3779 99.3025 51.3018 99.4138C51.2314 99.5251 51.1875 99.5925 51.1699 99.616C51.1582 99.6218 51.1436 99.6423 51.126 99.6775C51.1143 99.7068 51.1025 99.7273 51.0908 99.739V99.8005C51.0908 99.8826 51.126 99.9412 51.1963 99.9763C51.2666 100.011 51.3486 100.044 51.4424 100.073C51.5361 100.096 51.6299 100.129 51.7236 100.17C51.8232 100.205 51.8994 100.263 51.9521 100.345C51.9521 100.422 51.9316 100.474 51.8906 100.504C51.8555 100.527 51.8115 100.545 51.7588 100.556H49.2979C49.251 100.556 49.2217 100.539 49.21 100.504C49.2041 100.463 49.2012 100.433 49.2012 100.416V100.345C49.2715 100.263 49.3506 100.196 49.4385 100.143C49.5322 100.091 49.626 100.044 49.7197 100.003C49.8193 99.9617 49.9189 99.9236 50.0186 99.8884C50.1182 99.8474 50.2119 99.7976 50.2998 99.739C50.3232 99.7156 50.3701 99.6716 50.4404 99.6072C50.5107 99.5369 50.584 99.4636 50.6602 99.3875C50.7422 99.3113 50.8184 99.238 50.8887 99.1677C50.9648 99.0974 51.0176 99.0476 51.0469 99.0183C51.1992 98.8425 51.3281 98.6609 51.4336 98.4734C51.5449 98.28 51.6533 98.0837 51.7588 97.8845C51.7705 97.8669 51.7969 97.8406 51.8379 97.8054C51.8789 97.7644 51.9023 97.738 51.9082 97.7263C51.9258 97.7029 51.9492 97.6707 51.9785 97.6296C52.0137 97.5828 52.043 97.5388 52.0664 97.4978C52.0957 97.4568 52.1191 97.4216 52.1367 97.3923C52.1602 97.3572 52.1719 97.3367 52.1719 97.3308C52.1719 97.3308 52.1719 97.3162 52.1719 97.2869C52.1777 97.2517 52.1807 97.2136 52.1807 97.1726C52.1865 97.1316 52.1895 97.0935 52.1895 97.0583C52.1953 97.0173 52.1982 96.988 52.1982 96.9705C52.1982 96.9529 52.1953 96.9265 52.1895 96.8914C52.1895 96.8562 52.1865 96.8181 52.1807 96.7771C52.1807 96.7361 52.1777 96.698 52.1719 96.6628C52.1719 96.6218 52.1719 96.5955 52.1719 96.5837C52.0078 96.4841 51.8848 96.3699 51.8027 96.241C51.7207 96.1062 51.6445 95.9539 51.5742 95.7839C51.5684 95.7664 51.5508 95.7341 51.5215 95.6873C51.4922 95.6404 51.4629 95.5935 51.4336 95.5466C51.4043 95.4939 51.375 95.447 51.3457 95.406C51.3223 95.3591 51.3076 95.3328 51.3018 95.3269C51.2783 95.28 51.2432 95.2068 51.1963 95.1072C51.1553 95.0076 51.1201 94.9373 51.0908 94.8962C51.0791 94.8904 51.0674 94.8728 51.0557 94.8435C51.0439 94.8083 51.0322 94.7732 51.0205 94.738C51.0088 94.7029 50.9971 94.6677 50.9854 94.6326C50.9795 94.5974 50.9736 94.574 50.9678 94.5623L50.9502 94.5447C50.9443 94.5388 50.9355 94.5359 50.9238 94.5359C50.918 94.53 50.9121 94.5212 50.9062 94.5095C50.8828 94.4919 50.8623 94.4744 50.8447 94.4568C50.7275 94.3103 50.6338 94.158 50.5635 93.9998C50.499 93.8416 50.4111 93.6951 50.2998 93.5603C50.2236 93.4724 50.1445 93.3962 50.0625 93.3318C49.9805 93.2615 49.8955 93.197 49.8076 93.1384C49.7256 93.0798 49.6406 93.0212 49.5527 92.9626C49.4648 92.9041 49.3799 92.8367 49.2979 92.7605C49.251 92.7312 49.2217 92.696 49.21 92.655C49.2041 92.6082 49.2012 92.5613 49.2012 92.5144C49.2012 92.45 49.2158 92.4089 49.2451 92.3914C49.2744 92.3738 49.3213 92.365 49.3857 92.365H49.4209C49.4209 92.365 49.4326 92.3679 49.4561 92.3738C49.4854 92.3796 49.5146 92.3855 49.5439 92.3914C49.5791 92.3972 49.6084 92.4031 49.6318 92.4089C49.6611 92.4148 49.6816 92.4177 49.6934 92.4177H49.7373C50.1123 92.4177 50.4814 92.406 50.8447 92.3826C51.2139 92.3591 51.583 92.3474 51.9521 92.3474C52.0928 92.3474 52.1953 92.365 52.2598 92.4001C52.3301 92.4294 52.3652 92.5115 52.3652 92.6462C52.3652 92.7634 52.3418 92.8455 52.2949 92.8923C52.248 92.9333 52.1953 92.9656 52.1367 92.989C52.0781 93.0125 52.0254 93.0417 51.9785 93.0769C51.9316 93.1121 51.9082 93.1824 51.9082 93.2878C51.9082 93.3347 51.9258 93.3962 51.9609 93.4724C51.9961 93.5427 52.0254 93.5925 52.0488 93.6218C52.0664 93.6511 52.1045 93.7244 52.1631 93.8416C52.2275 93.9529 52.2949 94.0759 52.3652 94.2107C52.4414 94.3396 52.5117 94.4597 52.5762 94.571C52.6406 94.6824 52.6816 94.7527 52.6992 94.782C52.7402 94.8406 52.7754 94.8875 52.8047 94.9226C52.8398 94.9578 52.8809 94.9753 52.9277 94.9753C52.998 94.9753 53.0771 94.946 53.165 94.8875C53.2588 94.823 53.3789 94.7351 53.5254 94.6238C53.584 94.5769 53.6426 94.5037 53.7012 94.4041C53.7656 94.2986 53.8242 94.1931 53.877 94.0876C53.9297 93.9763 53.9766 93.8708 54.0176 93.7712C54.0645 93.6716 54.1025 93.6013 54.1318 93.5603ZM65.2764 100.539C65.2529 100.539 65.2178 100.542 65.1709 100.548C65.1299 100.548 65.0859 100.548 65.0391 100.548C64.998 100.548 64.96 100.551 64.9248 100.556C64.8896 100.556 64.8721 100.556 64.8721 100.556L64.6611 100.635L63.5801 100.574H61.2773C61.1895 100.545 61.1133 100.524 61.0488 100.512C60.9902 100.501 60.9199 100.495 60.8379 100.495C60.7734 100.495 60.7236 100.498 60.6885 100.504C60.6533 100.51 60.6064 100.527 60.5479 100.556C60.4893 100.556 60.3896 100.553 60.249 100.548C60.1143 100.542 59.9707 100.539 59.8184 100.539C59.666 100.539 59.5195 100.542 59.3789 100.548C59.2441 100.553 59.1533 100.556 59.1064 100.556C59.0889 100.556 59.0566 100.559 59.0098 100.565C58.9688 100.571 58.9219 100.574 58.8691 100.574C58.8223 100.58 58.7754 100.586 58.7285 100.592C58.6875 100.597 58.6611 100.6 58.6494 100.6C58.6318 100.606 58.6113 100.609 58.5879 100.609C58.5703 100.615 58.5527 100.618 58.5352 100.618C58.5234 100.618 58.5117 100.618 58.5 100.618C58.3418 100.618 58.2217 100.6 58.1396 100.565C58.0635 100.536 57.9961 100.442 57.9375 100.284C57.9141 100.284 57.9023 100.278 57.9023 100.266C57.8965 100.26 57.8965 100.252 57.9023 100.24C57.9023 100.193 57.917 100.143 57.9463 100.091C57.9814 100.032 58.0225 99.9792 58.0693 99.9324C58.1221 99.8855 58.1748 99.8474 58.2275 99.8181C58.2861 99.783 58.3418 99.7654 58.3945 99.7654H59.2295C59.2412 99.7654 59.2793 99.7332 59.3438 99.6687C59.4082 99.5984 59.4609 99.5457 59.502 99.5105C59.5137 99.4988 59.5254 99.4753 59.5371 99.4402C59.5547 99.3992 59.5635 99.3699 59.5635 99.3523C59.6338 99.0066 59.6748 98.6638 59.6865 98.324C59.6982 97.9841 59.7041 97.6296 59.7041 97.2605C59.7041 97.2312 59.7041 97.1667 59.7041 97.0671C59.71 96.9617 59.7129 96.8386 59.7129 96.698C59.7188 96.5574 59.7246 96.4109 59.7305 96.2585C59.7363 96.1003 59.7393 95.9509 59.7393 95.8103C59.7451 95.6697 59.748 95.5496 59.748 95.45C59.7539 95.3445 59.7568 95.2742 59.7568 95.239V94.7644C59.7568 94.2957 59.748 93.8328 59.7305 93.3757C59.7129 92.9187 59.7041 92.4646 59.7041 92.0134V91.9519C59.7041 91.9343 59.707 91.8904 59.7129 91.8201C59.7188 91.7439 59.7246 91.6648 59.7305 91.5828C59.7363 91.5007 59.7422 91.4246 59.748 91.3542C59.7539 91.2839 59.7568 91.24 59.7568 91.2224C59.7627 91.1697 59.7686 91.0789 59.7744 90.95C59.7803 90.8152 59.7861 90.6746 59.792 90.5281C59.7979 90.3757 59.8037 90.2351 59.8096 90.1062C59.8154 89.9773 59.8184 89.8865 59.8184 89.8337C59.7891 89.7458 59.7715 89.655 59.7656 89.5613C59.7598 89.4617 59.751 89.3679 59.7393 89.28C59.7275 89.1863 59.7041 89.0984 59.6689 89.0164C59.6338 88.9343 59.5781 88.864 59.502 88.8054C59.4668 88.7996 59.4053 88.7937 59.3174 88.7878C59.2295 88.782 59.1357 88.7791 59.0361 88.7791C58.9424 88.7732 58.8516 88.7673 58.7637 88.7615C58.6758 88.7556 58.6172 88.7498 58.5879 88.7439C58.4941 88.7322 58.3916 88.7175 58.2803 88.7C58.1689 88.6765 58.0664 88.6443 57.9727 88.6033C57.8789 88.5564 57.7998 88.4949 57.7354 88.4187C57.6768 88.3425 57.6475 88.2429 57.6475 88.1199L57.6826 88.1023C57.6943 88.0964 57.7031 88.0906 57.709 88.0847C57.7148 88.0789 57.7236 88.0759 57.7354 88.0759C57.876 87.9939 58.002 87.9412 58.1133 87.9177C58.2246 87.8884 58.3682 87.8738 58.5439 87.8738H58.5879C58.6055 87.8914 58.623 87.906 58.6406 87.9177C58.6758 87.9412 58.6992 87.9529 58.7109 87.9529C59.0039 87.9763 59.2969 87.9939 59.5898 88.0056C59.8828 88.0115 60.1787 88.0144 60.4775 88.0144C60.7236 88.0144 60.9639 88.0115 61.1982 88.0056C61.4326 87.9998 61.6641 87.9968 61.8926 87.9968H63.835C63.8584 87.9968 63.8965 87.9939 63.9492 87.988C64.002 87.9822 64.0576 87.9792 64.1162 87.9792C64.1807 87.9734 64.2422 87.9675 64.3008 87.9617C64.3594 87.9558 64.4033 87.9529 64.4326 87.9529H64.4941H64.5469C64.5645 87.9529 64.6055 87.9558 64.6699 87.9617C64.7344 87.9675 64.8047 87.9734 64.8809 87.9792C64.957 87.9792 65.0273 87.9822 65.0918 87.988C65.1621 87.9939 65.2061 87.9968 65.2236 87.9968H66.2695C66.3164 88.0027 66.3838 88.0085 66.4717 88.0144C66.5654 88.0203 66.6562 88.0261 66.7441 88.032C66.8379 88.0378 66.9199 88.0466 66.9902 88.0583C67.0605 88.0642 67.0986 88.0701 67.1045 88.0759C67.1104 88.0759 67.1338 88.0847 67.1748 88.1023C67.2158 88.1199 67.2598 88.1433 67.3066 88.1726C67.3594 88.196 67.4092 88.2224 67.4561 88.2517C67.5088 88.281 67.5498 88.3074 67.5791 88.3308C67.6377 88.366 67.6846 88.4509 67.7197 88.5857C67.7607 88.7146 67.793 88.8582 67.8164 89.0164C67.8398 89.1746 67.8574 89.3298 67.8691 89.4822C67.8867 89.6345 67.9014 89.7517 67.9131 89.8337C67.9131 89.863 67.916 89.9158 67.9219 89.9919C67.9336 90.0623 67.9424 90.1384 67.9482 90.2205C67.9541 90.3025 67.96 90.3816 67.9658 90.4578C67.9717 90.5339 67.9746 90.5867 67.9746 90.616V90.8533V91.0994C67.9453 91.1521 67.9072 91.1873 67.8604 91.2048C67.8135 91.2166 67.7637 91.2224 67.7109 91.2224H67.6494C67.585 91.1814 67.5381 91.1404 67.5088 91.0994C67.4795 91.0583 67.4561 91.0173 67.4385 90.9763C67.4209 90.9294 67.4033 90.8826 67.3857 90.8357C67.374 90.7888 67.3506 90.739 67.3154 90.6863C67.3154 90.6804 67.3037 90.6687 67.2803 90.6511C67.2627 90.6277 67.2422 90.6042 67.2188 90.5808C67.1953 90.5574 67.1719 90.5369 67.1484 90.5193C67.125 90.4958 67.1104 90.4812 67.1045 90.4753C67.0225 90.3582 66.9404 90.2263 66.8584 90.0798C66.7822 89.9275 66.6914 89.7869 66.5859 89.658C66.5801 89.6462 66.5596 89.6257 66.5244 89.5964C66.4951 89.5671 66.4746 89.5408 66.4629 89.5173C66.457 89.5056 66.4365 89.4968 66.4014 89.491C66.3662 89.4792 66.3428 89.4675 66.3311 89.4558C66.2607 89.4089 66.2051 89.3562 66.1641 89.2976C66.123 89.239 66.0791 89.1833 66.0322 89.1306C65.9912 89.072 65.9443 89.0164 65.8916 88.9636C65.8389 88.9109 65.7656 88.8669 65.6719 88.8318C65.625 88.8318 65.5342 88.8289 65.3994 88.823C65.2705 88.8113 65.1328 88.8025 64.9863 88.7966C64.8398 88.7849 64.6992 88.7761 64.5645 88.7703C64.4355 88.7585 64.3447 88.7498 64.292 88.7439H63.835C63.8291 88.7439 63.8027 88.741 63.7559 88.7351C63.7148 88.7234 63.668 88.7146 63.6152 88.7087C63.5625 88.697 63.5127 88.6882 63.4658 88.6824C63.4189 88.6707 63.3896 88.6648 63.3779 88.6648H63.2461H63.123C63.0996 88.6648 63.0469 88.6707 62.9648 88.6824C62.8887 88.6882 62.8037 88.697 62.71 88.7087C62.6221 88.7146 62.5371 88.7234 62.4551 88.7351C62.3789 88.741 62.332 88.7439 62.3145 88.7439H61.7959C61.7725 88.7439 61.7461 88.7527 61.7168 88.7703C61.6875 88.782 61.6729 88.7937 61.6729 88.8054V89.8953C61.667 90.0828 61.6406 90.2615 61.5938 90.4314C61.5469 90.6013 61.5234 90.7742 61.5234 90.95C61.5234 91.2136 61.5352 91.4802 61.5586 91.7498C61.5879 92.0134 61.6025 92.283 61.6025 92.5583C61.6025 92.7458 61.5879 92.9363 61.5586 93.1296C61.5352 93.323 61.5234 93.5222 61.5234 93.7273V93.7888C61.541 93.8064 61.5645 93.8328 61.5938 93.8679C61.623 93.8972 61.6494 93.9119 61.6729 93.9119H61.8926H62.1211C62.1328 93.9119 62.1592 93.9089 62.2002 93.9031C62.2412 93.8914 62.2852 93.8826 62.332 93.8767C62.3789 93.865 62.4199 93.8562 62.4551 93.8503C62.4961 93.8386 62.5195 93.8328 62.5254 93.8328H63.3076C63.3486 93.8328 63.4219 93.8298 63.5273 93.824C63.6387 93.8181 63.7529 93.8152 63.8701 93.8152C63.9932 93.8093 64.1074 93.8035 64.2129 93.7976C64.3184 93.7917 64.3916 93.7888 64.4326 93.7888C64.5205 93.7126 64.585 93.6013 64.626 93.4548C64.667 93.3025 64.708 93.1765 64.749 93.0769C64.7549 93.0593 64.7607 93.0183 64.7666 92.9539C64.7783 92.8835 64.79 92.8103 64.8018 92.7341C64.8135 92.658 64.8252 92.5876 64.8369 92.5232C64.8486 92.4529 64.8604 92.4089 64.8721 92.3914C64.8721 92.3855 64.8779 92.3708 64.8896 92.3474C64.9072 92.3181 64.9248 92.2917 64.9424 92.2683C64.96 92.239 64.9746 92.2126 64.9863 92.1892C65.0039 92.1658 65.0156 92.1511 65.0215 92.1453C65.0449 92.0691 65.0596 91.9871 65.0654 91.8992C65.0713 91.8113 65.0859 91.7322 65.1094 91.6619C65.1328 91.5857 65.1709 91.5242 65.2236 91.4773C65.2764 91.4304 65.3613 91.407 65.4785 91.407C65.6074 91.407 65.6924 91.4363 65.7334 91.4949C65.7744 91.5535 65.7949 91.6501 65.7949 91.7849C65.7949 91.8318 65.792 91.8669 65.7861 91.8904C65.7803 91.908 65.7686 91.949 65.751 92.0134C65.751 92.0193 65.748 92.0339 65.7422 92.0574C65.7363 92.0808 65.7334 92.1072 65.7334 92.1365C65.7334 92.1833 65.7363 92.2273 65.7422 92.2683C65.748 92.3035 65.751 92.3298 65.751 92.3474C65.7451 92.3826 65.7393 92.4558 65.7334 92.5671C65.7275 92.6785 65.7188 92.8074 65.707 92.9539C65.6953 93.1003 65.6836 93.2585 65.6719 93.4285C65.6602 93.5925 65.6484 93.7507 65.6367 93.9031C65.625 94.0496 65.6133 94.1785 65.6016 94.2898C65.5957 94.4011 65.5898 94.4773 65.584 94.5183C65.584 94.53 65.5869 94.5857 65.5928 94.6853C65.5986 94.7791 65.6016 94.8757 65.6016 94.9753C65.6016 95.0222 65.5957 95.075 65.584 95.1335C65.5723 95.1863 65.5635 95.2214 65.5576 95.239C65.5576 95.239 65.5518 95.2537 65.54 95.283C65.5342 95.3123 65.5254 95.3474 65.5137 95.3884C65.5078 95.4236 65.499 95.4587 65.4873 95.4939C65.4814 95.5232 65.4785 95.5437 65.4785 95.5554C65.4785 95.573 65.4814 95.614 65.4873 95.6785C65.4932 95.7429 65.499 95.8132 65.5049 95.8894C65.5166 95.9597 65.5254 96.0271 65.5312 96.0916C65.5371 96.1501 65.54 96.1882 65.54 96.2058C65.54 96.2292 65.54 96.2644 65.54 96.3113C65.5459 96.3523 65.5488 96.3962 65.5488 96.4431C65.5488 96.4841 65.5488 96.5251 65.5488 96.5662C65.5547 96.6072 65.5576 96.6394 65.5576 96.6628C65.5576 96.7625 65.5459 96.8533 65.5225 96.9353C65.5049 97.0173 65.4639 97.1082 65.3994 97.2078C65.3936 97.2371 65.3643 97.2693 65.3115 97.3044C65.2646 97.3337 65.2354 97.3484 65.2236 97.3484C65.2119 97.3484 65.1797 97.3337 65.127 97.3044C65.0742 97.2693 65.0391 97.2371 65.0215 97.2078C64.9219 97.1257 64.8516 97.0115 64.8105 96.865C64.7754 96.7185 64.752 96.5603 64.7402 96.3904C64.7285 96.2146 64.7227 96.0359 64.7227 95.8542C64.7227 95.6726 64.7109 95.5056 64.6875 95.3533C64.6699 95.1951 64.6318 95.0632 64.5732 94.9578C64.5146 94.8523 64.4209 94.7878 64.292 94.7644C64.2451 94.7761 64.1719 94.782 64.0723 94.782C63.9727 94.782 63.8643 94.782 63.7471 94.782C63.624 94.782 63.5068 94.782 63.3955 94.782C63.29 94.782 63.2197 94.7761 63.1846 94.7644C63.1553 94.7644 63.1084 94.7615 63.0439 94.7556C62.9795 94.7498 62.9121 94.7468 62.8418 94.7468C62.7773 94.741 62.7129 94.7351 62.6484 94.7292C62.5898 94.7234 62.5488 94.7205 62.5254 94.7205C62.5195 94.7029 62.4961 94.6824 62.4551 94.6589C62.4141 94.6355 62.3877 94.6238 62.376 94.6238H62.2881C62.1357 94.6238 61.9893 94.6619 61.8486 94.738C61.7139 94.8083 61.6318 94.9226 61.6025 95.0808C61.5967 95.1218 61.582 95.2039 61.5586 95.3269C61.541 95.4441 61.5205 95.573 61.4971 95.7136C61.4795 95.8542 61.459 95.9919 61.4355 96.1267C61.418 96.2556 61.4062 96.3523 61.4004 96.4167V96.4695V96.531C61.4004 96.5779 61.4033 96.6541 61.4092 96.7595C61.415 96.865 61.4209 96.9792 61.4268 97.1023C61.4326 97.2195 61.4385 97.3337 61.4443 97.4451C61.4561 97.5505 61.4619 97.6238 61.4619 97.6648C61.4912 97.7117 61.5088 97.7468 61.5146 97.7703C61.5205 97.7937 61.5234 97.8201 61.5234 97.8494C61.5234 98.0779 61.5117 98.3005 61.4883 98.5173C61.4648 98.7341 61.4531 98.9626 61.4531 99.2029C61.4531 99.2263 61.4531 99.2761 61.4531 99.3523C61.459 99.4285 61.4619 99.4812 61.4619 99.5105C61.4678 99.5222 61.4824 99.5427 61.5059 99.572C61.5293 99.5955 61.5527 99.6218 61.5762 99.6511C61.6055 99.6746 61.6348 99.698 61.6641 99.7214C61.6934 99.7449 61.7139 99.7595 61.7256 99.7654C61.7314 99.7771 61.7578 99.7859 61.8047 99.7917C61.8574 99.7976 61.916 99.8035 61.9805 99.8093C62.0449 99.8093 62.1064 99.8152 62.165 99.8269C62.2295 99.8328 62.2793 99.8386 62.3145 99.8445C62.3848 99.8445 62.5049 99.8474 62.6748 99.8533C62.8506 99.8591 63.0352 99.865 63.2285 99.8708C63.4277 99.8767 63.6123 99.8826 63.7822 99.8884C63.958 99.8884 64.0811 99.8884 64.1514 99.8884C64.2217 99.9177 64.292 99.9382 64.3623 99.95C64.4385 99.9617 64.5117 99.9675 64.582 99.9675H64.8281H65.2236C65.2295 99.9675 65.25 99.9646 65.2852 99.9587C65.3203 99.947 65.3584 99.9382 65.3994 99.9324C65.4463 99.9207 65.4873 99.9119 65.5225 99.906C65.5576 99.8943 65.5781 99.8884 65.584 99.8884H67.2539C67.3184 99.8708 67.3799 99.8386 67.4385 99.7917C67.4971 99.739 67.5527 99.6833 67.6055 99.6248C67.6582 99.5603 67.7051 99.4958 67.7461 99.4314C67.7871 99.3611 67.8223 99.2996 67.8516 99.2468C67.8691 99.2292 67.8926 99.1882 67.9219 99.1238C67.957 99.0593 67.9893 98.9919 68.0186 98.9216C68.0537 98.8455 68.0859 98.7751 68.1152 98.7107C68.1445 98.6462 68.1621 98.6082 68.168 98.5964C68.1797 98.5789 68.2061 98.5437 68.2471 98.491C68.2881 98.4382 68.3086 98.406 68.3086 98.3943C68.3145 98.3826 68.3262 98.3503 68.3438 98.2976C68.3613 98.2449 68.3701 98.2126 68.3701 98.2009C68.376 98.1951 68.3906 98.1775 68.4141 98.1482C68.4434 98.1189 68.4727 98.0896 68.502 98.0603C68.5312 98.031 68.5576 98.0017 68.5811 97.9724C68.6045 97.9431 68.6191 97.9226 68.625 97.9109C68.6309 97.905 68.6426 97.8875 68.6602 97.8582C68.6836 97.823 68.7041 97.7849 68.7217 97.7439C68.7451 97.697 68.7627 97.656 68.7744 97.6208C68.792 97.5798 68.8037 97.5535 68.8096 97.5417C68.8213 97.5183 68.8535 97.4832 68.9062 97.4363C68.9648 97.3894 68.9971 97.3601 69.0029 97.3484C69.0146 97.3367 69.0293 97.3279 69.0469 97.322C69.0645 97.3103 69.0791 97.2986 69.0908 97.2869C69.1084 97.2751 69.126 97.2664 69.1436 97.2605C69.167 97.2722 69.2021 97.3015 69.249 97.3484C69.2959 97.3953 69.3311 97.4304 69.3545 97.4539V97.4978C69.3545 97.5681 69.3428 97.6355 69.3193 97.7C69.3018 97.7644 69.293 97.8289 69.293 97.8933C69.293 97.9753 69.3018 98.0486 69.3193 98.113C69.3428 98.1716 69.3545 98.2419 69.3545 98.324V98.3943C69.3545 98.4119 69.3428 98.4441 69.3193 98.491C69.3018 98.5378 69.293 98.573 69.293 98.5964V99.6248C69.2871 99.6951 69.2783 99.7859 69.2666 99.8972C69.2549 100.003 69.2314 100.105 69.1963 100.205C69.1611 100.299 69.1113 100.381 69.0469 100.451C68.9824 100.521 68.8975 100.556 68.792 100.556H68.748C68.7305 100.551 68.7012 100.545 68.6602 100.539C68.6191 100.533 68.5781 100.527 68.5371 100.521C68.4961 100.515 68.458 100.51 68.4229 100.504C68.3936 100.498 68.376 100.495 68.3701 100.495L68.3174 100.46C68.2822 100.436 68.2646 100.422 68.2646 100.416H68.2119H68.168C67.9629 100.486 67.7695 100.521 67.5879 100.521C67.4062 100.521 67.2158 100.533 67.0166 100.556C66.999 100.556 66.9668 100.559 66.9199 100.565C66.873 100.571 66.8203 100.577 66.7617 100.583C66.709 100.594 66.6592 100.606 66.6123 100.618C66.5654 100.63 66.5361 100.638 66.5244 100.644H66.4805C66.375 100.644 66.2754 100.63 66.1816 100.6C66.0938 100.571 65.9912 100.556 65.874 100.556C65.8623 100.556 65.8301 100.556 65.7773 100.556C65.7305 100.551 65.6748 100.548 65.6104 100.548C65.5518 100.548 65.4902 100.548 65.4258 100.548C65.3672 100.542 65.3174 100.539 65.2764 100.539Z" fill="#151618"/>
</svg>
