<svg width="49" height="48" viewBox="0 0 49 48" fill="none" xmlns="http://www.w3.org/2000/svg">
<rect x="0.5" width="48" height="48" rx="24" fill="white"/>
<path d="M34.4999 28.9201V31.9201C34.5011 32.1986 34.444 32.4743 34.3325 32.7294C34.2209 32.9846 34.0572 33.2137 33.852 33.402C33.6468 33.5902 33.4045 33.7336 33.1407 33.8228C32.8769 33.912 32.5973 33.9452 32.3199 33.9201C29.2428 33.5857 26.2869 32.5342 23.6899 30.8501C21.2738 29.3148 19.2253 27.2663 17.6899 24.8501C15.9999 22.2413 14.9482 19.2711 14.6199 16.1801C14.5949 15.9036 14.6278 15.6249 14.7164 15.3617C14.8051 15.0986 14.9475 14.8568 15.1347 14.6517C15.3219 14.4466 15.5497 14.2828 15.8037 14.1706C16.0577 14.0584 16.3323 14.0004 16.6099 14.0001H19.6099C20.0952 13.9953 20.5657 14.1672 20.9337 14.4836C21.3017 14.8001 21.542 15.2395 21.6099 15.7201C21.7366 16.6802 21.9714 17.6228 22.3099 18.5301C22.4445 18.888 22.4736 19.277 22.3938 19.651C22.3141 20.0249 22.1288 20.3682 21.8599 20.6401L20.5899 21.9101C22.0135 24.4136 24.0864 26.4865 26.5899 27.9101L27.8599 26.6401C28.1318 26.3712 28.4751 26.1859 28.8491 26.1062C29.223 26.0264 29.612 26.0556 29.9699 26.1901C30.8772 26.5286 31.8199 26.7635 32.7799 26.8901C33.2657 26.9586 33.7093 27.2033 34.0265 27.5776C34.3436 27.9519 34.5121 28.4297 34.4999 28.9201Z" fill="#15B2F5"/>
</svg>
