<svg width="1440" height="1443" viewBox="0 0 1440 1443" fill="none" xmlns="http://www.w3.org/2000/svg">
<circle cx="345.126" cy="470.784" r="484.25" transform="rotate(-46.2913 345.126 470.784)" stroke="#333842" stroke-opacity="0.24" stroke-width="1.5"/>
<circle cx="399.497" cy="468.045" r="484.25" transform="rotate(-46.2913 399.497 468.045)" stroke="#333842" stroke-opacity="0.24" stroke-width="1.5"/>
<circle cx="453.868" cy="465.306" r="484.25" transform="rotate(-46.2913 453.868 465.306)" stroke="#333842" stroke-opacity="0.24" stroke-width="1.5"/>
<circle cx="508.238" cy="462.566" r="484.25" transform="rotate(-46.2913 508.238 462.566)" stroke="#333842" stroke-opacity="0.24" stroke-width="1.5"/>
<circle cx="562.609" cy="459.827" r="484.25" transform="rotate(-46.2913 562.609 459.827)" stroke="#333842" stroke-opacity="0.24" stroke-width="1.5"/>
<circle cx="616.98" cy="457.087" r="484.25" transform="rotate(-46.2913 616.98 457.087)" stroke="#333842" stroke-opacity="0.24" stroke-width="1.5"/>
<circle cx="671.351" cy="454.347" r="484.25" transform="rotate(-46.2913 671.351 454.347)" stroke="#333842" stroke-opacity="0.24" stroke-width="1.5"/>
<circle cx="725.722" cy="451.608" r="484.25" transform="rotate(-46.2913 725.722 451.608)" stroke="#333842" stroke-opacity="0.24" stroke-width="1.5"/>
<circle cx="780.093" cy="448.869" r="484.25" transform="rotate(-46.2913 780.093 448.869)" stroke="#333842" stroke-opacity="0.24" stroke-width="1.5"/>
<circle cx="834.464" cy="446.129" r="484.25" transform="rotate(-46.2913 834.464 446.129)" stroke="#333842" stroke-opacity="0.24" stroke-width="1.5"/>
<circle cx="888.834" cy="443.39" r="484.25" transform="rotate(-46.2913 888.834 443.39)" stroke="#333842" stroke-opacity="0.24" stroke-width="1.5"/>
<circle cx="943.206" cy="440.651" r="484.25" transform="rotate(-46.2913 943.206 440.651)" stroke="#333842" stroke-opacity="0.24" stroke-width="1.5"/>
<circle cx="994.718" cy="438.72" r="484.25" transform="rotate(-46.2913 994.718 438.72)" stroke="#333842" stroke-opacity="0.24" stroke-width="1.5"/>
<circle cx="1046.23" cy="436.789" r="484.25" transform="rotate(-46.2913 1046.23 436.789)" stroke="#333842" stroke-opacity="0.24" stroke-width="1.5"/>
<circle cx="1097.75" cy="434.859" r="484.25" transform="rotate(-46.2913 1097.75 434.859)" stroke="#333842" stroke-opacity="0.24" stroke-width="1.5"/>
<circle cx="1149.26" cy="432.928" r="484.25" transform="rotate(-46.2913 1149.26 432.928)" stroke="#333842" stroke-opacity="0.24" stroke-width="1.5"/>
</svg>
