<svg width="97" height="67" viewBox="0 0 97 67" fill="none" xmlns="http://www.w3.org/2000/svg">
<path d="M2.23633 35.5394V15.5188H7.66817V19.012H7.87857C8.24682 17.7694 8.86497 16.8309 9.73303 16.1966C10.6011 15.5536 11.6006 15.2321 12.7317 15.2321C13.0123 15.2321 13.3148 15.2494 13.6392 15.2842C13.9636 15.3189 14.2486 15.3668 14.4941 15.4276V20.3545C14.2311 20.2763 13.8672 20.2068 13.4025 20.146C12.9377 20.0852 12.5125 20.0547 12.1267 20.0547C11.3025 20.0547 10.566 20.2328 9.91716 20.5891C9.27708 20.9367 8.76856 21.4233 8.3915 22.049C8.02325 22.6746 7.83912 23.3958 7.83912 24.2126V35.5394H2.23633ZM17.3909 35.5394V15.5188H22.9936V35.5394H17.3909ZM20.2054 12.9381C19.3724 12.9381 18.6579 12.6643 18.0616 12.1169C17.4742 11.5608 17.1804 10.896 17.1804 10.1227C17.1804 9.35799 17.4742 8.70191 18.0616 8.15449C18.6579 7.59833 19.3724 7.32031 20.2054 7.32031C21.0384 7.32031 21.7486 7.59833 22.336 8.15449C22.9323 8.70191 23.2304 9.35799 23.2304 10.1227C23.2304 10.896 22.9323 11.5608 22.336 12.1169C21.7486 12.6643 21.0384 12.9381 20.2054 12.9381ZM44.2902 21.2278L39.1609 21.5406C39.0732 21.1062 38.8847 20.7151 38.5954 20.3675C38.306 20.0113 37.9246 19.7289 37.4511 19.5203C36.9864 19.3031 36.4297 19.1945 35.7808 19.1945C34.9128 19.1945 34.1806 19.3769 33.5844 19.7419C32.9882 20.0981 32.6901 20.5761 32.6901 21.1757C32.6901 21.6536 32.8829 22.0576 33.2688 22.3879C33.6545 22.7181 34.3165 22.9831 35.2547 23.1829L38.911 23.9128C40.875 24.3126 42.3393 24.9556 43.3038 25.8419C44.2683 26.7282 44.7506 27.8926 44.7506 29.3351C44.7506 30.6472 44.3604 31.7986 43.58 32.7892C42.8084 33.7798 41.7475 34.5531 40.3972 35.1092C39.0557 35.6567 37.5081 35.9304 35.7545 35.9304C33.0802 35.9304 30.9496 35.3786 29.3625 34.2751C27.7843 33.1628 26.8593 31.6508 26.5875 29.7392L32.0982 29.4524C32.2648 30.2605 32.6681 30.8775 33.3082 31.3032C33.9483 31.7204 34.7681 31.9289 35.7677 31.9289C36.7496 31.9289 37.5388 31.742 38.135 31.3684C38.74 30.9861 39.0469 30.4951 39.0557 29.8956C39.0469 29.3916 38.8321 28.9788 38.4112 28.6573C37.9904 28.3271 37.3415 28.0751 36.4647 27.9013L32.9662 27.2105C30.9934 26.8195 29.5248 26.1417 28.5603 25.1772C27.6045 24.2126 27.1267 22.9831 27.1267 21.4885C27.1267 20.2024 27.4774 19.0945 28.1789 18.1648C28.8891 17.235 29.8843 16.5181 31.1644 16.0141C32.4533 15.5101 33.9614 15.2581 35.6888 15.2581C38.2403 15.2581 40.2481 15.7926 41.7124 16.8613C43.1855 17.9301 44.0447 19.3856 44.2902 21.2278ZM57.4851 35.9304C55.407 35.9304 53.6184 35.5133 52.119 34.6791C50.6285 33.8362 49.4798 32.6458 48.6732 31.1078C47.8665 29.561 47.4632 27.7319 47.4632 25.6203C47.4632 23.5609 47.8665 21.7535 48.6732 20.1981C49.4798 18.6427 50.6153 17.4305 52.0796 16.5615C53.5526 15.6926 55.2799 15.2581 57.2615 15.2581C58.5942 15.2581 59.8348 15.471 60.9835 15.8968C62.141 16.3139 63.1492 16.9439 64.0087 17.7868C64.8764 18.6297 65.5519 19.6898 66.0339 20.9671C66.516 22.2358 66.757 23.7217 66.757 25.4248V26.9498H49.699V23.5088H61.4832C61.4832 22.7093 61.308 22.0012 60.957 21.3842C60.6067 20.7673 60.1199 20.285 59.4973 19.9374C58.8836 19.5811 58.169 19.403 57.3536 19.403C56.5031 19.403 55.749 19.5985 55.0914 19.9895C54.4426 20.3719 53.934 20.8889 53.5658 21.5406C53.1975 22.1837 53.009 22.9006 53.0002 23.6913V26.9628C53.0002 27.9535 53.1843 28.8094 53.5526 29.5306C53.9296 30.2519 54.4601 30.8079 55.144 31.199C55.8279 31.59 56.6389 31.7855 57.5771 31.7855C58.1997 31.7855 58.7696 31.6986 59.2869 31.5248C59.8042 31.3511 60.2469 31.0903 60.6155 30.7428C60.9835 30.3952 61.2639 29.9694 61.4573 29.4654L66.6389 29.8043C66.3761 31.0382 65.8364 32.1157 65.021 33.0368C64.2145 33.9492 63.171 34.6617 61.8912 35.1744C60.6196 35.6784 59.1511 35.9304 57.4851 35.9304Z" fill="#F0E714"/>
<path fill-rule="evenodd" clip-rule="evenodd" d="M90.6027 7.81498C91.8466 7.81498 92.8549 6.81534 92.8549 5.58239C92.8549 4.34946 91.8466 3.3501 90.6027 3.3501C89.3587 3.3501 88.3499 4.34946 88.3499 5.58239C88.3499 6.36842 88.7603 7.05997 89.3799 7.45766C83.0814 18.6874 77.8369 19.5949 68.6607 8.18365C68.5784 8.0821 68.4297 8.05163 68.318 8.11904C68.2439 8.16344 68.201 8.23912 68.1951 8.31876C68.1898 8.37877 68.2051 8.44111 68.2433 8.49372C77.9233 21.9691 78.306 28.8933 76.4495 40.6922C76.4295 40.8149 76.5253 40.9284 76.6506 40.9284C76.747 40.9284 76.8305 40.8592 76.851 40.7662C79.8915 27.0837 84.6181 23.5329 96.4256 22.1298C96.5291 22.1176 96.6096 22.0306 96.6096 21.9273C96.6096 21.8001 96.4868 21.7054 96.3604 21.7278C83.8068 23.9647 83.5246 19.6688 89.7979 7.66816C90.0477 7.76289 90.3187 7.81498 90.6027 7.81498Z" fill="white"/>
<path d="M6.6637 62.0081C5.52137 62.0081 4.53767 61.7407 3.71263 61.2059C2.8876 60.6716 2.25296 59.9352 1.80871 58.9966C1.36446 58.0587 1.14233 56.9869 1.14233 55.7814C1.14233 54.5549 1.36975 53.4726 1.82457 52.5345C2.28469 51.591 2.92462 50.8546 3.74437 50.3253C4.5694 49.7906 5.53194 49.5233 6.63196 49.5233C7.48873 49.5233 8.26091 49.6805 8.94844 49.995C9.63596 50.3095 10.1992 50.7498 10.6382 51.3158C11.0771 51.8819 11.3495 52.5423 11.4553 53.297H9.58305C9.44026 52.7467 9.12298 52.2593 8.6311 51.8347C8.14457 51.4049 7.48873 51.19 6.6637 51.19C5.93391 51.19 5.29395 51.3787 4.74393 51.7561C4.19919 52.1283 3.77346 52.655 3.46671 53.3364C3.16525 54.0125 3.01453 54.8065 3.01453 55.7185C3.01453 56.6515 3.16261 57.4638 3.45878 58.1557C3.76023 58.8475 4.18333 59.3846 4.72806 59.7674C5.27809 60.1502 5.92333 60.3413 6.6637 60.3413C7.15029 60.3413 7.59191 60.2574 7.98855 60.0896C8.38519 59.9218 8.72104 59.6812 8.99605 59.3666C9.27106 59.052 9.46671 58.6744 9.58305 58.2343H11.4553C11.3495 58.9471 11.0877 59.5891 10.6699 60.1607C10.2574 60.7264 9.70997 61.1773 9.02774 61.5129C8.3508 61.8427 7.56281 62.0081 6.6637 62.0081ZM14.1921 61.7564V49.6805H16.0009V51.5045H16.1278C16.3499 50.907 16.7519 50.4222 17.3336 50.0501C17.9154 49.6779 18.5712 49.4919 19.301 49.4919C19.4385 49.4919 19.6104 49.4945 19.8167 49.4998C20.023 49.505 20.1789 49.5128 20.2847 49.5233V51.4102C20.2212 51.3945 20.0758 51.3709 19.8484 51.3394C19.6263 51.3028 19.3909 51.2844 19.1424 51.2844C18.55 51.2844 18.0212 51.4076 17.5557 51.6539C17.0957 51.895 16.7307 52.2304 16.461 52.6602C16.1966 53.0848 16.0644 53.5696 16.0644 54.1147V61.7564H14.1921ZM27.242 62.0081C26.0679 62.0081 25.0551 61.7512 24.2037 61.2373C23.3575 60.7188 22.7043 59.9952 22.2442 59.0677C21.7894 58.1347 21.562 57.0498 21.562 55.8128C21.562 54.5759 21.7894 53.4857 22.2442 52.5423C22.7043 51.5936 23.3442 50.8546 24.164 50.3253C24.989 49.7906 25.9515 49.5233 27.0516 49.5233C27.6862 49.5233 28.3129 49.6282 28.9317 49.8378C29.5505 50.0475 30.1137 50.3881 30.6215 50.8599C31.1292 51.3263 31.5337 51.9448 31.8352 52.7152C32.1367 53.4857 32.2874 54.4344 32.2874 55.5613V56.3474H22.8947V54.7436H30.3834C30.3834 54.0623 30.2459 53.4543 29.9709 52.9197C29.7012 52.3851 29.3151 51.9631 28.8127 51.6539C28.3156 51.3446 27.7285 51.19 27.0516 51.19C26.3059 51.19 25.6607 51.3735 25.1159 51.7404C24.5765 52.102 24.1613 52.5737 23.8704 53.1555C23.5796 53.7373 23.4341 54.361 23.4341 55.0267V56.0959C23.4341 57.0078 23.5928 57.781 23.9101 58.4152C24.2327 59.0438 24.6796 59.5239 25.2508 59.8536C25.822 60.1787 26.4857 60.3413 27.242 60.3413C27.7338 60.3413 28.1781 60.2731 28.5747 60.1368C28.9766 59.9952 29.3231 59.7855 29.614 59.5082C29.9048 59.225 30.1296 58.8737 30.2883 58.4542L32.097 58.9576C31.9066 59.5658 31.5866 60.1001 31.1371 60.5615C30.6875 61.0177 30.1322 61.3737 29.4712 61.6306C28.8101 61.8823 28.067 62.0081 27.242 62.0081ZM38.7211 62.0396C37.9489 62.0396 37.2482 61.8951 36.6188 61.6073C35.9894 61.3137 35.4897 60.8919 35.1194 60.3413C34.7493 59.7855 34.5641 59.1149 34.5641 58.3284C34.5641 57.6368 34.7016 57.076 34.9767 56.6462C35.2517 56.2112 35.6193 55.8705 36.0794 55.6241C36.5395 55.3778 37.0472 55.1944 37.6025 55.0738C38.1631 54.948 38.7264 54.8485 39.2923 54.775C40.0326 54.6807 40.6329 54.61 41.0931 54.5628C41.5584 54.5104 41.8969 54.4239 42.1084 54.3034C42.3253 54.1828 42.4337 53.9731 42.4337 53.6744V53.6115C42.4337 52.8358 42.2196 52.2331 41.7912 51.8033C41.3681 51.3735 40.7255 51.1586 39.8634 51.1586C38.9696 51.1586 38.2689 51.3525 37.7612 51.7404C37.2534 52.1283 36.8965 52.5423 36.6902 52.9825L34.9132 52.3536C35.2306 51.6198 35.6537 51.0485 36.1825 50.6397C36.7167 50.2256 37.2984 49.9374 37.9277 49.7749C38.5624 49.6072 39.1865 49.5233 39.8 49.5233C40.1913 49.5233 40.6409 49.5705 41.1486 49.6648C41.6616 49.7539 42.1561 49.94 42.6321 50.223C43.1133 50.506 43.5126 50.9332 43.8299 51.5045C44.1473 52.0758 44.3059 52.841 44.3059 53.8002V61.7564H42.4337V60.1211H42.3385C42.2116 60.3832 42 60.6635 41.7039 60.9624C41.4077 61.2612 41.0137 61.5152 40.5219 61.725C40.03 61.9347 39.4298 62.0396 38.7211 62.0396ZM39.0067 60.3728C39.7471 60.3728 40.3712 60.2288 40.8788 59.9405C41.3919 59.6521 41.7779 59.2798 42.0371 58.8242C42.3015 58.368 42.4337 57.8884 42.4337 57.3853V55.6871C42.3544 55.7814 42.1799 55.8679 41.9102 55.9465C41.6457 56.0199 41.339 56.0854 40.9899 56.1431C40.6462 56.1954 40.3103 56.2426 39.9824 56.2846C39.6598 56.3212 39.398 56.3527 39.197 56.3789C38.7105 56.4418 38.2557 56.544 37.8326 56.6855C37.4148 56.8218 37.0763 57.0288 36.8171 57.3066C36.5633 57.5791 36.4364 57.9513 36.4364 58.4228C36.4364 59.0677 36.677 59.5554 37.1583 59.8851C37.6448 60.2102 38.261 60.3728 39.0067 60.3728ZM53.0223 49.6805V51.2529H46.7077V49.6805H53.0223ZM48.5481 46.7874H50.4203V58.2969C50.4203 58.8213 50.497 59.2145 50.6503 59.4767C50.809 59.733 51.01 59.9061 51.2533 59.9952C51.5018 60.0791 51.7637 60.1211 52.0387 60.1211C52.2449 60.1211 52.4141 60.1106 52.5464 60.0896C52.6786 60.0634 52.7843 60.0424 52.8637 60.0267L53.2445 61.6935C53.1175 61.7407 52.9403 61.7879 52.713 61.8351C52.4855 61.8875 52.1973 61.9137 51.8483 61.9137C51.3194 61.9137 50.8011 61.8007 50.2934 61.5758C49.791 61.3504 49.3732 61.0072 49.04 60.5458C48.712 60.0844 48.5481 59.5029 48.5481 58.8003V46.7874ZM55.8385 61.7564V49.6805H57.7108V61.7564H55.8385ZM56.7905 47.6679C56.4256 47.6679 56.1109 47.5448 55.8465 47.2984C55.5873 47.052 55.4578 46.7559 55.4578 46.41C55.4578 46.0641 55.5873 45.768 55.8465 45.5216C56.1109 45.2753 56.4256 45.1521 56.7905 45.1521C57.1554 45.1521 57.4675 45.2753 57.7266 45.5216C57.9911 45.768 58.1233 46.0641 58.1233 46.41C58.1233 46.7559 57.9911 47.052 57.7266 47.2984C57.4675 47.5448 57.1554 47.6679 56.7905 47.6679ZM71.1039 49.6805L66.5978 61.7564H64.6937L60.1876 49.6805H62.2187L65.5826 59.3037H65.709L69.0728 49.6805H71.1039ZM78.2472 62.0081C77.0732 62.0081 76.0603 61.7512 75.2091 61.2373C74.3625 60.7188 73.7094 59.9952 73.2497 59.0677C72.7947 58.1347 72.5672 57.0498 72.5672 55.8128C72.5672 54.5759 72.7947 53.4857 73.2497 52.5423C73.7094 51.5936 74.3496 50.8546 75.1691 50.3253C75.9945 49.7906 76.9568 49.5233 78.0568 49.5233C78.6917 49.5233 79.3184 49.6282 79.9368 49.8378C80.5558 50.0475 81.119 50.3881 81.627 50.8599C82.1343 51.3263 82.5393 51.9448 82.8403 52.7152C83.1419 53.4857 83.293 54.4344 83.293 55.5613V56.3474H73.8999V54.7436H81.3889C81.3889 54.0623 81.2513 53.4543 80.9762 52.9197C80.7063 52.3851 80.3207 51.9631 79.818 51.6539C79.3207 51.3446 78.734 51.19 78.0568 51.19C77.3113 51.19 76.6658 51.3735 76.1215 51.7404C75.5818 52.102 75.1668 52.5737 74.8758 53.1555C74.5848 53.7373 74.4396 54.361 74.4396 55.0267V56.0959C74.4396 57.0078 74.5983 57.781 74.9157 58.4152C75.2379 59.0438 75.6853 59.5239 76.2561 59.8536C76.8275 60.1787 77.4912 60.3413 78.2472 60.3413C78.7393 60.3413 79.1837 60.2731 79.58 60.1368C79.9821 59.9952 80.3283 59.7855 80.6193 59.5082C80.9103 59.225 81.1349 58.8737 81.2936 58.4542L83.1025 58.9576C82.9121 59.5658 82.5923 60.1001 82.1425 60.5615C81.6928 61.0177 81.1378 61.3737 80.4765 61.6306C79.8157 61.8823 79.0726 62.0081 78.2472 62.0081Z" fill="white"/>
</svg>
