<svg width="76" height="87" viewBox="0 0 76 87" fill="none" xmlns="http://www.w3.org/2000/svg">
<path fill-rule="evenodd" clip-rule="evenodd" d="M31.4287 3.41176C34.5709 0.175243 39.7662 0.175247 42.9084 3.41177L44.7015 5.25863C46.2227 6.8255 48.3183 7.70238 50.5021 7.68579L53.0897 7.66614C57.5547 7.63222 61.1832 11.2599 61.1503 15.7249L61.1291 18.5902C61.1133 20.7328 61.9577 22.7922 63.4731 24.3071L65.5085 26.3417C68.6341 29.4662 68.6341 34.5331 65.5085 37.6575L63.4731 39.6922C61.9577 41.207 61.1133 43.2665 61.1291 45.4091L61.1503 48.2743C61.1832 52.7394 57.5547 56.3671 53.0897 56.3331L50.5021 56.3135C48.3183 56.2969 46.2227 57.1738 44.7015 58.7406L42.9084 60.5875C39.7662 63.824 34.5709 63.824 31.4287 60.5875L29.6356 58.7406C28.1144 57.1738 26.0188 56.2969 23.835 56.3135L21.2474 56.3331C16.7824 56.3671 13.1539 52.7394 13.1868 48.2743L13.208 45.4091C13.2238 43.2665 12.3794 41.207 10.864 39.6922L8.82858 37.6575C5.70298 34.5331 5.70298 29.4662 8.82859 26.3417L10.864 24.3071C12.3794 22.7922 13.2238 20.7328 13.208 18.5901L13.1868 15.7249C13.1539 11.2599 16.7824 7.63222 21.2474 7.66614L23.835 7.68579C26.0188 7.70238 28.1144 6.8255 29.6356 5.25863L31.4287 3.41176ZM38.8659 31.5712L37.0301 29.7346C36.6096 29.314 36.0396 29.077 35.4448 29.0754C34.8501 29.0738 34.2789 29.3078 33.8562 29.7262L21.0923 41.5056C20.6276 41.9437 20.3224 42.502 20.2943 43.127C20.2807 43.4371 20.3313 43.7465 20.4427 44.0362C20.5541 44.3258 20.724 44.5893 20.9419 44.8103L23.684 47.5827L23.6863 47.5853L23.689 47.5877C24.1127 48.01 24.6861 48.2481 25.2844 48.25H25.3673C25.9924 48.2268 26.5521 47.9336 26.9965 47.4646L38.8582 34.7592C39.0685 34.5506 39.2356 34.3026 39.3499 34.0294C39.4641 33.7561 39.5233 33.463 39.5241 33.1668C39.5248 32.8706 39.467 32.5772 39.3541 32.3034C39.2411 32.0296 39.0752 31.7807 38.8659 31.5712ZM53.6203 27.8594L53.5985 27.8376L51.1889 25.4526C51.0477 25.3119 50.8801 25.2006 50.6957 25.125C50.5113 25.0495 50.3138 25.0112 50.1145 25.0124C49.7916 25.0127 49.477 25.1146 49.2152 25.3035C49.2152 25.2821 49.2173 25.261 49.2193 25.2412L49.2215 25.2178L49.2218 25.2138C49.2535 24.7567 49.3011 24.0684 48.8559 23.4445C48.3251 22.729 47.7422 22.0535 47.1122 21.4237L47.109 21.4202L47.1065 21.4181C46.17 20.4956 44.1316 18.7581 41.009 17.4848C39.8248 16.9988 38.5569 16.7491 37.2769 16.75C35.0578 16.75 33.3703 17.7513 32.7241 18.3447C32.3582 18.6942 32.0245 19.0759 31.7271 19.4852C31.585 19.6813 31.51 19.9181 31.5132 20.1603C31.5165 20.4025 31.5978 20.6372 31.7451 20.8294C31.8925 21.0217 32.0979 21.1613 32.3309 21.2274C32.5639 21.2936 32.812 21.2828 33.0384 21.1966C33.2356 21.1229 33.4371 21.0611 33.6417 21.0117C34.0679 20.9215 34.5049 20.8943 34.939 20.9308C35.8664 21.0074 36.9633 21.468 37.4484 21.8512C38.2711 22.5128 38.6669 23.4044 38.7323 24.7403C38.745 25.0089 38.1895 26.0158 37.3261 27.1647C37.1616 27.3815 37.0813 27.6506 37.1 27.9221C37.1188 28.1936 37.2353 28.4491 37.428 28.6413L39.8475 31.0607C40.0508 31.2645 40.3245 31.3826 40.6122 31.3907C40.9 31.3988 41.1799 31.2963 41.3944 31.1043C42.0785 30.4933 43.1205 29.5722 43.4847 29.3465C44.0254 29.0139 44.4122 28.9499 44.5183 28.9387C44.7939 28.9117 45.071 28.9701 45.3122 29.106C45.3134 29.1181 45.312 29.1302 45.3083 29.1417C45.3059 29.149 45.3026 29.156 45.2984 29.1624C45.296 29.1661 45.2933 29.1696 45.2904 29.1728L45.1624 29.2945L45.1413 29.3142C44.9999 29.455 44.8878 29.6225 44.8114 29.8069C44.735 29.9913 44.6958 30.189 44.6961 30.3886C44.6965 30.5882 44.7363 30.7857 44.8133 30.9699C44.8903 31.154 45.003 31.3211 45.1448 31.4615L47.5537 33.8458C47.6949 33.9864 47.8625 34.0976 48.0469 34.173C48.2313 34.2484 48.4289 34.2866 48.6281 34.2852C49.0282 34.2859 49.4125 34.1293 49.6983 33.8493L53.6006 29.9948C53.614 29.9814 53.6273 29.9674 53.64 29.9533C53.9018 29.6663 54.0453 29.2909 54.0416 28.9025C54.038 28.514 53.8874 28.1414 53.6203 27.8594Z" fill="#9EA3B5"/>
<path d="M43.0121 67.7414L52.0126 85.1376C52.7429 86.5491 54.7484 86.586 55.5302 85.2023L60.094 77.1243L55.461 69.543C54.885 68.6005 55.1821 67.3695 56.1246 66.7935C57.0672 66.2176 58.2981 66.5147 58.8741 67.4572L63.5589 75.1232L73.1257 76.0987C74.7068 76.2599 75.8352 74.6016 75.1049 73.19L65.5806 54.7813C63.2325 59.2979 58.4944 62.3741 53.0442 62.3327L50.4565 62.3131C49.9106 62.3089 49.3867 62.5281 49.0064 62.9198L47.2133 64.7667C45.9691 66.0483 44.541 67.0398 43.0121 67.7414Z" fill="#9EA3B5"/>
<path d="M9.63454 56.2442L0.867171 73.1898C0.136846 74.6014 1.26528 76.2598 2.84639 76.0985L12.2676 75.1378L16.9615 67.457C17.5375 66.5145 18.7684 66.2174 19.7109 66.7933C20.6535 67.3693 20.9506 68.6003 20.3746 69.5428L15.8125 77.0081L20.4419 85.2021C21.2236 86.5858 23.2292 86.5489 23.9595 85.1374L32.6815 68.2795C30.6418 67.5915 28.7296 66.4205 27.1238 64.7665L25.3307 62.9197C24.9504 62.5279 24.4265 62.3087 23.8806 62.3129L21.293 62.3325C16.454 62.3693 12.1765 59.9485 9.63454 56.2442Z" fill="#9EA3B5"/>
</svg>
