<svg width="77" height="79" viewBox="0 0 77 79" fill="none" xmlns="http://www.w3.org/2000/svg">
<path d="M26.6677 73.9998L3.66772 76.9998L0.167725 60.4998L17.6677 57.4998L26.6677 73.9998Z" fill="#9EA3B5"/>
<path d="M76.6678 72.4998L55.6678 74.9998L52.1678 58.4998L67.6678 55.9998L76.6678 72.4998Z" fill="#9EA3B5"/>
<path d="M27.1935 63.8807L26.1676 64L34.6676 79L51.1676 78L47.7005 61.655C46.9376 62.3454 46.2019 62.9885 45.5052 63.5813C40.2011 68.0951 32.5993 68.1949 27.1935 63.8807Z" fill="#9EA3B5"/>
<path fill-rule="evenodd" clip-rule="evenodd" d="M42.2648 59.7735C49.9497 53.2338 62.1678 40.6413 62.1678 26.6818C62.1678 19.738 59.4285 13.0785 54.5525 8.16848C49.6766 3.25843 43.0634 0.5 36.1678 0.5C29.2721 0.5 22.6589 3.25843 17.783 8.16848C12.907 13.0785 10.1678 19.738 10.1678 26.6818C10.1678 40.6413 22.3858 53.2338 30.0707 59.7735C33.6269 62.7997 38.7086 62.7997 42.2648 59.7735ZM48.1678 26.5C48.1678 33.1274 42.7952 38.5 36.1678 38.5C29.5403 38.5 24.1678 33.1274 24.1678 26.5C24.1678 19.8726 29.5403 14.5 36.1678 14.5C42.7952 14.5 48.1678 19.8726 48.1678 26.5Z" fill="#9EA3B5"/>
</svg>
