<svg width="84" height="85" viewBox="0 0 84 85" fill="none" xmlns="http://www.w3.org/2000/svg">
<path d="M37.6025 49.385C37.6216 49.3703 37.6402 49.355 37.6582 49.3392C37.6754 49.324 37.6921 49.3083 37.7083 49.2921C37.7773 49.2232 37.8371 49.147 37.8879 49.0636C38.0298 48.8303 38.1007 48.5403 38.1007 48.1935C38.1007 47.7226 37.9699 47.3629 37.7083 47.1144C37.5586 46.9646 37.366 46.86 37.1308 46.8005C36.9757 46.7612 36.8019 46.7416 36.6097 46.7416H32.6775L34.942 44.505C35.2704 44.1837 35.5618 43.8722 35.8162 43.5704C35.841 43.5411 35.8653 43.5118 35.8894 43.4826C36.071 43.2623 36.2326 43.0472 36.3742 42.8374C36.7404 42.3142 37.002 41.791 37.159 41.2679C37.329 40.7447 37.414 40.2084 37.414 39.6591C37.414 38.7827 37.2244 38.0503 36.8451 37.4617C36.4658 36.8601 35.9099 36.4023 35.1774 36.0884C34.8475 35.9444 34.4805 35.8335 34.0763 35.7555C33.5992 35.6635 33.0703 35.6175 32.4896 35.6175C32.3196 35.6175 32.1495 35.6224 31.9795 35.6321C31.4956 35.6598 31.0116 35.7268 30.5277 35.8333C30.4675 35.8468 30.4074 35.8612 30.3476 35.8763L30.2998 35.8885L30.249 35.902C29.9795 35.9743 29.7136 36.0632 29.4511 36.1685C29.1899 36.2733 28.9322 36.3945 28.6779 36.532L28.6639 36.5396C28.6185 36.564 28.5751 36.5893 28.5335 36.6156C28.2629 36.7864 28.0709 36.9965 27.9576 37.2459C27.8268 37.5206 27.781 37.8018 27.8202 38.0895C27.8725 38.3773 27.9903 38.6323 28.1734 38.8547C28.3696 39.077 28.605 39.2209 28.8797 39.2863C29.1674 39.3517 29.4879 39.3059 29.841 39.149C29.9015 39.1177 29.9615 39.088 30.0208 39.0596L30.0308 39.0549C30.2711 38.9408 30.5018 38.8506 30.7229 38.7843C30.8097 38.7583 30.8951 38.736 30.9789 38.7173C31.0375 38.7022 31.0955 38.6882 31.153 38.6756L31.1651 38.6729C31.4499 38.611 31.7213 38.58 31.9795 38.58C32.1623 38.58 32.3323 38.591 32.4896 38.613C32.7623 38.651 32.9968 38.7221 33.1931 38.8262C33.2645 38.864 33.3308 38.9062 33.3921 38.9528C33.7191 39.2013 33.8826 39.5741 33.8826 40.0711C33.8826 40.4635 33.7714 40.8558 33.549 41.2482C33.4954 41.3488 33.4318 41.4546 33.3584 41.5655C33.2094 41.7906 33.0197 42.0369 32.7893 42.3045L32.7797 42.3156C32.6835 42.427 32.5802 42.5421 32.47 42.6608L29.0366 46.2511C28.8831 46.4124 28.7453 46.5759 28.6233 46.7416L28.6073 46.7634L28.5925 46.784C28.5187 46.8867 28.4509 46.9903 28.3892 47.0948C28.2322 47.3825 28.1538 47.7095 28.1538 48.0757C28.1538 48.5989 28.278 48.9978 28.5265 49.2725C28.7063 49.4523 28.9603 49.5703 29.2885 49.6266C29.4377 49.6521 29.6023 49.6649 29.7822 49.6649H36.6097C37.029 49.6649 37.3599 49.5716 37.6025 49.385Z" fill="#9EA3B5"/>
<path fill-rule="evenodd" clip-rule="evenodd" d="M44.9402 47.3498V48.0561C44.9402 48.6447 45.0906 49.0894 45.3914 49.3902C45.7053 49.6911 46.137 49.8415 46.6863 49.8415C47.2455 49.8415 47.669 49.6927 47.9566 49.3953L47.9615 49.3902C48.1312 49.2132 48.253 48.9945 48.327 48.7342C48.3842 48.5331 48.4128 48.307 48.4128 48.0561V47.3498H48.8836C49.351 47.3498 49.7085 47.2457 49.9561 47.0376C49.9719 47.0243 49.9871 47.0107 50.0019 46.9967C50.1043 46.9045 50.1866 46.7964 50.249 46.6722C50.2719 46.6264 50.2922 46.5784 50.3097 46.5282C50.3661 46.3669 50.3943 46.183 50.3943 45.9765C50.3943 45.6456 50.3175 45.3724 50.1637 45.1568C50.1237 45.1007 50.0785 45.0484 50.0281 45.0001C50.0195 44.9919 50.0108 44.9839 50.0019 44.9759C49.9871 44.9618 49.9719 44.9482 49.9561 44.935C49.902 44.8895 49.8425 44.8489 49.7778 44.8133C49.5468 44.6863 49.2487 44.6227 48.8836 44.6227H48.4128V37.4421C48.4128 36.8404 48.2689 36.3957 47.9812 36.108C47.6934 35.8072 47.301 35.6567 46.804 35.6567C46.3593 35.6567 45.9735 35.7483 45.6465 35.9314C45.3195 36.1145 45.0252 36.4023 44.7636 36.7947L39.9765 43.7791C39.8987 43.8874 39.827 43.9917 39.7615 44.092C39.6687 44.2341 39.5882 44.3683 39.5199 44.4946C39.4963 44.5383 39.4742 44.581 39.4535 44.6227C39.4129 44.7049 39.378 44.7833 39.3487 44.8582C39.2682 45.0548 39.2153 45.2575 39.1898 45.4664C39.1858 45.4992 39.1825 45.5323 39.1798 45.5654C39.1776 45.5929 39.1759 45.6204 39.1747 45.6481C39.173 45.6854 39.1721 45.7229 39.1721 45.7607C39.1721 46.2969 39.3291 46.6958 39.643 46.9574C39.97 47.219 40.4212 47.3498 40.9967 47.3498H44.9402ZM44.9402 44.6227V40.8078L42.3696 44.6227H44.9402Z" fill="#9EA3B5"/>
<path d="M51.1072 42.2073C51.1237 42.1198 51.1483 42.0398 51.1811 41.9673C51.2229 41.8746 51.2781 41.794 51.3465 41.7256C51.4147 41.6574 51.4939 41.6023 51.584 41.5605C51.7231 41.496 51.8882 41.4629 52.0793 41.4614L52.0933 41.4613C52.1247 41.4613 52.1555 41.4622 52.1855 41.4638C52.1975 41.4644 52.2093 41.4652 52.221 41.466C52.4887 41.4864 52.6989 41.5729 52.8516 41.7256C52.8853 41.7579 52.916 41.793 52.9435 41.8307C53.0509 41.9778 53.1112 42.1661 53.1245 42.3954C53.1264 42.4279 53.1274 42.4613 53.1274 42.4954V44.702C53.1891 44.6185 53.2564 44.5411 53.3293 44.4698C53.4467 44.355 53.5786 44.256 53.7248 44.1729C53.856 44.1 53.9939 44.041 54.1384 43.9958C54.1763 43.984 54.2146 43.9731 54.2534 43.9632C54.4555 43.9115 54.6699 43.8856 54.8968 43.8856C55.3487 43.8856 55.7202 43.9737 56.0112 44.1499C56.0969 44.1995 56.1762 44.2577 56.2492 44.3244C56.2599 44.3342 56.2705 44.3442 56.2809 44.3544L56.2972 44.3705L56.2986 44.3719C56.4507 44.5254 56.5733 44.7195 56.6661 44.9542C56.8117 45.3142 56.8844 45.7699 56.8844 46.3214V48.7342C56.8844 49.0713 56.7964 49.3279 56.6202 49.504C56.509 49.6153 56.3672 49.6914 56.195 49.7324C56.0943 49.7563 55.9833 49.7683 55.8619 49.7683C55.5325 49.7683 55.2797 49.6802 55.1036 49.504C54.9274 49.3279 54.8393 49.0713 54.8393 48.7342V46.4019C54.8393 46.3744 54.8389 46.3476 54.8381 46.3214C54.8368 46.2755 54.8342 46.2315 54.8305 46.1894L54.8273 46.1574L54.8252 46.1381L54.8222 46.1144L54.8204 46.1012C54.8125 46.0442 54.802 45.9913 54.7889 45.9425C54.7687 45.8667 54.7425 45.8009 54.7101 45.7449L54.7022 45.7316C54.6877 45.708 54.6722 45.6864 54.6555 45.6665C54.6109 45.6101 54.5578 45.5646 54.496 45.5301C54.488 45.5256 54.4799 45.5214 54.4717 45.5173C54.4076 45.4855 54.3349 45.4647 54.2534 45.4549C54.2169 45.4504 54.1785 45.4482 54.1384 45.4482C54.0451 45.4482 53.9574 45.4575 53.8754 45.476C53.7557 45.503 53.6481 45.5497 53.5527 45.6161C53.499 45.6535 53.4491 45.6971 53.4031 45.747C53.338 45.8148 53.2844 45.8913 53.2423 45.9765C53.1813 46.1 53.1446 46.2418 53.1321 46.4019C53.129 46.4428 53.1274 46.4849 53.1274 46.5282V48.7342C53.1274 49.4236 52.7827 49.7683 52.0933 49.7683C51.9775 49.7683 51.871 49.7569 51.7741 49.734C51.7418 49.7264 51.7106 49.7176 51.6804 49.7074C51.5705 49.6705 51.4744 49.6169 51.3922 49.5464C51.383 49.5385 51.374 49.5304 51.3651 49.5221C51.3588 49.5162 51.3526 49.5102 51.3465 49.504C51.1703 49.3279 51.0822 49.0713 51.0822 48.7342V42.4954C51.0822 42.3918 51.0906 42.2957 51.1072 42.2073Z" fill="#9EA3B5"/>
<path fill-rule="evenodd" clip-rule="evenodd" d="M0.333496 42.4993C0.333496 19.487 18.9875 0.833008 41.9998 0.833008C65.012 0.833008 83.666 19.487 83.666 42.4993C83.666 65.5115 65.012 84.1655 41.9998 84.1655C18.9875 84.1655 0.333496 65.5115 0.333496 42.4993ZM26.2841 51.5149C26.2468 51.4776 26.2104 51.4393 26.1749 51.4001C25.2162 50.3404 24.9825 49.062 24.9825 48.0757C24.9825 47.2423 25.1655 46.3824 25.6052 45.5762C25.6226 45.5443 25.6405 45.5128 25.659 45.4815C25.9665 44.9611 26.3346 44.49 26.7402 44.0641L26.7447 44.0594L28.3228 42.4092C28.2743 42.3999 28.2257 42.3898 28.1769 42.3787L28.1451 42.3713C27.2009 42.1465 26.4015 41.6396 25.7955 40.9528C25.7717 40.9258 25.7483 40.8984 25.7254 40.8706C25.1929 40.224 24.8477 39.4683 24.7002 38.6568C24.6918 38.6107 24.6844 38.5644 24.6781 38.518C24.5526 37.598 24.7082 36.7049 25.0828 35.907C25.5598 34.8755 26.3514 34.1844 27.1543 33.7507C28.0012 33.291 28.8958 32.9495 29.8331 32.7391L29.8463 32.7361C30.7187 32.5442 31.6011 32.4463 32.4896 32.4463C33.8448 32.4463 35.2013 32.6409 36.4361 33.1776C37.6768 33.7113 38.7591 34.5577 39.5193 35.7573C39.9034 36.3566 40.1683 36.9924 40.3379 37.6426L42.138 35.0161C42.6065 34.3185 43.2419 33.6434 44.097 33.1645C44.9786 32.6708 45.9182 32.4855 46.804 32.4855C47.976 32.4855 49.2518 32.8638 50.2491 33.8913C51.3429 35.0029 51.584 36.4074 51.584 37.4421V38.3179C51.7599 38.2986 51.9305 38.2901 52.0933 38.2901C52.9756 38.2901 54.1307 38.5354 55.07 39.4594C55.4993 39.8776 55.7891 40.343 55.9789 40.81C56.522 40.9098 57.0851 41.0979 57.6271 41.4212C58.6206 42.0053 59.2524 42.8777 59.6102 43.7756C59.955 44.6333 60.0557 45.5237 60.0557 46.3214V48.7342C60.0557 49.6074 59.819 50.79 58.8626 51.7464C57.919 52.69 56.7517 52.9395 55.8619 52.9395C55.3053 52.9395 54.6401 52.8419 53.989 52.5378C53.3095 52.8538 52.6252 52.9395 52.0933 52.9395C51.3372 52.9395 50.4106 52.7568 49.5842 52.1568C48.6439 52.8143 47.5792 53.0127 46.6863 53.0127C45.5445 53.0127 44.2463 52.6852 43.1972 51.6798C43.181 51.6642 43.1649 51.6485 43.149 51.6326C42.8016 51.2851 42.5356 50.9085 42.3344 50.521H40.9967C40.9032 50.521 40.8079 50.5191 40.7111 50.515C40.5192 50.8709 40.2697 51.2155 39.9507 51.5345C38.9122 52.5731 37.6109 52.8361 36.6097 52.8361H29.7822C28.8206 52.8361 27.3992 52.63 26.2841 51.5149ZM35.1682 19.5865C35.9969 19.3285 36.828 19.1164 37.659 18.9488C50.9328 16.3617 63.851 24.9309 66.6 38.2093C68.8821 49.2324 63.4436 60.0595 53.9729 65.0761C53.8839 65.111 53.7957 65.1505 53.7087 65.1946C52.7243 65.6934 51.6945 66.132 50.6223 66.5039L51.3831 64.4826C51.9681 62.9282 51.1823 61.1939 49.628 60.6088C48.0736 60.0238 46.3392 60.8096 45.7542 62.364L42.7652 70.3053C42.2792 71.5964 42.7341 73.0527 43.8686 73.8376L50.5727 78.4759C51.9385 79.4209 53.8117 79.0797 54.7567 77.7139C55.7016 76.3481 55.3605 74.4749 53.9947 73.5299L52.2705 72.337C58.0501 70.3825 62.9396 66.8141 66.5292 62.2556C66.6789 62.1246 66.8177 61.9767 66.9429 61.8123C69.0351 59.0658 70.654 55.983 71.7272 52.7015C71.8096 52.4496 71.857 52.1946 71.872 51.9418C72.9967 48.1502 73.401 44.0968 72.9581 39.9747C73.006 39.685 73.0121 39.3834 72.9706 39.0772C72.7424 37.3937 72.3714 35.7083 71.8508 34.0361C71.3301 32.3639 70.6787 30.7658 69.9108 29.2504C69.7721 28.9767 69.5974 28.7334 69.3953 28.5231C67.4503 24.9458 64.8344 21.8415 61.7474 19.3415C61.5824 19.1193 61.3839 18.9163 61.1527 18.7402C58.4063 16.648 55.3235 15.0292 52.0419 13.956C51.8229 13.8843 51.6016 13.8391 51.3814 13.8187C47.4117 12.6002 43.1479 12.1732 38.8138 12.685C38.683 12.6855 38.5508 12.6946 38.4176 12.7126C37.0801 12.8939 35.7414 13.1653 34.409 13.5303C26.2225 15.7215 19.6259 21.0795 15.6827 27.9825C15.5397 28.2329 15.4367 28.4951 15.3715 28.7619C14.5425 30.3235 13.8475 31.9562 13.2964 33.6412C12.7791 35.223 13.642 36.9246 15.2237 37.4419C16.8055 37.9592 18.5071 37.0963 19.0244 35.5146C19.888 32.874 21.1911 30.3924 22.8747 28.1824C23.0218 27.9893 23.142 27.7842 23.2359 27.5714C25.307 25.034 27.8865 22.8976 30.8614 21.3338C31.0149 21.285 31.1665 21.2233 31.3149 21.1481C32.5318 20.5315 33.8181 20.0069 35.1682 19.5865ZM14.6344 43.8749C16.2835 43.6514 17.8015 44.8071 18.025 46.4562C18.2082 47.8081 18.5065 49.1648 18.9269 50.515C19.3473 51.8651 19.8719 53.1513 20.4886 54.3683C21.2408 55.8528 20.6472 57.666 19.1627 58.4182C17.6782 59.1704 15.865 58.5768 15.1128 57.0923C14.3449 55.5769 13.6935 53.9788 13.1728 52.3066C12.6522 50.6344 12.2812 48.949 12.053 47.2655C11.8296 45.6164 12.9853 44.0984 14.6344 43.8749ZM27.5229 62.8085C26.199 61.8 24.3083 62.0557 23.2999 63.3795C22.2914 64.7033 22.5471 66.594 23.8709 67.6025C26.6173 69.6947 29.7001 71.3135 32.9817 72.3868C34.5634 72.9041 36.265 72.0412 36.7823 70.4594C37.2997 68.8777 36.4368 67.1761 34.855 66.6588C32.2145 65.7952 29.7329 64.492 27.5229 62.8085Z" fill="#9EA3B5"/>
<path d="M29.7822 49.6649C29.2067 49.6649 28.7881 49.5341 28.5265 49.2725C28.278 48.9978 28.1538 48.5989 28.1538 48.0757C28.1538 47.7095 28.2322 47.3825 28.3892 47.0948C28.5592 46.807 28.775 46.5258 29.0366 46.2511L32.47 42.6608C32.9801 42.1115 33.3398 41.6406 33.549 41.2482C33.7714 40.8558 33.8826 40.4635 33.8826 40.0711C33.8826 39.5741 33.7191 39.2013 33.3921 38.9528C33.0651 38.7043 32.5942 38.58 31.9795 38.58C31.6656 38.58 31.3321 38.6258 30.9789 38.7173C30.6258 38.7958 30.2465 38.9397 29.841 39.149C29.4879 39.3059 29.1674 39.3517 28.8797 39.2863C28.605 39.2209 28.3696 39.077 28.1734 38.8547C27.9903 38.6323 27.8725 38.3773 27.8202 38.0895C27.781 37.8018 27.8268 37.5206 27.9576 37.2459C28.0884 36.9582 28.3238 36.7227 28.6639 36.5396C29.2655 36.2126 29.8868 35.9772 30.5277 35.8333C31.1817 35.6894 31.8356 35.6175 32.4896 35.6175C33.5621 35.6175 34.4581 35.7745 35.1774 36.0884C35.9099 36.4023 36.4658 36.8601 36.8451 37.4617C37.2244 38.0503 37.414 38.7827 37.414 39.6591C37.414 40.2084 37.329 40.7447 37.159 41.2679C37.002 41.791 36.7404 42.3142 36.3742 42.8374C36.0211 43.3606 35.5437 43.9164 34.942 44.505L31.7638 47.6443V46.7418L36.6097 46.7416C37.0936 46.7416 37.4598 46.8659 37.7083 47.1144C37.9699 47.3629 38.1007 47.7226 38.1007 48.1935C38.1007 48.6643 37.9699 49.0305 37.7083 49.2921C37.4598 49.5406 37.0936 49.6649 36.6097 49.6649H29.7822Z" fill="#9EA3B5"/>
<path d="M46.6863 49.8415C46.137 49.8415 45.7053 49.6911 45.3914 49.3902C45.0906 49.0894 44.9402 48.6447 44.9402 48.0561V47.3498H40.9967C40.4212 47.3498 39.97 47.219 39.643 46.9574C39.3291 46.6958 39.1721 46.2969 39.1721 45.7607C39.1721 45.4468 39.231 45.1459 39.3487 44.8582C39.4664 44.5573 39.6757 44.1977 39.9765 43.7791L44.7636 36.7947C45.0252 36.4023 45.3195 36.1145 45.6465 35.9314C45.9735 35.7483 46.3593 35.6567 46.804 35.6567C47.301 35.6567 47.6934 35.8072 47.9812 36.108C48.2689 36.3957 48.4128 36.8404 48.4128 37.4421V44.6227H48.8836C49.3807 44.6227 49.7534 44.7405 50.0019 44.9759C50.2635 45.2113 50.3943 45.5449 50.3943 45.9765C50.3943 46.4212 50.2635 46.7612 50.0019 46.9967C49.7534 47.2321 49.3807 47.3498 48.8836 47.3498H48.4128V48.0561C48.4128 48.6316 48.2624 49.0763 47.9615 49.3902C47.6738 49.6911 47.2487 49.8415 46.6863 49.8415ZM44.9402 44.6227L44.9402 39.9927H45.4896L41.8011 45.4665V44.6229L44.9402 44.6227Z" fill="#9EA3B5"/>
<path d="M52.0933 49.7683C51.7716 49.7683 51.5227 49.6802 51.3465 49.504C51.1703 49.3279 51.0822 49.0713 51.0822 48.7342V42.4954C51.0822 42.1584 51.1703 41.9018 51.3465 41.7256C51.5227 41.5494 51.7716 41.4613 52.0933 41.4613C52.4227 41.4613 52.6754 41.5494 52.8516 41.7256C53.0354 41.9018 53.1274 42.1584 53.1274 42.4954L53.1274 45.0003H52.9436C53.1274 44.6403 53.3878 44.3644 53.7248 44.1729C54.0695 43.9814 54.4601 43.8856 54.8968 43.8856C55.3487 43.8856 55.7202 43.9737 56.0112 44.1499C56.3023 44.3184 56.5206 44.5865 56.6661 44.9542C56.8117 45.3142 56.8844 45.7699 56.8844 46.3214V48.7342C56.8844 49.0713 56.7964 49.3279 56.6202 49.504C56.444 49.6802 56.1912 49.7683 55.8619 49.7683C55.5325 49.7683 55.2797 49.6802 55.1036 49.504C54.9274 49.3279 54.8393 49.0713 54.8393 48.7342V46.4019C54.8393 46.0572 54.778 45.8121 54.6555 45.6665C54.5406 45.521 54.3682 45.4482 54.1384 45.4482C53.8321 45.4482 53.5869 45.5478 53.4031 45.747C53.2193 45.9384 53.1274 46.1989 53.1274 46.5282V48.7342C53.1274 49.4236 52.7827 49.7683 52.0933 49.7683Z" fill="#9EA3B5"/>
</svg>
