<svg width="80" height="81" viewBox="0 0 80 81" fill="none" xmlns="http://www.w3.org/2000/svg">
<path fill-rule="evenodd" clip-rule="evenodd" d="M56.8108 3.59148C56.8067 1.73379 55.408 0.340524 53.639 0.344736C51.8289 0.348968 50.4714 1.74223 50.4755 3.59992L50.4796 6.55534L26.0432 6.58912L26.0391 3.6337C26.035 1.77601 24.6774 0.382744 22.8673 0.386966C21.0572 0.386966 19.6996 1.78446 19.7038 3.64214L19.7079 6.80866C8.23018 7.87683 0.915729 15.7847 0.932157 28.0243L0.977437 59.2445C0.993892 72.5396 9.31213 80.8908 22.3983 80.8739L51.4297 80.8358C45.7577 77.2784 42.0006 71.0674 42.0006 64C42.0006 59.7612 43.3521 55.8304 45.6577 52.5954C45.1976 52.2672 44.8976 51.729 44.8976 51.1207V45.2586C44.8976 44.2588 45.7081 43.4482 46.7079 43.4482H52.57C53.5698 43.4482 54.3803 44.2588 54.3803 45.2586V45.6303C56.8703 44.5813 59.6159 44 62.5006 44C67.6312 44 72.3215 45.8387 75.9171 48.8774L75.8868 27.7583C75.8745 15.5989 68.2926 7.66995 56.8149 6.758L56.8108 3.59148ZM26.0515 13.091L50.4878 13.0573L50.4919 16.4771C50.4919 18.2926 51.8536 19.728 53.6637 19.7238C55.4327 19.7238 56.8273 18.2841 56.8273 16.4686L56.8232 13.2177C64.8863 13.927 69.3787 18.6894 69.5556 27.7668V29.2445L7.27165 29.3289L7.26751 28.0159C7.2552 18.8583 11.6941 14.079 19.7161 13.2641L19.7202 16.5151C19.7202 18.3348 21.0819 19.766 22.892 19.7618C24.7021 19.7618 26.0556 18.3263 26.0556 16.5066L26.0515 13.091ZM10.4147 45.2586C10.4147 44.2588 11.2252 43.4482 12.225 43.4482H18.0871C19.0869 43.4482 19.8974 44.2588 19.8974 45.2586V51.1207C19.8974 52.1205 19.0869 52.931 18.0871 52.931H12.225C11.2252 52.931 10.4147 52.1205 10.4147 51.1207V45.2586ZM12.225 58.9658C11.2252 58.9658 10.4147 59.7763 10.4147 60.7762V66.6382C10.4147 67.6381 11.2252 68.4486 12.225 68.4486H18.0871C19.0869 68.4486 19.8974 67.6381 19.8974 66.6382V60.7762C19.8974 59.7763 19.0869 58.9658 18.0871 58.9658H12.225ZM27.6564 45.2586C27.6564 44.2588 28.4669 43.4482 29.4667 43.4482H35.3288C36.3286 43.4482 37.1391 44.2588 37.1391 45.2586V51.1207C37.1391 52.1205 36.3286 52.931 35.3288 52.931H29.4667C28.4669 52.931 27.6564 52.1205 27.6564 51.1207V45.2586ZM29.4667 58.9658C28.4669 58.9658 27.6564 59.7763 27.6564 60.7762V66.6382C27.6564 67.6381 28.4669 68.4486 29.4667 68.4486H35.3288C36.3286 68.4486 37.1391 67.6381 37.1391 66.6382V60.7762C37.1391 59.7763 36.3286 58.9658 35.3288 58.9658H29.4667Z" fill="#9EA3B5"/>
<path fill-rule="evenodd" clip-rule="evenodd" d="M62.5697 47.7588C53.2854 47.7588 45.7594 55.0918 45.7594 64.1381C45.7594 73.1844 53.2854 80.5174 62.5697 80.5174C71.8541 80.5174 79.3801 73.1844 79.3801 64.1381C79.3801 55.0918 71.8541 47.7588 62.5697 47.7588ZM64.811 57.241C64.811 56.2412 64.0005 55.4307 63.0007 55.4307C62.0008 55.4307 61.1903 56.2412 61.1903 57.241V65.6634C61.1903 66.378 61.6106 67.0257 62.2633 67.3168L66.5736 69.2392C67.4867 69.6465 68.5571 69.2364 68.9644 68.3232C69.3716 67.4101 68.9615 66.3397 68.0484 65.9325L64.811 64.4886V57.241Z" fill="#9EA3B5"/>
</svg>
