<svg width="89" height="78" viewBox="0 0 89 78" fill="none" xmlns="http://www.w3.org/2000/svg">
<path d="M75.6207 30.2393C75.6207 49.4351 57.6721 64.9963 35.5345 64.9963C34.4632 64.9978 33.3932 64.9618 32.3263 64.8885C38.277 70.2392 46.5923 73.5622 55.7931 73.5622C59.039 73.5669 62.2715 73.1452 65.4078 72.3078C67.7951 73.5212 73.2862 75.8496 82.5242 77.3663C83.339 77.4975 83.9655 76.6448 83.6421 75.8824C82.1925 72.4554 80.8821 67.8888 80.4849 63.724C85.5093 58.682 88.5518 52.0822 88.5518 44.8675C88.5518 35.0111 82.878 26.3154 74.2357 21.1492C75.1388 24.0467 75.6207 27.0943 75.6207 30.2393Z" fill="#9EA3B5"/>
<path fill-rule="evenodd" clip-rule="evenodd" d="M71 30.4729C71 47.3027 55.1049 60.9459 35.5 60.9459C31.9825 60.9509 28.4795 60.503 25.0807 59.6138C22.4937 60.9023 16.543 63.375 6.532 64.9857C5.64894 65.125 4.97 64.2195 5.32056 63.4098C6.89144 59.7705 8.31144 54.9209 8.74187 50.498C3.29706 45.1435 0 38.1347 0 30.4729C0 13.6432 15.8951 0 35.5 0C55.1049 0 71 13.6432 71 30.4729ZM21.3103 21.6582C20.0551 21.6582 19.0376 22.6757 19.0376 23.9309C19.0376 25.1861 20.0551 26.2037 21.3103 26.2037H37.6896C38.9448 26.2037 39.9624 25.1861 39.9624 23.9309C39.9624 22.6757 38.9448 21.6582 37.6896 21.6582H21.3103ZM21.3102 37.1758C20.055 37.1758 19.0375 38.1934 19.0375 39.4486C19.0375 40.7038 20.055 41.7213 21.3102 41.7213H50.6205C51.8757 41.7213 52.8933 40.7038 52.8933 39.4486C52.8933 38.1934 51.8757 37.1758 50.6205 37.1758H21.3102Z" fill="#9EA3B5"/>
</svg>
