<svg width="73" height="71" viewBox="0 0 73 71" fill="none" xmlns="http://www.w3.org/2000/svg">
<path fill-rule="evenodd" clip-rule="evenodd" d="M36.4713 1.55326C36.4713 1.3151 36.3767 1.08669 36.2083 0.918288C36.0399 0.749883 35.8115 0.655273 35.5733 0.655273H10.4296C7.80986 0.655273 5.29738 1.69597 3.44492 3.54844C1.59246 5.4009 0.551758 7.91337 0.551758 10.5331V60.8205C0.551758 63.4403 1.59246 65.9527 3.44492 67.8052C5.29738 69.6577 7.80986 70.6984 10.4296 70.6984H46.3492C48.9689 70.6984 51.4814 69.6577 53.3339 67.8052C55.1863 65.9527 56.227 63.4403 56.227 60.8205V56.8658L55.039 58.0505L45.3765 60.2758L45.0526 60.3085C44.6507 60.3491 44.2462 60.3559 43.8434 60.3289C42.8638 60.2892 41.902 60.0482 41.0181 59.6201C40.0602 59.1562 39.218 58.4841 38.5531 57.653C37.8882 56.8219 37.4174 55.8527 37.175 54.8163C36.9327 53.78 36.9249 52.7026 37.1522 51.6628L37.1591 51.6314L39.3197 42.3068L56.224 25.3553C56.2066 25.1441 56.115 24.945 55.964 24.794C55.7956 24.6256 55.5672 24.531 55.3291 24.531H39.1653C38.4508 24.531 37.7656 24.2472 37.2603 23.7419C36.7551 23.2367 36.4713 22.5515 36.4713 21.837V1.55326ZM7.70007 29.9661C7.70007 28.5378 8.85796 27.3799 10.2863 27.3799H21.4932C22.9215 27.3799 24.0794 28.5378 24.0794 29.9661C24.0794 31.3944 22.9215 32.5523 21.4932 32.5523H10.2863C8.85796 32.5523 7.70007 31.3944 7.70007 29.9661ZM7.70007 42.8968C7.70007 41.4684 8.85796 40.3105 10.2863 40.3105H30.1139C31.5422 40.3105 32.7001 41.4684 32.7001 42.8968C32.7001 44.3251 31.5422 45.483 30.1139 45.483H10.2863C8.85796 45.483 7.70007 44.3251 7.70007 42.8968ZM7.69995 55.8284C7.69995 54.4001 8.85784 53.2422 10.2862 53.2422H30.1137C31.5421 53.2422 32.7 54.4001 32.7 55.8284C32.7 57.2567 31.5421 58.4146 30.1137 58.4146H10.2862C8.85784 58.4146 7.69995 57.2567 7.69995 55.8284Z" fill="#9EA3B5"/>
<path d="M56.227 49.5609V32.6774L44.0252 44.9133L42.2053 52.7677C42.1425 53.0548 42.1446 53.3523 42.2116 53.6385C42.2785 53.9247 42.4085 54.1923 42.5921 54.4218C42.7757 54.6513 43.0083 54.8369 43.2728 54.965C43.5373 55.0931 43.8271 55.1605 44.121 55.1623C44.2579 55.1761 44.3959 55.1761 44.5328 55.1623L52.4351 53.3424L56.227 49.5609Z" fill="#9EA3B5"/>
<path d="M42.1597 3.66966C42.1597 3.0424 42.7896 2.64354 43.2563 3.03558C43.6512 3.36966 44.0069 3.7583 44.3104 4.20147L54.1439 18.5092C54.3658 18.8365 54.1243 19.2592 53.7392 19.2592H42.9756C42.7592 19.2592 42.5517 19.1694 42.3986 19.0096C42.2456 18.8497 42.1597 18.633 42.1597 18.4069V3.66966Z" fill="#9EA3B5"/>
<path d="M44.0252 44.9133L42.2053 52.7677C42.1425 53.0548 42.1446 53.3523 42.2116 53.6385C42.2785 53.9247 42.4085 54.1923 42.5921 54.4218C42.7757 54.6513 43.0083 54.8369 43.2728 54.965C43.5373 55.0931 43.8271 55.1605 44.121 55.1623C44.2579 55.1761 44.3959 55.1761 44.5328 55.1623L52.4351 53.3424L66.2976 39.5176L57.8302 31.0693L44.0252 44.9133Z" fill="#9EA3B5"/>
<path d="M72.3776 30.6602L66.7263 25.0088C66.3547 24.6392 65.8519 24.4316 65.3278 24.4316C64.8037 24.4316 64.3009 24.6392 63.9294 25.0088L60.7876 28.1506L69.2455 36.6084L72.3872 33.4667C72.5711 33.2819 72.7167 33.0627 72.8157 32.8215C72.9148 32.5804 72.9653 32.3221 72.9644 32.0614C72.9635 31.8008 72.9112 31.5428 72.8105 31.3024C72.7099 31.0619 72.5628 30.8437 72.3776 30.6602Z" fill="#9EA3B5"/>
</svg>
