<svg width="10" height="12" viewBox="0 0 10 12" fill="none" xmlns="http://www.w3.org/2000/svg">
<g clip-path="url(#clip0_14_395)">
<path d="M8.48286 0.9341C7.93856 0.303027 6.95466 0.0324707 5.69594 0.0324707H2.04282C1.91828 0.0324754 1.79783 0.077671 1.70312 0.159932C1.60841 0.242193 1.54566 0.356123 1.52614 0.481239L0.0050459 10.2945C-0.0251885 10.488 0.122116 10.6632 0.314929 10.6632H2.57024L3.13665 7.00876L3.11907 7.1232C3.15942 6.86488 3.37661 6.67435 3.6338 6.67435H4.70551C6.81091 6.67435 8.45946 5.80447 8.94102 3.28809C8.95532 3.21366 8.9677 3.14123 8.97841 3.07046C8.91762 3.03772 8.91762 3.03772 8.97841 3.07046C9.1218 2.14038 8.97743 1.50728 8.48286 0.9341Z" fill="#27346A"/>
<path d="M3.99962 2.73541C4.06127 2.70555 4.12871 2.69007 4.197 2.69011H7.06098C7.40012 2.69011 7.71645 2.71256 8.00552 2.75989C8.0864 2.77301 8.16687 2.78867 8.2468 2.80685C8.3601 2.83229 8.47208 2.86341 8.58235 2.90011C8.72446 2.94839 8.8568 3.00462 8.97844 3.07046C9.1218 2.14002 8.97743 1.50728 8.48286 0.9341C7.93825 0.303027 6.95466 0.0324707 5.69594 0.0324707H2.04251C1.78528 0.0324707 1.56645 0.222961 1.52614 0.481239L0.00504611 10.2941C-0.0251883 10.488 0.122116 10.663 0.314616 10.663H2.57024L3.74536 3.0827C3.75691 3.00819 3.78609 2.93765 3.83038 2.87716C3.87467 2.81666 3.93275 2.76802 3.99962 2.73541Z" fill="#27346A"/>
<path d="M8.94124 3.28794C8.45968 5.80397 6.81117 6.67421 4.70574 6.67421H3.6337C3.37652 6.67421 3.15929 6.86474 3.11933 7.12305L2.41468 11.667C2.38835 11.8363 2.5171 11.9898 2.68554 11.9898H4.58671C4.69562 11.9897 4.80094 11.9502 4.88374 11.8782C4.96653 11.8063 5.02137 11.7066 5.03839 11.5972L5.05691 11.4986L5.41523 9.1886L5.43831 9.06093C5.45533 8.95152 5.51017 8.85187 5.59295 8.77991C5.67574 8.70795 5.78106 8.66839 5.88995 8.66835H6.17449C8.01617 8.66835 9.45824 7.90727 9.87964 5.7061C10.0555 4.78623 9.96453 4.01823 9.49921 3.47879C9.35808 3.3154 9.18281 3.18046 8.97863 3.07031C8.96757 3.14144 8.95558 3.21352 8.94124 3.28794Z" fill="#2790C3"/>
<path d="M8.47467 2.86593C8.39958 2.84363 8.32378 2.82388 8.2474 2.80672C8.16743 2.78884 8.08696 2.77328 8.00611 2.76008C7.71674 2.71243 7.40064 2.68994 7.06119 2.68994H4.19756C4.12922 2.68978 4.06173 2.7054 4.00018 2.7356C3.93323 2.7681 3.87509 2.81672 3.83078 2.87723C3.78647 2.93774 3.75733 3.00833 3.74588 3.08288L3.13721 7.00863L3.11963 7.12307C3.15967 6.86475 3.37686 6.67422 3.63408 6.67422H4.70611C6.8115 6.67422 8.46002 5.80434 8.94158 3.28796C8.95592 3.21353 8.96795 3.14141 8.979 3.07033C8.85705 3.00484 8.72506 2.94826 8.58291 2.9003C8.54704 2.8882 8.51097 2.87675 8.47471 2.86593" fill="#1F264F"/>
</g>
<defs>
<clipPath id="clip0_14_395">
<rect width="10" height="12" fill="white"/>
</clipPath>
</defs>
</svg>
