<svg aria-hidden="true" xmlns="http://www.w3.org/2000/svg" xmlns:xlink="http://www.w3.org/1999/xlink"><symbol viewBox="0 0 123 123" fill="none" id="decor" xmlns="http://www.w3.org/2000/svg">
<rect x="0.8125" y="0.4375" width="10" height="10" rx="5" fill="currentColor" fill-opacity="0.2"/>
<rect x="16.8125" y="0.4375" width="10" height="10" rx="5" fill="currentColor" fill-opacity="0.2"/>
<rect x="32.8125" y="0.4375" width="10" height="10" rx="5" fill="currentColor" fill-opacity="0.2"/>
<rect x="48.8125" y="0.4375" width="10" height="10" rx="5" fill="currentColor" fill-opacity="0.2"/>
<rect x="64.8125" y="0.4375" width="10" height="10" rx="5" fill="currentColor" fill-opacity="0.2"/>
<rect x="80.8125" y="0.4375" width="10" height="10" rx="5" fill="currentColor" fill-opacity="0.2"/>
<rect x="96.8125" y="0.4375" width="10" height="10" rx="5" fill="currentColor" fill-opacity="0.2"/>
<rect x="112.812" y="0.4375" width="10" height="10" rx="5" fill="currentColor" fill-opacity="0.2"/>
<rect x="0.8125" y="16.4375" width="10" height="10" rx="5" fill="currentColor" fill-opacity="0.2"/>
<rect x="16.8125" y="16.4375" width="10" height="10" rx="5" fill="currentColor" fill-opacity="0.2"/>
<rect x="32.8125" y="16.4375" width="10" height="10" rx="5" fill="currentColor" fill-opacity="0.2"/>
<rect x="48.8125" y="16.4375" width="10" height="10" rx="5" fill="currentColor" fill-opacity="0.2"/>
<rect x="64.8125" y="16.4375" width="10" height="10" rx="5" fill="currentColor" fill-opacity="0.2"/>
<rect x="80.8125" y="16.4375" width="10" height="10" rx="5" fill="currentColor" fill-opacity="0.2"/>
<rect x="96.8125" y="16.4375" width="10" height="10" rx="5" fill="currentColor" fill-opacity="0.2"/>
<rect x="112.812" y="16.4375" width="10" height="10" rx="5" fill="currentColor" fill-opacity="0.2"/>
<rect x="0.8125" y="32.4375" width="10" height="10" rx="5" fill="currentColor" fill-opacity="0.2"/>
<rect x="16.8125" y="32.4375" width="10" height="10" rx="5" fill="currentColor" fill-opacity="0.2"/>
<rect x="32.8125" y="32.4375" width="10" height="10" rx="5" fill="currentColor" fill-opacity="0.2"/>
<rect x="48.8125" y="32.4375" width="10" height="10" rx="5" fill="currentColor" fill-opacity="0.2"/>
<rect x="64.8125" y="32.4375" width="10" height="10" rx="5" fill="currentColor" fill-opacity="0.2"/>
<rect x="80.8125" y="32.4375" width="10" height="10" rx="5" fill="currentColor" fill-opacity="0.2"/>
<rect x="96.8125" y="32.4375" width="10" height="10" rx="5" fill="currentColor" fill-opacity="0.2"/>
<rect x="112.812" y="32.4375" width="10" height="10" rx="5" fill="currentColor" fill-opacity="0.2"/>
<rect x="0.8125" y="48.4375" width="10" height="10" rx="5" fill="currentColor" fill-opacity="0.2"/>
<rect x="16.8125" y="48.4375" width="10" height="10" rx="5" fill="currentColor" fill-opacity="0.2"/>
<rect x="32.8125" y="48.4375" width="10" height="10" rx="5" fill="currentColor" fill-opacity="0.2"/>
<rect x="48.8125" y="48.4375" width="10" height="10" rx="5" fill="currentColor" fill-opacity="0.2"/>
<rect x="64.8125" y="48.4375" width="10" height="10" rx="5" fill="currentColor" fill-opacity="0.2"/>
<rect x="80.8125" y="48.4375" width="10" height="10" rx="5" fill="currentColor" fill-opacity="0.2"/>
<rect x="96.8125" y="48.4375" width="10" height="10" rx="5" fill="currentColor" fill-opacity="0.2"/>
<rect x="112.812" y="48.4375" width="10" height="10" rx="5" fill="currentColor" fill-opacity="0.2"/>
<rect x="0.8125" y="64.4375" width="10" height="10" rx="5" fill="currentColor" fill-opacity="0.2"/>
<rect x="16.8125" y="64.4375" width="10" height="10" rx="5" fill="currentColor" fill-opacity="0.2"/>
<rect x="32.8125" y="64.4375" width="10" height="10" rx="5" fill="currentColor" fill-opacity="0.2"/>
<rect x="48.8125" y="64.4375" width="10" height="10" rx="5" fill="currentColor" fill-opacity="0.2"/>
<rect x="64.8125" y="64.4375" width="10" height="10" rx="5" fill="currentColor" fill-opacity="0.2"/>
<rect x="80.8125" y="64.4375" width="10" height="10" rx="5" fill="currentColor" fill-opacity="0.2"/>
<rect x="96.8125" y="64.4375" width="10" height="10" rx="5" fill="currentColor" fill-opacity="0.2"/>
<rect x="112.812" y="64.4375" width="10" height="10" rx="5" fill="currentColor" fill-opacity="0.2"/>
<rect x="0.8125" y="80.4375" width="10" height="10" rx="5" fill="currentColor" fill-opacity="0.2"/>
<rect x="16.8125" y="80.4375" width="10" height="10" rx="5" fill="currentColor" fill-opacity="0.2"/>
<rect x="32.8125" y="80.4375" width="10" height="10" rx="5" fill="currentColor" fill-opacity="0.2"/>
<rect x="48.8125" y="80.4375" width="10" height="10" rx="5" fill="currentColor" fill-opacity="0.2"/>
<rect x="64.8125" y="80.4375" width="10" height="10" rx="5" fill="currentColor" fill-opacity="0.2"/>
<rect x="80.8125" y="80.4375" width="10" height="10" rx="5" fill="currentColor" fill-opacity="0.2"/>
<rect x="96.8125" y="80.4375" width="10" height="10" rx="5" fill="currentColor" fill-opacity="0.2"/>
<rect x="112.812" y="80.4375" width="10" height="10" rx="5" fill="currentColor" fill-opacity="0.2"/>
<rect x="0.8125" y="96.4375" width="10" height="10" rx="5" fill="currentColor" fill-opacity="0.2"/>
<rect x="16.8125" y="96.4375" width="10" height="10" rx="5" fill="currentColor" fill-opacity="0.2"/>
<rect x="32.8125" y="96.4375" width="10" height="10" rx="5" fill="currentColor" fill-opacity="0.2"/>
<rect x="48.8125" y="96.4375" width="10" height="10" rx="5" fill="currentColor" fill-opacity="0.2"/>
<rect x="64.8125" y="96.4375" width="10" height="10" rx="5" fill="currentColor" fill-opacity="0.2"/>
<rect x="80.8125" y="96.4375" width="10" height="10" rx="5" fill="currentColor" fill-opacity="0.2"/>
<rect x="96.8125" y="96.4375" width="10" height="10" rx="5" fill="currentColor" fill-opacity="0.2"/>
<rect x="112.812" y="96.4375" width="10" height="10" rx="5" fill="currentColor" fill-opacity="0.2"/>
<rect x="0.8125" y="112.438" width="10" height="10" rx="5" fill="currentColor" fill-opacity="0.2"/>
<rect x="16.8125" y="112.438" width="10" height="10" rx="5" fill="currentColor" fill-opacity="0.2"/>
<rect x="32.8125" y="112.438" width="10" height="10" rx="5" fill="currentColor" fill-opacity="0.2"/>
<rect x="48.8125" y="112.438" width="10" height="10" rx="5" fill="currentColor" fill-opacity="0.2"/>
<rect x="64.8125" y="112.438" width="10" height="10" rx="5" fill="currentColor" fill-opacity="0.2"/>
<rect x="80.8125" y="112.438" width="10" height="10" rx="5" fill="currentColor" fill-opacity="0.2"/>
<rect x="96.8125" y="112.438" width="10" height="10" rx="5" fill="currentColor" fill-opacity="0.2"/>
<rect x="112.812" y="112.438" width="10" height="10" rx="5" fill="currentColor" fill-opacity="0.2"/>
</symbol><symbol viewBox="0 0 1024 1024" id="doll" xmlns="http://www.w3.org/2000/svg">
<g id="bicomoon-ignore">
</g>
<path fill="currentColor" d="M513.896 859.66c191.542 0 346.818-155.275 346.818-346.818s-155.276-346.818-346.818-346.818c-191.543 0-346.818 155.276-346.818 346.818s155.275 346.818 346.818 346.818z"/>
<path fill="none" stroke="currentColor" stroke-linejoin="round" stroke-linecap="round" stroke-miterlimit="4" stroke-width="32.5062" d="M513.894 294.329v437.028"/>
<path fill="none" stroke="currentColor" stroke-linejoin="round" stroke-linecap="round" stroke-miterlimit="4" stroke-width="32.5062" d="M613.22 373.788h-148.987c-18.44 0-36.124 7.324-49.164 20.364-13.038 13.037-20.363 30.723-20.363 49.161 0 18.44 7.324 36.124 20.363 49.164 13.040 13.038 30.724 20.364 49.164 20.364h99.324c18.439 0 36.124 7.324 49.163 20.364 13.040 13.037 20.364 30.723 20.364 49.163s-7.324 36.124-20.364 49.163c-13.038 13.038-30.724 20.364-49.163 20.364h-168.851"/>
</symbol><symbol viewBox="0 0 1024 1024" id="email" xmlns="http://www.w3.org/2000/svg">
<g id="cicomoon-ignore">
</g>
<path fill="currentColor" d="M512.001 860.683c192.571 0 348.681-156.11 348.681-348.681 0-192.573-156.11-348.683-348.681-348.683-192.573 0-348.683 156.11-348.683 348.683 0 192.571 156.11 348.681 348.683 348.681z"/>
<path fill="none" stroke="currentColor" stroke-linejoin="round" stroke-linecap="round" stroke-miterlimit="10" stroke-width="26.9474" d="M640.68 669.277h-257.361c-31.456 0-57.192-25.736-57.192-57.192v-200.17c0-31.454 25.736-57.192 57.192-57.192h257.361c31.456 0 57.192 25.737 57.192 57.192v200.17c0 31.456-25.736 57.192-57.192 57.192z"/>
<path fill="none" stroke="currentColor" stroke-linejoin="round" stroke-linecap="round" stroke-miterlimit="10" stroke-width="26.9474" d="M326.128 426.212l185.872 114.383 185.872-114.383"/>
</symbol><symbol viewBox="0 0 20 20" fill="none" id="face" xmlns="http://www.w3.org/2000/svg">
<path d="M12.5625 10.4667L13 8.13333L10.8125 8.1338V6.26667C10.8125 5.54613 11.1555 5.33333 12.125 5.33333H13V3C13 3 12.1031 3 11.25 3C9.4685 3 8.1875 4.13633 8.1875 6.26667V8.13333H6V10.4667H8.1875V17H10.8125V10.4667H12.5625Z" fill="currentColor"/>
</symbol><symbol viewBox="0 0 14 10" fill="none" id="icon-checked" xmlns="http://www.w3.org/2000/svg">
<path d="M13.7063 0.293701C14.0969 0.684326 14.0969 1.3187 13.7063 1.70933L5.70627 9.70933C5.31565 10.1 4.68127 10.1 4.29065 9.70933L0.290649 5.70933C-0.0999756 5.3187 -0.0999756 4.68433 0.290649 4.2937C0.681274 3.90308 1.31565 3.90308 1.70627 4.2937L5.00002 7.58433L12.2938 0.293701C12.6844 -0.0969238 13.3188 -0.0969238 13.7094 0.293701H13.7063Z" fill="currentColor"/>
</symbol><symbol viewBox="0 0 104 32" id="icon-greenish" xmlns="http://www.w3.org/2000/svg">
<path fill="currentColor" d="M37.359 25.517c-1.16 0-2.186-0.234-3.077-0.701-0.891-0.478-1.58-1.152-2.067-2.023s-0.73-1.895-0.73-3.074 0.243-2.203 0.73-3.074c0.487-0.881 1.176-1.556 2.067-2.023 0.891-0.478 1.916-0.717 3.077-0.717 0.788 0 1.481 0.085 2.082 0.255 0.611 0.159 1.171 0.414 1.678 0.765v2.31c-0.456-0.382-0.979-0.658-1.569-0.828-0.58-0.18-1.243-0.271-1.989-0.271-0.694 0-1.321 0.149-1.88 0.446-0.549 0.287-0.984 0.701-1.305 1.242s-0.482 1.173-0.482 1.895c0 0.733 0.145 1.375 0.435 1.927 0.301 0.542 0.72 0.961 1.259 1.258s1.16 0.446 1.865 0.446c0.642 0 1.202-0.117 1.678-0.35v-2.15h-1.756v-1.784h4.040v5.368c-1.026 0.722-2.377 1.083-4.056 1.083z"/>
<path fill="currentColor" d="M41.961 17.633h2.269v1.099c0.301-0.372 0.72-0.653 1.259-0.844 0.539-0.202 1.15-0.303 1.834-0.303v1.832c-0.715 0-1.347 0.111-1.896 0.334-0.539 0.223-0.912 0.563-1.119 1.019v4.508h-2.347v-7.646z"/>
<path fill="currentColor" d="M51.832 25.517c-1.43 0-2.554-0.351-3.372-1.051-0.819-0.711-1.228-1.704-1.228-2.978 0-1.264 0.363-2.262 1.088-2.994 0.736-0.733 1.782-1.099 3.139-1.099 0.891 0 1.647 0.17 2.269 0.51s1.093 0.812 1.414 1.418c0.321 0.595 0.482 1.269 0.482 2.023v0.972h-6.154c0.165 0.977 1.056 1.465 2.673 1.465 0.477 0 0.969-0.043 1.476-0.128s0.948-0.202 1.321-0.35v1.689c-0.363 0.159-0.829 0.287-1.399 0.382s-1.14 0.143-1.709 0.143zM53.401 20.754c-0.031-0.51-0.218-0.903-0.559-1.179-0.342-0.287-0.814-0.43-1.414-0.43-0.59 0-1.056 0.143-1.399 0.43s-0.528 0.68-0.559 1.179h3.932z"/>
<path fill="currentColor" d="M60.433 25.517c-1.429 0-2.554-0.351-3.372-1.051-0.819-0.711-1.228-1.704-1.228-2.978 0-1.264 0.362-2.262 1.088-2.994 0.736-0.733 1.782-1.099 3.139-1.099 0.891 0 1.647 0.17 2.269 0.51s1.092 0.812 1.413 1.418c0.321 0.595 0.482 1.269 0.482 2.023v0.972h-6.154c0.166 0.977 1.057 1.465 2.673 1.465 0.477 0 0.969-0.043 1.476-0.128s0.948-0.202 1.321-0.35v1.689c-0.362 0.159-0.829 0.287-1.398 0.382s-1.14 0.143-1.71 0.143zM62.003 20.754c-0.032-0.51-0.218-0.903-0.559-1.179-0.343-0.287-0.814-0.43-1.414-0.43-0.591 0-1.056 0.143-1.399 0.43s-0.528 0.68-0.56 1.179h3.932z"/>
<path fill="currentColor" d="M64.746 17.633h2.268v0.94c0.343-0.393 0.746-0.685 1.213-0.876 0.477-0.202 0.974-0.303 1.492-0.303 1.016 0 1.772 0.281 2.269 0.844 0.508 0.552 0.762 1.301 0.762 2.246v4.794h-2.347v-4.524c0-0.988-0.446-1.481-1.337-1.481-0.393 0-0.761 0.101-1.103 0.303-0.342 0.191-0.632 0.478-0.87 0.86v4.842h-2.346v-7.646z"/>
<path fill="currentColor" d="M74.818 16.454c-0.362 0-0.668-0.122-0.916-0.366s-0.373-0.552-0.373-0.924c0-0.361 0.124-0.664 0.373-0.908 0.249-0.255 0.554-0.382 0.916-0.382s0.669 0.127 0.917 0.382c0.249 0.244 0.373 0.547 0.373 0.908 0 0.372-0.125 0.68-0.373 0.924s-0.554 0.366-0.917 0.366zM73.638 17.633h2.362v7.646h-2.362v-7.646z"/>
<path fill="currentColor" d="M80.002 25.517c-0.559 0-1.16-0.064-1.803-0.191-0.632-0.117-1.129-0.287-1.492-0.51v-1.88c0.415 0.255 0.912 0.462 1.492 0.621s1.119 0.239 1.616 0.239c0.425 0 0.736-0.037 0.932-0.111s0.295-0.212 0.295-0.414c0-0.159-0.057-0.287-0.171-0.382-0.114-0.106-0.29-0.196-0.528-0.271-0.228-0.085-0.611-0.207-1.15-0.366-0.632-0.191-1.129-0.382-1.492-0.573-0.352-0.202-0.621-0.451-0.808-0.749-0.176-0.297-0.264-0.68-0.264-1.147 0-0.796 0.305-1.391 0.917-1.784 0.621-0.404 1.46-0.605 2.517-0.605 0.518 0 1.052 0.058 1.6 0.175 0.559 0.106 0.99 0.25 1.29 0.43v1.832c-0.3-0.202-0.694-0.366-1.181-0.494-0.477-0.127-0.943-0.191-1.399-0.191-0.425 0-0.756 0.043-0.994 0.127-0.228 0.085-0.342 0.244-0.342 0.478 0 0.202 0.109 0.356 0.326 0.462 0.228 0.106 0.648 0.239 1.259 0.398l0.311 0.080c0.652 0.181 1.16 0.382 1.523 0.605 0.362 0.212 0.616 0.473 0.762 0.78 0.155 0.297 0.233 0.674 0.233 1.131 0 0.701-0.295 1.264-0.886 1.688-0.59 0.414-1.445 0.621-2.564 0.621z"/>
<path fill="currentColor" d="M83.994 13.507h2.346v5.001c0.353-0.372 0.751-0.648 1.196-0.828 0.446-0.191 0.923-0.287 1.43-0.287 1.015 0 1.771 0.281 2.269 0.844 0.508 0.552 0.762 1.301 0.762 2.246v4.794h-2.346v-4.524c0-0.988-0.446-1.481-1.337-1.481-0.394 0-0.761 0.101-1.103 0.303-0.342 0.191-0.632 0.478-0.87 0.86v4.842h-2.346v-11.771z"/>
<path fill="currentColor" d="M23.472 15.761c0 2.023-1.6 3.663-3.574 3.663s-3.574-1.64-3.574-3.663c0-2.023 1.6-3.663 3.574-3.663s3.574 1.64 3.574 3.663zM11.584 19.158c3.894-0.269 7.288 2.719 7.604 6.719 0.033 0.414 0.031 0.824-0.002 1.225-3.894 0.269-7.288-2.719-7.604-6.719-0.033-0.414-0.031-0.824 0.002-1.225zM21.705 26.962c3.902-0.324 6.817-3.803 6.555-7.794-0.391-0.034-0.79-0.036-1.195-0.002-3.902 0.324-6.818 3.803-6.555 7.794 0.391 0.034 0.79 0.036 1.195 0.002z"/>
</symbol><symbol viewBox="0 0 18 18" fill="none" id="icon-in" xmlns="http://www.w3.org/2000/svg">
<path d="M5.20499 2.74977C5.2048 3.1476 5.04657 3.52905 4.76512 3.81021C4.48368 4.09138 4.10207 4.24922 3.70424 4.24902C3.30642 4.24882 2.92497 4.0906 2.6438 3.80915C2.36264 3.52771 2.2048 3.1461 2.20499 2.74827C2.20519 2.35045 2.36342 1.969 2.64486 1.68783C2.92631 1.40667 3.30792 1.24882 3.70574 1.24902C4.10357 1.24922 4.48502 1.40745 4.76619 1.68889C5.04735 1.97034 5.20519 2.35195 5.20499 2.74977ZM5.24999 5.35977H2.24999V14.7498H5.24999V5.35977ZM9.98999 5.35977H7.00499V14.7498H9.95999V9.82227C9.95999 7.07727 13.5375 6.82227 13.5375 9.82227V14.7498H16.5V8.80227C16.5 4.17477 11.205 4.34727 9.95999 6.61977L9.98999 5.35977Z" fill="currentColor"/>
</symbol><symbol viewBox="0 0 16 16" fill="none" id="icon-instagram" xmlns="http://www.w3.org/2000/svg">
<path fill-rule="evenodd" clip-rule="evenodd" d="M4.8 0H11.2C13.851 0 16 2.14903 16 4.8V11.2C16 13.851 13.851 16 11.2 16H4.8C2.14903 16 0 13.851 0 11.2V4.8C0 2.14903 2.14903 0 4.8 0ZM4.8 1.6C3.03269 1.6 1.6 3.03269 1.6 4.8V11.2C1.6 12.9673 3.03269 14.4 4.8 14.4H11.2C12.9673 14.4 14.4 12.9673 14.4 11.2V4.8C14.4 3.03269 12.9673 1.6 11.2 1.6H4.8ZM8 12C5.79086 12 4 10.2091 4 8C4 5.79086 5.79086 4 8 4C10.2091 4 12 5.79086 12 8C12 10.2091 10.2091 12 8 12ZM8 10.4C9.32548 10.4 10.4 9.32548 10.4 8C10.4 6.67452 9.32548 5.6 8 5.6C6.67452 5.6 5.6 6.67452 5.6 8C5.6 9.32548 6.67452 10.4 8 10.4ZM12 4.8C11.5582 4.8 11.2 4.44183 11.2 4C11.2 3.55817 11.5582 3.2 12 3.2C12.4418 3.2 12.8 3.55817 12.8 4C12.8 4.44183 12.4418 4.8 12 4.8Z" fill="currentColor"/>
</symbol><symbol viewBox="0 0 104 32" id="icon-luminous" xmlns="http://www.w3.org/2000/svg">
<path fill="currentColor" d="M14.708 13.93c1.061-0.966 2.501-1.53 3.96-1.6 0.5 0 1.001 0.003 1.5-0.001-0.026 0.511 0 1.023-0.015 1.534-0.070 1.142-0.513 2.258-1.259 3.154-0.969 1.205-2.451 2.013-4.025 2.222-0.687 0.106-1.385 0.039-2.076 0.057 0.012-0.562-0.025-1.126 0.021-1.687 0.135-1.391 0.824-2.723 1.893-3.679z"/>
<path fill="currentColor" d="M20.631 12.329c0.536 0.006 1.071-0.003 1.608 0.003 1.337 0.090 2.655 0.579 3.662 1.428 1.11 0.909 1.871 2.208 2.066 3.596 0.086 0.644 0.032 1.295 0.065 1.942-0.468-0.001-0.935-0.003-1.403 0-1.15-0.030-2.281-0.385-3.244-0.983-0.444-0.303-0.9-0.611-1.233-1.032-0.73-0.778-1.227-1.756-1.415-2.786-0.141-0.715-0.084-1.445-0.105-2.168z"/>
<path fill="currentColor" d="M12.795 19.707c0.476 0.026 0.953-0.021 1.427 0.029 2.030 0.041 3.999 1.129 5.051 2.785 0.603 0.927 0.927 2.026 0.885 3.118-0.002 0.358 0.004 0.714-0.006 1.071-0.753-0.022-1.514 0.037-2.259-0.102-1.656-0.266-3.178-1.206-4.095-2.548-0.694-0.976-1.041-2.168-1.005-3.345 0-0.336 0-0.671 0.003-1.006z"/>
<path fill="currentColor" d="M25.496 19.858c0.816-0.173 1.657-0.145 2.487-0.145l0.036 0.034c-0.018 0.748 0.043 1.505-0.114 2.245-0.332 1.66-1.484 3.142-3.033 3.956-0.965 0.512-2.072 0.764-3.174 0.753-0.352 0.002-0.706-0.006-1.059 0.004 0-0.62-0.027-1.242 0.046-1.859 0.171-1.492 1.017-2.882 2.234-3.82 0.753-0.567 1.638-0.977 2.577-1.169z"/>
<path fill="currentColor" d="M34.177 23.937c0 0.252-0.091 0.465-0.274 0.639-0.173 0.165-0.391 0.247-0.655 0.247-0.254 0-0.467-0.082-0.64-0.247-0.173-0.174-0.259-0.388-0.259-0.639v-8.981c0-0.252 0.086-0.46 0.259-0.625 0.183-0.174 0.406-0.262 0.67-0.262s0.477 0.087 0.64 0.262c0.173 0.165 0.259 0.373 0.259 0.625v8.981z"/>
<path fill="currentColor" d="M41.515 17.048c0.264 0 0.482 0.087 0.655 0.262 0.172 0.165 0.259 0.373 0.259 0.625v3.691c0 1.027-0.3 1.841-0.899 2.442s-1.463 0.901-2.59 0.901c-1.127 0-1.991-0.3-2.59-0.901-0.589-0.601-0.884-1.415-0.884-2.442v-3.691c0-0.252 0.086-0.46 0.259-0.625 0.173-0.174 0.391-0.262 0.655-0.262s0.482 0.087 0.655 0.262c0.173 0.165 0.259 0.373 0.259 0.625v3.691c0 0.591 0.137 1.032 0.411 1.323 0.274 0.281 0.686 0.421 1.234 0.421 0.559 0 0.975-0.14 1.25-0.421 0.274-0.291 0.411-0.731 0.411-1.323v-3.691c0-0.252 0.086-0.46 0.259-0.625 0.173-0.174 0.391-0.262 0.655-0.262z"/>
<path fill="currentColor" d="M47.928 16.903c0.813 0 1.412 0.189 1.798 0.567 0.386 0.368 0.64 0.848 0.762 1.439l-0.259-0.131 0.122-0.233c0.122-0.223 0.31-0.46 0.564-0.712 0.254-0.262 0.559-0.48 0.914-0.654 0.365-0.184 0.772-0.276 1.218-0.276 0.732 0 1.285 0.15 1.661 0.45 0.386 0.3 0.65 0.702 0.792 1.206 0.142 0.494 0.213 1.046 0.213 1.657v3.72c0 0.252-0.086 0.465-0.259 0.639-0.173 0.165-0.391 0.247-0.655 0.247s-0.482-0.082-0.655-0.247c-0.173-0.174-0.259-0.388-0.259-0.639v-3.72c0-0.32-0.040-0.606-0.122-0.858-0.081-0.262-0.228-0.47-0.442-0.625s-0.518-0.233-0.914-0.233c-0.386 0-0.716 0.078-0.991 0.233s-0.482 0.363-0.625 0.625c-0.132 0.252-0.198 0.538-0.198 0.858v3.72c0 0.252-0.087 0.465-0.259 0.639-0.173 0.165-0.391 0.247-0.655 0.247s-0.482-0.082-0.655-0.247c-0.173-0.174-0.259-0.388-0.259-0.639v-3.72c0-0.32-0.041-0.606-0.122-0.858-0.081-0.262-0.228-0.47-0.442-0.625s-0.518-0.233-0.914-0.233c-0.386 0-0.716 0.078-0.99 0.233s-0.482 0.363-0.624 0.625c-0.132 0.252-0.198 0.538-0.198 0.858v3.72c0 0.252-0.086 0.465-0.259 0.639-0.173 0.165-0.391 0.247-0.655 0.247s-0.482-0.082-0.655-0.247c-0.173-0.174-0.259-0.388-0.259-0.639v-6.002c0-0.252 0.086-0.46 0.259-0.625 0.173-0.174 0.391-0.262 0.655-0.262s0.482 0.087 0.655 0.262c0.173 0.165 0.259 0.373 0.259 0.625v0.625l-0.229-0.044c0.092-0.165 0.219-0.339 0.381-0.523 0.163-0.194 0.361-0.373 0.594-0.538s0.493-0.296 0.777-0.392c0.285-0.107 0.594-0.16 0.929-0.16z"/>
<path fill="currentColor" d="M58.652 23.937c0 0.252-0.086 0.465-0.259 0.639-0.172 0.165-0.39 0.247-0.655 0.247s-0.482-0.082-0.655-0.247c-0.172-0.174-0.258-0.388-0.258-0.639v-6.002c0-0.252 0.086-0.46 0.258-0.625 0.173-0.174 0.391-0.262 0.655-0.262s0.482 0.087 0.655 0.262c0.173 0.165 0.259 0.373 0.259 0.625v6.002zM57.722 16.103c-0.345 0-0.589-0.053-0.732-0.16s-0.213-0.296-0.213-0.567v-0.276c0-0.281 0.076-0.47 0.228-0.567 0.163-0.107 0.407-0.16 0.732-0.16 0.356 0 0.605 0.053 0.746 0.16s0.214 0.296 0.214 0.567v0.276c0 0.281-0.076 0.475-0.229 0.581-0.152 0.097-0.401 0.145-0.746 0.145z"/>
<path fill="currentColor" d="M64.126 16.903c0.752 0 1.32 0.15 1.706 0.45 0.396 0.3 0.665 0.702 0.807 1.206 0.153 0.494 0.228 1.046 0.228 1.657v3.72c0 0.252-0.086 0.465-0.259 0.639-0.172 0.165-0.391 0.247-0.655 0.247s-0.482-0.082-0.655-0.247c-0.173-0.174-0.259-0.388-0.259-0.639v-3.72c0-0.32-0.045-0.606-0.136-0.858-0.082-0.262-0.234-0.47-0.457-0.625s-0.544-0.233-0.96-0.233c-0.406 0-0.752 0.078-1.036 0.233-0.274 0.155-0.487 0.363-0.64 0.625-0.142 0.252-0.214 0.538-0.214 0.858v3.72c0 0.252-0.086 0.465-0.258 0.639-0.173 0.165-0.391 0.247-0.655 0.247s-0.482-0.082-0.655-0.247c-0.173-0.174-0.259-0.388-0.259-0.639v-6.002c0-0.252 0.086-0.46 0.259-0.625 0.172-0.174 0.39-0.262 0.655-0.262s0.482 0.087 0.655 0.262c0.173 0.165 0.258 0.373 0.258 0.625v0.625l-0.228-0.044c0.092-0.165 0.223-0.339 0.396-0.523 0.173-0.194 0.376-0.373 0.609-0.538s0.498-0.296 0.792-0.392c0.295-0.107 0.615-0.16 0.96-0.16z"/>
<path fill="currentColor" d="M75.914 20.943c0 0.794-0.188 1.497-0.564 2.107-0.366 0.601-0.864 1.071-1.493 1.41-0.62 0.339-1.315 0.509-2.087 0.509s-1.473-0.169-2.102-0.509c-0.62-0.339-1.118-0.809-1.493-1.41-0.366-0.61-0.548-1.313-0.548-2.107s0.183-1.492 0.548-2.093c0.376-0.61 0.873-1.085 1.493-1.424 0.629-0.349 1.33-0.523 2.102-0.523s1.468 0.174 2.087 0.523c0.63 0.339 1.127 0.814 1.493 1.424 0.376 0.601 0.564 1.298 0.564 2.093zM74.085 20.943c0-0.494-0.106-0.92-0.32-1.279-0.203-0.368-0.482-0.654-0.838-0.857-0.345-0.203-0.731-0.305-1.158-0.305s-0.818 0.102-1.173 0.305c-0.345 0.203-0.625 0.489-0.838 0.857-0.203 0.358-0.305 0.785-0.305 1.279 0 0.484 0.102 0.911 0.305 1.279 0.213 0.358 0.493 0.639 0.838 0.843 0.355 0.204 0.747 0.305 1.173 0.305s0.813-0.102 1.158-0.305c0.355-0.203 0.635-0.484 0.838-0.843 0.214-0.368 0.32-0.794 0.32-1.279z"/>
<path fill="currentColor" d="M82.728 17.048c0.264 0 0.482 0.087 0.655 0.262 0.172 0.165 0.259 0.373 0.259 0.625v3.691c0 1.027-0.3 1.841-0.899 2.442s-1.463 0.901-2.59 0.901-1.991-0.3-2.59-0.901c-0.589-0.601-0.884-1.415-0.884-2.442v-3.691c0-0.252 0.086-0.46 0.259-0.625 0.173-0.174 0.391-0.262 0.655-0.262s0.482 0.087 0.655 0.262c0.172 0.165 0.259 0.373 0.259 0.625v3.691c0 0.591 0.137 1.032 0.411 1.323 0.274 0.281 0.686 0.421 1.234 0.421 0.558 0 0.975-0.14 1.249-0.421 0.275-0.291 0.412-0.731 0.412-1.323v-3.691c0-0.252 0.087-0.46 0.259-0.625 0.173-0.174 0.391-0.262 0.655-0.262z"/>
<path fill="currentColor" d="M84.387 23.617c-0.101-0.136-0.147-0.31-0.137-0.523s0.142-0.397 0.396-0.552c0.162-0.097 0.335-0.136 0.518-0.116 0.183 0.010 0.36 0.097 0.533 0.262 0.295 0.281 0.605 0.499 0.929 0.654s0.731 0.233 1.218 0.233c0.153-0.010 0.32-0.029 0.503-0.058 0.183-0.039 0.34-0.116 0.472-0.233 0.142-0.126 0.213-0.315 0.213-0.567 0-0.213-0.076-0.383-0.228-0.509s-0.355-0.232-0.609-0.32c-0.244-0.087-0.518-0.17-0.823-0.247-0.315-0.087-0.64-0.184-0.975-0.291-0.325-0.107-0.625-0.242-0.899-0.407-0.274-0.174-0.497-0.402-0.67-0.683s-0.259-0.635-0.259-1.061c0-0.484 0.142-0.896 0.426-1.235s0.65-0.601 1.097-0.785c0.457-0.184 0.934-0.276 1.432-0.276 0.315 0 0.645 0.039 0.991 0.116 0.345 0.068 0.675 0.184 0.991 0.349 0.315 0.155 0.579 0.363 0.792 0.625 0.111 0.145 0.178 0.32 0.198 0.523s-0.076 0.388-0.289 0.552c-0.152 0.116-0.33 0.17-0.533 0.16-0.203-0.019-0.371-0.087-0.503-0.203-0.173-0.213-0.406-0.383-0.701-0.509-0.285-0.126-0.614-0.189-0.99-0.189-0.153 0-0.32 0.019-0.503 0.058-0.172 0.029-0.325 0.102-0.457 0.218-0.132 0.107-0.198 0.281-0.198 0.523 0 0.223 0.076 0.402 0.228 0.538 0.152 0.126 0.355 0.233 0.609 0.32 0.264 0.078 0.543 0.155 0.838 0.233 0.305 0.078 0.614 0.17 0.929 0.276s0.604 0.247 0.868 0.421c0.264 0.174 0.477 0.402 0.639 0.683 0.163 0.271 0.244 0.62 0.244 1.046 0 0.494-0.152 0.916-0.457 1.264s-0.686 0.615-1.143 0.799c-0.457 0.174-0.925 0.261-1.402 0.261-0.599 0-1.198-0.097-1.798-0.291-0.599-0.204-1.097-0.557-1.493-1.061z"/>
</symbol><symbol viewBox="0 0 104 32" id="icon-pronature" xmlns="http://www.w3.org/2000/svg">
<path fill="currentColor" d="M35.076 15.163c0.782 0 1.458 0.126 2.029 0.377 0.58 0.252 1.025 0.609 1.336 1.071s0.467 1.010 0.467 1.644c0 0.625-0.156 1.173-0.467 1.644-0.311 0.463-0.756 0.82-1.336 1.071-0.571 0.243-1.248 0.365-2.029 0.365h-1.777v2.35h-2.042v-8.522h3.819zM34.963 19.729c0.613 0 1.080-0.126 1.399-0.377 0.319-0.26 0.479-0.625 0.479-1.096 0-0.479-0.159-0.844-0.479-1.096-0.319-0.26-0.786-0.39-1.399-0.39h-1.664v2.958h1.664z"/>
<path fill="currentColor" d="M41.474 18c0.235-0.317 0.55-0.556 0.945-0.718 0.403-0.162 0.865-0.243 1.386-0.243v1.753c-0.218-0.016-0.365-0.024-0.441-0.024-0.563 0-1.004 0.154-1.323 0.463-0.319 0.3-0.479 0.755-0.479 1.363v3.092h-1.966v-6.55h1.878v0.864z"/>
<path fill="currentColor" d="M47.51 23.783c-0.714 0-1.357-0.142-1.928-0.426-0.563-0.292-1.004-0.694-1.323-1.205s-0.479-1.092-0.479-1.741c0-0.649 0.16-1.23 0.479-1.741s0.76-0.909 1.323-1.193c0.571-0.292 1.214-0.438 1.928-0.438s1.353 0.146 1.916 0.438c0.563 0.284 1.004 0.682 1.324 1.193s0.479 1.092 0.479 1.741c0 0.649-0.16 1.23-0.479 1.741s-0.761 0.913-1.324 1.205c-0.563 0.284-1.202 0.426-1.916 0.426zM47.51 22.224c0.504 0 0.916-0.162 1.235-0.487 0.328-0.333 0.491-0.775 0.491-1.327s-0.164-0.99-0.491-1.315c-0.319-0.333-0.731-0.499-1.235-0.499s-0.92 0.166-1.248 0.499c-0.328 0.325-0.492 0.763-0.492 1.315s0.164 0.994 0.492 1.327c0.328 0.325 0.744 0.487 1.248 0.487z"/>
<path fill="currentColor" d="M60.142 15.163v8.522h-1.676l-4.399-5.174v5.174h-2.017v-8.522h1.689l4.386 5.174v-5.174h2.017z"/>
<path fill="currentColor" d="M64.195 17.038c1.050 0 1.857 0.243 2.42 0.73 0.563 0.479 0.844 1.205 0.844 2.179v3.738h-1.84v-0.816c-0.37 0.609-1.058 0.913-2.067 0.913-0.521 0-0.975-0.085-1.362-0.256-0.378-0.171-0.668-0.406-0.869-0.706s-0.302-0.641-0.302-1.023c0-0.609 0.235-1.088 0.705-1.437 0.479-0.349 1.215-0.523 2.206-0.523h1.563c0-0.414-0.13-0.73-0.391-0.95-0.26-0.227-0.651-0.341-1.172-0.341-0.361 0-0.719 0.057-1.071 0.171-0.345 0.105-0.639 0.252-0.883 0.438l-0.705-1.327c0.37-0.252 0.81-0.446 1.323-0.584 0.521-0.138 1.055-0.207 1.601-0.207zM64.044 22.504c0.336 0 0.634-0.073 0.895-0.219 0.26-0.154 0.446-0.377 0.555-0.67v-0.669h-1.348c-0.807 0-1.21 0.256-1.21 0.767 0 0.244 0.096 0.438 0.29 0.584 0.201 0.138 0.475 0.207 0.819 0.207z"/>
<path fill="currentColor" d="M72.982 23.369c-0.193 0.138-0.433 0.244-0.718 0.317-0.277 0.065-0.572 0.097-0.882 0.097-0.806 0-1.433-0.199-1.878-0.596-0.437-0.398-0.656-0.982-0.656-1.753v-2.691h-1.046v-1.461h1.046v-1.595h1.966v1.595h1.689v1.461h-1.689v2.666c0 0.276 0.071 0.491 0.214 0.645 0.151 0.146 0.361 0.219 0.63 0.219 0.311 0 0.576-0.081 0.794-0.243l0.529 1.339z"/>
<path fill="currentColor" d="M80.287 17.136v6.55h-1.865v-0.779c-0.26 0.284-0.572 0.503-0.933 0.657-0.361 0.146-0.752 0.219-1.172 0.219-0.891 0-1.596-0.247-2.117-0.742s-0.781-1.23-0.781-2.204v-3.701h1.966v3.421c0 1.055 0.458 1.583 1.374 1.583 0.471 0 0.849-0.146 1.135-0.438 0.285-0.3 0.428-0.742 0.428-1.327v-3.238h1.966z"/>
<path fill="currentColor" d="M83.356 18c0.235-0.317 0.55-0.556 0.945-0.718 0.403-0.162 0.865-0.243 1.386-0.243v1.753c-0.219-0.016-0.366-0.024-0.441-0.024-0.563 0-1.004 0.154-1.323 0.463-0.32 0.3-0.479 0.755-0.479 1.363v3.092h-1.966v-6.55h1.878v0.864z"/>
<path fill="currentColor" d="M92.806 20.435c0 0.024-0.012 0.195-0.038 0.511h-5.129c0.092 0.406 0.311 0.726 0.655 0.962s0.773 0.353 1.285 0.353c0.353 0 0.664-0.049 0.932-0.146 0.278-0.105 0.534-0.268 0.769-0.487l1.046 1.096c-0.639 0.706-1.571 1.059-2.798 1.059-0.764 0-1.441-0.142-2.029-0.426-0.588-0.292-1.042-0.694-1.361-1.205s-0.479-1.092-0.479-1.741c0-0.641 0.156-1.217 0.467-1.729 0.319-0.519 0.752-0.921 1.298-1.205 0.555-0.292 1.172-0.438 1.853-0.438 0.664 0 1.264 0.138 1.802 0.414s0.958 0.674 1.26 1.193c0.311 0.511 0.466 1.108 0.466 1.79zM89.29 18.475c-0.445 0-0.819 0.122-1.121 0.365s-0.487 0.576-0.555 0.998h3.34c-0.067-0.414-0.253-0.743-0.555-0.986-0.302-0.252-0.672-0.377-1.109-0.377z"/>
<path fill="currentColor" d="M20.061 10.417c-0.3-0.167-0.669-0.167-0.968 0-2.128 1.189-3.563 3.413-3.563 5.963 0 0.363 0.029 0.72 0.085 1.068-1.465-0.48-3.051-0.306-4.346 0.415-0.3 0.167-0.485 0.476-0.484 0.81 0.002 1.764 0.95 3.483 2.649 4.43 0.833 0.465 1.743 0.686 2.64 0.686-0.136 0.374-0.211 0.776-0.211 1.194 0 1.982 1.663 3.588 3.714 3.588s3.714-1.606 3.714-3.588c0-0.42-0.075-0.823-0.212-1.197 0.844-0.026 1.694-0.247 2.476-0.684 1.699-0.947 2.647-2.666 2.648-4.43 0.001-0.334-0.184-0.643-0.484-0.81-1.244-0.693-2.757-0.881-4.172-0.469 0.051-0.331 0.077-0.67 0.077-1.015 0-2.549-1.435-4.774-3.563-5.963zM17.463 16.38c0-1.656 0.83-3.125 2.113-4.039 1.283 0.915 2.113 2.384 2.113 4.039s-0.83 3.125-2.113 4.039c-1.283-0.914-2.113-2.384-2.113-4.039zM23.39 19.483c0.893-0.498 1.925-0.556 2.826-0.241-0.168 0.912-0.736 1.746-1.629 2.244s-1.925 0.556-2.826 0.241c0.168-0.912 0.736-1.746 1.629-2.244zM12.771 19.242c0.901-0.315 1.933-0.257 2.826 0.241s1.461 1.332 1.629 2.244c-0.901 0.315-1.933 0.257-2.826-0.241s-1.461-1.332-1.629-2.244zM17.796 24.984c0-0.95 0.797-1.719 1.78-1.719s1.78 0.77 1.78 1.719c0 0.95-0.797 1.719-1.78 1.719s-1.78-0.77-1.78-1.719z"/>
</symbol><symbol viewBox="0 0 104 32" id="icon-sitemark" xmlns="http://www.w3.org/2000/svg">
<path fill="currentColor" d="M11.409 22.348l5.74-2.488 3.304 1.866 0.667 6.121-4.071-0.033 0.601-4.255-0.701-0.393-3.437 2.619-2.102-3.437z"/>
<path fill="currentColor" d="M20.82 21.464l5.073 3.633 2.002-3.502-4.072-1.604v-0.786l4.072-1.637-2.002-3.47-5.073 3.633v3.731z"/>
<path fill="currentColor" d="M20.453 17.438l0.667-6.121-4.071 0.065 0.601 4.255-0.701 0.393-3.471-2.619-2.069 3.404 5.74 2.488 3.304-1.866z"/>
<path fill="currentColor" d="M41.478 18.848v5.735h2.191v-7.308h-3.191v1.574h1z"/>
<path fill="currentColor" d="M41.41 16.248c0.201 0.204 0.507 0.307 0.918 0.307s0.712-0.102 0.904-0.307c0.201-0.213 0.301-0.48 0.301-0.8 0-0.329-0.1-0.596-0.301-0.8-0.191-0.213-0.493-0.32-0.904-0.32s-0.717 0.107-0.918 0.32c-0.191 0.204-0.287 0.471-0.287 0.8 0 0.32 0.096 0.587 0.287 0.8z"/>
<path fill="currentColor" d="M33.85 24.423c0.621 0.276 1.383 0.413 2.287 0.413 0.849 0 1.579-0.129 2.191-0.387s1.082-0.618 1.41-1.080c0.338-0.471 0.507-1.018 0.507-1.64 0-0.605-0.159-1.116-0.479-1.534-0.311-0.427-0.744-0.76-1.301-1-0.557-0.249-1.201-0.405-1.931-0.467l-0.767-0.067c-0.456-0.036-0.785-0.156-0.986-0.36s-0.301-0.445-0.301-0.72c0-0.213 0.055-0.409 0.164-0.587 0.11-0.187 0.274-0.333 0.493-0.44 0.228-0.107 0.507-0.16 0.836-0.16 0.347 0 0.635 0.062 0.863 0.187 0.050 0.026 0.098 0.054 0.143 0.084l0.011 0.007c0.017 0.011 0.033 0.023 0.049 0.035 0.139 0.103 0.249 0.225 0.331 0.367 0.118 0.196 0.178 0.413 0.178 0.653h2.191c0-0.64-0.151-1.196-0.452-1.667-0.301-0.48-0.735-0.849-1.301-1.107-0.557-0.267-1.228-0.4-2.013-0.4-0.749 0-1.397 0.125-1.945 0.373-0.548 0.24-0.977 0.587-1.287 1.040-0.302 0.453-0.452 0.991-0.452 1.614 0 0.862 0.297 1.556 0.89 2.080s1.388 0.827 2.383 0.907l0.753 0.067c0.611 0.053 1.055 0.173 1.328 0.36 0.274 0.178 0.411 0.422 0.411 0.733 0 0.143-0.024 0.277-0.072 0.402-0.036 0.093-0.085 0.181-0.147 0.264-0.147 0.187-0.361 0.333-0.644 0.44s-0.635 0.16-1.055 0.16c-0.465 0-0.844-0.062-1.136-0.187-0.292-0.133-0.511-0.307-0.658-0.52-0.137-0.213-0.205-0.445-0.205-0.694h-2.178c0 0.631 0.16 1.191 0.479 1.68 0.32 0.48 0.79 0.863 1.411 1.147z"/>
<path fill="currentColor" d="M48.559 24.676c-0.758 0-1.37-0.089-1.835-0.267-0.466-0.187-0.808-0.493-1.027-0.92-0.21-0.436-0.315-1.022-0.315-1.76v-2.894h-1.137v-1.56h1.137v-1.974h2.041v1.974h2.192v1.56h-2.192v2.974c0 0.347 0.092 0.613 0.274 0.8 0.192 0.178 0.461 0.267 0.808 0.267h1.109v1.8h-1.055z"/>
<path fill="currentColor" d="M52.252 24.516c0.493 0.213 1.059 0.32 1.698 0.32 0.63 0 1.187-0.107 1.671-0.32s0.886-0.511 1.205-0.893c0.319-0.382 0.535-0.818 0.644-1.307h-2.013c-0.092 0.222-0.265 0.409-0.52 0.56s-0.585 0.227-0.987 0.227c-0.249 0-0.471-0.029-0.667-0.086-0.149-0.044-0.283-0.104-0.401-0.181-0.274-0.178-0.475-0.427-0.603-0.747-0.035-0.091-0.065-0.186-0.091-0.286-0.026-0.101-0.047-0.205-0.063-0.314h5.482v-0.72c0-0.667-0.146-1.28-0.438-1.84-0.292-0.569-0.717-1.027-1.274-1.374-0.548-0.356-1.223-0.533-2.027-0.533-0.611 0-1.159 0.107-1.643 0.32-0.475 0.204-0.872 0.484-1.191 0.84s-0.566 0.76-0.74 1.214c-0.164 0.444-0.246 0.911-0.246 1.4v0.267c0 0.471 0.082 0.933 0.246 1.387 0.174 0.445 0.42 0.849 0.74 1.213 0.328 0.356 0.735 0.64 1.219 0.854zM52.162 20.17c0.006-0.028 0.012-0.056 0.019-0.083 0.019-0.075 0.041-0.148 0.066-0.217 0.014-0.039 0.029-0.078 0.045-0.115 0.136-0.329 0.338-0.578 0.602-0.747 0.099-0.063 0.206-0.114 0.321-0.154 0.194-0.066 0.411-0.099 0.651-0.099 0.375 0 0.685 0.084 0.931 0.253 0.255 0.16 0.447 0.396 0.575 0.707 0.010 0.025 0.020 0.051 0.030 0.077 0.015 0.041 0.029 0.084 0.042 0.127 0.019 0.065 0.036 0.131 0.051 0.2 0.011 0.051 0.020 0.103 0.029 0.156h-3.384c0.006-0.036 0.013-0.071 0.021-0.105z"/>
<path fill="currentColor" d="M58.511 24.583v-7.308h1.739v1.841c0.024-0.109 0.051-0.214 0.080-0.315 0.026-0.085 0.054-0.167 0.084-0.245 0.191-0.498 0.479-0.871 0.863-1.12 0.383-0.258 0.854-0.387 1.411-0.387h0.096c0.566 0 1.036 0.129 1.411 0.387 0.383 0.249 0.671 0.622 0.863 1.12l0.015 0.038 0.013 0.034c0.009-0.024 0.018-0.048 0.027-0.072 0.201-0.498 0.493-0.871 0.877-1.12 0.383-0.258 0.854-0.387 1.411-0.387h0.096c0.566 0 1.041 0.129 1.424 0.387 0.393 0.249 0.69 0.622 0.89 1.12s0.302 1.12 0.302 1.867v4.161h-2.192v-4.281c0-0.4-0.109-0.725-0.328-0.973-0.21-0.249-0.511-0.373-0.904-0.373s-0.703 0.129-0.931 0.387c-0.228 0.249-0.342 0.582-0.342 1v4.241h-2.205v-4.281c0-0.4-0.11-0.725-0.329-0.973-0.21-0.249-0.507-0.373-0.89-0.373-0.402 0-0.717 0.129-0.945 0.387-0.228 0.249-0.342 0.582-0.342 1v4.241h-2.191z"/>
<path fill="currentColor" d="M75.965 23.175l-0.018 0.052c-0.034 0.098-0.073 0.192-0.116 0.281-0.031 0.063-0.064 0.124-0.099 0.182-0.201 0.346-0.484 0.613-0.849 0.8-0.356 0.187-0.795 0.28-1.315 0.28-0.539 0-1.013-0.093-1.424-0.28-0.402-0.187-0.717-0.453-0.945-0.8-0.228-0.356-0.342-0.778-0.342-1.267 0-0.533 0.141-0.969 0.425-1.307 0.283-0.347 0.68-0.6 1.191-0.76 0.511-0.169 1.101-0.253 1.767-0.253h1.356v-0.027c0-0.373-0.091-0.654-0.274-0.84s-0.475-0.28-0.876-0.28c-0.201 0-0.466 0.004-0.795 0.013-0.104 0.003-0.21 0.006-0.316 0.010-0.135 0.005-0.271 0.010-0.409 0.016-0.096 0.004-0.192 0.009-0.288 0.014-0.347 0.018-0.662 0.035-0.945 0.053v-1.8c0.066-0.006 0.136-0.011 0.21-0.017 0.098-0.008 0.202-0.015 0.314-0.022l0.216-0.014c0.283-0.018 0.575-0.031 0.877-0.040 0.112-0.003 0.222-0.006 0.328-0.008 0.181-0.004 0.354-0.005 0.52-0.005 0.767 0 1.411 0.107 1.931 0.32 0.53 0.213 0.931 0.538 1.205 0.973 0.274 0.427 0.411 0.978 0.411 1.654v4.481h-1.739v-1.408zM75.594 21.876v-0.587h-1.37c-0.383 0-0.68 0.093-0.89 0.28-0.201 0.178-0.301 0.422-0.301 0.733 0 0.146 0.025 0.28 0.075 0.4s0.126 0.227 0.226 0.32c0.21 0.178 0.507 0.267 0.89 0.267 0.073 0 0.144-0.004 0.212-0.010 0.056-0.006 0.11-0.014 0.162-0.024 0.1-0.020 0.195-0.048 0.284-0.085 0.201-0.089 0.365-0.235 0.493-0.44s0.201-0.489 0.219-0.853z"/>
<path fill="currentColor" d="M79.015 24.583v-7.308h1.74v2.412c0.083-0.689 0.293-1.244 0.63-1.665 0.457-0.56 1.114-0.84 1.972-0.84h0.288v1.84h-0.548c-0.603 0-1.068 0.16-1.397 0.48-0.329 0.311-0.493 0.765-0.493 1.36v3.721h-2.191z"/>
<path fill="currentColor" d="M86.423 21.169h0.726l2.369 3.414h2.465l-3.004-4.193 2.47-3.115h-2.301l-2.725 3.475v-5.902h-2.191v9.735h2.191v-3.414z"/>
</symbol><symbol viewBox="0 0 20 18" fill="none" id="icon-star" xmlns="http://www.w3.org/2000/svg">
<path fill-rule="evenodd" clip-rule="evenodd" d="M9.96878 14.0551L4.20114 17.8345L6.01321 11.1812L0.636536 6.86377L7.5241 6.53118L9.96878 0.0834961L12.4135 6.53118L19.301 6.86377L13.9244 11.1812L15.7364 17.8345L9.96878 14.0551Z" fill="currentColor"/>
</symbol><symbol viewBox="0 0 20 20" fill="none" id="icon-twiter" xmlns="http://www.w3.org/2000/svg">
<path d="M15.359 5.90097C15.9874 5.49332 16.4035 4.93692 16.6072 4.2293C15.9959 4.57202 15.387 4.80707 14.7788 4.93692C14.232 4.3156 13.5399 4 12.71 4C11.8988 4 11.2137 4.3008 10.6545 4.88597C10.0984 5.47524 9.81762 6.19108 9.81762 7.02692C9.81762 7.28087 9.84795 7.50771 9.90862 7.70002C7.5163 7.61373 5.53619 6.56503 3.97606 4.54654C3.71163 5.04048 3.57941 5.54346 3.57941 6.06369C3.57941 7.13294 4.00639 7.98028 4.85879 8.60242C4.3727 8.55887 3.94417 8.42901 3.57941 8.21615C3.57941 8.97966 3.79173 9.61742 4.21715 10.1788C4.64413 10.7343 5.19243 11.0886 5.86206 11.2398C5.61941 11.3055 5.36354 11.3368 5.10066 11.3368C4.85801 11.3368 4.68613 11.3154 4.58425 11.2685C4.76312 11.8907 5.10066 12.3953 5.5883 12.7816C6.07438 13.1695 6.63358 13.3742 7.26199 13.3922C6.22604 14.2511 5.04155 14.676 3.70152 14.676C3.37331 14.676 3.14077 14.671 3 14.6447C4.31982 15.5504 5.78896 16 7.41442 16C9.078 16 10.5479 15.5546 11.8273 14.6637C13.1067 13.7777 14.0508 12.6846 14.6575 11.3976C15.2672 10.1122 15.569 8.77419 15.569 7.37703V6.9924C16.1585 6.52394 16.6352 5.9963 17 5.4136C16.4711 5.65441 15.9244 5.81796 15.359 5.90097Z" fill="currentColor"/>
</symbol><symbol viewBox="0 0 85 32" id="icon-waveless" xmlns="http://www.w3.org/2000/svg">
<path fill="currentColor" d="M11.915 12.545c1.11-1.419 2.887-2.338 4.891-2.338 2.015 0 3.802 0.93 4.91 2.363-0.047 0.046-0.090 0.094-0.129 0.142-0.203 0.25-0.356 0.572-0.478 0.899-0.247 0.657-0.435 1.516-0.609 2.32l-0.015 0.072c-0.174 0.803-0.335 1.549-0.53 2.103-0.088 0.249-0.171 0.425-0.245 0.538-0.077-0.114-0.164-0.292-0.257-0.544-0.209-0.57-0.384-1.345-0.571-2.173l-0.006-0.027c-0.179-0.795-0.369-1.639-0.605-2.285-0.119-0.324-0.265-0.643-0.455-0.891-0.187-0.243-0.499-0.517-0.955-0.517-0.453 0-0.766 0.271-0.956 0.511-0.194 0.246-0.346 0.563-0.471 0.888-0.251 0.654-0.457 1.509-0.648 2.314l-0.020 0.083c-0.189 0.798-0.367 1.543-0.568 2.098-0.077 0.212-0.149 0.373-0.215 0.488-0.064-0.115-0.135-0.275-0.209-0.485-0.193-0.543-0.362-1.268-0.543-2.047l-0.032-0.136c-0.188-0.806-0.392-1.662-0.647-2.318-0.127-0.326-0.282-0.645-0.482-0.892-0.045-0.056-0.097-0.113-0.155-0.167zM11.243 13.634c0.053 0.099 0.109 0.222 0.167 0.371 0.221 0.568 0.408 1.342 0.6 2.167l0.037 0.161c0.175 0.753 0.358 1.536 0.573 2.141 0.114 0.322 0.252 0.637 0.43 0.882 0.168 0.232 0.469 0.531 0.932 0.531 0.462 0 0.764-0.298 0.933-0.529 0.179-0.244 0.319-0.559 0.436-0.881 0.223-0.617 0.414-1.419 0.596-2.186v-0l0.028-0.117c0.196-0.826 0.385-1.602 0.604-2.171 0.102-0.264 0.197-0.448 0.279-0.562 0.078 0.113 0.168 0.294 0.263 0.553 0.209 0.57 0.384 1.345 0.57 2.173l0.006 0.027c0.179 0.795 0.369 1.639 0.605 2.285 0.119 0.325 0.265 0.643 0.455 0.891 0.187 0.243 0.499 0.517 0.955 0.517 0.458 0 0.769-0.277 0.954-0.522 0.188-0.249 0.329-0.568 0.443-0.892 0.219-0.622 0.394-1.43 0.56-2.198v-0l0.024-0.111c0.179-0.827 0.351-1.599 0.563-2.165 0.046-0.123 0.091-0.228 0.134-0.316 0.325 0.708 0.505 1.49 0.505 2.312 0 3.196-2.727 5.787-6.090 5.787s-6.091-2.591-6.091-5.787c0-0.841 0.189-1.639 0.528-2.36zM16.806 9.050c-4.036 0-7.309 3.109-7.309 6.944s3.272 6.944 7.309 6.944c4.037 0 7.309-3.109 7.309-6.944s-3.272-6.944-7.309-6.944zM16.945 13.344c0 0-0.001 0.001-0.004 0.003 0.003-0.002 0.004-0.003 0.004-0.003zM16.777 13.345c-0.003-0.002-0.004-0.003-0.004-0.003s0.001 0.001 0.004 0.003zM19.62 18.753c0 0 0.001-0.001 0.004-0.003-0.003 0.002-0.004 0.003-0.004 0.003zM19.797 18.748c0.003 0.002 0.004 0.003 0.004 0.003s-0.002-0.001-0.004-0.003zM13.857 18.763c-0-0 0.002-0.002 0.005-0.004-0.003 0.003-0.005 0.004-0.005 0.004zM14.104 18.76c0.003 0.002 0.005 0.004 0.005 0.004s-0.002-0.001-0.005-0.004z"/>
<path fill="currentColor" d="M28.15 20.105l-1.772-5.76h1.552l1.051 4.146 1.222-4.146h1.736l1.222 4.146 1.063-4.146h1.552l-1.785 5.76h-1.626l-1.296-4.309-1.296 4.309h-1.626z"/>
<path fill="currentColor" d="M38.055 20.245c-0.521 0-0.949-0.078-1.283-0.232-0.334-0.163-0.582-0.375-0.746-0.639s-0.244-0.554-0.244-0.871c0-0.534 0.22-0.968 0.66-1.301s1.1-0.499 1.98-0.499h1.54v-0.139c0-0.395-0.118-0.685-0.355-0.871s-0.53-0.279-0.88-0.279c-0.318 0-0.595 0.074-0.831 0.221-0.236 0.139-0.383 0.348-0.44 0.627h-1.528c0.041-0.418 0.188-0.782 0.44-1.092 0.261-0.31 0.595-0.546 1.002-0.708 0.408-0.17 0.864-0.255 1.369-0.255 0.864 0 1.544 0.205 2.041 0.616s0.746 0.991 0.746 1.742v3.542h-1.333l-0.147-0.929c-0.179 0.31-0.432 0.565-0.758 0.766-0.318 0.201-0.729 0.302-1.235 0.302zM38.41 19.083c0.448 0 0.794-0.139 1.039-0.418 0.253-0.279 0.412-0.623 0.477-1.034h-1.333c-0.416 0-0.713 0.074-0.892 0.221-0.179 0.139-0.269 0.314-0.269 0.523 0 0.225 0.090 0.399 0.269 0.523s0.416 0.186 0.709 0.186z"/>
<path fill="currentColor" d="M43.989 20.105l-2.225-5.76h1.638l1.54 4.355 1.54-4.355h1.638l-2.237 5.76h-1.894z"/>
<path fill="currentColor" d="M51.266 20.245c-0.611 0-1.153-0.124-1.626-0.372s-0.843-0.596-1.112-1.045c-0.269-0.449-0.403-0.968-0.403-1.556 0-0.596 0.13-1.126 0.391-1.591 0.269-0.465 0.636-0.825 1.1-1.080 0.472-0.263 1.027-0.395 1.662-0.395 0.595 0 1.12 0.124 1.577 0.372s0.811 0.588 1.063 1.022c0.26 0.426 0.391 0.902 0.391 1.428 0 0.085-0.004 0.174-0.013 0.267 0 0.093-0.004 0.19-0.012 0.29h-4.608c0.032 0.449 0.196 0.801 0.489 1.057 0.301 0.255 0.664 0.383 1.088 0.383 0.318 0 0.582-0.066 0.794-0.198 0.22-0.139 0.383-0.317 0.489-0.534h1.589c-0.114 0.364-0.306 0.697-0.574 0.999-0.261 0.294-0.587 0.526-0.978 0.697-0.383 0.17-0.819 0.256-1.308 0.256zM51.278 15.414c-0.383 0-0.721 0.104-1.015 0.314-0.293 0.201-0.481 0.511-0.562 0.929h3.019c-0.024-0.379-0.171-0.681-0.44-0.906s-0.603-0.337-1.002-0.337z"/>
<path fill="currentColor" d="M55.136 20.105v-8.362h1.564v8.362h-1.564z"/>
<path fill="currentColor" d="M60.756 20.245c-0.611 0-1.153-0.124-1.626-0.372s-0.843-0.596-1.112-1.045c-0.269-0.449-0.403-0.968-0.403-1.556 0-0.596 0.13-1.126 0.391-1.591 0.269-0.465 0.636-0.825 1.1-1.080 0.473-0.263 1.027-0.395 1.662-0.395 0.595 0 1.12 0.124 1.577 0.372s0.811 0.588 1.063 1.022c0.26 0.426 0.391 0.902 0.391 1.428 0 0.085-0.004 0.174-0.013 0.267 0 0.093-0.004 0.19-0.012 0.29h-4.608c0.032 0.449 0.196 0.801 0.489 1.057 0.301 0.255 0.664 0.383 1.088 0.383 0.318 0 0.582-0.066 0.794-0.198 0.22-0.139 0.383-0.317 0.489-0.534h1.589c-0.114 0.364-0.306 0.697-0.574 0.999-0.261 0.294-0.587 0.526-0.978 0.697-0.383 0.17-0.819 0.256-1.308 0.256zM60.768 15.414c-0.383 0-0.721 0.104-1.015 0.314-0.293 0.201-0.48 0.511-0.562 0.929h3.019c-0.024-0.379-0.171-0.681-0.44-0.906s-0.603-0.337-1.002-0.337z"/>
<path fill="currentColor" d="M67.132 20.245c-0.538 0-1.011-0.081-1.418-0.244-0.408-0.17-0.734-0.403-0.978-0.697s-0.391-0.635-0.44-1.022h1.577c0.049 0.224 0.179 0.418 0.391 0.581 0.22 0.155 0.501 0.232 0.843 0.232s0.591-0.066 0.746-0.198c0.163-0.132 0.245-0.283 0.245-0.453 0-0.248-0.114-0.414-0.342-0.499-0.228-0.093-0.546-0.182-0.954-0.267-0.26-0.054-0.525-0.12-0.794-0.197s-0.517-0.174-0.746-0.29c-0.22-0.124-0.399-0.279-0.538-0.465-0.139-0.194-0.207-0.43-0.207-0.708 0-0.511 0.211-0.941 0.636-1.289 0.432-0.348 1.035-0.523 1.809-0.523 0.717 0 1.288 0.159 1.711 0.476 0.432 0.317 0.689 0.755 0.77 1.312h-1.479c-0.090-0.426-0.428-0.639-1.014-0.639-0.294 0-0.522 0.054-0.685 0.163-0.155 0.108-0.233 0.244-0.233 0.406 0 0.17 0.118 0.306 0.354 0.406s0.55 0.194 0.941 0.279c0.423 0.093 0.811 0.197 1.161 0.314 0.358 0.108 0.644 0.275 0.856 0.499 0.212 0.217 0.318 0.53 0.318 0.941 0.008 0.356-0.090 0.677-0.293 0.964s-0.497 0.511-0.88 0.674c-0.383 0.163-0.835 0.244-1.357 0.244z"/>
<path fill="currentColor" d="M73.065 20.245c-0.538 0-1.010-0.081-1.418-0.244-0.407-0.17-0.733-0.403-0.978-0.697s-0.391-0.635-0.44-1.022h1.577c0.049 0.224 0.179 0.418 0.391 0.581 0.22 0.155 0.501 0.232 0.843 0.232s0.591-0.066 0.746-0.198c0.163-0.132 0.245-0.283 0.245-0.453 0-0.248-0.114-0.414-0.343-0.499-0.228-0.093-0.546-0.182-0.953-0.267-0.261-0.054-0.526-0.12-0.795-0.197s-0.517-0.174-0.745-0.29c-0.22-0.124-0.399-0.279-0.538-0.465-0.139-0.194-0.208-0.43-0.208-0.708 0-0.511 0.212-0.941 0.636-1.289 0.432-0.348 1.035-0.523 1.809-0.523 0.717 0 1.287 0.159 1.711 0.476 0.431 0.317 0.688 0.755 0.77 1.312h-1.479c-0.090-0.426-0.428-0.639-1.014-0.639-0.294 0-0.522 0.054-0.685 0.163-0.155 0.108-0.232 0.244-0.232 0.406 0 0.17 0.118 0.306 0.354 0.406s0.55 0.194 0.941 0.279c0.424 0.093 0.811 0.197 1.161 0.314 0.358 0.108 0.644 0.275 0.856 0.499 0.212 0.217 0.318 0.53 0.318 0.941 0.008 0.356-0.090 0.677-0.294 0.964s-0.497 0.511-0.88 0.674c-0.383 0.163-0.835 0.244-1.357 0.244z"/>
</symbol><symbol viewBox="0 0 16 12" fill="none" id="icon-youtube" xmlns="http://www.w3.org/2000/svg">
<path d="M15.6657 1.87759C15.4817 1.13853 14.9395 0.556469 14.2511 0.358938C13.0033 0 8 0 8 0C8 0 2.99669 0 1.7489 0.358938C1.06052 0.5565 0.518349 1.13853 0.334336 1.87759C0 3.21719 0 6.01213 0 6.01213C0 6.01213 0 8.80706 0.334336 10.1467C0.518349 10.8857 1.06052 11.4435 1.7489 11.6411C2.99669 12 8 12 8 12C8 12 13.0033 12 14.2511 11.6411C14.9395 11.4435 15.4817 10.8857 15.6657 10.1467C16 8.80706 16 6.01213 16 6.01213C16 6.01213 16 3.21719 15.6657 1.87759ZM6.36363 8.54972V3.47453L10.5454 6.01219L6.36363 8.54972Z" fill="currentColor"/>
</symbol><symbol viewBox="0 0 1037 1024" id="like" xmlns="http://www.w3.org/2000/svg">
<g id="picomoon-ignore">
</g>
<path fill="currentColor" d="M518.948 859.66c191.543 0 346.818-155.275 346.818-346.818s-155.275-346.818-346.818-346.818c-191.542 0-346.818 155.276-346.818 346.818s155.276 346.818 346.818 346.818z"/>
<path fill="none" stroke="currentColor" stroke-linejoin="round" stroke-linecap="round" stroke-miterlimit="4" stroke-width="21.6708" d="M338.268 444.211h62.596v244.697h-62.596c-9.425 0-17.066-7.277-17.066-16.253v-212.192c0-8.976 7.641-16.252 17.066-16.252z"/>
<path fill="none" stroke="currentColor" stroke-linejoin="round" stroke-linecap="round" stroke-miterlimit="4" stroke-width="21.6708" d="M697.662 643.095c-3.963 30.496-24.339 45.813-60.562 45.813h-189.542c-25.754 0-46.694-19.711-46.694-43.948v-200.456c60.109-5.86 90.163-26.844 90.163-83.269v-27.040c0-28.5 24.259-51.604 54.184-51.604 11.404 0 22.517 3.426 31.757 9.793 12.735 8.789 20.849 25.437 20.849 49.408v78.271c0 6.659 11.271 12.118 22.543 12.118h60.462c25.471 0 46.13 19.177 46.696 43.016 0.377 15.892-9.574 65.086-29.856 167.898z"/>
</symbol><symbol viewBox="0 0 1011 1024" id="lupa" xmlns="http://www.w3.org/2000/svg">
<g id="qicomoon-ignore">
</g>
<path fill="currentColor" d="M507.222 856.392c189.054 0 342.314-153.26 342.314-342.314 0-189.056-153.26-342.314-342.314-342.314-189.056 0-342.314 153.258-342.314 342.314 0 189.054 153.258 342.314 342.314 342.314z"/>
<path fill="currentColor" d="M543.886 598.83l89.797 99.413c12.026 13.062 32.168 14.273 45.612 2.976l0.601-0.52 0.569-0.524c12.369-12.501 12.8-32.675 0.762-45.726l-97.567-94.733c14.844-21.661 23.982-47.62 25.145-75.791 3.301-79.919-58.823-147.371-138.724-150.669-79.915-3.301-147.376 58.799-150.676 138.716-3.301 79.917 58.81 147.383 138.723 150.684 31.595 1.305 61.247-7.619 85.758-23.826zM459.509 589.252c-61.471-2.539-109.25-54.436-106.711-115.905 2.54-61.469 54.436-109.249 115.905-106.71 61.471 2.539 109.25 54.434 106.711 115.904s-54.436 109.25-115.905 106.711z"/>
</symbol></svg>