<!-- Generated by IcoMoon.io -->
<svg version="1.1" xmlns="http://www.w3.org/2000/svg" width="1011" height="1024" viewBox="0 0 1011 1024">
<g id="icomoon-ignore">
</g>
<path fill="#5cc97b" d="M507.222 856.392c189.054 0 342.314-153.26 342.314-342.314 0-189.056-153.26-342.314-342.314-342.314-189.056 0-342.314 153.258-342.314 342.314 0 189.054 153.258 342.314 342.314 342.314z"></path>
<path fill="#fff" d="M543.886 598.83l89.797 99.413c12.026 13.062 32.168 14.273 45.612 2.976l0.601-0.52 0.569-0.524c12.369-12.501 12.8-32.675 0.762-45.726l-97.567-94.733c14.844-21.661 23.982-47.62 25.145-75.791 3.301-79.919-58.823-147.371-138.724-150.669-79.915-3.301-147.376 58.799-150.676 138.716-3.301 79.917 58.81 147.383 138.723 150.684 31.595 1.305 61.247-7.619 85.758-23.826zM459.509 589.252c-61.471-2.539-109.25-54.436-106.711-115.905 2.54-61.469 54.436-109.249 115.905-106.71 61.471 2.539 109.25 54.434 106.711 115.904s-54.436 109.25-115.905 106.711z"></path>
</svg>
