<svg aria-hidden="true" xmlns="http://www.w3.org/2000/svg" xmlns:xlink="http://www.w3.org/1999/xlink"><symbol viewBox="0 0 30 30" fill="none" id="facebook" xmlns="http://www.w3.org/2000/svg">
<g clip-path="url(#aclip0_8_69)">
<path d="M15 0C6.71625 0 0 6.71625 0 15C0 23.2838 6.71625 30 15 30C23.2838 30 30 23.2838 30 15C30 6.71625 23.2838 0 15 0ZM18.75 10H17.0625C16.39 10 16.25 10.2762 16.25 10.9725V12.5H18.75L18.4888 15H16.25V23.75H12.5V15H10V12.5H12.5V9.615C12.5 7.40375 13.6638 6.25 16.2863 6.25H18.75V10Z" fill="currentColor"/>
</g>
<defs>
<clipPath id="aclip0_8_69">
<rect width="30" height="30" fill="currentColor"/>
</clipPath>
</defs>
</symbol><symbol viewBox="0 0 40 40" fill="none" id="hero-icon-01" xmlns="http://www.w3.org/2000/svg">
<path fill-rule="evenodd" clip-rule="evenodd" d="M34.3733 37.4567L31.6667 36.0083L28.9583 37.4567L29.4983 34.435L27.285 32.3067L30.3267 31.8867L31.6667 29.1233L33.0067 31.8867L36.0483 32.3067L33.8333 34.435L34.3733 37.4567ZM22.7067 37.4567L20 36.0083L17.2917 37.4567L17.8333 34.435L15.6183 32.3067L18.66 31.8867L20 29.1233L21.34 31.8867L24.3817 32.3067L22.1667 34.435L22.7067 37.4567ZM11.04 37.4567L8.33333 36.0083L5.625 37.4567L6.16667 34.435L3.95167 32.3067L6.99333 31.8867L8.33333 29.1233L9.67333 31.8867L12.715 32.3067L10.5 34.435L11.04 37.4567ZM38.3333 26.6233H1.66667C0.746667 26.6233 0 27.3683 0 28.29V38.29C0 39.2117 0.746667 39.9567 1.66667 39.9567H38.3333C39.255 39.9567 40 39.2117 40 38.29V28.29C40 27.3683 39.255 26.6233 38.3333 26.6233ZM0.00333333 24.9567H8.33333C8.34667 22.9333 8.33167 21.1417 8.33333 19.935C8.34167 13.28 11.2483 14.7417 11.2483 8.83C11.2483 6.31833 9.61 4.95667 7.50167 4.95667C4.38667 4.95667 2.22 7.935 5.17 13.505C6.13833 15.3367 4.13667 15.77 1.98667 16.2667C0.123333 16.6967 0 18.0117 0 19.5883L0.00333333 24.9567ZM38.0133 16.2667C35.8633 15.77 33.8617 15.3367 34.83 13.505C37.78 7.935 35.6133 4.95667 32.4983 4.95667C30.39 4.95667 28.7517 6.31833 28.7517 8.83C28.7517 14.37 31.6167 13.3367 31.6667 19.9567C31.68 21.5767 31.6517 22.1417 31.6667 24.9567H39.9967L40 19.5883C40 18.0117 39.8767 16.6967 38.0133 16.2667ZM29.995 24.9567H10.0033L10 19.7467C10 17.65 10.1667 15.61 12.6467 15.0367C15.4533 14.3883 18.22 13.81 16.8883 11.355C12.945 4.08167 15.765 -0.043335 19.9983 -0.043335C24.15 -0.043335 27.0417 3.92833 23.1083 11.355C21.8167 13.795 24.485 14.375 27.35 15.0367C29.8333 15.61 29.9983 17.6517 29.9983 19.7517L29.995 24.9567Z" fill="currentColor"/>
</symbol><symbol viewBox="0 0 40 40" fill="none" id="hero-icon-02" xmlns="http://www.w3.org/2000/svg">
<path d="M28.3333 1.66667C28.3333 0.746667 27.5883 0 26.6667 0C25.745 0 25 0.746667 25 1.66667V5C25 5.92 25.745 6.66667 26.6667 6.66667C27.5883 6.66667 28.3333 5.92 28.3333 5V1.66667ZM8.33333 5C8.33333 5.92 7.58833 6.66667 6.66667 6.66667C5.745 6.66667 5 5.92 5 5V1.66667C5 0.746667 5.745 0 6.66667 0C7.58833 0 8.33333 0.746667 8.33333 1.66667V5ZM30 13.3333V30H3.33333V13.3333H30ZM33.3333 3.33333H30V5C30 6.83833 28.505 8.33333 26.6667 8.33333C24.8283 8.33333 23.3333 6.83833 23.3333 5V3.33333H10V5C10 6.83833 8.505 8.33333 6.66667 8.33333C4.82833 8.33333 3.33333 6.83833 3.33333 5V3.33333H0V33.3333H33.3333V3.33333ZM13.9233 26.6667C11.7267 26.6667 10.27 25.3983 10.31 22.9917H12.385C12.4217 24.0583 12.8517 24.8367 13.8967 24.8367C14.5883 24.8367 15.2833 24.425 15.2833 23.505C15.2833 22.3383 14.475 22.2533 13.1167 22.2533V20.625C14.0717 20.7083 15.11 20.5717 15.11 19.6117C15.11 18.8533 14.495 18.5067 13.925 18.5067C12.9667 18.5067 12.6033 19.21 12.6217 20.1783H10.5283C10.615 17.8433 12.0317 16.6667 13.91 16.6667C15.5233 16.6667 17.1917 17.6883 17.1917 19.4C17.1917 20.2867 16.8017 20.975 16.1283 21.3117C17.0083 21.65 17.54 22.4467 17.54 23.4667C17.5383 25.4683 15.885 26.6667 13.9233 26.6667ZM23.0233 26.6667H20.8467V20.42H18.4917V18.7083C19.9867 18.7483 21.0333 18.32 21.2533 16.8533H23.0233V26.6667ZM40 8.33333V40H3.33333V36.6667H36.6667V8.33333H40Z" fill="currentColor"/>
</symbol><symbol viewBox="0 0 40 30" fill="none" id="hero-icon-03" xmlns="http://www.w3.org/2000/svg">
<path d="M28.3333 6.66667H11.6667V8.33333H28.3333V6.66667ZM28.3333 10H11.6667V11.6667H28.3333V10ZM21.6667 13.3333H11.6667V15H21.6667V13.3333ZM36.7367 21.0633C36.8367 21.4883 36.275 21.7533 36.085 21.3033C35.8583 20.7533 35.4917 18.4133 35.1733 16.06C35.0017 14.8 33.3283 14.955 33.3333 16.2567C33.3383 18.2817 33.3367 19.97 33.3333 22.9683C33.33 25.5267 34.495 25.5767 35.355 28.4467C35.5017 28.94 35.6283 29.4767 35.7317 30.0017L40 28.51C38.5117 25.5983 39.23 23.3 39.3783 21.4183C39.5817 18.8467 38.8983 18.5967 35.725 15.505C35.915 16.865 36.3117 19.28 36.7367 21.0633ZM4.275 15.5067C1.10167 18.5967 0.418333 18.8483 0.621667 21.42C0.77 23.3 1.48833 25.5983 0 28.51L4.27 30C4.37333 29.4767 4.5 28.9383 4.64667 28.445C5.505 25.5767 6.67 25.525 6.66667 22.9667C6.66333 19.9667 6.66167 18.28 6.66667 16.255C6.67167 14.9533 4.99667 14.7983 4.82667 16.0583C4.51 18.4117 4.14167 20.7517 3.915 21.3017C3.72667 21.7533 3.165 21.4867 3.26333 21.0617C3.68833 19.28 4.085 16.865 4.275 15.5067ZM8.33333 23.3333L8.34 20H31.66L31.6667 23.3333H8.33333ZM5 13.635V2.5C5 1.12 6.12 0 7.5 0H32.5C33.88 0 35 1.12 35 2.5V13.635C34.77 13.5683 34.53 13.5267 34.2733 13.5267C33.59 13.525 32.92 13.8033 32.4367 14.2883C31.955 14.7717 31.6883 15.4317 31.665 16.1517V3.33333H8.33333V16.1483C8.31 15.4283 8.04333 14.77 7.56167 14.2867C7.07833 13.8017 6.41 13.525 5.725 13.525C5.47167 13.525 5.23167 13.5683 5 13.635Z" fill="currentColor"/>
</symbol><symbol viewBox="0 0 30 30" fill="none" id="istagram" xmlns="http://www.w3.org/2000/svg">
<g clip-path="url(#eclip0_11_74)">
<path d="M18.5363 7.8775C17.6138 7.835 17.3363 7.8275 15 7.8275C12.6637 7.8275 12.3875 7.83625 11.465 7.8775C9.09125 7.98625 7.98625 9.11 7.8775 11.465C7.83625 12.3875 7.82625 12.6637 7.82625 15C7.82625 17.3363 7.83625 17.6125 7.8775 18.5363C7.98625 20.885 9.08625 22.015 11.465 22.1237C12.3862 22.165 12.6637 22.175 15 22.175C17.3375 22.175 17.6138 22.1662 18.5363 22.1237C20.91 22.0162 22.0138 20.8888 22.1237 18.5363C22.165 17.6138 22.1737 17.3363 22.1737 15C22.1737 12.6637 22.165 12.3875 22.1237 11.465C22.0138 9.11125 20.9075 7.98625 18.5363 7.8775ZM15 19.4937C12.5188 19.4937 10.5062 17.4825 10.5062 15C10.5062 12.5188 12.5188 10.5075 15 10.5075C17.4813 10.5075 19.4937 12.5188 19.4937 15C19.4937 17.4813 17.4813 19.4937 15 19.4937ZM19.6713 11.38C19.0913 11.38 18.6213 10.91 18.6213 10.33C18.6213 9.75 19.0913 9.28 19.6713 9.28C20.2513 9.28 20.7212 9.75 20.7212 10.33C20.7212 10.9087 20.2513 11.38 19.6713 11.38ZM17.9163 15C17.9163 16.6112 16.61 17.9163 15 17.9163C13.39 17.9163 12.0837 16.6112 12.0837 15C12.0837 13.3888 13.39 12.0837 15 12.0837C16.61 12.0837 17.9163 13.3888 17.9163 15ZM15 0C6.71625 0 0 6.71625 0 15C0 23.2838 6.71625 30 15 30C23.2838 30 30 23.2838 30 15C30 6.71625 23.2838 0 15 0ZM23.6975 18.6075C23.5538 21.7887 21.7825 23.5513 18.6087 23.6975C17.675 23.74 17.3762 23.75 15 23.75C12.6237 23.75 12.3263 23.74 11.3925 23.6975C8.2125 23.5513 6.44875 21.7862 6.3025 18.6075C6.26 17.675 6.25 17.3762 6.25 15C6.25 12.6237 6.26 12.3263 6.3025 11.3925C6.44875 8.2125 8.21375 6.44875 11.3925 6.30375C12.3263 6.26 12.6237 6.25 15 6.25C17.3762 6.25 17.675 6.26 18.6087 6.30375C21.79 6.45 23.555 8.21875 23.6975 11.3925C23.74 12.3263 23.75 12.6237 23.75 15C23.75 17.3762 23.74 17.675 23.6975 18.6075Z" fill="currentColor"/>
</g>
<defs>
<clipPath id="eclip0_11_74">
<rect width="30" height="30" fill="currentColor"/>
</clipPath>
</defs>
</symbol><symbol viewBox="0 0 30 30" fill="none" id="twitter" xmlns="http://www.w3.org/2000/svg">
<g clip-path="url(#fclip0_11_72)">
<path d="M15 0C6.71625 0 0 6.71625 0 15C0 23.2838 6.71625 30 15 30C23.2838 30 30 23.2838 30 15C30 6.71625 23.2838 0 15 0ZM22.5825 12.0563C22.8113 17.1063 19.045 22.7362 12.3775 22.7362C10.35 22.7362 8.46375 22.1413 6.875 21.1225C8.78 21.3475 10.6812 20.8175 12.19 19.6362C10.62 19.6075 9.29375 18.5688 8.835 17.1425C9.39875 17.25 9.95375 17.2188 10.4575 17.0812C8.73125 16.7337 7.53875 15.1788 7.5775 13.515C8.0625 13.7838 8.615 13.945 9.20375 13.9637C7.605 12.895 7.1525 10.7837 8.0925 9.17C9.8625 11.3425 12.5087 12.7712 15.4925 12.9212C14.9688 10.6762 16.6725 8.5125 18.9912 8.5125C20.0225 8.5125 20.9562 8.94875 21.6112 9.64625C22.4287 9.48625 23.1988 9.18625 23.8913 8.775C23.6225 9.61375 23.0538 10.3162 22.3125 10.7613C23.0387 10.6737 23.7313 10.4812 24.3738 10.195C23.8938 10.9175 23.2862 11.55 22.5825 12.0563Z" fill="currentColor"/>
</g>
<defs>
<clipPath id="fclip0_11_72">
<rect width="30" height="30" fill="currentColor"/>
</clipPath>
</defs>
</symbol></svg>