<svg aria-hidden="true" xmlns="http://www.w3.org/2000/svg" xmlns:xlink="http://www.w3.org/1999/xlink"><symbol viewBox="0 0 72 40" fill="none" id="01-atrackecj" xmlns="http://www.w3.org/2000/svg">
<path d="M38.6875 10.3L55.9875 25.1375C55.7875 25.25 55.5875 25.3875 55.3875 25.5125C53.1375 27.0625 50.375 28.05 47.9875 28.05C45.5375 28.05 42.8875 27.0875 40.5875 25.5125C37.825 23.575 34.1375 23.575 31.375 25.5125C29.2375 26.9875 26.625 28.05 23.975 28.05C22.7125 28.05 21.3375 27.775 19.9875 27.275C20.3875 12.15 32.775 0 48 0H56C58.2125 0 60 1.7875 60 4C60 6.2125 58.2125 8 56 8H48C44.6375 8 41.4625 8.825 38.6875 10.3ZM20 8C20 10.1217 19.1571 12.1566 17.6569 13.6569C16.1566 15.1571 14.1217 16 12 16C9.87827 16 7.84344 15.1571 6.34315 13.6569C4.84286 12.1566 4 10.1217 4 8C4 5.87827 4.84286 3.84344 6.34315 2.34315C7.84344 0.842854 9.87827 0 12 0C14.1217 0 16.1566 0.842854 17.6569 2.34315C19.1571 3.84344 20 5.87827 20 8ZM38.3125 28.7375C41.125 30.675 44.5625 32 48 32C51.3625 32 54.925 30.65 57.675 28.7375C59.1625 27.675 61.1875 27.7625 62.575 28.95C64.375 30.4375 66.6375 31.575 68.9 32.1C71.05 32.6 72.3875 34.75 71.8875 36.9C71.3875 39.05 69.2375 40.3875 67.0875 39.8875C64.025 39.175 61.475 37.825 59.8125 36.7625C56.1875 38.7125 52.125 40 48 40C44.0125 40 40.425 38.7625 37.95 37.6375C37.225 37.3 36.5625 36.975 36 36.675C35.4375 36.975 34.7875 37.3125 34.05 37.6375C31.575 38.7625 27.9875 40 24 40C19.875 40 15.8125 38.7125 12.1875 36.775C10.5125 37.825 7.975 39.1875 4.9125 39.9C2.7625 40.4 0.612502 39.0625 0.112502 36.9125C-0.387498 34.7625 0.950002 32.6125 3.1 32.1125C5.3625 31.5875 7.625 30.45 9.425 28.9625C10.8125 27.7875 12.8375 27.7 14.325 28.75C17.0875 30.65 20.6375 32 24 32C27.4375 32 30.875 30.675 33.6875 28.7375C35.075 27.75 36.925 27.75 38.3125 28.7375Z" fill="currentColor"/>
</symbol><symbol viewBox="0 0 73 56" fill="none" id="02-atrackecj" xmlns="http://www.w3.org/2000/svg">
<path d="M4.1 0C2.10875 0 0.5 1.7875 0.5 4C0.5 6.2125 2.10875 8 4.1 8V28C4.1 34.625 8.9375 40 14.9 40V44H22.1V40H43.7V44H50.9V40C56.8625 40 61.7 34.625 61.7 28V16C63.6912 16 65.3 14.2125 65.3 12C65.3 9.7875 63.6912 8 61.7 8H58.1H54.5C52.5087 8 50.9 9.7875 50.9 12V17.1625C50.9 20.9375 48.1437 24 44.7462 24C36.2525 24 28.3662 19.1375 23.8662 11.1375L23.3825 10.275C20.0975 4.45 14.5625 0.7 8.45375 0.0875001C8.20625 0.0250001 7.95875 0 7.7 0H6.6875H4.1ZM72.5 44C72.5 41.7875 70.8913 40 68.9 40C66.9087 40 65.3 41.7875 65.3 44V45C65.3 46.6625 64.0962 48 62.6 48H7.7C5.70875 48 4.1 49.7875 4.1 52C4.1 54.2125 5.70875 56 7.7 56H62.6C68.0675 56 72.5 51.075 72.5 45V44Z" fill="currentColor"/>
</symbol><symbol viewBox="0 0 65 64" fill="none" id="03-atrackecj" xmlns="http://www.w3.org/2000/svg">
<path d="M26.7125 0.425C28.6875 -0.5625 31.0875 0.2375 32.075 2.2125L35.2 8.4625L40.5 9.525C42.9375 10.0125 45.225 11.0625 47.1875 12.5875L62.95 24.85C64.7 26.2125 65.0125 28.725 63.65 30.4625C62.2875 32.2 59.775 32.525 58.0375 31.1625L49.025 24.15L40.0875 28.125L44.225 31.575C47.125 33.9875 48.4125 37.825 47.5625 41.5L45.3875 50.9C45.1125 52.075 44.3625 53 43.375 53.525L54.1875 57.6625C54.7625 57.8875 55.3625 57.9875 55.975 57.9875H59.5C61.1625 57.9875 62.5 59.325 62.5 60.9875C62.5 62.65 61.1625 63.9875 59.5 63.9875H55.975C54.625 63.9875 53.3 63.7375 52.0375 63.2625L8.0125 46.4125C6.575 45.8625 5.2625 45.0125 4.1625 43.9125L1.375 41.125C0.200002 39.95 0.200002 38.05 1.375 36.8875C2.55 35.725 4.45 35.7125 5.6125 36.8875L8.4125 39.6875C8.9125 40.1875 9.5 40.575 10.1625 40.825L12.9625 41.9C12.8625 41.7 12.775 41.5 12.7 41.2875C12 39.1875 13.1375 36.925 15.225 36.225L24.5 33.1125V26.4625C24.5 23.4375 26.2125 20.6625 28.925 19.3125L34.575 16.4875L33.6375 16.3C31.2125 15.8125 29.15 14.2375 28.05 12.0375L24.925 5.7875C23.9375 3.8125 24.7375 1.4125 26.7125 0.425ZM17.875 43.7625L37.75 51.375C37.4875 50.675 37.425 49.8875 37.6125 49.1L39.7875 39.7C39.9625 38.9625 39.7 38.2 39.125 37.7125L32.525 32.2125V34.5625C32.525 37.15 30.875 39.4375 28.425 40.25L17.875 43.7625ZM54.5 0C56.0913 0 57.6174 0.632141 58.7426 1.75736C59.8679 2.88258 60.5 4.4087 60.5 6C60.5 7.5913 59.8679 9.11742 58.7426 10.2426C57.6174 11.3679 56.0913 12 54.5 12C52.9087 12 51.3826 11.3679 50.2574 10.2426C49.1321 9.11742 48.5 7.5913 48.5 6C48.5 4.4087 49.1321 2.88258 50.2574 1.75736C51.3826 0.632141 52.9087 0 54.5 0Z" fill="currentColor"/>
</symbol><symbol viewBox="0 0 73 56" fill="none" id="04-atrackecj" xmlns="http://www.w3.org/2000/svg">
<path d="M23.3875 25.4125C27.6 28 31.25 31.425 34.1125 35.475C34.9875 36.7125 35.7875 38.0125 36.5 39.35C37.2125 38 38.0125 36.7125 38.8875 35.475C41.75 31.425 45.4 28 49.6125 25.4125C55.2 21.975 61.7625 20 68.75 20H69.9875C71.375 20 72.5 21.125 72.5 22.5125C72.5 41.0125 57.5125 56 39.0125 56H36.5H33.9875C15.4875 56 0.5 41.0125 0.5 22.5125C0.5 21.125 1.625 20 3.0125 20H4.25C11.2375 20 17.8 21.975 23.3875 25.4125ZM38.1875 0.7C40.15 2.8125 45.825 9.675 48.7375 21.275C43.9875 23.975 39.8125 27.625 36.5 31.975C33.1875 27.625 29.0125 23.9875 24.2625 21.275C27.1625 9.675 32.8375 2.8125 34.8125 0.7C35.25 0.2375 35.8625 0 36.5 0C37.1375 0 37.75 0.2375 38.1875 0.7Z" fill="currentColor"/>
</symbol><symbol viewBox="0 0 57 64" fill="none" id="05-atrackecj" xmlns="http://www.w3.org/2000/svg">
<path d="M26.825 0.7375L8.25 21.175C7.7625 21.7 7.5 22.4 7.5 23.1125C7.5 24.7125 8.7875 26 10.3875 26H13.5L4.325 35.175C3.8 35.7 3.5 36.425 3.5 37.175C3.5 38.7375 4.7625 40 6.325 40H10.5L1.175 51.1875C0.7375 51.7125 0.5 52.375 0.5 53.0625C0.5 54.6875 1.8125 56 3.4375 56H24.5V60C24.5 62.2125 26.2875 64 28.5 64C30.7125 64 32.5 62.2125 32.5 60V56H53.5625C55.1875 56 56.5 54.6875 56.5 53.0625C56.5 52.375 56.2625 51.7125 55.825 51.1875L46.5 40H50.675C52.2375 40 53.5 38.7375 53.5 37.175C53.5 36.425 53.2 35.7 52.675 35.175L43.5 26H46.6125C48.2 26 49.5 24.7125 49.5 23.1125C49.5 22.4 49.2375 21.7 48.75 21.175L30.175 0.7375C29.75 0.2625 29.1375 0 28.5 0C27.8625 0 27.25 0.2625 26.825 0.7375Z" fill="currentColor"/>
</symbol><symbol viewBox="0 0 56 64" fill="none" id="06-atrackecj" xmlns="http://www.w3.org/2000/svg">
<path d="M52 0C50 0 36 4 36 22V36C36 40.4125 39.5875 44 44 44H48V60C48 62.2125 49.7875 64 52 64C54.2125 64 56 62.2125 56 60V44V30V4C56 1.7875 54.2125 0 52 0ZM8 2C8 0.975 7.2375 0.125 6.2125 0.0125C5.1875 -0.1 4.275 0.575 4.05 1.5625L0.2625 18.6C0.0875 19.3875 0 20.1875 0 20.9875C0 26.725 4.3875 31.4375 10 31.95V60C10 62.2125 11.7875 64 14 64C16.2125 64 18 62.2125 18 60V31.95C23.6125 31.4375 28 26.725 28 20.9875C28 20.1875 27.9125 19.3875 27.7375 18.6L23.95 1.5625C23.725 0.5625 22.7875 -0.1 21.775 0.0125C20.7625 0.125 20 0.975 20 2V18.775C20 19.45 19.45 20 18.775 20C18.1375 20 17.6125 19.5125 17.55 18.875L15.9875 1.825C15.9 0.7875 15.0375 0 14 0C12.9625 0 12.1 0.7875 12.0125 1.825L10.4625 18.875C10.4 19.5125 9.875 20 9.2375 20C8.5625 20 8.0125 19.45 8.0125 18.775V2H8ZM14.0375 21H14H13.9625L14 20.9125L14.0375 21Z" fill="currentColor"/>
</symbol><symbol viewBox="0 0 57 48" fill="none" id="07-atrackecj" xmlns="http://www.w3.org/2000/svg">
<path d="M1.375 38.875C0.237499 40.725 0.199999 43.05 1.2625 44.9375C2.325 46.825 4.325 48 6.5 48L50.5 48C52.675 48 54.675 46.825 55.7375 44.9375C56.8 43.05 56.75 40.725 55.625 38.875L33.625 2.875C32.5375 1.0875 30.6 -1.31603e-06 28.5 -1.22423e-06C26.4 -1.13244e-06 24.475 1.0875 23.375 2.875L1.375 38.875Z" fill="currentColor"/>
</symbol><symbol viewBox="0 0 48 64" fill="none" id="08-atrackecj" xmlns="http://www.w3.org/2000/svg">
<path d="M24 6C24 4.4087 24.6322 2.88258 25.7574 1.75736C26.8826 0.632141 28.4087 0 30 0C31.5913 0 33.1174 0.632141 34.2427 1.75736C35.3679 2.88258 36 4.4087 36 6C36 7.5913 35.3679 9.11742 34.2427 10.2426C33.1174 11.3679 31.5913 12 30 12C28.4087 12 26.8826 11.3679 25.7574 10.2426C24.6322 9.11742 24 7.5913 24 6ZM30.4125 28.8375L28.025 38.375L34.2375 44.5875C35.3625 45.7125 36 47.2375 36 48.825V60C36 62.2125 34.2125 64 32 64C29.7875 64 28 62.2125 28 60V49.6625L18.7625 40.425C16.7875 38.45 15.9875 35.6 16.65 32.8875L19.2 22.3875C20.2375 18.125 24.5375 15.525 28.7875 16.5875C31.1625 17.1875 33.2375 18.6375 34.5875 20.675L38.1375 26H42V23C42 21.3375 43.3375 20 45 20C46.6625 20 48 21.3375 48 23V29.975C48 29.9875 48 30 48 30V30.025V61C48 62.6625 46.6625 64 45 64C43.3375 64 42 62.6625 42 61V34H37.075C35.075 34 33.2 33 32.0875 31.325L30.425 28.825L30.4125 28.8375ZM10.1375 58.9875L14.6625 41.75C15.0375 42.275 15.4625 42.775 15.925 43.2375L21.1625 48.475L17.8625 61.0125C17.3 63.15 15.1125 64.425 12.975 63.8625C10.8375 63.3 9.56251 61.1125 10.125 58.975L10.1375 58.9875ZM17.075 15.7375L12.675 33.3125C12.3 34.825 10.8125 35.8 9.27501 35.55L3.28751 34.55C1.53751 34.2625 0.425012 32.5125 0.887512 30.8L3.98751 19.375C5.17501 15.025 9.12501 12 13.6375 12H14.1625C16.1125 12 17.55 13.8375 17.075 15.725V15.7375Z" fill="currentColor"/>
</symbol><symbol viewBox="0 0 32 32" fill="none" id="bb" xmlns="http://www.w3.org/2000/svg">
<g clip-path="url(#iclip0_14_4364)">
<path fill-rule="evenodd" clip-rule="evenodd" d="M32 6.14422C32 2.75333 29.3064 0.000366211 25.9901 0.000366211H6.00987C2.69362 0.000366211 9.53674e-07 2.75333 9.53674e-07 6.14422V25.8562C9.53674e-07 29.2462 2.69362 32.0001 6.00989 32.0001H25.9901C29.3064 32.0001 32 29.2462 32 25.8562L32 6.14422Z" fill="currentColor"/>
<path fill-rule="evenodd" clip-rule="evenodd" d="M0.0010891 19.88H15.9832V31.9999H0.00110081L0.0010891 19.88Z" fill="currentColor"/>
<path d="M14.5433 21.181L11.966 21.1784V18.0273C11.966 17.354 12.2214 17.0036 12.7849 16.9235H14.5433C15.7974 16.9235 16.6086 17.732 16.6086 19.0405C16.6086 20.3844 15.8179 21.1797 14.5433 21.181ZM11.966 12.6818V11.8523C11.966 11.1266 12.2663 10.7814 12.9248 10.7368H14.2443C15.3751 10.7368 16.0528 11.4284 16.0528 12.5873C16.0528 13.4692 15.5881 14.4995 14.2853 14.4995H11.966V12.6818ZM17.8343 15.8264L17.3684 15.5586L17.7753 15.2029C18.2489 14.7869 19.0422 13.8511 19.0422 12.2369C19.0422 9.76425 17.1669 8.16965 14.2648 8.16965H10.9532V8.16833H10.5759C9.71588 8.20115 9.02661 8.91643 9.01763 9.80101V23.8308H14.3302C17.5558 23.8308 19.6377 22.0354 19.6377 19.2544C19.6377 17.7569 18.9652 16.4773 17.8343 15.8264Z" fill="currentColor"/>
<path d="M21.0214 21.8928C21.0214 20.8211 21.8667 19.954 22.9083 19.954C23.9525 19.954 24.8019 20.8211 24.8019 21.8928C24.8019 22.9632 23.9525 23.8317 22.9083 23.8317C21.8667 23.8317 21.0214 22.9632 21.0214 21.8928Z" fill="currentColor"/>
</g>
<defs>
<clipPath id="iclip0_14_4364">
<rect width="32" height="32" fill="currentColor"/>
</clipPath>
</defs>
</symbol><symbol viewBox="0 0 32 32" fill="none" id="facebook" xmlns="http://www.w3.org/2000/svg">
<path d="M16 0C7.16352 0 0 7.16352 0 16C0 23.5034 5.16608 29.7997 12.135 31.529V20.8896H8.83584V16H12.135V13.8931C12.135 8.44736 14.5997 5.9232 19.9462 5.9232C20.96 5.9232 22.7091 6.12224 23.4246 6.32064V10.7526C23.047 10.713 22.391 10.6931 21.5763 10.6931C18.953 10.6931 17.9392 11.687 17.9392 14.2707V16H23.1654L22.2675 20.8896H17.9392V31.8829C25.8618 30.9261 32.0006 24.1805 32.0006 16C32 7.16352 24.8365 0 16 0Z" fill="currentColor"/>
</symbol><symbol viewBox="0 0 32 32" fill="none" id="instagram" xmlns="http://www.w3.org/2000/svg">
<g clip-path="url(#kclip0_14_4370)">
<path d="M16 2.88125C20.275 2.88125 20.7813 2.9 22.4625 2.975C24.025 3.04375 24.8688 3.30625 25.4313 3.525C26.175 3.8125 26.7125 4.1625 27.2688 4.71875C27.8313 5.28125 28.175 5.8125 28.4625 6.55625C28.6813 7.11875 28.9438 7.96875 29.0125 9.525C29.0875 11.2125 29.1063 11.7188 29.1063 15.9875C29.1063 20.2625 29.0875 20.7688 29.0125 22.45C28.9438 24.0125 28.6813 24.8563 28.4625 25.4188C28.175 26.1625 27.825 26.7 27.2688 27.2563C26.7063 27.8188 26.175 28.1625 25.4313 28.45C24.8688 28.6688 24.0188 28.9313 22.4625 29C20.775 29.075 20.2688 29.0938 16 29.0938C11.725 29.0938 11.2188 29.075 9.5375 29C7.975 28.9313 7.13125 28.6688 6.56875 28.45C5.825 28.1625 5.2875 27.8125 4.73125 27.2563C4.16875 26.6938 3.825 26.1625 3.5375 25.4188C3.31875 24.8563 3.05625 24.0063 2.9875 22.45C2.9125 20.7625 2.89375 20.2563 2.89375 15.9875C2.89375 11.7125 2.9125 11.2063 2.9875 9.525C3.05625 7.9625 3.31875 7.11875 3.5375 6.55625C3.825 5.8125 4.175 5.275 4.73125 4.71875C5.29375 4.15625 5.825 3.8125 6.56875 3.525C7.13125 3.30625 7.98125 3.04375 9.5375 2.975C11.2188 2.9 11.725 2.88125 16 2.88125ZM16 0C11.6563 0 11.1125 0.01875 9.40625 0.09375C7.70625 0.16875 6.5375 0.44375 5.525 0.8375C4.46875 1.25 3.575 1.79375 2.6875 2.6875C1.79375 3.575 1.25 4.46875 0.8375 5.51875C0.44375 6.5375 0.16875 7.7 0.09375 9.4C0.01875 11.1125 0 11.6562 0 16C0 20.3438 0.01875 20.8875 0.09375 22.5938C0.16875 24.2938 0.44375 25.4625 0.8375 26.475C1.25 27.5313 1.79375 28.425 2.6875 29.3125C3.575 30.2 4.46875 30.75 5.51875 31.1562C6.5375 31.55 7.7 31.825 9.4 31.9C11.1063 31.975 11.65 31.9937 15.9938 31.9937C20.3375 31.9937 20.8813 31.975 22.5875 31.9C24.2875 31.825 25.4563 31.55 26.4688 31.1562C27.5188 30.75 28.4125 30.2 29.3 29.3125C30.1875 28.425 30.7375 27.5313 31.1438 26.4813C31.5375 25.4625 31.8125 24.3 31.8875 22.6C31.9625 20.8938 31.9813 20.35 31.9813 16.0063C31.9813 11.6625 31.9625 11.1188 31.8875 9.4125C31.8125 7.7125 31.5375 6.54375 31.1438 5.53125C30.75 4.46875 30.2063 3.575 29.3125 2.6875C28.425 1.8 27.5313 1.25 26.4813 0.84375C25.4625 0.45 24.3 0.175 22.6 0.1C20.8875 0.01875 20.3438 0 16 0Z" fill="currentColor"/>
<path d="M16 7.78125C11.4625 7.78125 7.78125 11.4625 7.78125 16C7.78125 20.5375 11.4625 24.2188 16 24.2188C20.5375 24.2188 24.2188 20.5375 24.2188 16C24.2188 11.4625 20.5375 7.78125 16 7.78125ZM16 21.3312C13.0563 21.3312 10.6687 18.9438 10.6687 16C10.6687 13.0563 13.0563 10.6687 16 10.6687C18.9438 10.6687 21.3312 13.0563 21.3312 16C21.3312 18.9438 18.9438 21.3312 16 21.3312Z" fill="currentColor"/>
<path d="M26.4625 7.45623C26.4625 8.51873 25.6 9.37498 24.5438 9.37498C23.4813 9.37498 22.625 8.51248 22.625 7.45623C22.625 6.39373 23.4875 5.53748 24.5438 5.53748C25.6 5.53748 26.4625 6.39998 26.4625 7.45623Z" fill="currentColor"/>
</g>
<defs>
<clipPath id="kclip0_14_4370">
<rect width="32" height="32" fill="currentColor"/>
</clipPath>
</defs>
</symbol><symbol viewBox="0 0 24 24" fill="none" id="mail" xmlns="http://www.w3.org/2000/svg">
<path d="M20 4H4C2.89543 4 2 4.89543 2 6V18C2 19.1046 2.89543 20 4 20H20C21.1046 20 22 19.1046 22 18V6C22 4.89543 21.1046 4 20 4Z" stroke="currentColor" stroke-width="2" stroke-linecap="round" stroke-linejoin="round"/>
<path d="M22 7L13.03 12.7C12.7213 12.8934 12.3643 12.996 12 12.996C11.6357 12.996 11.2787 12.8934 10.97 12.7L2 7" stroke="currentColor" stroke-width="2" stroke-linecap="round" stroke-linejoin="round"/>
</symbol><symbol viewBox="0 0 25 24" fill="none" id="phone" xmlns="http://www.w3.org/2000/svg">
<path d="M22.5 16.92V19.92C22.5011 20.1985 22.4441 20.4741 22.3325 20.7293C22.2209 20.9845 22.0573 21.2136 21.8521 21.4018C21.6469 21.5901 21.4046 21.7335 21.1408 21.8227C20.8769 21.9119 20.5974 21.945 20.32 21.92C17.2428 21.5856 14.287 20.5341 11.69 18.85C9.27383 17.3146 7.22534 15.2661 5.69 12.85C3.99998 10.2412 2.94824 7.27097 2.62 4.17997C2.59501 3.90344 2.62788 3.62474 2.7165 3.3616C2.80513 3.09846 2.94757 2.85666 3.13477 2.6516C3.32196 2.44653 3.54981 2.28268 3.80379 2.1705C4.05778 2.05831 4.33234 2.00024 4.61 1.99997H7.61C8.09531 1.9952 8.56579 2.16705 8.93376 2.48351C9.30173 2.79996 9.54208 3.23942 9.61 3.71997C9.73662 4.68004 9.97145 5.6227 10.31 6.52997C10.4445 6.8879 10.4737 7.27689 10.3939 7.65086C10.3142 8.02482 10.1289 8.36809 9.86 8.63998L8.59 9.90997C10.0136 12.4135 12.0865 14.4864 14.59 15.91L15.86 14.64C16.1319 14.3711 16.4752 14.1858 16.8491 14.1061C17.2231 14.0263 17.6121 14.0554 17.97 14.19C18.8773 14.5285 19.8199 14.7634 20.78 14.89C21.2658 14.9585 21.7094 15.2032 22.0265 15.5775C22.3437 15.9518 22.5122 16.4296 22.5 16.92Z" stroke="currentColor" stroke-width="2" stroke-linecap="round" stroke-linejoin="round"/>
<path d="M14.55 2C16.5883 2.21477 18.4922 3.1188 19.9469 4.56258C21.4016 6.00636 22.3199 7.90341 22.55 9.94" stroke="currentColor" stroke-width="2" stroke-linecap="round" stroke-linejoin="round"/>
<path d="M14.55 6C15.5335 6.19394 16.436 6.67903 17.1404 7.39231C17.8447 8.10559 18.3184 9.01413 18.5 10" stroke="currentColor" stroke-width="2" stroke-linecap="round" stroke-linejoin="round"/>
</symbol><symbol viewBox="0 0 25 24" fill="none" id="world" xmlns="http://www.w3.org/2000/svg">
<path d="M22.04 15H17.5C16.9696 15 16.4609 15.2107 16.0858 15.5858C15.7107 15.9609 15.5 16.4696 15.5 17V21.54" stroke="currentColor" stroke-width="2" stroke-linecap="round" stroke-linejoin="round"/>
<path d="M7.5 3.33997V4.99997C7.5 5.79562 7.81607 6.55868 8.37868 7.12129C8.94129 7.6839 9.70435 7.99997 10.5 7.99997C11.0304 7.99997 11.5391 8.21068 11.9142 8.58575C12.2893 8.96083 12.5 9.46953 12.5 9.99997C12.5 11.1 13.4 12 14.5 12C15.0304 12 15.5391 11.7893 15.9142 11.4142C16.2893 11.0391 16.5 10.5304 16.5 9.99997C16.5 8.89997 17.4 7.99997 18.5 7.99997H21.67" stroke="currentColor" stroke-width="2" stroke-linecap="round" stroke-linejoin="round"/>
<path d="M11.5 21.95V18C11.5 17.4696 11.2893 16.9609 10.9142 16.5858C10.5391 16.2107 10.0304 16 9.5 16C8.96957 16 8.46086 15.7893 8.08579 15.4142C7.71072 15.0391 7.5 14.5304 7.5 14V13C7.5 12.4696 7.28929 11.9609 6.91422 11.5858C6.53914 11.2107 6.03044 11 5.5 11H2.55" stroke="currentColor" stroke-width="2" stroke-linecap="round" stroke-linejoin="round"/>
<path d="M12.5 22C18.0228 22 22.5 17.5228 22.5 12C22.5 6.47715 18.0228 2 12.5 2C6.97715 2 2.5 6.47715 2.5 12C2.5 17.5228 6.97715 22 12.5 22Z" stroke="currentColor" stroke-width="2" stroke-linecap="round" stroke-linejoin="round"/>
</symbol></svg>