<svg width="280" height="288" viewBox="0 0 280 288" fill="none" xmlns="http://www.w3.org/2000/svg">
<g opacity="0.400065">
<path fill-rule="evenodd" clip-rule="evenodd" d="M22.586 155.089C27.9139 136.509 47.5119 125.826 66.3581 131.23C85.2042 136.634 96.1635 156.079 90.8355 174.66C85.5076 193.24 65.9096 203.923 47.0634 198.519C28.2173 193.115 17.258 173.67 22.586 155.089Z" fill="#231F20"/>
<path fill-rule="evenodd" clip-rule="evenodd" d="M43.9198 82.8373L81.8138 244.547L199.644 127.491L43.9198 82.8373Z" fill="#C5CEBD"/>
<path fill-rule="evenodd" clip-rule="evenodd" d="M201.132 127.258L43.4851 82.0531L81.2378 247.883L201.132 127.258ZM198.246 128.013L82.1037 244.864L45.5324 84.2231L198.246 128.013Z" fill="#231F20"/>
<path fill-rule="evenodd" clip-rule="evenodd" d="M66.7424 129.469C47.6309 123.989 27.8176 134.61 22.4897 153.19C17.1618 171.771 28.3362 191.277 47.4478 196.757C66.5594 202.238 86.3726 191.617 91.7005 173.036C97.0285 154.456 85.854 134.949 66.7424 129.469ZM47.8566 195.332C29.5548 190.084 18.8538 171.404 23.956 153.611C29.0581 135.817 48.0319 125.647 66.3337 130.895C84.6354 136.143 95.3364 154.822 90.2343 172.616C85.1321 190.409 66.1583 200.58 47.8566 195.332Z" fill="#231F20"/>
<path d="M214.002 265.475L212.677 266.209L66.6876 2.83739L68.0122 2.10317L214.002 265.475Z" fill="#231F20"/>
<path fill-rule="evenodd" clip-rule="evenodd" d="M153.555 215.931C150.103 214.942 146.565 216.722 145.652 219.907C144.738 223.093 146.796 226.477 150.247 227.467C153.697 228.456 157.235 226.676 158.148 223.49C159.062 220.305 157.005 216.921 153.555 215.931ZM150.652 226.055C148.045 225.307 146.492 222.752 147.182 220.346C147.871 217.94 150.543 216.596 153.15 217.343C155.755 218.09 157.308 220.646 156.618 223.052C155.929 225.457 153.257 226.802 150.652 226.055Z" fill="#231F20"/>
<path fill-rule="evenodd" clip-rule="evenodd" d="M124.846 105.391L159.665 168.43L200.786 127.166L124.846 105.391ZM127.938 107.855L197.902 127.917L160.016 165.934L127.938 107.855Z" fill="#231F20"/>
<path d="M244.644 181.777L227.919 222.802L226.488 222.23L242.603 182.701L204.286 170.637L234.366 138.766L204.532 103.988L205.705 103.04L236.409 138.832L207.048 169.942L244.644 181.777Z" fill="#231F20"/>
<path fill-rule="evenodd" clip-rule="evenodd" d="M150.904 69.1542C153.34 60.6601 161.985 55.6867 170.213 58.0461C178.443 60.406 183.139 69.2048 180.703 77.6989C178.268 86.193 169.622 91.1663 161.393 88.8065C153.164 86.4471 148.468 77.6482 150.904 69.1542Z" fill="#231F20"/>
</g>
</svg>
