<svg width="239" height="278" viewBox="0 0 239 278" fill="none" xmlns="http://www.w3.org/2000/svg">
<g opacity="0.402088">
<path d="M215.752 131.329L146.248 23.6713" stroke="#231F20"/>
<path d="M208.752 135.329L139.248 27.6713" stroke="#201C1D"/>
<path d="M203.752 139.329L134.248 31.6713" stroke="#1E1A1C"/>
<path d="M196.752 142.329L127.248 34.6713" stroke="#1C191A"/>
<path d="M190.752 146.329L121.248 38.6713" stroke="#1B1819"/>
<path d="M184.752 150.329L115.248 42.6713" stroke="#191718"/>
<path d="M178.752 155.329L109.248 47.6713" stroke="#181617"/>
<path d="M172.752 160.329L103.248 52.6713" stroke="#171516"/>
<path d="M166.752 163.329L97.2478 55.6713" stroke="#161415"/>
<path d="M160.752 167.329L91.2478 59.6713" stroke="#151314"/>
<path d="M153.752 171.329L84.2478 63.6713" stroke="#151213"/>
<path d="M147.752 175.329L78.2478 67.6713" stroke="#131111"/>
<path d="M141.752 179.329L72.2478 71.6713" stroke="#110F0F"/>
<path d="M135.752 183.329L66.2478 75.6713" stroke="#0F0D0D"/>
<path d="M129.752 187.329L60.2478 79.6713" stroke="#0C0A0A"/>
<path d="M123.752 192.329L54.2478 84.6713" stroke="#080607"/>
<path d="M116.752 196.329L47.2478 88.6713" stroke="#030303"/>
<path d="M110.752 200.329L41.2478 92.6713" stroke="#010202"/>
<path fill-rule="evenodd" clip-rule="evenodd" d="M196.757 49.3798L180.71 109.267L140.168 86.7061L196.757 49.3798Z" fill="#DFCCC2"/>
<path fill-rule="evenodd" clip-rule="evenodd" d="M196.757 49.3798L180.71 109.267L140.168 86.7061L196.757 49.3798Z" stroke="#010202"/>
<path fill-rule="evenodd" clip-rule="evenodd" d="M115.21 187.312C110.135 206.25 121.374 225.716 140.312 230.79C159.25 235.865 178.716 224.626 183.79 205.688C188.865 186.75 177.626 167.284 158.688 162.21C139.75 157.135 120.284 168.374 115.21 187.312ZM182.503 205.343C177.619 223.57 158.884 234.387 140.657 229.503C122.43 224.619 111.613 205.884 116.497 187.657C121.381 169.43 140.116 158.613 158.343 163.497C176.57 168.381 187.387 187.116 182.503 205.343Z" fill="#010202"/>
<path d="M26.5323 133.822L26.5587 132.491C26.7235 132.494 27.0288 132.506 27.4589 132.532C28.1713 132.576 28.9772 132.645 29.8612 132.744C34.993 133.323 40.2104 134.598 44.8353 136.82C51.9493 140.237 56.6071 145.436 57.8394 152.721C59.3375 161.577 55.6504 173.034 45.9344 187.411C36.4773 201.404 33.0902 212.871 34.8227 222.052C36.227 229.494 40.9438 235.208 48.1248 239.43C53.616 242.659 59.8316 244.646 65.5861 245.685C66.0879 245.776 66.5352 245.849 66.9219 245.905C67.1519 245.939 67.3092 245.96 67.3878 245.969L67.2319 247.292C67.141 247.281 66.9712 247.258 66.7286 247.223C66.3277 247.164 65.866 247.089 65.3496 246.995C59.4537 245.931 53.0977 243.898 47.4498 240.578C39.9631 236.176 34.9976 230.161 33.5141 222.299C31.7078 212.727 35.1939 200.925 44.8309 186.665C54.3729 172.546 57.958 161.406 56.5263 152.943C55.3742 146.132 51.0135 141.265 44.2587 138.02C39.7879 135.872 34.7079 134.631 29.712 134.068C28.8514 133.97 28.068 133.904 27.3778 133.861C26.9664 133.836 26.6793 133.825 26.5323 133.822Z" fill="#010202"/>
<path fill-rule="evenodd" clip-rule="evenodd" d="M120.807 25.6621L126.773 27.6907L77.1934 171.338L71.2269 169.309L120.807 25.6621Z" fill="#010202"/>
</g>
</svg>
