<svg width="233" height="195" viewBox="0 0 233 195" fill="none" xmlns="http://www.w3.org/2000/svg">
<g opacity="0.37207">
<path d="M144.512 106.546L160.9 151.751" stroke="#020303"/>
<path d="M148.506 106.337L164.895 151.541" stroke="#020303"/>
<path d="M153.395 104.078L169.783 149.282" stroke="#020303"/>
<path d="M157.285 101.871L173.673 147.076" stroke="#020303"/>
<path d="M161.227 100.664L177.615 145.868" stroke="#020303"/>
<path d="M166.168 99.4032L182.556 144.607" stroke="#020302"/>
<path d="M170.057 97.1966L186.446 142.401" stroke="#020302"/>
<path d="M174.998 95.9363L191.387 141.141" stroke="#020302"/>
<path d="M177.89 93.782L194.278 138.986" stroke="#020302"/>
<path d="M181.832 92.574L198.22 137.778" stroke="#020202"/>
<path d="M186.72 90.3151L203.108 135.519" stroke="#010202"/>
<path d="M191.713 90.0534L208.102 135.258" stroke="#010202"/>
<path d="M196.602 87.7945L212.99 132.999" stroke="#010202"/>
<path d="M199.493 85.6402L215.881 130.844" stroke="#010202"/>
<path fill-rule="evenodd" clip-rule="evenodd" d="M166.461 103.542C168.1 97.981 168.792 92.1645 168.483 86.2583C167.5 67.4968 156.476 51.0656 140.038 43.0107C132.427 39.2779 124.008 37.5248 115.378 37.9771C88.3221 39.3951 67.2514 62.1218 67.5539 89.3937C67.5568 90.0517 67.5797 90.7515 67.6212 91.5443C69.0957 119.679 92.8648 141.297 120.716 139.837C130.674 139.315 140.051 135.894 147.914 130.069C156.772 123.51 163.312 114.187 166.461 103.542ZM139.55 44.0286C155.624 51.9053 166.402 67.9713 167.364 86.317C167.666 92.0934 166.989 97.7806 165.387 103.218C162.308 113.625 155.912 122.742 147.251 129.156C139.562 134.852 130.395 138.197 120.657 138.707C93.4237 140.134 70.1821 118.996 68.7403 91.4856C68.6996 90.7098 68.6774 90.0276 68.6745 89.3859C68.3787 62.7162 88.9819 40.4937 115.437 39.1073C123.877 38.6649 132.108 40.3788 139.55 44.0286Z" fill="#010202"/>
<path d="M24.4906 117.843L23.8875 116.885L150.283 36.1478L150.886 37.1057L24.4906 117.843Z" fill="#010202"/>
<path fill-rule="evenodd" clip-rule="evenodd" d="M183.024 77.1104L178.905 78.7082L150.231 5.48856L154.35 3.89079L183.024 77.1104Z" fill="#010202"/>
<path fill-rule="evenodd" clip-rule="evenodd" d="M12.9393 70.3828C18.1786 70.1082 22.2031 65.6382 21.9285 60.3986C21.654 55.159 17.1842 51.1342 11.9449 51.4088C6.70543 51.6834 2.68 56.1536 2.95459 61.393C3.22918 66.6324 7.69981 70.6574 12.9393 70.3828ZM12.0015 52.4893C16.6441 52.246 20.6048 55.8124 20.8481 60.4553C21.0914 65.0981 17.5253 69.0589 12.8827 69.3023C8.23986 69.5456 4.27836 65.979 4.03505 61.3364C3.79174 56.6938 7.35874 52.7327 12.0015 52.4893Z" fill="#010202"/>
<path fill-rule="evenodd" clip-rule="evenodd" d="M42.4465 88.8638C42.6199 92.1729 40.0778 94.9962 36.7687 95.1696C33.4597 95.343 30.6364 92.8009 30.4629 89.4918C30.2895 86.1828 32.8316 83.3595 36.1407 83.186C39.4498 83.0126 42.2731 85.5547 42.4465 88.8638Z" fill="#010202"/>
<path fill-rule="evenodd" clip-rule="evenodd" d="M62.9247 59.2515C63.2861 66.1461 57.9896 72.0273 51.0961 72.3885C44.2014 72.7499 38.3203 67.4545 37.959 60.5599C37.5977 53.6652 42.893 47.7841 49.7877 47.4228C56.6812 47.0615 62.5634 52.3568 62.9247 59.2515Z" fill="#010202"/>
<path fill-rule="evenodd" clip-rule="evenodd" d="M128.778 188.482L229.611 125.315L158.254 99.8179L128.778 188.482ZM227.051 125.594L130.822 185.877L158.951 101.26L227.051 125.594Z" fill="#010202"/>
<path fill-rule="evenodd" clip-rule="evenodd" d="M166.406 103.956C163.403 114.635 157.142 123.886 148.764 130.356L158.077 100.829L166.406 103.956Z" fill="#010202"/>
</g>
</svg>
