<svg aria-hidden="true" xmlns="http://www.w3.org/2000/svg" xmlns:xlink="http://www.w3.org/1999/xlink"><symbol viewBox="0 0 115 35" id="amazon" xmlns="http://www.w3.org/2000/svg">
<path fill-rule="evenodd" clip-rule="evenodd" d="M71.2454 27.3713C64.5717 32.346 54.8985 35.0002 46.5701 35.0002C34.8922 35.0002 24.3792 30.6321 16.4255 23.3673C15.8008 22.7959 16.3607 22.0174 17.1105 22.4623C25.6939 27.5129 36.307 30.5513 47.2699 30.5513C54.6636 30.5513 62.797 29.0043 70.2757 25.794C71.4054 25.3086 72.3502 26.5422 71.2454 27.3713Z"/>
<path fill-rule="evenodd" clip-rule="evenodd" d="M74.0209 24.161C73.1711 23.0588 68.3819 23.6402 66.2322 23.8981C65.5774 23.979 65.4775 23.4026 66.0673 22.9881C69.8816 20.2733 76.1405 21.0569 76.8703 21.9669C77.6001 22.8819 76.6804 29.2267 73.096 32.255C72.5461 32.7202 72.0211 32.4724 72.2661 31.8556C73.071 29.8233 74.8757 25.2682 74.0209 24.161Z"/>
<path fill-rule="evenodd" clip-rule="evenodd" d="M66.3827 3.82202V1.18303C66.3827 0.783614 66.6826 0.515673 67.0426 0.515673H78.7254C79.1004 0.515673 79.4003 0.788608 79.4003 1.18303V3.44282C79.3953 3.82202 79.0804 4.31749 78.5205 5.1011L72.4666 13.8422C74.7162 13.7867 77.0907 14.1254 79.1303 15.2882C79.5903 15.551 79.7152 15.9353 79.7503 16.3144V19.1304C79.7503 19.5146 79.3303 19.9646 78.8904 19.732C75.296 17.8261 70.522 17.6188 66.5477 19.7523C66.1428 19.9748 65.7178 19.5298 65.7178 19.1456V16.4712C65.7178 16.0415 65.7228 15.3084 66.1477 14.6563L73.1614 4.48438H67.0575C66.6826 4.48438 66.3827 4.21644 66.3827 3.82202ZM23.7656 20.2881H20.2112C19.8713 20.2629 19.6014 20.0051 19.5764 19.6764V1.22856C19.5764 0.859455 19.8813 0.566195 20.2612 0.566195H23.5756C23.9206 0.581294 24.1955 0.849351 24.2205 1.18291V3.59461H24.2855C25.1503 1.26398 26.775 0.177117 28.9646 0.177117C31.1891 0.177117 32.579 1.26398 33.5788 3.59461C34.4387 1.26398 36.3933 0.177117 38.4879 0.177117C39.9776 0.177117 41.6073 0.798945 42.6021 2.19428C43.7269 3.7463 43.497 6.00109 43.497 7.97784L43.4919 19.6209C43.4919 19.99 43.187 20.2883 42.8071 20.2883H39.2577C38.9029 20.2631 38.6178 19.9749 38.6178 19.6209V9.84332C38.6178 9.0647 38.6879 7.12326 38.5179 6.38529C38.253 5.14663 37.4581 4.79773 36.4282 4.79773C35.5684 4.79773 34.6686 5.37914 34.3036 6.30945C33.9387 7.23975 33.9738 8.79676 33.9738 9.84332V19.6208C33.9738 19.9899 33.6687 20.2881 33.2888 20.2881H29.7395C29.3796 20.2629 29.0996 19.9748 29.0996 19.6208L29.0946 9.84332C29.0946 7.78562 29.4295 4.75743 26.905 4.75743C24.3505 4.75743 24.4505 7.70978 24.4505 9.84332V19.6208C24.4505 19.9899 24.1456 20.2881 23.7656 20.2881ZM89.4585 0.177001C94.7324 0.177001 97.587 4.75732 97.587 10.5814C97.587 16.2083 94.4326 20.6725 89.4583 20.6725C84.2793 20.6725 81.4599 16.092 81.4599 10.3842C81.4599 4.64106 84.3144 0.177001 89.4585 0.177001ZM89.4884 3.94339C86.8688 3.94339 86.7039 7.5531 86.7039 9.80278C86.7039 12.0577 86.669 16.8705 89.4585 16.8705C92.213 16.8705 92.3429 12.9879 92.3429 10.6218C92.3429 9.0647 92.2779 7.20421 91.813 5.72804C91.4131 4.44385 90.6183 3.94339 89.4885 3.94339H89.4884ZM104.426 20.2881H100.886C100.531 20.2629 100.246 19.9748 100.246 19.6208L100.241 1.16781C100.271 0.829142 100.566 0.566195 100.926 0.566195H104.221C104.531 0.581294 104.786 0.793835 104.856 1.08187V3.90297H104.921C105.915 1.38024 107.31 0.177001 109.765 0.177001C111.359 0.177001 112.914 0.758295 113.914 2.35084C114.844 3.82701 114.844 6.30945 114.844 8.09409V19.7067C114.804 20.0303 114.509 20.2881 114.159 20.2881H110.595C110.27 20.2629 110 20.0202 109.965 19.7067V9.68653C109.965 7.66936 110.195 4.71678 107.74 4.71678C106.875 4.71678 106.08 5.3033 105.686 6.19307C105.186 7.32058 105.121 8.44287 105.121 9.68664V19.6208C105.116 19.9899 104.806 20.2881 104.426 20.2881ZM57.0694 11.4763C57.0694 12.8766 57.1044 14.0445 56.4045 15.2881C55.8397 16.2993 54.9399 16.921 53.945 16.921C52.5803 16.921 51.7804 15.8696 51.7804 14.3175C51.7804 11.2538 54.495 10.6977 57.0694 10.6977V11.4763ZM60.6537 20.2376C60.4188 20.4499 60.0789 20.4651 59.814 20.3236C58.6342 19.3326 58.4192 18.8726 57.7743 17.9272C55.8246 19.9394 54.44 20.541 51.9153 20.541C48.9209 20.541 46.5964 18.6754 46.5964 14.9394C46.5964 12.0223 48.1561 10.0354 50.3856 9.0647C52.3153 8.20524 55.0098 8.05356 57.0695 7.81593V7.3509C57.0695 6.49644 57.1344 5.4853 56.6345 4.74721C56.2046 4.08497 55.3747 3.81192 54.6399 3.81192C53.2851 3.81192 52.0804 4.51458 51.7855 5.97066C51.7254 6.29423 51.4904 6.6127 51.1655 6.62791L47.7211 6.25381C47.4313 6.18808 47.1063 5.95045 47.1912 5.50051C47.9811 1.27408 51.7604 0 55.1399 0C56.8696 0 59.1291 0.465151 60.4939 1.78976C62.2235 3.42272 62.0586 5.60156 62.0586 7.97273V13.5743C62.0586 15.2579 62.7486 15.9959 63.3983 16.9059C63.6234 17.2295 63.6733 17.6188 63.3834 17.8615C62.6585 18.4732 61.3687 19.6107 60.6589 20.2477L60.6539 20.2376H60.6537ZM10.4731 11.4763C10.4731 12.8766 10.5081 14.0445 9.80812 15.2881C9.24331 16.2993 8.34845 16.921 7.34862 16.921C5.98393 16.921 5.18898 15.8696 5.18898 14.3175C5.18898 11.2538 7.90355 10.6977 10.4731 10.6977V11.4763ZM14.0573 20.2376C13.8225 20.4499 13.4825 20.4651 13.2176 20.3236C12.0378 19.3326 11.8278 18.8726 11.178 17.9272C9.22827 19.9394 7.84865 20.541 5.31899 20.541C2.32961 20.541 0 18.6754 0 14.9394C0 12.0223 1.56475 10.0354 3.78927 9.0647C5.71899 8.20524 8.41345 8.05356 10.4731 7.81593V7.3509C10.4731 6.49644 10.5381 5.4853 10.0431 4.74721C9.60817 4.08497 8.77843 3.81192 8.04848 3.81192C6.69378 3.81192 5.48402 4.51458 5.18898 5.97066C5.12904 6.29423 4.89407 6.6127 4.57411 6.62791L1.12478 6.25381C0.834799 6.18808 0.514959 5.95045 0.594891 5.50051C1.38972 1.27408 5.16406 0 8.54346 0C10.273 0 12.5327 0.465151 13.8975 1.78976C15.627 3.42272 15.4621 5.60156 15.4621 7.97273V13.5743C15.4621 15.2579 16.152 15.9959 16.8019 16.9059C17.0319 17.2295 17.0819 17.6188 16.7919 17.8615C16.067 18.4732 14.7773 19.6107 14.0674 20.2477L14.0574 20.2376"/>
</symbol><symbol viewBox="0 0 32 32" id="arrow-right-circle" xmlns="http://www.w3.org/2000/svg">
<title>arrow-right-circle</title>
<path stroke-linejoin="round" stroke-linecap="round" stroke-miterlimit="4" stroke-width="1.3333" d="M16 29.333c-7.364 0-13.333-5.97-13.333-13.333s5.97-13.333 13.333-13.333c7.364 0 13.333 5.97 13.333 13.333s-5.97 13.333-13.333 13.333z"/>
<path stroke-linejoin="round" stroke-linecap="round" stroke-miterlimit="4" stroke-width="1.3333" d="M16 21.333l-5.333-5.333 5.333-5.333"/>
<path stroke-linejoin="round" stroke-linecap="round" stroke-miterlimit="4" stroke-width="1.3333" d="M21.333 16h-10.667"/>
</symbol><symbol viewBox="0 0 188 23" id="atlassian" xmlns="http://www.w3.org/2000/svg">
<path d="M103.178 9.19913C103.178 11.9188 104.477 14.1014 109.553 15.0567C112.583 15.6754 113.217 16.1548 113.217 17.1407C113.217 18.1266 112.583 18.7181 110.431 18.7181C107.852 18.6726 105.324 18.0046 103.073 16.7735V21.2271C104.602 21.958 106.621 22.7773 110.386 22.7773C115.696 22.7773 117.802 20.4689 117.802 17.0319L103.178 9.19913ZM117.802 17.0319C117.802 13.792 116.044 12.2724 111.079 11.2287C108.338 10.6372 107.673 10.0456 107.673 9.18894C107.673 8.11805 108.655 7.6693 110.459 7.6693C112.652 7.6693 114.815 8.31863 116.866 9.21953V4.97338C114.9 4.09945 112.758 3.66617 110.598 3.70532C105.692 3.70532 103.153 5.7893 103.153 9.19913"/>
<path d="M175.425 22.4952V8.38328L177.128 12.1297L182.842 22.4952H187.919V3.98755H183.879V15.9339L182.351 12.4663L177.761 3.98755H171.386V22.4952H175.425Z"/>
<path d="M141.279 3.98755H145.694V22.4952H141.279V3.98755Z"/>
<path d="M136.185 17.0319C136.185 13.792 134.427 12.2724 129.461 11.2287C126.721 10.6372 126.056 10.0456 126.056 9.18894C126.056 8.11805 127.038 7.6693 128.841 7.6693C131.035 7.6693 133.197 8.31863 135.248 9.21953V4.97338C133.282 4.09945 131.141 3.66617 128.981 3.70532C124.074 3.70532 121.536 5.7893 121.536 9.19913C121.536 11.9188 122.835 14.1014 127.912 15.0567C130.941 15.6754 131.575 16.1548 131.575 17.1407C131.575 18.1266 130.941 18.7181 128.789 18.7181C126.21 18.6726 123.682 18.0046 121.431 16.7735V21.2271C122.96 21.958 124.98 22.7773 128.744 22.7773C134.054 22.7773 136.161 20.4689 136.161 17.0319"/>
<path d="M77.9607 22.4952L79.3884 18.4972H73.3296V3.98755H68.8864V22.4952H77.9607Z"/>
<path d="M55.8631 7.98893V22.4952H60.3063V7.98893H65.5573V3.98755H50.9569V7.98893H55.8631Z"/>
<path d="M44.515 3.98755H38.693L32.077 22.4952H37.1434L38.0697 19.3777C40.3814 20.0424 42.8405 20.0424 45.1522 19.3777L46.0889 22.4952H51.138L44.515 3.98755ZM41.604 16.0427C40.779 16.0438 39.9582 15.9293 39.1665 15.7027L41.604 7.62176L44.0415 15.7027C43.2498 15.9293 42.429 16.0438 41.604 16.0427Z"/>
<path d="M93.602 3.98755H87.78L81.164 22.4952H86.213L87.1567 19.3777C89.4641 20.0397 91.9179 20.0397 94.2253 19.3777L95.162 22.4952H100.211L93.602 3.98755ZM90.691 16.0427C89.866 16.0438 89.0452 15.9293 88.2535 15.7027L90.691 7.62176L93.1285 15.7027C92.3368 15.9293 91.516 16.0438 90.691 16.0427Z"/>
<path d="M161.6 3.98755H155.778L149.162 22.4952H154.211L155.155 19.3777C157.462 20.0397 159.916 20.0397 162.223 19.3777L163.16 22.4952H168.209L161.6 3.98755ZM158.689 16.0427C157.864 16.0438 157.043 15.9293 156.251 15.7027L158.689 7.62176L161.126 15.7027C160.335 15.9293 159.514 16.0438 158.689 16.0427Z"/>
<path d="M6.62866 10.4964V10.4963C6.56922 10.4286 6.49399 10.3759 6.40931 10.3426C6.32463 10.3092 6.23299 10.2963 6.14211 10.3048C6.0654 10.3184 5.99339 10.3506 5.93259 10.3982C5.87179 10.4459 5.82411 10.5076 5.79386 10.5777L0.0532886 21.7807C0.0148676 21.8556 -0.00330633 21.9388 0.000494074 22.0224C0.00429448 22.1061 0.029943 22.1874 0.0750017 22.2587C0.12006 22.3299 0.183032 22.3887 0.257932 22.4295C0.332831 22.4703 0.41717 22.4917 0.502931 22.4917H8.49607C8.58968 22.4935 8.68182 22.4688 8.76131 22.4205C8.8408 22.3721 8.90422 22.3023 8.94386 22.2195C10.6232 18.8362 9.58394 13.5787 6.62866 10.4964Z"/>
<path d="M23.0001 21.7846C22.8925 21.5743 12.2448 0.773758 11.9829 0.256571C11.9487 0.184111 11.895 0.122042 11.8276 0.076935C11.7601 0.0318281 11.6815 0.00536235 11.5999 0.000339964L11.5818 0C11.4885 0.00469236 11.398 0.0325019 11.3188 0.0808058C11.2396 0.12911 11.1743 0.196316 11.1291 0.276085L11.1286 0.276561C8.24233 4.74056 7.9153 10.1304 10.254 14.6944L14.1072 22.2178C14.148 22.3009 14.2119 22.371 14.2917 22.4201C14.3716 22.4692 14.4639 22.4953 14.5583 22.4954H22.5502C22.636 22.4955 22.7204 22.4741 22.7953 22.4334C22.8703 22.3926 22.9333 22.3338 22.9784 22.2626C23.0235 22.1914 23.0491 22.11 23.0529 22.0264C23.0567 21.9427 23.0386 21.8595 23.0001 21.7846Z"/>
</symbol><symbol viewBox="0 0 32 32" id="cycle" xmlns="http://www.w3.org/2000/svg">
<title>cycle</title>
<path d="M11.5 11.333h-6c-0.354 0-0.693-0.14-0.943-0.391s-0.391-0.589-0.391-0.943v-6c0-0.354 0.14-0.693 0.391-0.943s0.589-0.391 0.943-0.391c0.354 0 0.693 0.14 0.943 0.391s0.391 0.589 0.391 0.943v4.667h4.667c0.354 0 0.693 0.14 0.943 0.391s0.391 0.589 0.391 0.943c0 0.354-0.14 0.693-0.391 0.943s-0.589 0.391-0.943 0.391z"/>
<path d="M28 17.333c-0.354 0-0.693-0.14-0.943-0.39s-0.39-0.589-0.39-0.943c0.001-2.347-0.773-4.629-2.201-6.492s-3.432-3.202-5.699-3.809c-2.267-0.608-4.672-0.45-6.84 0.448s-3.98 2.488-5.153 4.521c-0.177 0.306-0.469 0.529-0.81 0.62s-0.706 0.043-1.012-0.134c-0.306-0.177-0.529-0.469-0.62-0.81s-0.043-0.706 0.134-1.012c1.467-2.541 3.732-4.527 6.442-5.649s5.716-1.319 8.55-0.559 5.338 2.434 7.123 4.762c1.786 2.328 2.753 5.181 2.752 8.115 0 0.354-0.14 0.693-0.39 0.943s-0.589 0.39-0.943 0.39zM26.5 29.333c-0.354 0-0.693-0.14-0.943-0.39s-0.39-0.589-0.39-0.943v-4.667h-4.667c-0.354 0-0.693-0.14-0.943-0.39s-0.39-0.589-0.39-0.943 0.14-0.693 0.39-0.943c0.25-0.25 0.589-0.391 0.943-0.391h6c0.354 0 0.693 0.14 0.943 0.391s0.39 0.589 0.39 0.943v6c0 0.354-0.14 0.693-0.39 0.943s-0.589 0.39-0.943 0.39z"/>
<path d="M16 29.333c-3.535-0.004-6.924-1.41-9.423-3.91s-3.906-5.889-3.91-9.424c0-0.354 0.14-0.693 0.391-0.943s0.589-0.39 0.943-0.39 0.693 0.14 0.943 0.39c0.25 0.25 0.391 0.589 0.391 0.943-0.001 2.347 0.773 4.629 2.201 6.492s3.432 3.202 5.699 3.809c2.267 0.608 4.672 0.45 6.84-0.448s3.98-2.488 5.153-4.521c0.088-0.151 0.204-0.284 0.343-0.391s0.298-0.184 0.467-0.23c0.169-0.045 0.346-0.056 0.519-0.034s0.341 0.080 0.492 0.168c0.151 0.088 0.284 0.204 0.391 0.343s0.184 0.298 0.23 0.467c0.045 0.169 0.056 0.346 0.034 0.519s-0.080 0.341-0.168 0.492c-1.173 2.022-2.855 3.701-4.878 4.871s-4.319 1.788-6.656 1.794z"/>
</symbol><symbol viewBox="0 0 166 33" id="dropbox" xmlns="http://www.w3.org/2000/svg">
<g clip-path="url(#aeclip0_0_1821)">
<path d="M19.256 6.20112L9.628 12.4022L19.256 18.6034L9.628 24.8045L0 18.5698L9.628 12.3687L0 6.20112L9.628 0L19.256 6.20112ZM9.5782 26.7989L19.2062 20.5978L28.8342 26.7989L19.2062 33L9.5782 26.7989ZM19.256 18.5698L28.884 12.3687L19.256 6.20112L28.8342 0L38.4622 6.20112L28.8342 12.4022L38.4622 18.6034L28.8342 24.8045L19.256 18.5698Z"/>
<path d="M46.0156 6.20105H53.801C58.7644 6.20105 62.8646 9.10049 62.8646 15.7206V17.1117C62.8646 23.7821 59.03 26.7821 53.9504 26.7821H46.0156V6.20105ZM50.3648 9.93848V23.0279H53.7014C56.5234 23.0279 58.4158 21.1675 58.4158 17.0279V15.9385C58.4158 11.7988 56.4238 9.93848 53.552 9.93848H50.3648ZM65.172 10.1396H68.658L69.2224 14.0111C69.8864 11.3798 71.5796 9.972 74.6506 9.972H75.7296V14.4133H73.9368C70.401 14.4133 69.5378 15.6536 69.5378 19.1731V26.8323H65.2384V10.1396H65.172ZM76.5928 18.8212V18.3519C76.5928 12.7709 80.1286 9.7206 84.9426 9.7206C89.8562 9.7206 93.2924 12.7709 93.2924 18.3519V18.8212C93.2924 24.3016 89.9558 27.2513 84.9426 27.2513C79.614 27.2011 76.5928 24.3184 76.5928 18.8212ZM88.8934 18.7709V18.3519C88.8934 15.2513 87.3496 13.391 84.8928 13.391C82.4858 13.391 80.8922 15.1005 80.8922 18.3519V18.7709C80.8922 21.7709 82.436 23.4804 84.8928 23.4804C87.3496 23.4301 88.8934 21.7709 88.8934 18.7709ZM95.55 10.1396H99.1356L99.5506 13.2904C100.414 11.1787 102.256 9.7206 104.979 9.7206C109.179 9.7206 111.951 12.7709 111.951 18.4189V18.8882C111.951 24.3687 108.88 27.2681 104.979 27.2681C102.373 27.2681 100.58 26.0781 99.7 24.1675V32.5977H95.5002L95.55 10.1396ZM107.585 18.7709V18.4022C107.585 15.0837 105.892 13.4413 103.634 13.4413C101.227 13.4413 99.6336 15.3016 99.6336 18.4022V18.7206C99.6336 21.6703 101.177 23.5307 103.584 23.5307C106.058 23.4804 107.585 21.8882 107.585 18.7709ZM118.309 23.7485L117.943 26.7988H114.258V4.55859H118.458V13.0893C119.388 10.9105 121.23 9.7206 123.836 9.7206C127.787 9.77088 130.709 12.5195 130.709 18.0502V18.5698C130.709 24.1005 127.937 27.2681 123.737 27.2681C120.965 27.2011 119.172 25.9105 118.309 23.7485ZM126.293 18.5698V18.1508C126.293 15.1005 124.65 13.391 122.342 13.391C119.985 13.391 118.342 15.3016 118.342 18.2011V18.5698C118.342 21.6703 119.935 23.4804 122.293 23.4804C124.816 23.4804 126.293 21.8882 126.293 18.5698ZM132.551 18.8212V18.3519C132.551 12.7709 136.087 9.7206 140.901 9.7206C145.815 9.7206 149.251 12.7709 149.251 18.3519V18.8212C149.251 24.3016 145.865 27.2513 140.901 27.2513C135.573 27.2011 132.551 24.3184 132.551 18.8212ZM144.885 18.7709V18.3519C144.885 15.2513 143.341 13.391 140.885 13.391C138.478 13.391 136.884 15.1005 136.884 18.3519V18.7709C136.884 21.7709 138.428 23.4804 140.885 23.4804C143.358 23.4301 144.885 21.7709 144.885 18.7709ZM154.878 18.1508L149.085 10.1396H154.048L157.385 15.1508L160.771 10.1396H165.685L159.809 18.1005L166 26.7988H161.137L157.352 21.2681L153.667 26.7988H148.587L154.878 18.1508Z"/>
</g>
<defs>
<clipPath id="aeclip0_0_1821">
<rect width="166" height="33"/>
</clipPath>
</defs>
</symbol><symbol viewBox="0 0 1024 1024" id="ellipse" xmlns="http://www.w3.org/2000/svg">
<title/>
<g id="aficomoon-ignore">
</g>
<path d="M1024 512c0 282.77-229.23 512-512 512s-512-229.23-512-512c0-282.77 229.23-512 512-512s512 229.23 512 512z"/>
</symbol><symbol viewBox="0 0 101 33" id="google" xmlns="http://www.w3.org/2000/svg">
<path d="M43.2232 17.3659C43.2232 22.1137 39.4812 25.6122 34.8889 25.6122C30.2967 25.6122 26.5547 22.1137 26.5547 17.3659C26.5547 12.5847 30.2967 9.11963 34.8889 9.11963C39.4812 9.11963 43.2232 12.5847 43.2232 17.3659ZM39.5748 17.3659C39.5748 14.399 37.4061 12.3691 34.8889 12.3691C32.3718 12.3691 30.203 14.399 30.203 17.3659C30.203 20.3031 32.3718 22.3628 34.8889 22.3628C37.4061 22.3628 39.5748 20.2994 39.5748 17.3659Z"/>
<path d="M61.2018 17.3662C61.2018 22.1139 57.4598 25.6125 52.8676 25.6125C48.2753 25.6125 44.5333 22.1139 44.5333 17.3662C44.5333 12.5887 48.2753 9.11987 52.8676 9.11987C57.4598 9.11987 61.2018 12.585 61.2018 17.3662ZM57.5535 17.3662C57.5535 14.3993 55.3847 12.3693 52.8676 12.3693C50.3504 12.3693 48.1817 14.3993 48.1817 17.3662C48.1817 20.3033 50.3504 22.363 52.8676 22.363C55.3847 22.363 57.5535 20.2996 57.5535 17.3662Z"/>
<path d="M78.4317 9.61783V24.4225C78.4317 30.5124 74.8134 32.9997 70.5357 32.9997C66.5091 32.9997 64.0856 30.3265 63.1716 28.1404L66.348 26.828C66.9136 28.1702 68.2995 29.754 70.532 29.754C73.2701 29.754 74.9669 28.0772 74.9669 24.9207V23.7347H74.8396C74.023 24.7348 72.4498 25.6085 70.4646 25.6085C66.3105 25.6085 62.5049 22.017 62.5049 17.3957C62.5049 12.7409 66.3105 9.11963 70.4646 9.11963C72.446 9.11963 74.0193 9.99334 74.8396 10.9637H74.9669V9.62154H78.4317V9.61783ZM75.2254 17.3957C75.2254 14.492 73.2739 12.3691 70.7904 12.3691C68.2733 12.3691 66.1645 14.492 66.1645 17.3957C66.1645 20.2696 68.2733 22.3628 70.7904 22.3628C73.2739 22.3628 75.2254 20.2696 75.2254 17.3957Z"/>
<path d="M84.1433 0.940674V25.107H80.5848V0.940674H84.1433Z"/>
<path d="M98.0106 20.0805L100.842 21.9544C99.9284 23.2965 97.7259 25.6091 93.9203 25.6091C89.2006 25.6091 85.6759 21.9878 85.6759 17.3628C85.6759 12.4588 89.2306 9.11646 93.512 9.11646C97.8233 9.11646 99.9322 12.5221 100.621 14.3624L101 15.2993L89.8936 19.8649C90.7439 21.5194 92.0661 22.3633 93.9203 22.3633C95.7781 22.3633 97.0667 21.4562 98.0106 20.0805ZM89.2943 17.1137L96.7183 14.0538C96.31 13.024 95.0814 12.3064 93.6356 12.3064C91.7814 12.3064 89.2006 13.9311 89.2943 17.1137Z"/>
<path d="M13.0838 15.2211V11.7225H24.9615C25.0777 12.3323 25.1376 13.0535 25.1376 13.8343C25.1376 16.4591 24.4147 19.7049 22.0848 22.0174C19.8187 24.3597 16.9232 25.6089 13.0876 25.6089C5.97818 25.6089 0 19.861 0 12.8044C0 5.74787 5.97818 0 13.0876 0C17.0206 0 19.8224 1.53177 21.9275 3.52829L19.4403 5.99697C17.9308 4.59161 15.8856 3.49854 13.0838 3.49854C7.89225 3.49854 3.83188 7.65144 3.83188 12.8044C3.83188 17.9575 7.89225 22.1104 13.0838 22.1104C16.4512 22.1104 18.3691 20.7682 19.5977 19.5487C20.594 18.5598 21.2495 17.147 21.508 15.2174L13.0838 15.2211Z"/>
</symbol><symbol viewBox="0 0 32 32" id="headphones" xmlns="http://www.w3.org/2000/svg">
<title>headphones</title>
<path d="M16 0.762c-8.402 0-15.238 6.836-15.238 15.238v6.313c0 1.56 1.367 2.83 3.048 2.83h1.524c0.404 0 0.792-0.16 1.077-0.446s0.446-0.673 0.446-1.078v-7.837c0-0.404-0.161-0.792-0.446-1.078s-0.673-0.446-1.077-0.446h-1.384c0.847-5.897 5.922-10.449 12.050-10.449s11.203 4.552 12.050 10.449h-1.384c-0.404 0-0.792 0.161-1.078 0.446s-0.446 0.673-0.446 1.078v9.361c0 1.681-1.367 3.048-3.048 3.048h-3.048v-1.524h-6.095v4.571h9.143c3.361 0 6.095-2.734 6.095-6.095 1.681 0 3.048-1.269 3.048-2.83v-6.313c0-8.402-6.836-15.238-15.238-15.238z"/>
</symbol><symbol viewBox="0 0 124 35" id="hubsport" xmlns="http://www.w3.org/2000/svg">
<path d="M13.3675 5.65723V15.292H4.30135V5.65723H0V28.6567H4.30251V19.3346H13.3663V28.6567H17.67V5.65723H13.3675ZM31.4415 21.2229C31.4415 22.1448 31.0665 23.0289 30.3988 23.6807C29.7311 24.3326 28.8256 24.6988 27.8813 24.6988C26.9371 24.6988 26.0316 24.3326 25.3639 23.6807C24.6962 23.0289 24.3211 22.1448 24.3211 21.2229V11.371H20.2399V21.2229C20.2399 23.1996 21.0441 25.0953 22.4758 26.4931C23.9074 27.8908 25.8491 28.676 27.8738 28.676C29.8984 28.676 31.8401 27.8908 33.2718 26.4931C34.7034 25.0953 35.5077 23.1996 35.5077 21.2229V11.371H31.4415V21.2229ZM61.6826 12.3862C61.6826 10.366 63.0508 9.72599 64.5494 9.72599C65.758 9.72599 67.3533 10.6241 68.3978 11.7132L71.0701 8.6369C69.7357 6.87479 67.0296 5.65723 64.8137 5.65723C60.3854 5.65723 57.1833 8.18898 57.1833 12.3862C57.1833 20.1736 66.9318 17.7021 66.9318 22.0608C66.9318 23.4045 65.595 24.5914 64.065 24.5914C61.6511 24.5914 60.8686 23.4397 59.7601 22.221L56.7932 25.2325C58.6912 27.5062 61.0317 28.6613 63.8344 28.6613C68.0414 28.6613 71.4252 26.0988 71.4252 22.0926C71.4252 13.448 61.6756 16.1344 61.6756 12.3862H61.6826ZM121.992 24.9824C119.581 24.9824 118.895 23.9638 118.895 22.4041V15.4978H122.644V11.9985H118.895V7.38182L114.757 9.19509V23.2624C114.757 26.8605 117.3 28.6738 120.786 28.6738C121.333 28.6829 121.881 28.6397 122.418 28.5464L123.428 24.9176C122.973 24.9483 122.45 24.979 121.992 24.979V24.9824ZM46.9772 11.4858C44.9557 11.4858 43.5445 12.0588 42.1798 13.365V5.79479H38.0927V19.8269C38.0927 25.0791 41.9818 28.6783 46.353 28.6783C51.2017 28.6783 55.4669 25.0154 55.4669 20.0838C55.4669 15.2135 51.5417 11.4892 46.9772 11.4892V11.4858ZM46.9515 24.6619C46.3424 24.6619 45.7393 24.5447 45.1765 24.3171C44.6137 24.0895 44.1024 23.756 43.6717 23.3355C43.241 22.9149 42.8993 22.4157 42.6662 21.8663C42.4331 21.3168 42.3131 20.7279 42.3131 20.1332C42.3131 19.5385 42.4331 18.9496 42.6662 18.4002C42.8993 17.8508 43.241 17.3515 43.6717 16.931C44.1024 16.5105 44.6137 16.1769 45.1765 15.9493C45.7393 15.7218 46.3424 15.6046 46.9515 15.6046C48.1817 15.6046 49.3616 16.0817 50.2314 16.931C51.1013 17.7803 51.59 18.9322 51.59 20.1332C51.59 21.3343 51.1013 22.4862 50.2314 23.3355C49.3616 24.1847 48.1817 24.6619 46.9515 24.6619ZM91.3647 19.8746C91.3647 14.9339 87.1087 11.2801 82.2508 11.2801C77.8808 11.2801 73.9904 14.8782 73.9904 20.1315V34.1716H78.0775V26.5911C79.4399 27.895 80.8535 28.4703 82.8726 28.4703C87.4371 28.4703 91.3635 24.746 91.3635 19.8746H91.3647ZM87.4942 19.8246C87.4942 21.0256 87.0055 22.1775 86.1356 23.0268C85.2657 23.8761 84.0859 24.3532 82.8557 24.3532C81.6255 24.3532 80.4457 23.8761 79.5758 23.0268C78.706 22.1775 78.2173 21.0256 78.2173 19.8246C78.2173 18.6235 78.706 17.4716 79.5758 16.6224C80.4457 15.7731 81.6255 15.296 82.8557 15.296C84.0859 15.296 85.2657 15.7731 86.1356 16.6224C87.0055 17.4716 87.4942 18.6235 87.4942 19.8246Z"/>
<path d="M104.572 11.0865V7.07685C105.114 6.82921 105.574 6.43618 105.897 5.94349C106.22 5.4508 106.392 4.87873 106.395 4.29386V4.20177C106.395 2.49651 104.979 1.11411 103.233 1.11411H103.138C102.3 1.11411 101.495 1.43941 100.902 2.01846C100.309 2.59751 99.9758 3.38287 99.9758 4.20177V4.29386C99.9786 4.87873 100.151 5.4508 100.474 5.94349C100.797 6.43618 101.257 6.82921 101.799 7.07685V11.0865C100.239 11.3197 98.7705 11.9511 97.541 12.9168L86.2776 4.35184C86.358 4.06876 86.3999 3.77773 86.4045 3.48556C86.4059 2.79744 86.1982 2.12437 85.8078 1.5515C85.4173 0.978622 84.8616 0.53168 84.2109 0.267203C83.5602 0.00272603 82.8438 -0.0674034 82.1523 0.0656852C81.4608 0.198774 80.8252 0.529101 80.3261 1.01488C79.8269 1.50067 79.4864 2.12008 79.3479 2.79478C79.2093 3.46947 79.2788 4.16914 79.5475 4.80527C79.8163 5.4414 80.2723 5.98543 80.8578 6.36852C81.4432 6.75162 82.132 6.95658 82.8368 6.95748C83.4534 6.95465 84.0585 6.79393 84.5915 6.49138L95.6826 14.9177C94.6862 16.3872 94.1664 18.1158 94.191 19.8779C94.2155 21.6401 94.7831 23.3542 95.82 24.7968L92.4467 28.0914C92.174 28.0063 91.8899 27.9611 91.6037 27.9573C91.0251 27.9577 90.4597 28.1256 89.9788 28.4397C89.498 28.7538 89.1233 29.2 88.9021 29.7219C88.6809 30.2439 88.6232 30.8181 88.7361 31.3721C88.8491 31.926 89.1278 32.4349 89.5369 32.8343C89.946 33.2337 90.4671 33.5057 91.0345 33.616C91.6019 33.7263 92.1901 33.67 92.7247 33.454C93.2593 33.2381 93.7163 32.8722 94.038 32.4028C94.3597 31.9333 94.5317 31.3813 94.5322 30.8164C94.5284 30.5369 94.4821 30.2595 94.3948 29.9934L97.732 26.734C98.8202 27.552 100.086 28.1159 101.432 28.3826C102.778 28.6493 104.168 28.6116 105.497 28.2725C106.826 27.9334 108.057 27.3019 109.098 26.4263C110.138 25.5507 110.959 24.4543 111.498 23.221C112.037 21.9878 112.28 20.6504 112.208 19.3114C112.135 17.9724 111.75 16.6672 111.082 15.4959C110.413 14.3247 109.479 13.3183 108.351 12.554C107.222 11.7897 105.93 11.2877 104.572 11.0865ZM103.188 24.2739C102.572 24.2905 101.958 24.1862 101.383 23.9672C100.808 23.7482 100.284 23.4189 99.842 22.9989C99.3998 22.5788 99.0483 22.0765 98.8082 21.5216C98.5682 20.9667 98.4445 20.3704 98.4445 19.768C98.4445 19.1656 98.5682 18.5694 98.8082 18.0144C99.0483 17.4595 99.3998 16.9572 99.842 16.5371C100.284 16.1171 100.808 15.7878 101.383 15.5688C101.958 15.3499 102.572 15.2456 103.188 15.2621C104.384 15.303 105.516 15.7952 106.347 16.6351C107.178 17.4749 107.643 18.5969 107.644 19.7647C107.644 20.9325 107.181 22.0549 106.351 22.8956C105.52 23.7363 104.388 24.2296 103.193 24.2716"/>
</symbol><symbol viewBox="0 0 17 32" id="icon-face" xmlns="http://www.w3.org/2000/svg">
<title>icon-face</title>
<path d="M12.829 2.013c0.504 0.055 0.952 0.055 1.456 0.11 0.336 0 0.672 0.055 1.008 0.11 0 1.49 0 2.924 0 4.469-0.112 0-0.28 0-0.392 0-0.952 0-1.903 0-2.855 0.055-1.176 0.055-1.847 0.662-1.903 1.821-0.056 1.214 0 2.428 0 3.697 1.623 0 3.303 0 4.982 0-0.224 1.655-0.448 3.311-0.672 4.966-1.456 0-2.855 0-4.311 0 0 4.248 0 8.497 0 12.745-1.735 0-3.471 0-5.206 0 0-4.249 0-8.442 0-12.745-1.455 0-2.911 0-4.367 0 0-1.655 0-3.311 0-4.966 1.455 0 2.855 0 4.367 0 0-0.166 0-0.221 0-0.331 0-1.324 0-2.593 0-3.917 0.056-1.545 0.56-2.979 1.679-4.193 0.84-0.883 1.903-1.379 3.135-1.655 0.336-0.055 0.672-0.11 0.952-0.166 0.672 0 1.4 0 2.127 0z"/>
</symbol><symbol viewBox="0 0 32 32" id="icon-geo" xmlns="http://www.w3.org/2000/svg">
<title>icon-geo</title>
<path d="M15.997 32c-2.245-1.915-4.327-4.015-6.222-6.277-2.844-3.397-6.222-8.457-6.222-13.278-0.001-2.462 0.728-4.87 2.095-6.917s3.312-3.644 5.586-4.586c2.275-0.942 4.778-1.189 7.193-0.708s4.633 1.667 6.373 3.409c1.159 1.154 2.077 2.525 2.702 4.036s0.944 3.131 0.939 4.766c0 4.821-3.378 9.881-6.222 13.278-1.895 2.262-3.977 4.362-6.222 6.277zM15.997 7.111c-1.414 0-2.771 0.562-3.771 1.562s-1.562 2.357-1.562 3.771c0 1.415 0.562 2.771 1.562 3.771s2.357 1.562 3.771 1.562c1.414 0 2.771-0.562 3.771-1.562s1.562-2.357 1.562-3.771c0-1.414-0.562-2.771-1.562-3.771s-2.357-1.562-3.771-1.562z"/>
</symbol><symbol viewBox="0 0 32 32" id="icon-in" xmlns="http://www.w3.org/2000/svg">
<title>icon-in</title>
<path d="M18.433 31.315c-2.071 0-4.020 0-6.091 0 0-6.518 0-13.035 0-19.614 1.888 0 3.837 0 5.787 0 0 0.853 0 1.706 0 2.619 0.061-0.061 0.122-0.061 0.122-0.061 1.279-2.071 3.167-2.985 5.543-3.046 1.34-0.061 2.68 0.122 3.898 0.731 1.584 0.731 2.497 2.071 2.985 3.716 0.426 1.34 0.548 2.68 0.548 4.020 0 3.777 0 7.553 0 11.33 0 0.061 0 0.122 0 0.183-2.010 0-4.020 0-6.091 0 0-0.122 0-0.244 0-0.426 0-3.228 0-6.396 0-9.624 0-0.731-0.061-1.462-0.183-2.193-0.365-2.010-1.705-2.68-3.533-2.436-1.706 0.183-2.619 1.218-2.924 3.046-0.122 0.67-0.122 1.34-0.122 2.010 0 3.046 0 6.152 0 9.198 0.061 0.244 0.061 0.365 0.061 0.548z"/>
<path d="M2.408 11.761c2.010 0 4.020 0 6.030 0 0 6.518 0 13.035 0 19.553-2.010 0-4.020 0-6.030 0 0-6.518 0-13.035 0-19.553z"/>
<path d="M8.93 5.487c0 1.949-1.584 3.533-3.472 3.594-1.949 0-3.533-1.584-3.533-3.533s1.584-3.533 3.533-3.533c1.888-0.061 3.472 1.523 3.472 3.472z"/>
</symbol><symbol viewBox="0 0 28 32" id="icon-services-01" xmlns="http://www.w3.org/2000/svg">
<title>icon-01</title>
<path d="M13.811 0.028c-0.132 0.030-0.317 0.086-0.411 0.125s-2.947 1.633-6.34 3.542c-4.33 2.437-6.254 3.555-6.456 3.753-0.158 0.155-0.358 0.439-0.446 0.631l-0.158 0.35v14.599l0.185 0.377c0.102 0.207 0.302 0.491 0.446 0.631 0.165 0.161 2.544 1.538 6.485 3.756 4.753 2.674 6.329 3.529 6.666 3.617 0.782 0.205 0.635 0.275 7.52-3.597 3.717-2.090 6.3-3.584 6.474-3.744 0.159-0.146 0.375-0.44 0.48-0.653l0.19-0.387v-14.599l-0.162-0.357c-0.089-0.197-0.305-0.49-0.48-0.653-0.218-0.203-2.254-1.382-6.487-3.759-3.393-1.905-6.249-3.497-6.347-3.539-0.251-0.107-0.875-0.156-1.159-0.092zM19.624 5.217c2.929 1.645 5.361 3.025 5.405 3.067 0.060 0.057-1.266 0.841-5.232 3.092-2.922 1.659-5.357 3.026-5.412 3.038-0.117 0.027-11.002-6.026-10.976-6.103 0.024-0.072 10.687-6.076 10.8-6.082 0.050-0.002 2.486 1.342 5.415 2.987zM8.156 13.533c2.79 1.554 5.077 2.831 5.082 2.836 0.027 0.027-0.108 12.194-0.135 12.221-0.017 0.017-2.487-1.349-5.488-3.037l-5.456-3.069v-12.301l0.463 0.262c0.255 0.144 2.745 1.533 5.535 3.088zM26.285 16.367v6.121l-5.455 3.069c-3 1.688-5.466 3.058-5.479 3.044-0.042-0.042 0.088-12.194 0.131-12.236 0.063-0.063 10.694-6.109 10.752-6.115 0.028-0.003 0.051 2.75 0.051 6.117z"/>
</symbol><symbol viewBox="0 0 32 32" id="icon-services-02" xmlns="http://www.w3.org/2000/svg">
<title>icon-02</title>
<path d="M5.868 2.349c-2.881 1.287-5.327 2.405-5.435 2.485s-0.25 0.258-0.315 0.394c-0.108 0.229-0.118 1.291-0.118 13.049 0 11.717 0.010 12.82 0.117 13.047 0.162 0.341 0.534 0.607 0.909 0.649 0.287 0.032 0.705-0.14 5.335-2.198l5.024-2.233 4.45 2.224c3.402 1.701 4.511 2.225 4.711 2.225 0.188 0 1.735-0.654 5.518-2.333 2.891-1.283 5.356-2.406 5.479-2.496 0.493-0.362 0.456 0.726 0.456-13.457 0-11.717-0.010-12.82-0.117-13.046-0.162-0.341-0.534-0.607-0.909-0.649-0.287-0.032-0.705 0.14-5.335 2.198l-5.024 2.233-4.45-2.225c-3.864-1.932-4.49-2.223-4.753-2.216-0.233 0.007-1.519 0.552-5.542 2.348zM10.286 14.23v11.309l-3.875 1.721c-2.131 0.947-3.931 1.743-4 1.769-0.119 0.045-0.125-0.521-0.125-11.27v-11.317l3.946-1.758c2.17-0.967 3.97-1.759 4-1.762s0.054 5.086 0.054 11.306zM29.714 14.23v11.309l-3.875 1.721c-2.131 0.947-3.931 1.743-4 1.769-0.119 0.045-0.125-0.521-0.125-11.27v-11.317l3.946-1.758c2.171-0.967 3.97-1.759 4-1.762s0.054 5.086 0.054 11.306zM19.428 17.706v11.285l-6.857-3.429v-22.571l6.857 3.429v11.286z"/>
</symbol><symbol viewBox="0 0 45 32" id="icon-services-03" xmlns="http://www.w3.org/2000/svg">
<title>icon-03</title>
<path d="M6.834 0.147c-0.313 0.076-0.804 0.257-1.090 0.402-0.667 0.338-1.668 1.338-2.006 2.003-0.562 1.109-0.556 0.987-0.557 10.724l-0.002 8.961-1.077 0.034c-0.989 0.031-1.105 0.055-1.427 0.301-0.622 0.475-0.677 0.711-0.675 2.928 0.002 2.159 0.103 2.84 0.557 3.736 0.336 0.663 1.338 1.665 2.001 2.001 1.152 0.584 0.161 0.556 19.664 0.557 11.766 0.001 18.084-0.033 18.435-0.1 0.887-0.168 1.73-0.627 2.419-1.316 1.199-1.199 1.443-2.023 1.445-4.879 0.002-2.216-0.053-2.452-0.675-2.928-0.322-0.246-0.438-0.27-1.427-0.301l-1.076-0.034-0.002-8.961c-0.002-9.701 0.003-9.619-0.542-10.693-0.136-0.268-0.498-0.759-0.806-1.091-0.632-0.683-1.624-1.235-2.515-1.4-0.342-0.064-5.858-0.096-15.305-0.091-12.24 0.007-14.868 0.032-15.339 0.146zM37.429 3.427c0.151 0.113 0.367 0.328 0.479 0.479 0.203 0.272 0.205 0.36 0.231 9.311l0.026 9.037h-31.806v-8.889c0-6.055 0.034-8.978 0.106-9.168 0.141-0.372 0.472-0.722 0.838-0.885 0.245-0.109 2.911-0.129 15.075-0.111 14.752 0.021 14.777 0.022 15.051 0.226zM7.949 12.714v7.951h28.623v-15.902h-28.623v7.951zM33.392 12.714v4.77h-22.262v-9.541h22.262v4.771zM15.938 25.75c0.086 0.429 0.476 0.916 0.891 1.113 0.305 0.145 0.921 0.163 5.432 0.163s5.127-0.018 5.432-0.163c0.415-0.197 0.805-0.684 0.891-1.113l0.063-0.315h12.714l-0.034 1.086c-0.036 1.174-0.123 1.395-0.718 1.839l-0.274 0.205h-36.147l-0.275-0.205c-0.595-0.444-0.682-0.666-0.718-1.839l-0.034-1.086h12.714l0.063 0.315z"/>
</symbol><symbol viewBox="0 0 26 32" id="icon-services-04" xmlns="http://www.w3.org/2000/svg">
<title>icon-04</title>
<path d="M18.673 0.105c-0.701 0.305-0.922 1.261-0.427 1.849 0.344 0.409 0.517 0.441 2.356 0.441h1.668l-6.697 6.697-2.115-2.108c-1.825-1.819-2.154-2.115-2.396-2.159-0.402-0.074-0.771 0.016-1.049 0.255-0.133 0.114-2.402 2.097-5.043 4.406-5.187 4.536-5.033 4.379-4.943 5.054 0.101 0.754 0.934 1.23 1.626 0.93 0.143-0.062 2.245-1.852 4.671-3.977l4.411-3.864 2.137 2.13c1.845 1.839 2.176 2.137 2.418 2.181 0.695 0.127 0.513 0.279 4.749-3.951l3.907-3.901 0.023 1.767c0.021 1.649 0.033 1.781 0.177 1.974 0.293 0.393 0.533 0.515 1.006 0.515s0.712-0.123 1.006-0.515c0.15-0.2 0.155-0.306 0.175-3.592l0.021-3.386-0.172-0.256c-0.095-0.141-0.286-0.332-0.425-0.426l-0.253-0.17-3.301 0.003c-2.575 0.002-3.351 0.025-3.529 0.102zM19.871 12.079c-0.302 0.133-0.616 0.516-0.67 0.815-0.024 0.133-0.034 4.12-0.022 8.861 0.021 8.573 0.022 8.621 0.176 8.827 0.085 0.114 0.247 0.276 0.361 0.361 0.2 0.149 0.295 0.154 3.040 0.154s2.84-0.005 3.040-0.154c0.114-0.085 0.276-0.247 0.361-0.361 0.154-0.206 0.154-0.235 0.154-9.027s-0-8.821-0.154-9.027c-0.085-0.114-0.247-0.276-0.361-0.361-0.199-0.149-0.31-0.155-2.952-0.171-2.168-0.014-2.793 0.004-2.973 0.084zM10.291 14.474c-0.302 0.133-0.616 0.516-0.67 0.815-0.024 0.133-0.034 3.581-0.022 7.664 0.021 7.363 0.023 7.424 0.176 7.629 0.085 0.114 0.247 0.276 0.361 0.361 0.2 0.149 0.295 0.154 3.040 0.154s2.84-0.005 3.040-0.154c0.114-0.085 0.276-0.247 0.361-0.361 0.154-0.206 0.154-0.247 0.154-7.83s-0.001-7.624-0.154-7.83c-0.085-0.114-0.247-0.276-0.361-0.361-0.199-0.148-0.31-0.155-2.952-0.171-2.168-0.014-2.793 0.004-2.973 0.084zM23.954 21.555v7.185h-2.395v-14.37h2.395v7.185zM14.374 22.752v5.987h-2.395v-11.975h2.395v5.987zM0.711 18.066c-0.302 0.133-0.616 0.515-0.67 0.815-0.024 0.133-0.034 2.773-0.022 5.868 0.021 5.549 0.024 5.629 0.176 5.833 0.085 0.114 0.247 0.276 0.361 0.361 0.2 0.149 0.295 0.154 3.040 0.154s2.84-0.005 3.040-0.154c0.114-0.085 0.276-0.247 0.361-0.361 0.153-0.205 0.154-0.265 0.154-6.034s-0.002-5.829-0.154-6.034c-0.085-0.114-0.247-0.276-0.361-0.361-0.199-0.149-0.31-0.155-2.952-0.171-2.168-0.014-2.793 0.004-2.973 0.084zM4.794 24.549v4.191h-2.395v-8.383h2.395v4.191z"/>
</symbol><symbol viewBox="0 0 32 32" id="icon-services-05" xmlns="http://www.w3.org/2000/svg">
<title>icon-05</title>
<path d="M25.468 0.030c-0.063 0.027-2.565 1.41-5.559 3.074l-5.444 3.025h-5.595c-4.776 0-5.661 0.017-6.047 0.118-1.326 0.346-2.348 1.37-2.695 2.704-0.172 0.66-0.169 8.471 0.003 9.133 0.346 1.326 1.37 2.348 2.704 2.695 0.281 0.073 0.802 0.115 1.444 0.115h1.003l1.751 5.255c1.858 5.576 1.839 5.53 2.387 5.737 0.346 0.131 5.527 0.11 5.846-0.023 0.326-0.136 0.648-0.523 0.71-0.853 0.047-0.251-1.105-7.52-1.283-8.093-0.164-0.529-0.812-0.871-1.428-0.756-0.376 0.070-0.838 0.531-0.909 0.904-0.036 0.193 0.105 1.22 0.455 3.32 0.279 1.672 0.507 3.059 0.507 3.081s-0.58 0.041-1.289 0.041h-1.288l-2.87-8.613h6.594l5.482 3.055c5.4 3.009 5.489 3.055 5.919 3.057 0.472 0.002 0.72-0.126 1.020-0.527 0.154-0.206 0.159-0.317 0.181-3.571l0.023-3.359 0.67-0.209c2.123-0.663 3.699-2.468 4.137-4.739 0.571-2.963-1.255-6.017-4.137-6.917l-0.67-0.209-0.023-3.359c-0.022-3.254-0.027-3.366-0.181-3.571-0.263-0.353-0.537-0.511-0.932-0.538-0.204-0.014-0.423-0.004-0.486 0.023zM24.622 13.502v10.218l-8.609-4.784-0.021-4.168c-0.021-4.073-0.025-4.173-0.18-4.38-0.301-0.403-0.547-0.529-1.033-0.529s-0.732 0.126-1.033 0.529c-0.155 0.207-0.159 0.31-0.18 4.13l-0.021 3.918-5.145-0.021c-5.060-0.020-5.148-0.023-5.357-0.179-0.117-0.087-0.284-0.254-0.371-0.371-0.156-0.208-0.159-0.291-0.159-4.354s0.003-4.146 0.159-4.354c0.087-0.117 0.254-0.284 0.371-0.371 0.21-0.156 0.29-0.159 6.147-0.181l5.935-0.022 4.73-2.642c2.601-1.453 4.738-2.646 4.749-2.65s0.019 4.589 0.019 10.209zM27.562 10.252c0.218 0.111 0.594 0.389 0.834 0.618 1.515 1.445 1.515 3.837 0 5.282-0.358 0.342-1.1 0.82-1.272 0.82-0.023 0-0.041-1.557-0.041-3.461s0.018-3.461 0.041-3.461c0.023 0 0.22 0.091 0.438 0.201z"/>
</symbol><symbol viewBox="0 0 32 32" id="icon-services-06" xmlns="http://www.w3.org/2000/svg">
<title>icon-06</title>
<path d="M11.23 0.117c-0.275 0.059-0.793 0.252-1.152 0.429-2.292 1.132-3.334 4.040-2.275 6.353 0.107 0.234 0.195 0.439 0.195 0.455s-0.805 0.030-1.789 0.030c-2.091 0.002-2.542 0.072-3.515 0.553-1.612 0.796-2.695 2.552-2.695 4.37 0 1.126 0.491 2.421 1.236 3.256l0.39 0.437-0.396 0.442c-1.711 1.913-1.612 4.881 0.225 6.717 1.442 1.442 3.643 1.861 5.445 1.037 0.234-0.107 0.439-0.195 0.455-0.195s0.030 0.805 0.030 1.789c0.002 2.091 0.072 2.542 0.553 3.515 0.796 1.612 2.552 2.695 4.37 2.695 1.139 0 2.416-0.483 3.251-1.23l0.442-0.396 0.442 0.396c1.913 1.711 4.881 1.612 6.717-0.225 1.442-1.442 1.861-3.643 1.037-5.444-0.107-0.234-0.195-0.439-0.195-0.455s0.805-0.030 1.789-0.030c2.091-0.002 2.556-0.074 3.517-0.548 1.603-0.79 2.693-2.561 2.693-4.375 0-1.126-0.491-2.421-1.236-3.256l-0.39-0.437 0.396-0.442c1.711-1.913 1.612-4.881-0.225-6.717-1.442-1.442-3.643-1.861-5.444-1.037-0.234 0.107-0.439 0.195-0.455 0.195s-0.030-0.805-0.030-1.789c-0.002-2.091-0.072-2.542-0.553-3.515-0.8-1.621-2.542-2.695-4.37-2.695-1.126 0-2.421 0.491-3.256 1.236l-0.437 0.39-0.442-0.396c-1.125-1.007-2.808-1.439-4.328-1.113zM13.352 2.693c0.479 0.232 0.95 0.704 1.19 1.192 0.178 0.361 0.19 0.469 0.213 1.946l0.025 1.564-1.564-0.025c-1.477-0.024-1.585-0.035-1.946-0.213-1.37-0.674-1.832-2.332-1.001-3.595 0.287-0.437 0.809-0.837 1.299-0.998 0.47-0.154 1.327-0.092 1.784 0.129zM20.445 2.583c0.587 0.19 1.079 0.606 1.396 1.184l0.275 0.5v8.694l-0.263 0.485c-0.292 0.539-0.533 0.772-1.114 1.076-0.382 0.2-0.436 0.207-1.951 0.233l-1.558 0.027v-5.12c0-4.523 0.015-5.163 0.125-5.489 0.444-1.307 1.802-2.006 3.089-1.59zM13.059 9.969c0.587 0.19 1.079 0.606 1.396 1.184l0.275 0.5 0.026 1.56 0.026 1.56-10.516-0.043-0.385-0.191c-1.998-0.99-1.83-3.832 0.27-4.567 0.297-0.104 0.921-0.121 4.434-0.125 3.559-0.003 4.138 0.012 4.473 0.121zM28.123 10.079c0.479 0.232 0.951 0.704 1.19 1.192 0.27 0.55 0.27 1.524 0 2.073-0.24 0.488-0.71 0.958-1.198 1.198-0.361 0.178-0.47 0.19-1.941 0.213l-1.558 0.025v-1.417c0-0.975 0.033-1.525 0.105-1.765 0.221-0.735 0.881-1.407 1.618-1.649 0.47-0.154 1.327-0.092 1.784 0.129zM7.37 18.789c-0.024 1.471-0.035 1.579-0.213 1.941-0.24 0.488-0.71 0.958-1.199 1.198-0.315 0.155-0.498 0.188-1.037 0.188s-0.722-0.033-1.037-0.188c-1.371-0.674-1.832-2.332-1.001-3.595 0.29-0.44 0.815-0.842 1.299-0.993 0.207-0.065 0.814-0.101 1.764-0.104l1.448-0.005-0.025 1.558zM14.752 22.482l-0.022 5.251-0.263 0.485c-0.293 0.54-0.535 0.773-1.114 1.074-0.336 0.174-0.488 0.204-1.047 0.203-0.534-0.001-0.725-0.035-1.039-0.187-0.488-0.237-0.95-0.698-1.194-1.191l-0.191-0.385-0.022-4.193c-0.019-3.692-0.007-4.239 0.102-4.573 0.252-0.771 0.809-1.34 1.574-1.607 0.265-0.093 0.682-0.122 1.791-0.125l1.445-0.004-0.022 5.251zM27.831 17.355c0.587 0.19 1.078 0.606 1.396 1.184 0.256 0.465 0.275 0.546 0.272 1.154-0.002 0.554-0.034 0.714-0.207 1.047-0.301 0.579-0.534 0.821-1.074 1.114l-0.485 0.263h-8.694l-0.385-0.191c-0.491-0.243-0.952-0.704-1.194-1.194-0.18-0.364-0.191-0.468-0.215-1.943l-0.025-1.558h5.113c4.496 0 5.16 0.015 5.498 0.124zM20.73 24.844c0.488 0.24 0.958 0.71 1.198 1.199 0.155 0.315 0.188 0.498 0.188 1.037 0 0.771-0.18 1.223-0.69 1.733s-0.962 0.691-1.733 0.691c-0.538 0-0.722-0.033-1.037-0.188-0.488-0.24-0.958-0.71-1.198-1.198-0.178-0.361-0.19-0.469-0.213-1.946l-0.025-1.564 1.564 0.025c1.477 0.024 1.585 0.035 1.946 0.213z"/>
</symbol><symbol viewBox="0 0 33 32" id="icon-services-07" xmlns="http://www.w3.org/2000/svg">
<title>icon-07</title>
<path d="M10.329 0.118c-0.279 0.061-0.816 0.262-1.191 0.448-1.667 0.823-2.785 2.635-2.785 4.513 0 2.849 2.459 5.206 5.284 5.065l0.641-0.032 1.060 2.37-0.508 0.548c-1.281 1.384-1.725 3.397-1.12 5.080 0.116 0.323 0.218 0.625 0.225 0.671s-0.888 0.888-1.99 1.872l-2.004 1.789-0.617-0.305c-3.787-1.87-8.085 1.475-7.209 5.61 0.307 1.448 1.348 2.794 2.665 3.444 1.532 0.756 3.072 0.758 4.599 0.005 2.203-1.086 3.327-3.827 2.506-6.112-0.116-0.323-0.218-0.626-0.225-0.672s0.891-0.889 1.997-1.873l2.011-1.79 0.613 0.305c1.040 0.518 2.168 0.663 3.3 0.423 0.568-0.12 1.391-0.467 1.802-0.76 0.156-0.111 0.269-0.143 0.332-0.095 0.824 0.629 3.379 2.61 3.457 2.681 0.085 0.078 0.073 0.186-0.067 0.603-0.101 0.3-0.188 0.802-0.211 1.223-0.187 3.329 2.853 5.928 6.131 5.242 2.279-0.477 4.008-2.618 4.008-4.964 0-1.873-1.125-3.7-2.78-4.516-1.613-0.796-3.31-0.742-4.873 0.153-0.331 0.189-0.582 0.287-0.635 0.247-0.559-0.423-3.37-2.603-3.449-2.674-0.085-0.078-0.074-0.186 0.066-0.6 0.094-0.277 0.19-0.813 0.214-1.189l0.044-0.685 2.057-0.679 0.123 0.186c0.068 0.103 0.363 0.421 0.656 0.708 1.956 1.916 5.117 1.881 7.070-0.077 2.004-2.010 2.004-5.153 0-7.163-1.991-1.997-5.151-1.995-7.151 0.005-0.935 0.935-1.501 2.25-1.505 3.5l-0.001 0.439-2.079 0.686-0.123-0.187c-0.068-0.102-0.367-0.425-0.666-0.718-0.966-0.946-2.336-1.464-3.689-1.397l-0.641 0.032-1.060-2.37 0.508-0.548c1.891-2.042 1.842-5.105-0.112-7.066-1.231-1.235-2.974-1.748-4.678-1.379zM12.208 2.665c0.606 0.196 1.113 0.626 1.441 1.222 0.263 0.479 0.284 0.565 0.283 1.191-0.001 0.615-0.025 0.719-0.271 1.176-0.3 0.557-0.55 0.798-1.148 1.109-0.346 0.18-0.504 0.211-1.081 0.21-0.551-0.001-0.748-0.036-1.072-0.193-0.824-0.4-1.376-1.206-1.45-2.118-0.144-1.774 1.598-3.145 3.299-2.596zM28.728 10.289c0.606 0.196 1.113 0.626 1.441 1.222 0.263 0.479 0.284 0.565 0.283 1.191-0.001 0.615-0.025 0.719-0.271 1.175-0.301 0.558-0.551 0.799-1.148 1.108-0.336 0.174-0.515 0.21-1.041 0.214-1.202 0.008-2.070-0.607-2.45-1.737-0.646-1.922 1.241-3.802 3.186-3.173zM17.291 14.101c0.641 0.207 1.128 0.63 1.448 1.257 0.252 0.494 0.278 0.606 0.274 1.188-0.003 0.513-0.042 0.716-0.189 1.001-0.309 0.597-0.61 0.914-1.133 1.197-0.458 0.247-0.556 0.269-1.175 0.267-0.813-0.003-1.282-0.195-1.801-0.736-0.438-0.457-0.673-0.969-0.722-1.573-0.144-1.774 1.6-3.149 3.298-2.601zM28.728 22.997c0.606 0.196 1.113 0.626 1.441 1.222 0.263 0.479 0.284 0.565 0.283 1.191-0.001 0.615-0.025 0.719-0.271 1.175-0.301 0.557-0.55 0.798-1.148 1.109-0.347 0.18-0.504 0.211-1.081 0.21-0.551-0.001-0.748-0.036-1.072-0.194-1.131-0.548-1.727-1.885-1.353-3.031 0.449-1.374 1.861-2.116 3.201-1.683zM6.147 24.382c0.481 0.229 0.943 0.692 1.219 1.224 0.176 0.338 0.208 0.504 0.21 1.075 0.002 0.618-0.021 0.717-0.268 1.176-0.301 0.557-0.55 0.798-1.148 1.109-0.346 0.18-0.504 0.211-1.081 0.21-0.551-0.001-0.748-0.036-1.072-0.193-2.064-1.002-1.892-3.926 0.278-4.715 0.5-0.182 1.348-0.129 1.862 0.115z"/>
</symbol><symbol viewBox="0 0 31 32" id="icon-services-08" xmlns="http://www.w3.org/2000/svg">
<title>icon-08</title>
<path d="M13.912 0.081c-6.179 0.643-11.475 5.024-13.251 10.963-2.801 9.369 3.615 18.943 13.352 19.922 5.101 0.513 10.246-1.626 13.506-5.617 4.681-5.729 4.681-13.927 0-19.656-3.277-4.010-8.46-6.148-13.608-5.612zM16.273 2.99c1.221 0.623 2.443 2.766 3.169 5.554 0.139 0.534 0.253 0.979 0.253 0.989s-1.881 0.019-4.18 0.019h-4.181l0.046-0.205c0.425-1.899 1.166-3.791 1.922-4.907 0.999-1.474 1.983-1.954 2.971-1.45zM10.951 3.701c-0.715 1.216-1.255 2.623-1.742 4.544l-0.322 1.269-5.080 0.039 0.243-0.43c1.305-2.306 3.243-4.15 5.624-5.35 0.521-0.263 1.439-0.661 1.64-0.711 0.008-0.002-0.156 0.285-0.364 0.639zM21.117 3.638c1.995 0.906 4.048 2.688 5.35 4.645 0.345 0.518 0.691 1.133 0.691 1.228 0 0.022-1.142 0.040-2.537 0.040-2.395 0-2.537-0.008-2.537-0.135 0-0.074-0.115-0.603-0.256-1.175-0.433-1.758-1.045-3.35-1.744-4.537l-0.376-0.639 0.461 0.176c0.253 0.097 0.681 0.276 0.95 0.398zM8.477 12.481c-0.091 0.702-0.091 5.38 0 6.082l0.070 0.541h-5.647l-0.073-0.191c-0.324-0.852-0.523-3.338-0.377-4.697 0.085-0.788 0.325-2.054 0.417-2.204 0.027-0.044 1.136-0.072 2.862-0.072h2.817l-0.070 0.541zM20.102 12.108c0.076 0.347 0.19 2.399 0.19 3.428s-0.102 2.823-0.189 3.326l-0.042 0.243h-9.095l-0.037-0.168c-0.077-0.348-0.19-2.401-0.189-3.428 0.001-1.051 0.112-3.072 0.187-3.4l0.039-0.168h9.099l0.037 0.168zM28.259 12.35c0.278 1.112 0.347 1.742 0.347 3.172s-0.069 2.060-0.347 3.172l-0.093 0.373-5.681 0.039 0.071-0.542c0.092-0.704 0.092-5.38 0-6.084l-0.071-0.542 5.681 0.039 0.093 0.373zM9.208 22.798c0.486 1.917 1.027 3.329 1.739 4.538l0.374 0.636-0.496-0.186c-2.768-1.040-5.27-3.206-6.775-5.866l-0.243-0.43 5.080 0.039 0.322 1.269zM19.668 21.622c-0.020 0.072-0.143 0.534-0.272 1.026-0.708 2.701-1.912 4.778-3.142 5.418-0.444 0.231-1.033 0.231-1.476 0-1.239-0.645-2.502-2.85-3.186-5.558-0.105-0.416-0.208-0.815-0.228-0.887-0.035-0.123 0.198-0.131 4.152-0.131s4.187 0.007 4.152 0.131zM27.158 21.532c0 0.095-0.346 0.71-0.691 1.228-1.515 2.276-3.792 4.099-6.3 5.045l-0.461 0.174 0.376-0.639c0.699-1.187 1.311-2.78 1.744-4.538 0.141-0.573 0.256-1.101 0.256-1.175 0-0.127 0.142-0.135 2.537-0.135 1.396 0 2.537 0.018 2.537 0.040z"/>
</symbol><symbol viewBox="0 0 32 32" id="icon-sms" xmlns="http://www.w3.org/2000/svg">
<title>icon-sms</title>
<path d="M28.187 3.809h-24.381c-1.676 0-3.032 1.371-3.032 3.048l-0.015 18.286c0 1.676 1.371 3.048 3.048 3.048h24.381c1.676 0 3.048-1.371 3.048-3.048v-18.286c0-1.676-1.371-3.048-3.048-3.048zM28.187 9.904l-12.19 7.619-12.191-7.619v-3.048l12.191 7.619 12.19-7.619v3.048z"/>
</symbol><symbol viewBox="0 0 32 32" id="icon-tel" xmlns="http://www.w3.org/2000/svg">
<title>icon-tel</title>
<path d="M7.086 0.915l2.53-0.763c0.835-0.251 1.733-0.19 2.526 0.172s1.428 1 1.785 1.795l1.774 3.944c0.308 0.684 0.394 1.448 0.245 2.183s-0.523 1.406-1.072 1.918l-2.7 2.516c-0.362 0.344-0.088 1.682 1.234 3.973 1.323 2.292 2.346 3.199 2.817 3.058l3.537-1.081c0.717-0.219 1.485-0.209 2.195 0.030s1.329 0.694 1.768 1.302l2.521 3.494c0.509 0.706 0.745 1.572 0.664 2.438s-0.474 1.674-1.106 2.272l-1.949 1.846c-0.629 0.596-1.405 1.014-2.248 1.212s-1.724 0.169-2.553-0.085c-4.083-1.25-7.864-4.959-11.395-11.076-3.538-6.126-4.874-11.293-3.943-15.514 0.188-0.851 0.599-1.636 1.191-2.274s1.344-1.108 2.178-1.359z"/>
</symbol><symbol viewBox="0 0 32 32" id="icon-tvit" xmlns="http://www.w3.org/2000/svg">
<title>icon-tvit</title>
<path d="M1.564 25.361c3.244 0.258 6.239-0.515 8.859-2.575-2.745-0.257-4.617-1.674-5.615-4.377 0.873 0.129 1.747 0.129 2.745-0.129-1.497-0.386-2.62-1.159-3.494-2.188-0.873-1.159-1.373-2.446-1.373-3.991 0.873 0.386 1.747 0.772 2.745 0.772-1.372-1.030-2.121-2.188-2.495-3.733s-0.125-3.090 0.624-4.506c3.244 3.991 7.362 6.179 12.477 6.565 0-0.644-0.125-1.159 0-1.802 0.125-2.575 1.996-5.021 4.367-5.664 2.246-0.644 4.242 0 5.864 1.545 0.125 0.129 0.249 0.129 0.374 0.129 1.248-0.257 2.371-0.772 3.618-1.416-0.499 1.416-1.372 2.575-2.495 3.347 0 0 0 0 0 0.129 0.499-0.129 1.123-0.257 1.622-0.386s1.123-0.386 1.622-0.515c-0.749 1.030-1.497 2.060-2.496 2.832-0.374 0.257-0.499 0.515-0.499 1.030 0 2.832-0.624 5.407-1.747 7.982-1.497 3.090-3.494 5.664-6.363 7.467-1.996 1.287-4.242 2.060-6.613 2.446-1.622 0.258-3.244 0.258-4.866 0-2.495-0.772-4.741-1.545-6.862-2.961z"/>
</symbol><symbol viewBox="0 0 32 32" id="people" xmlns="http://www.w3.org/2000/svg">
<title>people</title>
<path d="M28.008 23.227c-0.963-0.963-2.088-1.75-3.323-2.323 1.742-1.412 2.854-3.565 2.854-5.981 0-4.262-3.554-7.758-7.815-7.692-4.196 0.065-7.577 3.485-7.577 7.692 0 2.415 1.115 4.569 2.854 5.981-1.236 0.573-2.361 1.359-3.323 2.323-2.1 2.104-3.292 4.881-3.369 7.842-0.001 0.041 0.006 0.082 0.021 0.12s0.037 0.073 0.066 0.103 0.063 0.053 0.101 0.069c0.038 0.016 0.079 0.024 0.12 0.024h2.154c0.165 0 0.304-0.131 0.308-0.296 0.073-2.231 0.977-4.319 2.565-5.904 0.813-0.817 1.78-1.465 2.845-1.906s2.207-0.666 3.359-0.663c2.342 0 4.546 0.912 6.204 2.569 1.585 1.585 2.489 3.673 2.565 5.904 0.004 0.165 0.142 0.296 0.308 0.296h2.154c0.041 0 0.082-0.008 0.12-0.024s0.072-0.039 0.101-0.069 0.051-0.064 0.066-0.103c0.015-0.038 0.022-0.079 0.021-0.12-0.077-2.961-1.269-5.738-3.377-7.842zM19.846 19.846c-1.315 0-2.554-0.512-3.481-1.442-0.465-0.462-0.833-1.012-1.081-1.619s-0.371-1.257-0.362-1.912c0.012-1.262 0.515-2.481 1.396-3.385 0.923-0.946 2.158-1.473 3.477-1.488 1.304-0.012 2.569 0.496 3.5 1.408 0.954 0.935 1.477 2.185 1.477 3.515 0 1.315-0.512 2.55-1.442 3.481-0.457 0.459-1 0.823-1.598 1.070s-1.239 0.374-1.887 0.372zM10.212 15.938c-0.035-0.335-0.054-0.673-0.054-1.015 0-0.612 0.058-1.208 0.165-1.788 0.027-0.138-0.046-0.281-0.173-0.338-0.523-0.235-1.004-0.558-1.419-0.965-0.489-0.475-0.875-1.046-1.131-1.678s-0.378-1.31-0.358-1.991c0.035-1.235 0.531-2.408 1.396-3.292 0.95-0.973 2.227-1.504 3.585-1.488 1.227 0.012 2.411 0.485 3.308 1.323 0.304 0.285 0.565 0.6 0.785 0.938 0.077 0.119 0.227 0.169 0.358 0.123 0.677-0.235 1.392-0.4 2.127-0.477 0.215-0.023 0.338-0.254 0.242-0.446-1.25-2.473-3.804-4.181-6.758-4.227-4.265-0.065-7.819 3.431-7.819 7.688 0 2.415 1.112 4.569 2.854 5.981-1.223 0.565-2.35 1.346-3.327 2.323-2.108 2.104-3.3 4.881-3.377 7.846-0.001 0.041 0.006 0.082 0.021 0.12s0.037 0.073 0.066 0.103 0.063 0.053 0.101 0.069c0.038 0.016 0.079 0.024 0.12 0.024h2.158c0.165 0 0.304-0.131 0.308-0.296 0.073-2.231 0.977-4.319 2.565-5.904 1.131-1.131 2.515-1.915 4.027-2.296 0.15-0.039 0.25-0.181 0.231-0.335z"/>
</symbol><symbol viewBox="0 0 30 30" id="play" xmlns="http://www.w3.org/2000/svg">
<rect width="30" height="30" rx="15"/>
<path d="M19.75 13.701C20.75 14.2783 20.75 15.7217 19.75 16.299L13.75 19.7631C12.75 20.3405 11.5 19.6188 11.5 18.4641L11.5 11.5359C11.5 10.3812 12.75 9.65951 13.75 10.2369L19.75 13.701Z"/>
</symbol><symbol viewBox="0 0 1024 1024" id="star" xmlns="http://www.w3.org/2000/svg">
<title/>
<g id="azicomoon-ignore">
</g>
<path d="M478.106 31.365c11.643-31.465 56.145-31.465 67.789 0l114.893 310.495c3.662 9.891 11.463 17.691 21.353 21.353l310.495 114.893c31.464 11.643 31.464 56.145 0 67.789l-310.495 114.893c-9.891 3.662-17.691 11.463-21.353 21.353l-114.893 310.495c-11.643 31.464-56.145 31.464-67.789 0l-114.893-310.495c-3.662-9.891-11.463-17.691-21.353-21.353l-310.495-114.893c-31.465-11.643-31.465-56.145 0-67.789l310.495-114.893c9.891-3.662 17.691-11.463 21.353-21.353l114.893-310.495z"/>
</symbol><symbol viewBox="0 0 1536 1024" id="vector" xmlns="http://www.w3.org/2000/svg">
<title/>
<g id="baicomoon-ignore">
</g>
<path d="M0 512.002c0-14.548 5.779-28.5 16.066-38.787s24.239-16.067 38.787-16.067h1293.78l-345.248-345.139c-10.304-10.3-16.090-24.27-16.090-38.836s5.786-28.537 16.090-38.837c10.298-10.3 24.269-16.087 38.835-16.087s28.538 5.786 38.835 16.087l438.829 438.829c5.107 5.096 9.158 11.149 11.93 17.813 2.765 6.664 4.186 13.808 4.186 21.023s-1.421 14.36-4.186 21.023c-2.771 6.664-6.822 12.717-11.93 17.813l-438.829 438.832c-10.298 10.298-24.269 16.083-38.835 16.083s-28.538-5.786-38.835-16.083c-10.304-10.304-16.090-24.275-16.090-38.842s5.786-28.531 16.090-38.835l345.248-345.138h-1293.78c-14.548 0-28.5-5.779-38.787-16.067s-16.066-24.239-16.066-38.787z"/>
</symbol></svg>