<!-- Generated by IcoMoon.io -->
<svg version="1.1" xmlns="http://www.w3.org/2000/svg" width="45" height="32" viewBox="0 0 45 32">
<title>traced</title>
<path d="M44.8 23.852v-7.935h-6.735c-5.718 0-6.735-0.034-6.735-0.222 0-0.122 0.085-0.766 0.189-1.43 0.468-2.992 2.403-5.959 5.052-7.748 2.077-1.402 4.125-2.154 6.653-2.442l1.576-0.18v-3.849l-1.006 0.002c-0.553 0.001-1.714 0.133-2.58 0.293-3.506 0.647-6.39 2.031-8.936 4.287-2.451 2.172-3.893 4.366-4.845 7.372-0.365 1.153-0.38 1.515-0.435 10.491l-0.056 9.297h17.858v-7.935zM17.861 23.852v-7.935h-13.345l0.094-1.219c0.11-1.431 0.86-3.507 1.729-4.785 2.275-3.348 6.055-5.488 10.428-5.903l1.093-0.104v-3.905l-1.531 0.093c-2.155 0.13-4.024 0.602-6.254 1.578-4.781 2.092-8.067 5.668-9.5 10.338l-0.459 1.497-0.059 9.141-0.058 9.141h17.861v-7.935zM31.33 23.93v-3.968h8.921v7.935h-8.921v-3.968zM4.566 23.93v-3.968h8.921v7.935h-8.921v-3.968z"></path>
</svg>
