<svg width="72" height="40" viewBox="0 0 72 40" fill="none" xmlns="http://www.w3.org/2000/svg">
<path d="M38.6875 10.3L55.9875 25.1375C55.7875 25.25 55.5875 25.3875 55.3875 25.5125C53.1375 27.0625 50.375 28.05 47.9875 28.05C45.5375 28.05 42.8875 27.0875 40.5875 25.5125C37.825 23.575 34.1375 23.575 31.375 25.5125C29.2375 26.9875 26.625 28.05 23.975 28.05C22.7125 28.05 21.3375 27.775 19.9875 27.275C20.3875 12.15 32.775 0 48 0H56C58.2125 0 60 1.7875 60 4C60 6.2125 58.2125 8 56 8H48C44.6375 8 41.4625 8.825 38.6875 10.3ZM20 8C20 10.1217 19.1571 12.1566 17.6569 13.6569C16.1566 15.1571 14.1217 16 12 16C9.87827 16 7.84344 15.1571 6.34315 13.6569C4.84286 12.1566 4 10.1217 4 8C4 5.87827 4.84286 3.84344 6.34315 2.34315C7.84344 0.842854 9.87827 0 12 0C14.1217 0 16.1566 0.842854 17.6569 2.34315C19.1571 3.84344 20 5.87827 20 8ZM38.3125 28.7375C41.125 30.675 44.5625 32 48 32C51.3625 32 54.925 30.65 57.675 28.7375C59.1625 27.675 61.1875 27.7625 62.575 28.95C64.375 30.4375 66.6375 31.575 68.9 32.1C71.05 32.6 72.3875 34.75 71.8875 36.9C71.3875 39.05 69.2375 40.3875 67.0875 39.8875C64.025 39.175 61.475 37.825 59.8125 36.7625C56.1875 38.7125 52.125 40 48 40C44.0125 40 40.425 38.7625 37.95 37.6375C37.225 37.3 36.5625 36.975 36 36.675C35.4375 36.975 34.7875 37.3125 34.05 37.6375C31.575 38.7625 27.9875 40 24 40C19.875 40 15.8125 38.7125 12.1875 36.775C10.5125 37.825 7.975 39.1875 4.9125 39.9C2.7625 40.4 0.612502 39.0625 0.112502 36.9125C-0.387498 34.7625 0.950002 32.6125 3.1 32.1125C5.3625 31.5875 7.625 30.45 9.425 28.9625C10.8125 27.7875 12.8375 27.7 14.325 28.75C17.0875 30.65 20.6375 32 24 32C27.4375 32 30.875 30.675 33.6875 28.7375C35.075 27.75 36.925 27.75 38.3125 28.7375Z" fill="#D8AE5E"/>
</svg>
