<svg width="73" height="56" viewBox="0 0 73 56" fill="none" xmlns="http://www.w3.org/2000/svg">
<path d="M4.1 0C2.10875 0 0.5 1.7875 0.5 4C0.5 6.2125 2.10875 8 4.1 8V28C4.1 34.625 8.9375 40 14.9 40V44H22.1V40H43.7V44H50.9V40C56.8625 40 61.7 34.625 61.7 28V16C63.6912 16 65.3 14.2125 65.3 12C65.3 9.7875 63.6912 8 61.7 8H58.1H54.5C52.5087 8 50.9 9.7875 50.9 12V17.1625C50.9 20.9375 48.1437 24 44.7462 24C36.2525 24 28.3662 19.1375 23.8662 11.1375L23.3825 10.275C20.0975 4.45 14.5625 0.7 8.45375 0.0875001C8.20625 0.0250001 7.95875 0 7.7 0H6.6875H4.1ZM72.5 44C72.5 41.7875 70.8913 40 68.9 40C66.9087 40 65.3 41.7875 65.3 44V45C65.3 46.6625 64.0962 48 62.6 48H7.7C5.70875 48 4.1 49.7875 4.1 52C4.1 54.2125 5.70875 56 7.7 56H62.6C68.0675 56 72.5 51.075 72.5 45V44Z" fill="#D8AE5E"/>
</svg>
