<svg width="65" height="64" viewBox="0 0 65 64" fill="none" xmlns="http://www.w3.org/2000/svg">
<path d="M26.7125 0.425C28.6875 -0.5625 31.0875 0.2375 32.075 2.2125L35.2 8.4625L40.5 9.525C42.9375 10.0125 45.225 11.0625 47.1875 12.5875L62.95 24.85C64.7 26.2125 65.0125 28.725 63.65 30.4625C62.2875 32.2 59.775 32.525 58.0375 31.1625L49.025 24.15L40.0875 28.125L44.225 31.575C47.125 33.9875 48.4125 37.825 47.5625 41.5L45.3875 50.9C45.1125 52.075 44.3625 53 43.375 53.525L54.1875 57.6625C54.7625 57.8875 55.3625 57.9875 55.975 57.9875H59.5C61.1625 57.9875 62.5 59.325 62.5 60.9875C62.5 62.65 61.1625 63.9875 59.5 63.9875H55.975C54.625 63.9875 53.3 63.7375 52.0375 63.2625L8.0125 46.4125C6.575 45.8625 5.2625 45.0125 4.1625 43.9125L1.375 41.125C0.200002 39.95 0.200002 38.05 1.375 36.8875C2.55 35.725 4.45 35.7125 5.6125 36.8875L8.4125 39.6875C8.9125 40.1875 9.5 40.575 10.1625 40.825L12.9625 41.9C12.8625 41.7 12.775 41.5 12.7 41.2875C12 39.1875 13.1375 36.925 15.225 36.225L24.5 33.1125V26.4625C24.5 23.4375 26.2125 20.6625 28.925 19.3125L34.575 16.4875L33.6375 16.3C31.2125 15.8125 29.15 14.2375 28.05 12.0375L24.925 5.7875C23.9375 3.8125 24.7375 1.4125 26.7125 0.425ZM17.875 43.7625L37.75 51.375C37.4875 50.675 37.425 49.8875 37.6125 49.1L39.7875 39.7C39.9625 38.9625 39.7 38.2 39.125 37.7125L32.525 32.2125V34.5625C32.525 37.15 30.875 39.4375 28.425 40.25L17.875 43.7625ZM54.5 0C56.0913 0 57.6174 0.632141 58.7426 1.75736C59.8679 2.88258 60.5 4.4087 60.5 6C60.5 7.5913 59.8679 9.11742 58.7426 10.2426C57.6174 11.3679 56.0913 12 54.5 12C52.9087 12 51.3826 11.3679 50.2574 10.2426C49.1321 9.11742 48.5 7.5913 48.5 6C48.5 4.4087 49.1321 2.88258 50.2574 1.75736C51.3826 0.632141 52.9087 0 54.5 0Z" fill="#D8AE5E"/>
</svg>
