<svg width="73" height="56" viewBox="0 0 73 56" fill="none" xmlns="http://www.w3.org/2000/svg">
<path d="M23.3875 25.4125C27.6 28 31.25 31.425 34.1125 35.475C34.9875 36.7125 35.7875 38.0125 36.5 39.35C37.2125 38 38.0125 36.7125 38.8875 35.475C41.75 31.425 45.4 28 49.6125 25.4125C55.2 21.975 61.7625 20 68.75 20H69.9875C71.375 20 72.5 21.125 72.5 22.5125C72.5 41.0125 57.5125 56 39.0125 56H36.5H33.9875C15.4875 56 0.5 41.0125 0.5 22.5125C0.5 21.125 1.625 20 3.0125 20H4.25C11.2375 20 17.8 21.975 23.3875 25.4125ZM38.1875 0.7C40.15 2.8125 45.825 9.675 48.7375 21.275C43.9875 23.975 39.8125 27.625 36.5 31.975C33.1875 27.625 29.0125 23.9875 24.2625 21.275C27.1625 9.675 32.8375 2.8125 34.8125 0.7C35.25 0.2375 35.8625 0 36.5 0C37.1375 0 37.75 0.2375 38.1875 0.7Z" fill="#D8AE5E"/>
</svg>
