<svg width="57" height="64" viewBox="0 0 57 64" fill="none" xmlns="http://www.w3.org/2000/svg">
<path d="M26.825 0.7375L8.25 21.175C7.7625 21.7 7.5 22.4 7.5 23.1125C7.5 24.7125 8.7875 26 10.3875 26H13.5L4.325 35.175C3.8 35.7 3.5 36.425 3.5 37.175C3.5 38.7375 4.7625 40 6.325 40H10.5L1.175 51.1875C0.7375 51.7125 0.5 52.375 0.5 53.0625C0.5 54.6875 1.8125 56 3.4375 56H24.5V60C24.5 62.2125 26.2875 64 28.5 64C30.7125 64 32.5 62.2125 32.5 60V56H53.5625C55.1875 56 56.5 54.6875 56.5 53.0625C56.5 52.375 56.2625 51.7125 55.825 51.1875L46.5 40H50.675C52.2375 40 53.5 38.7375 53.5 37.175C53.5 36.425 53.2 35.7 52.675 35.175L43.5 26H46.6125C48.2 26 49.5 24.7125 49.5 23.1125C49.5 22.4 49.2375 21.7 48.75 21.175L30.175 0.7375C29.75 0.2625 29.1375 0 28.5 0C27.8625 0 27.25 0.2625 26.825 0.7375Z" fill="#D8AE5E"/>
</svg>
