<svg width="56" height="64" viewBox="0 0 56 64" fill="none" xmlns="http://www.w3.org/2000/svg">
<path d="M52 0C50 0 36 4 36 22V36C36 40.4125 39.5875 44 44 44H48V60C48 62.2125 49.7875 64 52 64C54.2125 64 56 62.2125 56 60V44V30V4C56 1.7875 54.2125 0 52 0ZM8 2C8 0.975 7.2375 0.125 6.2125 0.0125C5.1875 -0.1 4.275 0.575 4.05 1.5625L0.2625 18.6C0.0875 19.3875 0 20.1875 0 20.9875C0 26.725 4.3875 31.4375 10 31.95V60C10 62.2125 11.7875 64 14 64C16.2125 64 18 62.2125 18 60V31.95C23.6125 31.4375 28 26.725 28 20.9875C28 20.1875 27.9125 19.3875 27.7375 18.6L23.95 1.5625C23.725 0.5625 22.7875 -0.1 21.775 0.0125C20.7625 0.125 20 0.975 20 2V18.775C20 19.45 19.45 20 18.775 20C18.1375 20 17.6125 19.5125 17.55 18.875L15.9875 1.825C15.9 0.7875 15.0375 0 14 0C12.9625 0 12.1 0.7875 12.0125 1.825L10.4625 18.875C10.4 19.5125 9.875 20 9.2375 20C8.5625 20 8.0125 19.45 8.0125 18.775V2H8ZM14.0375 21H14H13.9625L14 20.9125L14.0375 21Z" fill="#D8AE5E"/>
</svg>
