<svg width="144" height="54" viewBox="0 0 144 54" fill="none" xmlns="http://www.w3.org/2000/svg">
<rect x="1" y="1" width="142" height="52" rx="5" fill="white" stroke="#E8E8E8" stroke-width="2"/>
<path d="M32.7973 27.5804C32.819 25.8994 33.7217 24.3088 35.1539 23.4283C34.2504 22.138 32.7371 21.3199 31.1627 21.2706C29.4835 21.0944 27.8555 22.2754 26.9998 22.2754C26.1275 22.2754 24.81 21.2881 23.3913 21.3173C21.5421 21.3771 19.8181 22.4284 18.9184 24.0452C16.9844 27.3936 18.427 32.3146 20.2796 35.0213C21.2065 36.3466 22.2898 37.8271 23.7072 37.7746C25.0943 37.717 25.6123 36.8901 27.2866 36.8901C28.9454 36.8901 29.4314 37.7746 30.8776 37.7412C32.366 37.717 33.3038 36.4099 34.1981 35.072C34.8641 34.1277 35.3766 33.084 35.7166 31.9795C33.9674 31.2397 32.7994 29.4795 32.7973 27.5804Z" fill="#282828"/>
<path d="M30.0656 19.4906C30.8772 18.5164 31.277 17.2642 31.1802 16C29.9403 16.1302 28.7951 16.7228 27.9726 17.6596C27.1683 18.5749 26.7497 19.8051 26.8289 21.021C28.0692 21.0338 29.2885 20.4573 30.0656 19.4906Z" fill="#282828"/>
<path d="M43.87 23H46.24C48.46 23 50.04 21.57 50.04 19.56C50.04 17.55 48.46 16.13 46.24 16.13H43.87V23ZM44.88 22.08V17.05H46.3C47.89 17.05 49 18.09 49 19.56C49 21.04 47.89 22.08 46.3 22.08H44.88ZM53.7872 23.12C55.2572 23.12 56.4972 21.88 56.4972 20.41C56.4972 18.94 55.2572 17.71 53.7872 17.71C52.3072 17.71 51.0572 18.94 51.0572 20.41C51.0572 21.88 52.3072 23.12 53.7872 23.12ZM53.7872 22.26C52.8372 22.26 52.0472 21.42 52.0472 20.41C52.0472 19.41 52.8372 18.57 53.7872 18.57C54.7172 18.57 55.5072 19.41 55.5072 20.41C55.5072 21.42 54.7172 22.26 53.7872 22.26ZM58.7507 23H59.6607L60.9107 19.16L62.1507 23H63.0607L64.8007 17.83H63.7907L62.6107 21.68L61.3307 17.83H60.4907L59.2107 21.68L58.0207 17.83H57.0107L58.7507 23ZM68.4301 17.71C67.7301 17.71 67.1001 18.07 66.7901 18.58V17.83H65.8001V23H66.7901V19.65C66.8701 19.04 67.4901 18.57 68.2101 18.57C68.9101 18.57 69.4001 19.11 69.4001 19.88V23H70.3701V19.71C70.3701 18.54 69.5701 17.71 68.4301 17.71ZM71.7864 23H72.7664V16.01H71.7864V23ZM76.6583 23.12C78.1283 23.12 79.3683 21.88 79.3683 20.41C79.3683 18.94 78.1283 17.71 76.6583 17.71C75.1783 17.71 73.9283 18.94 73.9283 20.41C73.9283 21.88 75.1783 23.12 76.6583 23.12ZM76.6583 22.26C75.7083 22.26 74.9183 21.42 74.9183 20.41C74.9183 19.41 75.7083 18.57 76.6583 18.57C77.5883 18.57 78.3783 19.41 78.3783 20.41C78.3783 21.42 77.5883 22.26 76.6583 22.26ZM82.6966 17.71C82.1266 17.71 81.4766 17.86 80.7366 18.23L81.0966 18.96C81.5466 18.73 82.0466 18.53 82.5566 18.53C83.5866 18.53 83.8866 19.22 83.8866 19.87V20.03C83.3866 19.86 82.8366 19.75 82.3266 19.75C81.1866 19.75 80.2566 20.44 80.2566 21.47C80.2566 22.48 81.0666 23.12 82.1666 23.12C82.7966 23.12 83.5066 22.83 83.8866 22.29V23H84.8566V19.87C84.8566 18.59 84.0866 17.71 82.6966 17.71ZM82.3566 22.34C81.7066 22.34 81.2066 22 81.2066 21.44C81.2066 20.88 81.7866 20.49 82.4766 20.49C82.9866 20.49 83.4666 20.56 83.8866 20.69V21.38C83.7166 22.02 82.9966 22.34 82.3566 22.34ZM90.2684 16.01V18.72C89.8684 18.09 89.2284 17.71 88.4284 17.71C87.0684 17.71 86.0484 18.83 86.0484 20.41C86.0484 22 87.0684 23.12 88.4284 23.12C89.2284 23.12 89.8684 22.74 90.2684 22.1V23H91.2484V16.01H90.2684ZM88.6684 22.26C87.7184 22.26 87.0484 21.49 87.0484 20.41C87.0484 19.33 87.7184 18.57 88.6684 18.57C89.5984 18.57 90.2684 19.33 90.2684 20.41C90.2684 21.49 89.5984 22.26 88.6684 22.26ZM98.045 23.12C99.515 23.12 100.755 21.88 100.755 20.41C100.755 18.94 99.515 17.71 98.045 17.71C96.565 17.71 95.315 18.94 95.315 20.41C95.315 21.88 96.565 23.12 98.045 23.12ZM98.045 22.26C97.095 22.26 96.305 21.42 96.305 20.41C96.305 19.41 97.095 18.57 98.045 18.57C98.975 18.57 99.765 19.41 99.765 20.41C99.765 21.42 98.975 22.26 98.045 22.26ZM104.543 17.71C103.843 17.71 103.213 18.07 102.903 18.58V17.83H101.913V23H102.903V19.65C102.983 19.04 103.603 18.57 104.323 18.57C105.023 18.57 105.513 19.11 105.513 19.88V23H106.483V19.71C106.483 18.54 105.683 17.71 104.543 17.71ZM113.181 22.07C113.071 22.18 112.871 22.26 112.651 22.26C112.361 22.26 112.121 22 112.121 21.64V18.67H113.341V17.83H112.121V16.41H111.151V17.83H110.371V18.67H111.151V21.71C111.151 22.54 111.711 23.12 112.511 23.12C112.881 23.12 113.261 22.98 113.541 22.75L113.181 22.07ZM117.18 17.71C116.47 17.71 115.84 18.08 115.53 18.6V16.01H114.55V23H115.53V19.79C115.53 19.12 116.18 18.57 116.96 18.57C117.66 18.57 118.15 19.11 118.15 19.88V23H119.12V19.71C119.12 18.54 118.32 17.71 117.18 17.71ZM122.906 22.24C122.016 22.24 121.386 21.62 121.256 20.76H125.326C125.326 18.91 124.416 17.71 122.836 17.71C121.406 17.71 120.256 18.85 120.256 20.4C120.256 21.99 121.476 23.12 122.916 23.12C123.646 23.12 124.546 22.81 125.006 22.32L124.386 21.68C124.076 22 123.446 22.24 122.906 22.24ZM122.876 18.59C123.766 18.59 124.256 19.17 124.366 19.97H121.266C121.426 19.13 122.076 18.59 122.876 18.59Z" fill="#282828"/>
<path d="M51.008 36H53.332L49.412 26.382H47.102L43.182 36H45.492L46.108 34.488H50.392L51.008 36ZM46.822 32.738L48.25 29.224L49.678 32.738H46.822ZM58.8757 28.594C57.8677 28.594 57.0277 29.028 56.4537 29.77V28.762H54.4097V38.408H56.4537V34.978C57.0277 35.734 57.8677 36.168 58.8757 36.168C60.8077 36.168 62.2077 34.6 62.2077 32.374C62.2077 30.162 60.8077 28.594 58.8757 28.594ZM58.2877 34.446C57.2937 34.446 56.5657 33.718 56.4537 32.654V32.094C56.5657 31.044 57.2937 30.316 58.2877 30.316C59.4217 30.316 60.2197 31.17 60.2197 32.374C60.2197 33.592 59.4217 34.446 58.2877 34.446ZM68.1179 28.594C67.1099 28.594 66.2699 29.028 65.6959 29.77V28.762H63.6519V38.408H65.6959V34.978C66.2699 35.734 67.1099 36.168 68.1179 36.168C70.0499 36.168 71.4499 34.6 71.4499 32.374C71.4499 30.162 70.0499 28.594 68.1179 28.594ZM67.5299 34.446C66.5359 34.446 65.8079 33.718 65.6959 32.654V32.094C65.8079 31.044 66.5359 30.316 67.5299 30.316C68.6639 30.316 69.4619 31.17 69.4619 32.374C69.4619 33.592 68.6639 34.446 67.5299 34.446ZM80.5002 36.168C82.8522 36.168 84.2382 34.95 84.2382 33.116C84.2382 31.338 82.8662 30.722 80.7942 30.26C79.3102 29.924 78.7362 29.7 78.7362 29C78.7362 28.426 79.2682 27.964 80.1502 27.964C81.0742 27.964 82.0402 28.342 82.8942 29.028L83.9722 27.544C82.9922 26.704 81.7742 26.214 80.2062 26.214C78.1062 26.214 76.6502 27.432 76.6502 29.21C76.6502 31.072 78.0922 31.646 80.1222 32.108C81.5922 32.444 82.1522 32.654 82.1522 33.34C82.1522 33.942 81.6202 34.418 80.5842 34.418C79.3662 34.418 78.3302 33.942 77.4202 33.158L76.2302 34.572C77.3502 35.608 78.8342 36.168 80.5002 36.168ZM89.4716 34.208C89.3316 34.348 89.0516 34.446 88.7716 34.446C88.3936 34.446 88.0856 34.11 88.0856 33.634V30.414H89.6536V28.762H88.0856V26.774H86.1256V28.762H85.1316V30.414H86.1256V33.956C86.1256 35.258 87.0216 36.168 88.2956 36.168C88.8836 36.168 89.5416 35.916 89.9616 35.538L89.4716 34.208ZM94.7977 36.168C96.9397 36.168 98.7317 34.432 98.7317 32.374C98.7317 30.316 96.9397 28.594 94.7977 28.594C92.6417 28.594 90.8357 30.316 90.8357 32.374C90.8357 34.432 92.6417 36.168 94.7977 36.168ZM94.7977 34.446C93.7057 34.446 92.7957 33.494 92.7957 32.374C92.7957 31.254 93.7057 30.316 94.7977 30.316C95.8757 30.316 96.7857 31.254 96.7857 32.374C96.7857 33.494 95.8757 34.446 94.7977 34.446ZM102.159 30.106V28.762H100.115V36H102.159V32.542C102.159 31.184 103.125 30.316 104.637 30.316V28.594C103.531 28.594 102.635 29.168 102.159 30.106ZM109.232 34.362C108.378 34.362 107.748 33.83 107.51 33.046H112.732C112.732 30.316 111.402 28.594 109.134 28.594C107.02 28.594 105.41 30.176 105.41 32.36C105.41 34.586 107.09 36.168 109.246 36.168C110.31 36.168 111.556 35.72 112.2 35.048L110.898 33.718C110.506 34.096 109.806 34.362 109.232 34.362ZM109.218 30.4C110.044 30.4 110.576 30.862 110.772 31.576H107.538C107.804 30.848 108.448 30.4 109.218 30.4Z" fill="#282828"/>
</svg>
