<svg width="144" height="54" viewBox="0 0 144 54" fill="none" xmlns="http://www.w3.org/2000/svg">
<rect x="1" y="1" width="142" height="52" rx="5" fill="white" stroke="#E8E8E8" stroke-width="2"/>
<path d="M45.77 22V15H47.62C48.4333 15 49.1033 15.1433 49.63 15.43C50.1633 15.71 50.5567 16.1133 50.81 16.64C51.07 17.16 51.2 17.7867 51.2 18.52C51.2 19.24 51.07 19.86 50.81 20.38C50.5567 20.9 50.1633 21.3 49.63 21.58C49.1033 21.86 48.4333 22 47.62 22H45.77ZM46.61 21.3H47.6C48.2733 21.3 48.81 21.19 49.21 20.97C49.61 20.7433 49.8967 20.4233 50.07 20.01C50.2433 19.59 50.33 19.0933 50.33 18.52C50.33 17.9333 50.2433 17.43 50.07 17.01C49.8967 16.59 49.61 16.2667 49.21 16.04C48.81 15.8133 48.2733 15.7 47.6 15.7H46.61V21.3ZM54.6595 22.12C54.1728 22.12 53.7428 22.01 53.3695 21.79C52.9961 21.5633 52.7061 21.2467 52.4995 20.84C52.2928 20.4267 52.1895 19.9433 52.1895 19.39C52.1895 18.8367 52.2928 18.3567 52.4995 17.95C52.7128 17.5433 53.0061 17.2267 53.3795 17C53.7595 16.7733 54.1928 16.66 54.6795 16.66C55.1661 16.66 55.5928 16.7733 55.9595 17C56.3328 17.2267 56.6228 17.5433 56.8295 17.95C57.0428 18.3567 57.1495 18.8367 57.1495 19.39C57.1495 19.9433 57.0428 20.4267 56.8295 20.84C56.6161 21.2467 56.3228 21.5633 55.9495 21.79C55.5761 22.01 55.1461 22.12 54.6595 22.12ZM54.6595 21.4C54.9595 21.4 55.2328 21.3267 55.4795 21.18C55.7261 21.0267 55.9228 20.8 56.0695 20.5C56.2161 20.2 56.2895 19.83 56.2895 19.39C56.2895 18.9433 56.2161 18.5733 56.0695 18.28C55.9295 17.98 55.7361 17.7567 55.4895 17.61C55.2495 17.4567 54.9795 17.38 54.6795 17.38C54.3795 17.38 54.1061 17.4567 53.8595 17.61C53.6128 17.7567 53.4161 17.98 53.2695 18.28C53.1228 18.5733 53.0495 18.9433 53.0495 19.39C53.0495 19.83 53.1195 20.2 53.2595 20.5C53.4061 20.8 53.5995 21.0267 53.8395 21.18C54.0861 21.3267 54.3595 21.4 54.6595 21.4ZM59.2409 22L57.7109 16.78H58.5509L59.7009 20.99H59.6709L60.8909 16.78H61.8409L63.0809 20.98H63.0509L64.1909 16.78H65.0409L63.5109 22H62.6509L61.3609 17.61H61.3909L60.1009 22H59.2409ZM66.003 22V16.78H66.763L66.803 17.62C66.9563 17.32 67.1763 17.0867 67.463 16.92C67.7563 16.7467 68.093 16.66 68.473 16.66C68.8663 16.66 69.2063 16.7367 69.493 16.89C69.7796 17.0367 70.003 17.2633 70.163 17.57C70.323 17.87 70.403 18.2533 70.403 18.72V22H69.563V18.81C69.563 18.3367 69.4463 17.98 69.213 17.74C68.9863 17.5 68.6763 17.38 68.283 17.38C68.023 17.38 67.783 17.4433 67.563 17.57C67.343 17.6967 67.1663 17.8833 67.033 18.13C66.9063 18.37 66.843 18.6667 66.843 19.02V22H66.003ZM71.7745 22V14.8H72.6145V22H71.7745ZM76.2805 22.12C75.7939 22.12 75.3639 22.01 74.9905 21.79C74.6172 21.5633 74.3272 21.2467 74.1205 20.84C73.9139 20.4267 73.8105 19.9433 73.8105 19.39C73.8105 18.8367 73.9139 18.3567 74.1205 17.95C74.3339 17.5433 74.6272 17.2267 75.0005 17C75.3805 16.7733 75.8139 16.66 76.3005 16.66C76.7872 16.66 77.2139 16.7733 77.5805 17C77.9539 17.2267 78.2439 17.5433 78.4505 17.95C78.6639 18.3567 78.7705 18.8367 78.7705 19.39C78.7705 19.9433 78.6639 20.4267 78.4505 20.84C78.2372 21.2467 77.9439 21.5633 77.5705 21.79C77.1972 22.01 76.7672 22.12 76.2805 22.12ZM76.2805 21.4C76.5805 21.4 76.8539 21.3267 77.1005 21.18C77.3472 21.0267 77.5439 20.8 77.6905 20.5C77.8372 20.2 77.9105 19.83 77.9105 19.39C77.9105 18.9433 77.8372 18.5733 77.6905 18.28C77.5505 17.98 77.3572 17.7567 77.1105 17.61C76.8705 17.4567 76.6005 17.38 76.3005 17.38C76.0005 17.38 75.7272 17.4567 75.4805 17.61C75.2339 17.7567 75.0372 17.98 74.8905 18.28C74.7439 18.5733 74.6705 18.9433 74.6705 19.39C74.6705 19.83 74.7405 20.2 74.8805 20.5C75.0272 20.8 75.2205 21.0267 75.4605 21.18C75.7072 21.3267 75.9805 21.4 76.2805 21.4ZM81.6176 22.12C81.2176 22.12 80.8809 22.0467 80.6076 21.9C80.3409 21.7467 80.1409 21.5467 80.0076 21.3C79.8742 21.0533 79.8076 20.7867 79.8076 20.5C79.8076 20.16 79.8942 19.87 80.0676 19.63C80.2476 19.3833 80.4976 19.1967 80.8176 19.07C81.1376 18.9433 81.5142 18.88 81.9476 18.88H83.2576C83.2576 18.5467 83.2142 18.27 83.1276 18.05C83.0476 17.8233 82.9176 17.6533 82.7376 17.54C82.5576 17.4267 82.3209 17.37 82.0276 17.37C81.7209 17.37 81.4576 17.4467 81.2376 17.6C81.0242 17.7533 80.8909 17.98 80.8376 18.28H79.9776C80.0176 17.9267 80.1342 17.6333 80.3276 17.4C80.5276 17.16 80.7776 16.9767 81.0776 16.85C81.3776 16.7233 81.6942 16.66 82.0276 16.66C82.5009 16.66 82.8909 16.7467 83.1976 16.92C83.5042 17.0867 83.7309 17.3233 83.8776 17.63C84.0242 17.93 84.0976 18.2867 84.0976 18.7V22H83.3476L83.2976 21.1C83.2309 21.24 83.1442 21.3733 83.0376 21.5C82.9376 21.62 82.8176 21.7267 82.6776 21.82C82.5376 21.9133 82.3776 21.9867 82.1976 22.04C82.0242 22.0933 81.8309 22.12 81.6176 22.12ZM81.7376 21.41C81.9576 21.41 82.1609 21.36 82.3476 21.26C82.5409 21.16 82.7042 21.0267 82.8376 20.86C82.9709 20.6867 83.0742 20.4967 83.1476 20.29C83.2209 20.0767 83.2576 19.8533 83.2576 19.62V19.53H82.0176C81.6976 19.53 81.4376 19.57 81.2376 19.65C81.0442 19.73 80.9042 19.8433 80.8176 19.99C80.7309 20.13 80.6876 20.2867 80.6876 20.46C80.6876 20.6533 80.7276 20.82 80.8076 20.96C80.8876 21.1 81.0076 21.21 81.1676 21.29C81.3276 21.37 81.5176 21.41 81.7376 21.41ZM87.6556 22.12C87.1823 22.12 86.7656 22.0033 86.4056 21.77C86.0456 21.53 85.7656 21.2033 85.5656 20.79C85.3656 20.3767 85.2656 19.9067 85.2656 19.38C85.2656 18.8533 85.3656 18.3867 85.5656 17.98C85.7656 17.5733 86.0456 17.2533 86.4056 17.02C86.7656 16.78 87.1856 16.66 87.6656 16.66C88.079 16.66 88.4356 16.7433 88.7356 16.91C89.0356 17.0767 89.269 17.31 89.4356 17.61V14.8H90.2756V22H89.5156L89.4456 21.16C89.3456 21.3267 89.2123 21.4833 89.0456 21.63C88.8856 21.7767 88.689 21.8967 88.4556 21.99C88.229 22.0767 87.9623 22.12 87.6556 22.12ZM87.7656 21.39C88.099 21.39 88.389 21.31 88.6356 21.15C88.8823 20.9833 89.0723 20.75 89.2056 20.45C89.339 20.15 89.4056 19.7967 89.4056 19.39C89.4056 18.9833 89.339 18.63 89.2056 18.33C89.0723 18.03 88.8823 17.8 88.6356 17.64C88.389 17.4733 88.099 17.39 87.7656 17.39C87.4456 17.39 87.1623 17.4733 86.9156 17.64C86.669 17.8 86.4756 18.03 86.3356 18.33C86.1956 18.63 86.1256 18.9833 86.1256 19.39C86.1256 19.7967 86.1956 20.15 86.3356 20.45C86.4756 20.75 86.669 20.9833 86.9156 21.15C87.1623 21.31 87.4456 21.39 87.7656 21.39Z" fill="#282828"/>
<path d="M46.0667 37V27H49.4667C50.2667 27 50.9926 27.1296 51.6444 27.3889C52.3037 27.6481 52.8704 28.0074 53.3444 28.4667C53.8259 28.9185 54.1963 29.4481 54.4556 30.0556C54.7148 30.663 54.8444 31.3111 54.8444 32C54.8444 32.6889 54.7148 33.337 54.4556 33.9444C54.1963 34.5519 53.8259 35.0852 53.3444 35.5444C52.8704 35.9963 52.3037 36.3519 51.6444 36.6111C50.9926 36.8704 50.2667 37 49.4667 37H46.0667ZM48 35.2H49.2889C49.8519 35.2 50.3481 35.1185 50.7778 34.9556C51.2074 34.7852 51.5667 34.5556 51.8556 34.2667C52.1519 33.9704 52.3741 33.6296 52.5222 33.2444C52.6778 32.8593 52.7556 32.4444 52.7556 32C52.7556 31.5556 52.6778 31.1407 52.5222 30.7556C52.3741 30.363 52.1519 30.0222 51.8556 29.7333C51.5667 29.437 51.2074 29.2074 50.7778 29.0444C50.3481 28.8815 49.8519 28.8 49.2889 28.8H48V35.2ZM56.1931 37V30.3333H58.1264V37H56.1931ZM57.1597 29.3667C56.8708 29.3667 56.6264 29.2667 56.4264 29.0667C56.2264 28.8667 56.1264 28.6222 56.1264 28.3333C56.1264 28.037 56.2264 27.7926 56.4264 27.6C56.6264 27.4 56.8708 27.3 57.1597 27.3C57.456 27.3 57.7005 27.4 57.8931 27.6C58.0931 27.7926 58.1931 28.037 58.1931 28.3333C58.1931 28.6222 58.0931 28.8667 57.8931 29.0667C57.7005 29.2667 57.456 29.3667 57.1597 29.3667ZM59.6083 37V30.3333H61.3417V31.4778C61.5713 31.0926 61.8602 30.7963 62.2083 30.5889C62.5639 30.3741 62.9787 30.2667 63.4528 30.2667L63.875 31.9778C63.7343 31.9333 63.575 31.9111 63.3972 31.9111C62.8417 31.9111 62.3935 32.0926 62.0528 32.4556C61.712 32.8111 61.5417 33.3222 61.5417 33.9889V37H59.6083ZM67.9545 37.2222C67.2064 37.2222 66.5471 37.0667 65.9767 36.7556C65.4064 36.4444 64.9619 36.0185 64.6434 35.4778C64.3249 34.9296 64.1656 34.3037 64.1656 33.6C64.1656 32.9259 64.3212 32.3296 64.6323 31.8111C64.9434 31.2852 65.3619 30.8704 65.8878 30.5667C66.4212 30.263 67.0101 30.1111 67.6545 30.1111C68.3138 30.1111 68.9027 30.263 69.4212 30.5667C69.9397 30.863 70.3471 31.2704 70.6434 31.7889C70.9471 32.3074 71.099 32.8963 71.099 33.5556V34.2333H67.0323C66.8471 34.2333 66.6693 34.2222 66.499 34.2C66.3286 34.1778 66.1582 34.1519 65.9878 34.1222C66.0767 34.5667 66.2953 34.9296 66.6434 35.2111C66.999 35.4852 67.4508 35.6222 67.999 35.6222C68.4212 35.6222 68.799 35.537 69.1323 35.3667C69.473 35.1963 69.7508 34.9852 69.9656 34.7333L70.3878 36.4667C70.0545 36.7185 69.6767 36.9074 69.2545 37.0333C68.8397 37.1593 68.4064 37.2222 67.9545 37.2222ZM65.9434 32.9556C66.3138 32.8741 66.6767 32.8333 67.0323 32.8333H68.2101C68.4175 32.8333 68.6138 32.8407 68.799 32.8556C68.9841 32.8704 69.1582 32.8963 69.3212 32.9333C69.2101 32.5333 69.0064 32.2185 68.7101 31.9889C68.4212 31.7593 68.0619 31.6444 67.6323 31.6444C67.2249 31.6444 66.8693 31.763 66.5656 32C66.2693 32.2296 66.0619 32.5481 65.9434 32.9556ZM75.4375 37.2222C74.7782 37.2222 74.1745 37.063 73.6264 36.7444C73.0782 36.4259 72.6412 35.9963 72.3153 35.4556C71.9968 34.9148 71.8375 34.3185 71.8375 33.6667C71.8375 33.0074 71.9968 32.4111 72.3153 31.8778C72.6412 31.337 73.0782 30.9074 73.6264 30.5889C74.1745 30.2704 74.7782 30.1111 75.4375 30.1111C75.8968 30.1111 76.3301 30.1889 76.7375 30.3444C77.1523 30.4926 77.519 30.7148 77.8375 31.0111L77.3375 32.9778C77.1523 32.6741 76.9042 32.4111 76.5931 32.1889C76.2894 31.9593 75.9301 31.8444 75.5153 31.8444C75.1671 31.8444 74.856 31.9259 74.5819 32.0889C74.3079 32.2519 74.0931 32.4704 73.9375 32.7444C73.7819 33.0185 73.7042 33.3259 73.7042 33.6667C73.7042 34 73.7819 34.3074 73.9375 34.5889C74.0931 34.863 74.3079 35.0815 74.5819 35.2444C74.856 35.4074 75.1671 35.4889 75.5153 35.4889C75.9301 35.4889 76.2894 35.3778 76.5931 35.1556C76.9042 34.9259 77.1523 34.6593 77.3375 34.3556L77.8375 36.3222C77.519 36.6185 77.1523 36.8444 76.7375 37C76.3301 37.1481 75.8968 37.2222 75.4375 37.2222ZM79.6205 37V31.8667H78.376V30.3333H79.6538V28.1111H81.5205V30.3333H82.8427V31.8667H81.5538V37H79.6205ZM87.5042 37V27H89.5708V35.2H92.5708V37H87.5042ZM93.8649 37V30.3333H95.7983V37H93.8649ZM94.8316 29.3667C94.5427 29.3667 94.2983 29.2667 94.0983 29.0667C93.8983 28.8667 93.7983 28.6222 93.7983 28.3333C93.7983 28.037 93.8983 27.7926 94.0983 27.6C94.2983 27.4 94.5427 27.3 94.8316 27.3C95.1279 27.3 95.3723 27.4 95.5649 27.6C95.7649 27.7926 95.8649 28.037 95.8649 28.3333C95.8649 28.6222 95.7649 28.8667 95.5649 29.0667C95.3723 29.2667 95.1279 29.3667 94.8316 29.3667ZM97.2802 37V30.3333H99.0135V31.0667C99.2506 30.7556 99.5432 30.5185 99.8913 30.3556C100.239 30.1926 100.614 30.1111 101.014 30.1111C101.488 30.1111 101.928 30.2259 102.336 30.4556C102.751 30.6778 103.084 31.0074 103.336 31.4444C103.595 31.8741 103.725 32.3963 103.725 33.0111V37H101.791V33.2667C101.791 32.8963 101.68 32.5667 101.458 32.2778C101.236 31.9889 100.917 31.8444 100.502 31.8444C100.169 31.8444 99.8691 31.9593 99.6024 32.1889C99.3432 32.4111 99.2135 32.763 99.2135 33.2444V37H97.2802ZM109.495 37L106.839 33.3333L109.028 30.3333H111.106L108.95 33.1667L111.773 37H109.495ZM105.061 37V26.3333H106.995V37H105.061Z" fill="#282828"/>
<path d="M18.25 14.75H35.75C36.413 14.75 37.0489 15.0134 37.5178 15.4822C37.9866 15.9511 38.25 16.587 38.25 17.25V34.75C38.25 36.1375 37.1375 37.25 35.75 37.25H18.25C17.587 37.25 16.9511 36.9866 16.4822 36.5178C16.0134 36.0489 15.75 35.413 15.75 34.75V17.25C15.75 15.875 16.875 14.75 18.25 14.75ZM22 32.25H32V29.75H22V32.25ZM32 23.5H28.875V19.75H25.125V23.5H22L27 28.5L32 23.5Z" fill="#084799"/>
</svg>
