<svg width="144" height="54" viewBox="0 0 144 54" fill="none" xmlns="http://www.w3.org/2000/svg">
<rect x="1" y="1" width="142" height="52" rx="5" fill="white" stroke="#E8E8E8" stroke-width="2"/>
<path d="M48.92 20.18H50.76V21.62C50.29 21.98 49.64 22.19 49.06 22.19C47.68 22.19 46.52 20.99 46.52 19.56C46.52 18.14 47.68 16.94 49.06 16.94C49.77 16.94 50.58 17.26 51.05 17.77L51.76 17.09C51.11 16.42 50.03 16.01 49.06 16.01C47.13 16.01 45.48 17.63 45.48 19.56C45.48 21.49 47.13 23.12 49.06 23.12C50.03 23.12 51.11 22.7 51.76 22.04V19.3H48.92V20.18ZM55.5314 22.24C54.6414 22.24 54.0114 21.62 53.8814 20.76H57.9514C57.9514 18.91 57.0414 17.71 55.4614 17.71C54.0314 17.71 52.8814 18.85 52.8814 20.4C52.8814 21.99 54.1014 23.12 55.5414 23.12C56.2714 23.12 57.1714 22.81 57.6314 22.32L57.0114 21.68C56.7014 22 56.0714 22.24 55.5314 22.24ZM55.5014 18.59C56.3914 18.59 56.8814 19.17 56.9914 19.97H53.8914C54.0514 19.13 54.7014 18.59 55.5014 18.59ZM61.5189 22.07C61.4089 22.18 61.2089 22.26 60.9889 22.26C60.6989 22.26 60.4589 22 60.4589 21.64V18.67H61.6789V17.83H60.4589V16.41H59.4889V17.83H58.7089V18.67H59.4889V21.71C59.4889 22.54 60.0489 23.12 60.8489 23.12C61.2189 23.12 61.5989 22.98 61.8789 22.75L61.5189 22.07ZM66.2393 16.97C66.5593 16.97 66.8293 16.69 66.8293 16.37C66.8293 16.06 66.5593 15.78 66.2393 15.78C65.8993 15.78 65.6393 16.06 65.6393 16.37C65.6393 16.69 65.8993 16.97 66.2393 16.97ZM65.7393 23H66.7293V17.83H65.7393V23ZM70.5814 22.07C70.4714 22.18 70.2714 22.26 70.0514 22.26C69.7614 22.26 69.5214 22 69.5214 21.64V18.67H70.7414V17.83H69.5214V16.41H68.5514V17.83H67.7714V18.67H68.5514V21.71C68.5514 22.54 69.1114 23.12 69.9114 23.12C70.2814 23.12 70.6614 22.98 70.9414 22.75L70.5814 22.07ZM78.1418 23.12C80.0718 23.12 81.6918 21.49 81.6918 19.56C81.6918 17.63 80.0718 16.01 78.1418 16.01C76.2118 16.01 74.5718 17.63 74.5718 19.56C74.5718 21.49 76.2118 23.12 78.1418 23.12ZM78.1418 22.19C76.7718 22.19 75.6118 20.99 75.6118 19.56C75.6118 18.14 76.7718 16.94 78.1418 16.94C79.5118 16.94 80.6618 18.14 80.6618 19.56C80.6618 20.99 79.5118 22.19 78.1418 22.19ZM85.5277 17.71C84.8277 17.71 84.1977 18.07 83.8877 18.58V17.83H82.8977V23H83.8877V19.65C83.9677 19.04 84.5877 18.57 85.3077 18.57C86.0077 18.57 86.4977 19.11 86.4977 19.88V23H87.4677V19.71C87.4677 18.54 86.6677 17.71 85.5277 17.71Z" fill="#282828"/>
<path d="M50.362 32.206H52.602V33.676C52.056 34.068 51.384 34.292 50.726 34.292C49.088 34.292 47.702 32.864 47.702 31.184C47.702 29.518 49.088 28.09 50.726 28.09C51.608 28.09 52.546 28.51 53.12 29.168L54.618 27.824C53.652 26.816 52.168 26.214 50.726 26.214C47.94 26.214 45.574 28.482 45.574 31.184C45.574 33.886 47.94 36.168 50.726 36.168C52.168 36.168 53.652 35.566 54.618 34.558V30.596H50.362V32.206ZM59.8563 36.168C61.9983 36.168 63.7903 34.432 63.7903 32.374C63.7903 30.316 61.9983 28.594 59.8563 28.594C57.7003 28.594 55.8943 30.316 55.8943 32.374C55.8943 34.432 57.7003 36.168 59.8563 36.168ZM59.8563 34.446C58.7643 34.446 57.8543 33.494 57.8543 32.374C57.8543 31.254 58.7643 30.316 59.8563 30.316C60.9343 30.316 61.8443 31.254 61.8443 32.374C61.8443 33.494 60.9343 34.446 59.8563 34.446ZM68.7293 36.168C70.8713 36.168 72.6633 34.432 72.6633 32.374C72.6633 30.316 70.8713 28.594 68.7293 28.594C66.5733 28.594 64.7673 30.316 64.7673 32.374C64.7673 34.432 66.5733 36.168 68.7293 36.168ZM68.7293 34.446C67.6373 34.446 66.7273 33.494 66.7273 32.374C66.7273 31.254 67.6373 30.316 68.7293 30.316C69.8073 30.316 70.7173 31.254 70.7173 32.374C70.7173 33.494 69.8073 34.446 68.7293 34.446ZM79.2824 28.762V29.742C78.7924 29.056 77.8684 28.594 76.8884 28.594C75.0684 28.594 73.6824 30.008 73.6824 32.024C73.6824 34.04 75.0684 35.468 76.8884 35.468C77.8404 35.468 78.7084 35.048 79.2824 34.348V35.146C79.2824 36.084 78.4424 36.686 77.1264 36.686C76.2864 36.686 75.4464 36.42 74.9704 36L74.2564 37.442C74.9704 38.002 76.1744 38.408 77.4484 38.408C79.7304 38.408 81.3404 37.092 81.3404 35.23V28.762H79.2824ZM77.5324 33.746C76.5104 33.746 75.7824 33.032 75.7824 32.024C75.7824 31.016 76.5104 30.316 77.5324 30.316C78.5544 30.316 79.2824 31.016 79.2824 32.024C79.2824 33.032 78.5544 33.746 77.5324 33.746ZM83.1382 36H85.1822V26.214H83.1382V36ZM90.3823 34.362C89.5283 34.362 88.8983 33.83 88.6603 33.046H93.8823C93.8823 30.316 92.5523 28.594 90.2843 28.594C88.1703 28.594 86.5603 30.176 86.5603 32.36C86.5603 34.586 88.2403 36.168 90.3963 36.168C91.4603 36.168 92.7063 35.72 93.3503 35.048L92.0483 33.718C91.6563 34.096 90.9563 34.362 90.3823 34.362ZM90.3683 30.4C91.1943 30.4 91.7263 30.862 91.9223 31.576H88.6883C88.9543 30.848 89.5983 30.4 90.3683 30.4ZM99.2313 36H101.289V32.878H103.557C105.643 32.878 107.183 31.534 107.183 29.63C107.183 27.726 105.643 26.382 103.557 26.382H99.2313V36ZM101.289 30.988V28.272H103.333C104.355 28.272 105.055 28.804 105.055 29.63C105.055 30.456 104.355 30.988 103.333 30.988H101.289ZM108.417 36H110.461V26.214H108.417V36ZM115.48 28.594C114.472 28.594 113.478 28.874 112.456 29.392L113.142 30.75C113.716 30.456 114.346 30.232 115.018 30.232C116.208 30.232 116.684 30.904 116.684 31.674V31.814C116.068 31.576 115.424 31.45 114.836 31.45C113.156 31.45 111.826 32.43 111.826 33.858C111.826 35.244 113.016 36.168 114.556 36.168C115.34 36.168 116.166 35.86 116.684 35.272V36H118.658V31.674C118.658 29.784 117.37 28.594 115.48 28.594ZM115.018 34.754C114.318 34.754 113.8 34.39 113.8 33.802C113.8 33.214 114.388 32.78 115.13 32.78C115.69 32.78 116.222 32.878 116.684 33.046V33.718C116.544 34.39 115.802 34.754 115.018 34.754ZM122.032 38.52C123.166 38.52 124.09 37.778 124.636 36.364L127.604 28.762H125.518L123.712 33.844L121.808 28.762H119.694L122.704 36.07L122.452 36.602C122.298 36.868 121.99 36.994 121.598 36.994C121.36 36.994 120.996 36.868 120.646 36.672L120.212 38.072C120.702 38.338 121.43 38.52 122.032 38.52Z" fill="#282828"/>
<g filter="url(#filter0_ii_1_324)">
<path d="M15.463 14.397C15.172 14.705 15 15.183 15 15.802V37.918C15 38.538 15.172 39.015 15.463 39.323L15.537 39.395L27.926 27.006V26.86V26.714L15.537 14.324L15.463 14.397Z" fill="url(#paint0_linear_1_324)"/>
<path d="M32.055 31.137L27.926 27.006V26.86V26.714L32.056 22.584L32.149 22.637L37.042 25.417C38.439 26.211 38.439 27.51 37.042 28.305L32.149 31.085L32.055 31.137Z" fill="url(#paint1_linear_1_324)"/>
<g filter="url(#filter1_i_1_324)">
<path d="M32.149 31.0841L27.925 26.8601L15.463 39.3231C15.923 39.8111 16.684 39.8711 17.541 39.3851L32.149 31.0841Z" fill="url(#paint2_linear_1_324)"/>
</g>
<path d="M32.149 22.6361L17.541 14.3361C16.684 13.8491 15.923 13.9101 15.463 14.3981L27.926 26.8611L32.149 22.6361Z" fill="url(#paint3_linear_1_324)"/>
</g>
<defs>
<filter id="filter0_ii_1_324" x="15" y="14" width="23.0898" height="25.7207" filterUnits="userSpaceOnUse" color-interpolation-filters="sRGB">
<feFlood flood-opacity="0" result="BackgroundImageFix"/>
<feBlend mode="normal" in="SourceGraphic" in2="BackgroundImageFix" result="shape"/>
<feColorMatrix in="SourceAlpha" type="matrix" values="0 0 0 0 0 0 0 0 0 0 0 0 0 0 0 0 0 0 127 0" result="hardAlpha"/>
<feOffset dy="-0.15"/>
<feComposite in2="hardAlpha" operator="arithmetic" k2="-1" k3="1"/>
<feColorMatrix type="matrix" values="0 0 0 0 0 0 0 0 0 0 0 0 0 0 0 0 0 0 0.12 0"/>
<feBlend mode="normal" in2="shape" result="effect1_innerShadow_1_324"/>
<feColorMatrix in="SourceAlpha" type="matrix" values="0 0 0 0 0 0 0 0 0 0 0 0 0 0 0 0 0 0 127 0" result="hardAlpha"/>
<feOffset dy="0.15"/>
<feComposite in2="hardAlpha" operator="arithmetic" k2="-1" k3="1"/>
<feColorMatrix type="matrix" values="0 0 0 0 1 0 0 0 0 1 0 0 0 0 1 0 0 0 0.25 0"/>
<feBlend mode="normal" in2="effect1_innerShadow_1_324" result="effect2_innerShadow_1_324"/>
</filter>
<filter id="filter1_i_1_324" x="15.463" y="26.8601" width="16.686" height="12.8606" filterUnits="userSpaceOnUse" color-interpolation-filters="sRGB">
<feFlood flood-opacity="0" result="BackgroundImageFix"/>
<feBlend mode="normal" in="SourceGraphic" in2="BackgroundImageFix" result="shape"/>
<feColorMatrix in="SourceAlpha" type="matrix" values="0 0 0 0 0 0 0 0 0 0 0 0 0 0 0 0 0 0 127 0" result="hardAlpha"/>
<feOffset dy="-0.15"/>
<feComposite in2="hardAlpha" operator="arithmetic" k2="-1" k3="1"/>
<feColorMatrix type="matrix" values="0 0 0 0 0 0 0 0 0 0 0 0 0 0 0 0 0 0 0.08 0"/>
<feBlend mode="normal" in2="shape" result="effect1_innerShadow_1_324"/>
</filter>
<linearGradient id="paint0_linear_1_324" x1="26.8278" y1="15.568" x2="10.0458" y2="32.35" gradientUnits="userSpaceOnUse">
<stop stop-color="#00A0FF"/>
<stop offset="0.0066" stop-color="#00A1FF"/>
<stop offset="0.2601" stop-color="#00BEFF"/>
<stop offset="0.5122" stop-color="#00D2FF"/>
<stop offset="0.7604" stop-color="#00DFFF"/>
<stop offset="1" stop-color="#00E3FF"/>
</linearGradient>
<linearGradient id="paint1_linear_1_324" x1="38.8605" y1="26.86" x2="14.6646" y2="26.86" gradientUnits="userSpaceOnUse">
<stop stop-color="#FFE000"/>
<stop offset="0.4087" stop-color="#FFBD00"/>
<stop offset="0.7754" stop-color="#FFA500"/>
<stop offset="1" stop-color="#FF9C00"/>
</linearGradient>
<linearGradient id="paint2_linear_1_324" x1="29.8551" y1="29.154" x2="7.09662" y2="51.9125" gradientUnits="userSpaceOnUse">
<stop stop-color="#FF3A44"/>
<stop offset="1" stop-color="#C31162"/>
</linearGradient>
<linearGradient id="paint3_linear_1_324" x1="12.3244" y1="7.03588" x2="22.4867" y2="17.1982" gradientUnits="userSpaceOnUse">
<stop stop-color="#32A071"/>
<stop offset="0.0685" stop-color="#2DA771"/>
<stop offset="0.4762" stop-color="#15CF74"/>
<stop offset="0.8009" stop-color="#06E775"/>
<stop offset="1" stop-color="#00F076"/>
</linearGradient>
</defs>
</svg>
