<svg width="144" height="54" viewBox="0 0 144 54" fill="none" xmlns="http://www.w3.org/2000/svg">
<rect x="1" y="1" width="142" height="52" rx="5" fill="black" stroke="#E8E8E8" stroke-width="2"/>
<path d="M50.77 23V16H52.62C53.4333 16 54.1033 16.1433 54.63 16.43C55.1633 16.71 55.5567 17.1133 55.81 17.64C56.07 18.16 56.2 18.7867 56.2 19.52C56.2 20.24 56.07 20.86 55.81 21.38C55.5567 21.9 55.1633 22.3 54.63 22.58C54.1033 22.86 53.4333 23 52.62 23H50.77ZM51.61 22.3H52.6C53.2733 22.3 53.81 22.19 54.21 21.97C54.61 21.7433 54.8967 21.4233 55.07 21.01C55.2433 20.59 55.33 20.0933 55.33 19.52C55.33 18.9333 55.2433 18.43 55.07 18.01C54.8967 17.59 54.61 17.2667 54.21 17.04C53.81 16.8133 53.2733 16.7 52.6 16.7H51.61V22.3ZM59.6595 23.12C59.1728 23.12 58.7428 23.01 58.3695 22.79C57.9961 22.5633 57.7061 22.2467 57.4995 21.84C57.2928 21.4267 57.1895 20.9433 57.1895 20.39C57.1895 19.8367 57.2928 19.3567 57.4995 18.95C57.7128 18.5433 58.0061 18.2267 58.3795 18C58.7595 17.7733 59.1928 17.66 59.6795 17.66C60.1661 17.66 60.5928 17.7733 60.9595 18C61.3328 18.2267 61.6228 18.5433 61.8295 18.95C62.0428 19.3567 62.1495 19.8367 62.1495 20.39C62.1495 20.9433 62.0428 21.4267 61.8295 21.84C61.6161 22.2467 61.3228 22.5633 60.9495 22.79C60.5761 23.01 60.1461 23.12 59.6595 23.12ZM59.6595 22.4C59.9595 22.4 60.2328 22.3267 60.4795 22.18C60.7261 22.0267 60.9228 21.8 61.0695 21.5C61.2161 21.2 61.2895 20.83 61.2895 20.39C61.2895 19.9433 61.2161 19.5733 61.0695 19.28C60.9295 18.98 60.7361 18.7567 60.4895 18.61C60.2495 18.4567 59.9795 18.38 59.6795 18.38C59.3795 18.38 59.1061 18.4567 58.8595 18.61C58.6128 18.7567 58.4161 18.98 58.2695 19.28C58.1228 19.5733 58.0495 19.9433 58.0495 20.39C58.0495 20.83 58.1195 21.2 58.2595 21.5C58.4061 21.8 58.5995 22.0267 58.8395 22.18C59.0861 22.3267 59.3595 22.4 59.6595 22.4ZM64.2409 23L62.7109 17.78H63.5509L64.7009 21.99H64.6709L65.8909 17.78H66.8409L68.0809 21.98H68.0509L69.1909 17.78H70.0409L68.5109 23H67.6509L66.3609 18.61H66.3909L65.1009 23H64.2409ZM71.003 23V17.78H71.763L71.803 18.62C71.9563 18.32 72.1763 18.0867 72.463 17.92C72.7563 17.7467 73.093 17.66 73.473 17.66C73.8663 17.66 74.2063 17.7367 74.493 17.89C74.7796 18.0367 75.003 18.2633 75.163 18.57C75.323 18.87 75.403 19.2533 75.403 19.72V23H74.563V19.81C74.563 19.3367 74.4463 18.98 74.213 18.74C73.9863 18.5 73.6763 18.38 73.283 18.38C73.023 18.38 72.783 18.4433 72.563 18.57C72.343 18.6967 72.1663 18.8833 72.033 19.13C71.9063 19.37 71.843 19.6667 71.843 20.02V23H71.003ZM76.7745 23V15.8H77.6145V23H76.7745ZM81.2805 23.12C80.7939 23.12 80.3639 23.01 79.9905 22.79C79.6172 22.5633 79.3272 22.2467 79.1205 21.84C78.9139 21.4267 78.8105 20.9433 78.8105 20.39C78.8105 19.8367 78.9139 19.3567 79.1205 18.95C79.3339 18.5433 79.6272 18.2267 80.0005 18C80.3805 17.7733 80.8139 17.66 81.3005 17.66C81.7872 17.66 82.2139 17.7733 82.5805 18C82.9539 18.2267 83.2439 18.5433 83.4505 18.95C83.6639 19.3567 83.7705 19.8367 83.7705 20.39C83.7705 20.9433 83.6639 21.4267 83.4505 21.84C83.2372 22.2467 82.9439 22.5633 82.5705 22.79C82.1972 23.01 81.7672 23.12 81.2805 23.12ZM81.2805 22.4C81.5805 22.4 81.8539 22.3267 82.1005 22.18C82.3472 22.0267 82.5439 21.8 82.6905 21.5C82.8372 21.2 82.9105 20.83 82.9105 20.39C82.9105 19.9433 82.8372 19.5733 82.6905 19.28C82.5505 18.98 82.3572 18.7567 82.1105 18.61C81.8705 18.4567 81.6005 18.38 81.3005 18.38C81.0005 18.38 80.7272 18.4567 80.4805 18.61C80.2339 18.7567 80.0372 18.98 79.8905 19.28C79.7439 19.5733 79.6705 19.9433 79.6705 20.39C79.6705 20.83 79.7405 21.2 79.8805 21.5C80.0272 21.8 80.2205 22.0267 80.4605 22.18C80.7072 22.3267 80.9805 22.4 81.2805 22.4ZM86.6176 23.12C86.2176 23.12 85.8809 23.0467 85.6076 22.9C85.3409 22.7467 85.1409 22.5467 85.0076 22.3C84.8742 22.0533 84.8076 21.7867 84.8076 21.5C84.8076 21.16 84.8942 20.87 85.0676 20.63C85.2476 20.3833 85.4976 20.1967 85.8176 20.07C86.1376 19.9433 86.5142 19.88 86.9476 19.88H88.2576C88.2576 19.5467 88.2142 19.27 88.1276 19.05C88.0476 18.8233 87.9176 18.6533 87.7376 18.54C87.5576 18.4267 87.3209 18.37 87.0276 18.37C86.7209 18.37 86.4576 18.4467 86.2376 18.6C86.0242 18.7533 85.8909 18.98 85.8376 19.28H84.9776C85.0176 18.9267 85.1342 18.6333 85.3276 18.4C85.5276 18.16 85.7776 17.9767 86.0776 17.85C86.3776 17.7233 86.6942 17.66 87.0276 17.66C87.5009 17.66 87.8909 17.7467 88.1976 17.92C88.5042 18.0867 88.7309 18.3233 88.8776 18.63C89.0242 18.93 89.0976 19.2867 89.0976 19.7V23H88.3476L88.2976 22.1C88.2309 22.24 88.1442 22.3733 88.0376 22.5C87.9376 22.62 87.8176 22.7267 87.6776 22.82C87.5376 22.9133 87.3776 22.9867 87.1976 23.04C87.0242 23.0933 86.8309 23.12 86.6176 23.12ZM86.7376 22.41C86.9576 22.41 87.1609 22.36 87.3476 22.26C87.5409 22.16 87.7042 22.0267 87.8376 21.86C87.9709 21.6867 88.0742 21.4967 88.1476 21.29C88.2209 21.0767 88.2576 20.8533 88.2576 20.62V20.53H87.0176C86.6976 20.53 86.4376 20.57 86.2376 20.65C86.0442 20.73 85.9042 20.8433 85.8176 20.99C85.7309 21.13 85.6876 21.2867 85.6876 21.46C85.6876 21.6533 85.7276 21.82 85.8076 21.96C85.8876 22.1 86.0076 22.21 86.1676 22.29C86.3276 22.37 86.5176 22.41 86.7376 22.41ZM92.6556 23.12C92.1823 23.12 91.7656 23.0033 91.4056 22.77C91.0456 22.53 90.7656 22.2033 90.5656 21.79C90.3656 21.3767 90.2656 20.9067 90.2656 20.38C90.2656 19.8533 90.3656 19.3867 90.5656 18.98C90.7656 18.5733 91.0456 18.2533 91.4056 18.02C91.7656 17.78 92.1856 17.66 92.6656 17.66C93.079 17.66 93.4356 17.7433 93.7356 17.91C94.0356 18.0767 94.269 18.31 94.4356 18.61V15.8H95.2756V23H94.5156L94.4456 22.16C94.3456 22.3267 94.2123 22.4833 94.0456 22.63C93.8856 22.7767 93.689 22.8967 93.4556 22.99C93.229 23.0767 92.9623 23.12 92.6556 23.12ZM92.7656 22.39C93.099 22.39 93.389 22.31 93.6356 22.15C93.8823 21.9833 94.0723 21.75 94.2056 21.45C94.339 21.15 94.4056 20.7967 94.4056 20.39C94.4056 19.9833 94.339 19.63 94.2056 19.33C94.0723 19.03 93.8823 18.8 93.6356 18.64C93.389 18.4733 93.099 18.39 92.7656 18.39C92.4456 18.39 92.1623 18.4733 91.9156 18.64C91.669 18.8 91.4756 19.03 91.3356 19.33C91.1956 19.63 91.1256 19.9833 91.1256 20.39C91.1256 20.7967 91.1956 21.15 91.3356 21.45C91.4756 21.75 91.669 21.9833 91.9156 22.15C92.1623 22.31 92.4456 22.39 92.7656 22.39ZM101.632 23.12C101.145 23.12 100.715 23.01 100.342 22.79C99.9688 22.5633 99.6788 22.2467 99.4721 21.84C99.2654 21.4267 99.1621 20.9433 99.1621 20.39C99.1621 19.8367 99.2654 19.3567 99.4721 18.95C99.6854 18.5433 99.9788 18.2267 100.352 18C100.732 17.7733 101.165 17.66 101.652 17.66C102.139 17.66 102.565 17.7733 102.932 18C103.305 18.2267 103.595 18.5433 103.802 18.95C104.015 19.3567 104.122 19.8367 104.122 20.39C104.122 20.9433 104.015 21.4267 103.802 21.84C103.589 22.2467 103.295 22.5633 102.922 22.79C102.549 23.01 102.119 23.12 101.632 23.12ZM101.632 22.4C101.932 22.4 102.205 22.3267 102.452 22.18C102.699 22.0267 102.895 21.8 103.042 21.5C103.189 21.2 103.262 20.83 103.262 20.39C103.262 19.9433 103.189 19.5733 103.042 19.28C102.902 18.98 102.709 18.7567 102.462 18.61C102.222 18.4567 101.952 18.38 101.652 18.38C101.352 18.38 101.079 18.4567 100.832 18.61C100.585 18.7567 100.389 18.98 100.242 19.28C100.095 19.5733 100.022 19.9433 100.022 20.39C100.022 20.83 100.092 21.2 100.232 21.5C100.379 21.8 100.572 22.0267 100.812 22.18C101.059 22.3267 101.332 22.4 101.632 22.4ZM105.329 23V17.78H106.089L106.129 18.62C106.282 18.32 106.502 18.0867 106.789 17.92C107.082 17.7467 107.419 17.66 107.799 17.66C108.192 17.66 108.532 17.7367 108.819 17.89C109.106 18.0367 109.329 18.2633 109.489 18.57C109.649 18.87 109.729 19.2533 109.729 19.72V23H108.889V19.81C108.889 19.3367 108.772 18.98 108.539 18.74C108.312 18.5 108.002 18.38 107.609 18.38C107.349 18.38 107.109 18.4433 106.889 18.57C106.669 18.6967 106.492 18.8833 106.359 19.13C106.232 19.37 106.169 19.6667 106.169 20.02V23H105.329ZM115.806 23C115.506 23 115.246 22.9533 115.026 22.86C114.806 22.7667 114.636 22.61 114.516 22.39C114.403 22.1633 114.346 21.86 114.346 21.48V18.49H113.426V17.78H114.346L114.456 16.49H115.186V17.78H116.666V18.49H115.186V21.48C115.186 21.7933 115.25 22.0067 115.376 22.12C115.503 22.2267 115.726 22.28 116.046 22.28H116.636V23H115.806ZM117.81 23V15.8H118.65V18.63C118.823 18.33 119.06 18.0933 119.36 17.92C119.66 17.7467 119.983 17.66 120.33 17.66C120.736 17.66 121.08 17.7367 121.36 17.89C121.646 18.0433 121.863 18.2767 122.01 18.59C122.163 18.8967 122.24 19.2867 122.24 19.76V23H121.41V19.85C121.41 19.3633 121.296 18.9967 121.07 18.75C120.85 18.5033 120.543 18.38 120.15 18.38C119.876 18.38 119.626 18.4467 119.4 18.58C119.173 18.7133 118.99 18.9067 118.85 19.16C118.716 19.4133 118.65 19.7233 118.65 20.09V23H117.81ZM125.8 23.12C125.333 23.12 124.92 23.0067 124.56 22.78C124.2 22.5533 123.917 22.2367 123.71 21.83C123.51 21.4167 123.41 20.9367 123.41 20.39C123.41 19.8433 123.51 19.3667 123.71 18.96C123.917 18.5467 124.2 18.2267 124.56 18C124.927 17.7733 125.347 17.66 125.82 17.66C126.327 17.66 126.75 17.7733 127.09 18C127.43 18.2267 127.687 18.53 127.86 18.91C128.04 19.2833 128.13 19.6933 128.13 20.14C128.13 20.2067 128.13 20.2733 128.13 20.34C128.13 20.4067 128.127 20.4867 128.12 20.58H124.04V19.93H127.31C127.297 19.43 127.147 19.0467 126.86 18.78C126.58 18.5067 126.227 18.37 125.8 18.37C125.52 18.37 125.26 18.44 125.02 18.58C124.787 18.7133 124.597 18.9133 124.45 19.18C124.303 19.44 124.23 19.7667 124.23 20.16V20.44C124.23 20.8733 124.303 21.2367 124.45 21.53C124.597 21.8233 124.787 22.0433 125.02 22.19C125.26 22.3367 125.52 22.41 125.8 22.41C126.173 22.41 126.467 22.3367 126.68 22.19C126.9 22.0433 127.06 21.8367 127.16 21.57H127.99C127.91 21.8633 127.77 22.13 127.57 22.37C127.377 22.6033 127.13 22.7867 126.83 22.92C126.537 23.0533 126.193 23.12 125.8 23.12Z" fill="white"/>
<path fill-rule="evenodd" clip-rule="evenodd" d="M16.7947 31.8614C17.164 31.8619 17.5245 31.9792 17.8279 32.1977C18.1313 32.4163 18.3633 32.7256 18.493 33.0845L19.6555 32.384L20.6681 34.2242L19.5216 34.908C19.7778 35.2412 19.9175 35.6547 19.918 36.081C19.918 36.5742 19.7292 37.0472 19.3932 37.396C19.0571 37.7447 18.6013 37.9407 18.126 37.9407C17.6507 37.9407 17.1949 37.7447 16.8588 37.396C16.5228 37.0472 16.334 36.5742 16.334 36.081C16.3258 35.8925 16.3512 35.704 16.409 35.5251C16.0106 35.4362 15.6535 35.2084 15.3972 34.8797C15.1409 34.551 15.0007 34.1411 15 33.7183C15 33.2242 15.188 32.7502 15.5231 32.3993C15.8582 32.0485 16.3133 31.8491 16.7893 31.8447L16.7947 31.8614Z" fill="white"/>
<path fill-rule="evenodd" clip-rule="evenodd" d="M42.4788 31.8614C42.1121 31.8645 41.7548 31.9831 41.4544 32.2015C41.1541 32.4199 40.9247 32.7278 40.7966 33.0845L39.6341 32.384L38.6055 34.2242L39.768 34.908C39.5005 35.2357 39.3543 35.6516 39.3555 36.081C39.3555 36.5764 39.5451 37.0516 39.8827 37.4019C40.2203 37.7522 40.6782 37.949 41.1556 37.949C41.633 37.949 42.0908 37.7522 42.4284 37.4019C42.766 37.0516 42.9556 36.5764 42.9556 36.081C42.9558 35.893 42.9305 35.7059 42.8806 35.5251C43.279 35.4362 43.6361 35.2084 43.8924 34.8797C44.1488 34.551 44.2889 34.1411 44.2896 33.7183C44.2882 33.2218 44.0975 32.7461 43.7593 32.3951C43.421 32.0441 42.9626 31.8462 42.4842 31.8447L42.4788 31.8614Z" fill="white"/>
<path fill-rule="evenodd" clip-rule="evenodd" d="M29.7071 15.4395C31.9514 15.445 34.1438 16.1407 36.0073 17.4387C37.8707 18.7368 39.3216 20.5789 40.1766 22.7323C41.0315 24.8857 41.2522 27.2538 40.8107 29.5373C40.3692 31.8208 39.2854 33.9172 37.6962 35.5618C36.1069 37.2063 34.0836 38.3251 31.8819 38.7768C29.6802 39.2284 27.3988 38.9927 25.3262 38.0994C23.2535 37.2061 21.4824 35.6953 20.2369 33.7579C18.9913 31.8205 18.3271 29.5434 18.3281 27.2144C18.3288 25.6655 18.6239 24.1319 19.1964 22.7015C19.7688 21.271 20.6076 19.9718 21.6645 18.8781C22.7214 17.7844 23.9758 16.9177 25.3558 16.3277C26.7359 15.7377 28.2145 15.4358 29.7071 15.4395Z" fill="white"/>
<path fill-rule="evenodd" clip-rule="evenodd" d="M29.7069 34.9641C30.9918 34.9597 32.2467 34.5605 33.3132 33.8167C34.3797 33.0729 35.21 32.0179 35.6993 30.7849C36.1886 29.552 36.3149 28.1962 36.0624 26.8888C35.8099 25.5813 35.1899 24.3808 34.2805 23.4387C33.3712 22.4966 32.2133 21.8551 30.953 21.5952C29.6926 21.3354 28.3864 21.4687 27.199 21.9785C26.0117 22.4883 24.9964 23.3516 24.2815 24.4596C23.5665 25.5675 23.1838 26.8704 23.1816 28.2038C23.1823 29.0923 23.3517 29.972 23.68 30.7926C24.0083 31.6132 24.4891 32.3587 25.095 32.9864C25.701 33.6142 26.4201 34.1119 27.2114 34.4513C28.0027 34.7906 28.8507 34.9649 29.7069 34.9641Z" fill="#0A90D5"/>
<path fill-rule="evenodd" clip-rule="evenodd" d="M29.707 32.1841C30.4571 32.1808 31.1895 31.9471 31.8117 31.5124C32.434 31.0778 32.9184 30.4617 33.2037 29.7419C33.489 29.022 33.5626 28.2305 33.4151 27.4673C33.2676 26.7041 32.9056 26.0033 32.3749 25.4533C31.8441 24.9033 31.1683 24.5287 30.4326 24.3767C29.6969 24.2247 28.9344 24.3021 28.2411 24.5992C27.5478 24.8963 26.9548 25.3998 26.5368 26.0462C26.1189 26.6926 25.8947 27.4529 25.8926 28.2313C25.8926 28.7508 25.9913 29.2653 26.183 29.7452C26.3748 30.2252 26.6558 30.6612 27.0101 31.0283C27.3644 31.3954 27.7849 31.6865 28.2477 31.8848C28.7104 32.0831 29.2063 32.1848 29.707 32.1841Z" fill="#333333"/>
<path fill-rule="evenodd" clip-rule="evenodd" d="M27.5095 31.1335C27.8274 31.1335 28.1382 31.0357 28.4025 30.8524C28.6668 30.6692 28.8728 30.4087 28.9944 30.1039C29.116 29.7992 29.1479 29.4638 29.0859 29.1403C29.0238 28.8168 28.8708 28.5196 28.646 28.2863C28.4212 28.0531 28.1349 27.8943 27.8231 27.8299C27.5113 27.7655 27.1882 27.7986 26.8945 27.9248C26.6008 28.051 26.3498 28.2648 26.1732 28.5391C25.9966 28.8134 25.9023 29.1358 25.9023 29.4657C25.9023 29.908 26.0717 30.3322 26.3731 30.645C26.6745 30.9578 27.0833 31.1335 27.5095 31.1335Z" fill="white"/>
<path fill-rule="evenodd" clip-rule="evenodd" d="M32.1285 15.2664C30.4792 14.9004 28.7729 14.9117 27.1281 15.2992C25.4834 15.6868 23.9398 16.4415 22.6045 17.5107C21.2693 18.58 20.1745 19.9382 19.3961 21.4909C18.6178 23.0436 18.1747 24.7536 18.0977 26.502C18.8941 26.7392 19.7513 26.9449 20.6692 27.1191C22.234 27.4215 23.813 27.6386 25.3997 27.7696C26.7765 27.8808 28.2177 27.9308 29.6856 27.9308C33.599 27.9859 37.5024 27.5055 41.2949 26.502C41.222 24.8366 40.8163 23.2051 40.1033 21.7111C39.3904 20.2172 38.386 18.8933 37.1537 17.8237C36.7589 17.4753 36.3399 17.1576 35.9001 16.873C34.7367 16.1074 33.4501 15.565 32.1017 15.2719L32.1285 15.2664Z" fill="#B905FC"/>
<path fill-rule="evenodd" clip-rule="evenodd" d="M25.4044 27.7698L35.2512 17.5682L35.9262 16.8677C34.7628 16.1021 33.4762 15.5597 32.1279 15.2666L30.1885 17.2847L20.6953 27.1194C22.2601 27.4217 23.8391 27.6388 25.4258 27.7698H25.4044Z" fill="#D369FC"/>
<path fill-rule="evenodd" clip-rule="evenodd" d="M38.2242 18.841C39.4189 19.1746 42.3118 20.6312 40.7368 22.0433C40.6287 22.1375 40.51 22.2178 40.3832 22.2823C40.2922 22.3331 40.1948 22.3705 40.0939 22.3935C38.4867 22.8049 36.3438 20.4422 35.5455 19.3303C35.5021 19.283 35.4497 19.2458 35.3915 19.2209C35.3334 19.196 35.2709 19.184 35.208 19.1857C35.1513 19.1842 35.0949 19.1947 35.0423 19.2165C34.9896 19.2383 34.9418 19.271 34.9017 19.3126C34.8616 19.3542 34.8301 19.4038 34.8091 19.4585C34.788 19.5131 34.778 19.5717 34.7794 19.6305C34.7828 19.6946 34.7935 19.7581 34.8116 19.8195C34.6134 19.964 38.117 25.5402 40.9993 25.9349C41.0836 25.9858 41.1714 26.0304 41.2618 26.0683C44.5834 26.0683 44.953 23.1607 44.953 23.1607C45.612 19.5137 39.1939 18.3963 37.5117 18.1572C37.7581 18.3963 37.9885 18.5797 38.2188 18.8188L38.2242 18.841Z" fill="white"/>
<path d="M66.7972 32.4414C66.8094 33.0616 66.7008 33.6781 66.4779 34.2552H67.3661C67.1441 34.8396 66.745 35.3362 66.227 35.6726C65.709 36.0089 65.0992 36.1675 64.4868 36.1251H62.6054V36.0741H61.7172V35.1927H62.6054V30.6072H61.7172V28.7629H63.5985C64.0358 28.7437 64.4721 28.8217 64.877 28.9914C65.282 29.1612 65.646 29.4187 65.9439 29.7462C66.54 30.5087 66.8434 31.4669 66.7972 32.4414ZM68.7934 34.2552C68.9686 33.6674 69.0561 33.0559 69.0528 32.4414C69.0598 31.6938 68.926 30.9517 68.6586 30.2557C68.4081 29.6106 68.0311 29.0246 67.5508 28.5336C67.0211 28.0254 66.3986 27.6289 65.7187 27.3666C65.0388 27.1043 64.3149 26.9815 63.5885 27.0051H59.4965V30.6072H60.3847V35.1927H59.4965V36.0894H60.3847V37.9032H64.4868C65.9534 37.9481 67.3779 37.3986 68.449 36.3747C68.9328 35.8846 69.3103 35.2962 69.5569 34.6475C69.6068 34.5252 69.6517 34.3979 69.6916 34.2705L68.7934 34.2552ZM85.1914 33.3585H84.3131V29.7156H83.4248V27H81.2191V29.7156H82.1174V33.3585H83.0056V34.2552H82.1174V37.8879H88.445V36.0588H84.3131V34.2552H85.2014V33.3585H85.1914ZM109.289 27H102.508V32.4465H103.396V37.8879H110.188V36.1251H105.617V33.2668H109.175V32.4465H108.286V31.5651H104.728V28.7629H109.299V27H109.289ZM100.691 27H93.9094V35.1927H94.7976V37.9032H97.0133V35.1927H96.1251V33.5419H99.9626V31.774H96.1251V28.7629H100.701V27H100.691ZM90.9402 27H88.7195V30.6072H90.0519V37.8879H92.2726V30.6072H90.9501V27H90.9402ZM75.7847 27H73.5291L70.7495 34.2552H71.6378L70.2505 37.8879H71.9771C72.1446 37.8937 72.3087 37.8397 72.4412 37.7351C72.5529 37.645 72.6405 37.5276 72.6957 37.3937L73.4143 35.315H77.6661L78.3847 37.3937C78.4408 37.5355 78.534 37.6589 78.6541 37.7503C78.7914 37.8477 78.9563 37.8961 79.1232 37.8879H80.8349L79.4476 34.2552H78.5543L75.7847 27ZM74.4324 29.8175C74.5072 29.578 74.5771 29.308 74.6469 29.0482C74.7168 29.3182 74.7966 29.5577 74.8715 29.8073C74.9464 30.057 75.0162 30.2455 75.0861 30.4238L76.2388 33.7559H73.065L74.2178 30.4391C74.2876 30.2608 74.3575 30.0519 74.4324 29.8175ZM53.603 27H50V32.4465H50.8883V37.8879H53.094V34.1431H54.4912C55.1215 34.1554 55.7497 34.066 56.3526 33.8782C56.8349 33.7335 57.282 33.4871 57.6651 33.1547C57.8834 32.9566 58.0718 32.7266 58.224 32.472H57.3357C57.4218 32.3242 57.4952 32.169 57.5553 32.0083C57.7335 31.5391 57.8216 31.0392 57.8148 30.5359C57.8203 30.0573 57.7373 29.582 57.5702 29.1348C56.9365 27.4789 55.1749 27.0255 53.578 27.0255L53.603 27ZM52.2057 32.4159V28.7119H53.603C54.3864 28.7119 55.1849 28.9463 55.4843 29.7717C55.5664 30.0088 55.607 30.2589 55.6041 30.5104C55.6167 30.7654 55.5791 31.0203 55.4933 31.2601C55.4076 31.5 55.2756 31.7197 55.105 31.9064C54.9025 32.0908 54.6653 32.231 54.4079 32.3186C54.1505 32.4062 53.8783 32.4393 53.608 32.4159H52.2057Z" fill="#FEFEFE"/>
</svg>
