<svg width="144" height="54" viewBox="0 0 144 54" fill="none" xmlns="http://www.w3.org/2000/svg">
<rect x="1" y="1" width="142" height="52" rx="5" fill="white" stroke="#E8E8E8" stroke-width="2"/>
<path d="M46.03 16.55C45.65 16.55 45.3067 16.6167 45 16.75C44.6933 16.8767 44.4333 17.0667 44.22 17.32C44.0067 17.5667 43.8433 17.87 43.73 18.23C43.6167 18.5833 43.56 18.9833 43.56 19.43C43.56 20.0167 43.65 20.5267 43.83 20.96C44.0167 21.3933 44.29 21.7267 44.65 21.96C45.0167 22.1933 45.4733 22.31 46.02 22.31C46.3333 22.31 46.63 22.2833 46.91 22.23C47.19 22.1767 47.4633 22.11 47.73 22.03V22.81C47.4633 22.91 47.1867 22.9833 46.9 23.03C46.62 23.0767 46.2833 23.1 45.89 23.1C45.1633 23.1 44.5567 22.95 44.07 22.65C43.5833 22.35 43.2167 21.9233 42.97 21.37C42.73 20.8167 42.61 20.1667 42.61 19.42C42.61 18.88 42.6833 18.3867 42.83 17.94C42.9833 17.4933 43.2033 17.1067 43.49 16.78C43.7833 16.4533 44.1433 16.2033 44.57 16.03C44.9967 15.85 45.4867 15.76 46.04 15.76C46.4067 15.76 46.76 15.7967 47.1 15.87C47.44 15.9433 47.7433 16.0467 48.01 16.18L47.65 16.94C47.43 16.84 47.1833 16.75 46.91 16.67C46.6433 16.59 46.35 16.55 46.03 16.55ZM51.2884 23.12C50.8017 23.12 50.3717 23.01 49.9984 22.79C49.625 22.5633 49.335 22.2467 49.1284 21.84C48.9217 21.4267 48.8184 20.9433 48.8184 20.39C48.8184 19.8367 48.9217 19.3567 49.1284 18.95C49.3417 18.5433 49.635 18.2267 50.0084 18C50.3884 17.7733 50.8217 17.66 51.3084 17.66C51.795 17.66 52.2217 17.7733 52.5884 18C52.9617 18.2267 53.2517 18.5433 53.4584 18.95C53.6717 19.3567 53.7784 19.8367 53.7784 20.39C53.7784 20.9433 53.6717 21.4267 53.4584 21.84C53.245 22.2467 52.9517 22.5633 52.5784 22.79C52.205 23.01 51.775 23.12 51.2884 23.12ZM51.2884 22.4C51.5884 22.4 51.8617 22.3267 52.1084 22.18C52.355 22.0267 52.5517 21.8 52.6984 21.5C52.845 21.2 52.9184 20.83 52.9184 20.39C52.9184 19.9433 52.845 19.5733 52.6984 19.28C52.5584 18.98 52.365 18.7567 52.1184 18.61C51.8784 18.4567 51.6084 18.38 51.3084 18.38C51.0084 18.38 50.735 18.4567 50.4884 18.61C50.2417 18.7567 50.045 18.98 49.8984 19.28C49.7517 19.5733 49.6784 19.9433 49.6784 20.39C49.6784 20.83 49.7484 21.2 49.8884 21.5C50.035 21.8 50.2284 22.0267 50.4684 22.18C50.715 22.3267 50.9884 22.4 51.2884 22.4ZM54.9854 23V17.78H55.7454L55.7854 18.62C55.9387 18.32 56.1587 18.0867 56.4454 17.92C56.7387 17.7467 57.0754 17.66 57.4554 17.66C57.8487 17.66 58.1887 17.7367 58.4754 17.89C58.7621 18.0367 58.9854 18.2633 59.1454 18.57C59.3054 18.87 59.3854 19.2533 59.3854 19.72V23H58.5454V19.81C58.5454 19.3367 58.4287 18.98 58.1954 18.74C57.9687 18.5 57.6587 18.38 57.2654 18.38C57.0054 18.38 56.7654 18.4433 56.5454 18.57C56.3254 18.6967 56.1487 18.8833 56.0154 19.13C55.8887 19.37 55.8254 19.6667 55.8254 20.02V23H54.9854ZM62.7869 23C62.4869 23 62.2269 22.9533 62.0069 22.86C61.7869 22.7667 61.6169 22.61 61.4969 22.39C61.3835 22.1633 61.3269 21.86 61.3269 21.48V18.49H60.4069V17.78H61.3269L61.4369 16.49H62.1669V17.78H63.6469V18.49H62.1669V21.48C62.1669 21.7933 62.2302 22.0067 62.3569 22.12C62.4835 22.2267 62.7069 22.28 63.0269 22.28H63.6169V23H62.7869ZM66.4301 23.12C66.0301 23.12 65.6934 23.0467 65.4201 22.9C65.1534 22.7467 64.9534 22.5467 64.8201 22.3C64.6867 22.0533 64.6201 21.7867 64.6201 21.5C64.6201 21.16 64.7067 20.87 64.8801 20.63C65.0601 20.3833 65.3101 20.1967 65.6301 20.07C65.9501 19.9433 66.3267 19.88 66.7601 19.88H68.0701C68.0701 19.5467 68.0267 19.27 67.9401 19.05C67.8601 18.8233 67.7301 18.6533 67.5501 18.54C67.3701 18.4267 67.1334 18.37 66.8401 18.37C66.5334 18.37 66.2701 18.4467 66.0501 18.6C65.8367 18.7533 65.7034 18.98 65.6501 19.28H64.7901C64.8301 18.9267 64.9467 18.6333 65.1401 18.4C65.3401 18.16 65.5901 17.9767 65.8901 17.85C66.1901 17.7233 66.5067 17.66 66.8401 17.66C67.3134 17.66 67.7034 17.7467 68.0101 17.92C68.3167 18.0867 68.5434 18.3233 68.6901 18.63C68.8367 18.93 68.9101 19.2867 68.9101 19.7V23H68.1601L68.1101 22.1C68.0434 22.24 67.9567 22.3733 67.8501 22.5C67.7501 22.62 67.6301 22.7267 67.4901 22.82C67.3501 22.9133 67.1901 22.9867 67.0101 23.04C66.8367 23.0933 66.6434 23.12 66.4301 23.12ZM66.5501 22.41C66.7701 22.41 66.9734 22.36 67.1601 22.26C67.3534 22.16 67.5167 22.0267 67.6501 21.86C67.7834 21.6867 67.8867 21.4967 67.9601 21.29C68.0334 21.0767 68.0701 20.8533 68.0701 20.62V20.53H66.8301C66.5101 20.53 66.2501 20.57 66.0501 20.65C65.8567 20.73 65.7167 20.8433 65.6301 20.99C65.5434 21.13 65.5001 21.2867 65.5001 21.46C65.5001 21.6533 65.5401 21.82 65.6201 21.96C65.7001 22.1 65.8201 22.21 65.9801 22.29C66.1401 22.37 66.3301 22.41 66.5501 22.41ZM72.5581 23.12C72.0781 23.12 71.6515 23.0067 71.2781 22.78C70.9048 22.5533 70.6115 22.2367 70.3981 21.83C70.1848 21.4167 70.0781 20.9367 70.0781 20.39C70.0781 19.8433 70.1848 19.3667 70.3981 18.96C70.6115 18.5533 70.9048 18.2367 71.2781 18.01C71.6515 17.7767 72.0781 17.66 72.5581 17.66C73.1581 17.66 73.6581 17.82 74.0581 18.14C74.4648 18.46 74.7215 18.8867 74.8281 19.42H73.9681C73.9015 19.0933 73.7348 18.84 73.4681 18.66C73.2081 18.4733 72.9015 18.38 72.5481 18.38C72.2415 18.38 71.9648 18.4567 71.7181 18.61C71.4781 18.7633 71.2881 18.99 71.1481 19.29C71.0081 19.5833 70.9381 19.95 70.9381 20.39C70.9381 20.7233 70.9781 21.0167 71.0581 21.27C71.1381 21.5233 71.2481 21.7333 71.3881 21.9C71.5348 22.0667 71.7048 22.1933 71.8981 22.28C72.0981 22.3667 72.3148 22.41 72.5481 22.41C72.7881 22.41 73.0048 22.37 73.1981 22.29C73.3981 22.2033 73.5648 22.0833 73.6981 21.93C73.8315 21.77 73.9215 21.58 73.9681 21.36H74.8281C74.7215 21.8867 74.4648 22.3133 74.0581 22.64C73.6515 22.96 73.1515 23.12 72.5581 23.12ZM77.9431 23C77.6431 23 77.3831 22.9533 77.1631 22.86C76.9431 22.7667 76.7731 22.61 76.6531 22.39C76.5398 22.1633 76.4831 21.86 76.4831 21.48V18.49H75.5631V17.78H76.4831L76.5931 16.49H77.3231V17.78H78.8031V18.49H77.3231V21.48C77.3231 21.7933 77.3865 22.0067 77.5131 22.12C77.6398 22.2267 77.8631 22.28 78.1831 22.28H78.7731V23H77.9431ZM84.5221 23.12C84.0554 23.12 83.6654 23.05 83.3521 22.91C83.0454 22.7633 82.8088 22.5633 82.6421 22.31C82.4821 22.0567 82.3854 21.76 82.3521 21.42H83.2121C83.2388 21.5933 83.3021 21.7567 83.4021 21.91C83.5021 22.0567 83.6421 22.1767 83.8221 22.27C84.0088 22.3633 84.2454 22.41 84.5321 22.41C84.7588 22.41 84.9521 22.3767 85.1121 22.31C85.2721 22.2367 85.3921 22.1367 85.4721 22.01C85.5521 21.8833 85.5921 21.74 85.5921 21.58C85.5921 21.3667 85.5421 21.2 85.4421 21.08C85.3488 20.96 85.2088 20.87 85.0221 20.81C84.8421 20.7433 84.6154 20.69 84.3421 20.65C84.0621 20.61 83.8088 20.5567 83.5821 20.49C83.3621 20.4167 83.1721 20.32 83.0121 20.2C82.8588 20.08 82.7388 19.9333 82.6521 19.76C82.5721 19.58 82.5321 19.37 82.5321 19.13C82.5321 18.8433 82.6054 18.59 82.7521 18.37C82.9054 18.15 83.1221 17.9767 83.4021 17.85C83.6888 17.7233 84.0221 17.66 84.4021 17.66C84.9621 17.66 85.4088 17.79 85.7421 18.05C86.0754 18.31 86.2721 18.6833 86.3321 19.17H85.5021C85.4688 18.9233 85.3554 18.73 85.1621 18.59C84.9688 18.4433 84.7121 18.37 84.3921 18.37C84.0588 18.37 83.8054 18.4333 83.6321 18.56C83.4654 18.6867 83.3821 18.8533 83.3821 19.06C83.3821 19.2133 83.4188 19.35 83.4921 19.47C83.5721 19.59 83.7054 19.69 83.8921 19.77C84.0788 19.85 84.3221 19.91 84.6221 19.95C85.0021 20.0033 85.3288 20.08 85.6021 20.18C85.8754 20.28 86.0854 20.4367 86.2321 20.65C86.3854 20.8567 86.4588 21.1433 86.4521 21.51C86.4521 21.85 86.3721 22.14 86.2121 22.38C86.0521 22.62 85.8254 22.8033 85.5321 22.93C85.2454 23.0567 84.9088 23.12 84.5221 23.12ZM89.5802 23.12C89.1936 23.12 88.8536 23.0467 88.5602 22.9C88.2736 22.7533 88.0502 22.5267 87.8902 22.22C87.7369 21.9133 87.6602 21.53 87.6602 21.07V17.78H88.5002V20.98C88.5002 21.4533 88.6136 21.81 88.8402 22.05C89.0669 22.2833 89.3736 22.4 89.7602 22.4C90.0336 22.4 90.2769 22.3367 90.4902 22.21C90.7102 22.0833 90.8836 21.9 91.0102 21.66C91.1436 21.4133 91.2102 21.1133 91.2102 20.76V17.78H92.0502V23H91.2902L91.2402 22.15C91.0936 22.4567 90.8736 22.6967 90.5802 22.87C90.2936 23.0367 89.9602 23.12 89.5802 23.12ZM93.462 25.2V17.78H94.222L94.292 18.6C94.3986 18.4333 94.532 18.28 94.692 18.14C94.8586 18 95.0553 17.8867 95.282 17.8C95.5153 17.7067 95.782 17.66 96.082 17.66C96.562 17.66 96.9786 17.78 97.332 18.02C97.692 18.26 97.972 18.5867 98.172 19C98.372 19.4067 98.472 19.8733 98.472 20.4C98.472 20.9267 98.372 21.3967 98.172 21.81C97.972 22.2167 97.692 22.5367 97.332 22.77C96.972 23.0033 96.552 23.12 96.072 23.12C95.6653 23.12 95.3086 23.0367 95.002 22.87C94.6953 22.7033 94.462 22.47 94.302 22.17V25.2H93.462ZM95.972 22.39C96.292 22.39 96.572 22.31 96.812 22.15C97.0586 21.9833 97.252 21.75 97.392 21.45C97.5386 21.15 97.612 20.7967 97.612 20.39C97.612 19.9833 97.5386 19.63 97.392 19.33C97.252 19.03 97.0586 18.8 96.812 18.64C96.572 18.4733 96.292 18.39 95.972 18.39C95.6386 18.39 95.3486 18.4733 95.102 18.64C94.8553 18.8 94.6653 19.03 94.532 19.33C94.3986 19.63 94.332 19.9833 94.332 20.39C94.332 20.7967 94.3986 21.15 94.532 21.45C94.6653 21.75 94.8553 21.9833 95.102 22.15C95.3486 22.31 95.6386 22.39 95.972 22.39ZM99.6924 25.2V17.78H100.452L100.522 18.6C100.629 18.4333 100.762 18.28 100.922 18.14C101.089 18 101.286 17.8867 101.512 17.8C101.746 17.7067 102.012 17.66 102.312 17.66C102.792 17.66 103.209 17.78 103.562 18.02C103.922 18.26 104.202 18.5867 104.402 19C104.602 19.4067 104.702 19.8733 104.702 20.4C104.702 20.9267 104.602 21.3967 104.402 21.81C104.202 22.2167 103.922 22.5367 103.562 22.77C103.202 23.0033 102.782 23.12 102.302 23.12C101.896 23.12 101.539 23.0367 101.232 22.87C100.926 22.7033 100.692 22.47 100.532 22.17V25.2H99.6924ZM102.202 22.39C102.522 22.39 102.802 22.31 103.042 22.15C103.289 21.9833 103.482 21.75 103.622 21.45C103.769 21.15 103.842 20.7967 103.842 20.39C103.842 19.9833 103.769 19.63 103.622 19.33C103.482 19.03 103.289 18.8 103.042 18.64C102.802 18.4733 102.522 18.39 102.202 18.39C101.869 18.39 101.579 18.4733 101.332 18.64C101.086 18.8 100.896 19.03 100.762 19.33C100.629 19.63 100.562 19.9833 100.562 20.39C100.562 20.7967 100.629 21.15 100.762 21.45C100.896 21.75 101.086 21.9833 101.332 22.15C101.579 22.31 101.869 22.39 102.202 22.39ZM108.183 23.12C107.696 23.12 107.266 23.01 106.893 22.79C106.52 22.5633 106.23 22.2467 106.023 21.84C105.816 21.4267 105.713 20.9433 105.713 20.39C105.713 19.8367 105.816 19.3567 106.023 18.95C106.236 18.5433 106.53 18.2267 106.903 18C107.283 17.7733 107.716 17.66 108.203 17.66C108.69 17.66 109.116 17.7733 109.483 18C109.856 18.2267 110.146 18.5433 110.353 18.95C110.566 19.3567 110.673 19.8367 110.673 20.39C110.673 20.9433 110.566 21.4267 110.353 21.84C110.14 22.2467 109.846 22.5633 109.473 22.79C109.1 23.01 108.67 23.12 108.183 23.12ZM108.183 22.4C108.483 22.4 108.756 22.3267 109.003 22.18C109.25 22.0267 109.446 21.8 109.593 21.5C109.74 21.2 109.813 20.83 109.813 20.39C109.813 19.9433 109.74 19.5733 109.593 19.28C109.453 18.98 109.26 18.7567 109.013 18.61C108.773 18.4567 108.503 18.38 108.203 18.38C107.903 18.38 107.63 18.4567 107.383 18.61C107.136 18.7567 106.94 18.98 106.793 19.28C106.646 19.5733 106.573 19.9433 106.573 20.39C106.573 20.83 106.643 21.2 106.783 21.5C106.93 21.8 107.123 22.0267 107.363 22.18C107.61 22.3267 107.883 22.4 108.183 22.4ZM111.88 23V17.78H112.64L112.7 18.74C112.82 18.5067 112.973 18.31 113.16 18.15C113.353 17.99 113.583 17.87 113.85 17.79C114.123 17.7033 114.43 17.66 114.77 17.66V18.54H114.29C114.09 18.54 113.897 18.57 113.71 18.63C113.523 18.6833 113.353 18.77 113.2 18.89C113.053 19.01 112.937 19.1767 112.85 19.39C112.763 19.5967 112.72 19.8567 112.72 20.17V23H111.88ZM117.767 23C117.467 23 117.207 22.9533 116.987 22.86C116.767 22.7667 116.597 22.61 116.477 22.39C116.364 22.1633 116.307 21.86 116.307 21.48V18.49H115.387V17.78H116.307L116.417 16.49H117.147V17.78H118.627V18.49H117.147V21.48C117.147 21.7933 117.211 22.0067 117.337 22.12C117.464 22.2267 117.687 22.28 118.007 22.28H118.597V23H117.767Z" fill="#282828"/>
<path d="M44.7556 37V30.3333H46.6889V37H44.7556ZM45.7222 29.3667C45.4333 29.3667 45.1889 29.2667 44.9889 29.0667C44.7889 28.8667 44.6889 28.6222 44.6889 28.3333C44.6889 28.037 44.7889 27.7926 44.9889 27.6C45.1889 27.4 45.4333 27.3 45.7222 27.3C46.0185 27.3 46.263 27.4 46.4556 27.6C46.6556 27.7926 46.7556 28.037 46.7556 28.3333C46.7556 28.6222 46.6556 28.8667 46.4556 29.0667C46.263 29.2667 46.0185 29.3667 45.7222 29.3667ZM48.1708 37V30.3333H49.9042V31.0667C50.1412 30.7556 50.4338 30.5185 50.7819 30.3556C51.1301 30.1926 51.5042 30.1111 51.9042 30.1111C52.3782 30.1111 52.819 30.2259 53.2264 30.4556C53.6412 30.6778 53.9745 31.0074 54.2264 31.4444C54.4856 31.8741 54.6153 32.3963 54.6153 33.0111V37H52.6819V33.2667C52.6819 32.8963 52.5708 32.5667 52.3486 32.2778C52.1264 31.9889 51.8079 31.8444 51.3931 31.8444C51.0597 31.8444 50.7597 31.9593 50.4931 32.1889C50.2338 32.4111 50.1042 32.763 50.1042 33.2444V37H48.1708ZM59.0135 28.8V27H65.9691V28.8H63.5247V37H61.458V28.8H59.0135ZM69.2983 37.2222C68.5501 37.2222 67.8909 37.0667 67.3205 36.7556C66.7501 36.4444 66.3057 36.0185 65.9872 35.4778C65.6686 34.9296 65.5094 34.3037 65.5094 33.6C65.5094 32.9259 65.6649 32.3296 65.976 31.8111C66.2872 31.2852 66.7057 30.8704 67.2316 30.5667C67.7649 30.263 68.3538 30.1111 68.9983 30.1111C69.6575 30.1111 70.2464 30.263 70.7649 30.5667C71.2834 30.863 71.6909 31.2704 71.9872 31.7889C72.2909 32.3074 72.4427 32.8963 72.4427 33.5556V34.2333H68.376C68.1909 34.2333 68.0131 34.2222 67.8427 34.2C67.6723 34.1778 67.502 34.1519 67.3316 34.1222C67.4205 34.5667 67.639 34.9296 67.9872 35.2111C68.3427 35.4852 68.7946 35.6222 69.3427 35.6222C69.7649 35.6222 70.1427 35.537 70.476 35.3667C70.8168 35.1963 71.0946 34.9852 71.3094 34.7333L71.7316 36.4667C71.3983 36.7185 71.0205 36.9074 70.5983 37.0333C70.1834 37.1593 69.7501 37.2222 69.2983 37.2222ZM67.2872 32.9556C67.6575 32.8741 68.0205 32.8333 68.376 32.8333H69.5538C69.7612 32.8333 69.9575 32.8407 70.1427 32.8556C70.3279 32.8704 70.502 32.8963 70.6649 32.9333C70.5538 32.5333 70.3501 32.2185 70.0538 31.9889C69.7649 31.7593 69.4057 31.6444 68.976 31.6444C68.5686 31.6444 68.2131 31.763 67.9094 32C67.6131 32.2296 67.4057 32.5481 67.2872 32.9556ZM73.5368 37V26.3333H75.4701V37H73.5368ZM80.4076 37.2222C79.6595 37.2222 79.0002 37.0667 78.4299 36.7556C77.8595 36.4444 77.415 36.0185 77.0965 35.4778C76.778 34.9296 76.6188 34.3037 76.6188 33.6C76.6188 32.9259 76.7743 32.3296 77.0854 31.8111C77.3965 31.2852 77.815 30.8704 78.341 30.5667C78.8743 30.263 79.4632 30.1111 80.1076 30.1111C80.7669 30.1111 81.3558 30.263 81.8743 30.5667C82.3928 30.863 82.8002 31.2704 83.0965 31.7889C83.4002 32.3074 83.5521 32.8963 83.5521 33.5556V34.2333H79.4854C79.3002 34.2333 79.1225 34.2222 78.9521 34.2C78.7817 34.1778 78.6113 34.1519 78.441 34.1222C78.5299 34.5667 78.7484 34.9296 79.0965 35.2111C79.4521 35.4852 79.9039 35.6222 80.4521 35.6222C80.8743 35.6222 81.2521 35.537 81.5854 35.3667C81.9262 35.1963 82.2039 34.9852 82.4188 34.7333L82.841 36.4667C82.5076 36.7185 82.1299 36.9074 81.7076 37.0333C81.2928 37.1593 80.8595 37.2222 80.4076 37.2222ZM78.3965 32.9556C78.7669 32.8741 79.1299 32.8333 79.4854 32.8333H80.6632C80.8706 32.8333 81.0669 32.8407 81.2521 32.8556C81.4373 32.8704 81.6113 32.8963 81.7743 32.9333C81.6632 32.5333 81.4595 32.2185 81.1632 31.9889C80.8743 31.7593 80.515 31.6444 80.0854 31.6444C79.678 31.6444 79.3225 31.763 79.0187 32C78.7225 32.2296 78.515 32.5481 78.3965 32.9556ZM87.5351 40.5556C87.0166 40.5556 86.5203 40.4778 86.0462 40.3222C85.5795 40.1741 85.1758 39.9704 84.8351 39.7111L85.3017 37.8C85.5388 38.1185 85.8499 38.3778 86.2351 38.5778C86.6203 38.7852 87.0536 38.8889 87.5351 38.8889C88.2166 38.8889 88.7462 38.6926 89.124 38.3C89.5017 37.9148 89.6906 37.4185 89.6906 36.8111V36.3444C89.4388 36.6037 89.1351 36.8074 88.7795 36.9556C88.4314 37.1037 88.0462 37.1778 87.624 37.1778C87.0091 37.1778 86.4499 37.0185 85.9462 36.7C85.4425 36.3815 85.0388 35.9593 84.7351 35.4333C84.4388 34.9 84.2906 34.3111 84.2906 33.6667C84.2906 33.0222 84.4388 32.4333 84.7351 31.9C85.0388 31.3667 85.4425 30.9444 85.9462 30.6333C86.4499 30.3148 87.0091 30.1556 87.624 30.1556C88.0536 30.1556 88.4462 30.2333 88.8017 30.3889C89.1573 30.537 89.461 30.7444 89.7128 31.0111V30.3333H91.3795V37.0889C91.3795 37.8148 91.2017 38.437 90.8462 38.9556C90.4906 39.4741 90.0203 39.8704 89.4351 40.1444C88.8499 40.4185 88.2166 40.5556 87.5351 40.5556ZM87.8573 35.4778C88.1832 35.4778 88.4795 35.3963 88.7462 35.2333C89.0128 35.0704 89.224 34.8519 89.3795 34.5778C89.5425 34.3037 89.624 34 89.624 33.6667C89.624 33.3333 89.5425 33.0296 89.3795 32.7556C89.224 32.4815 89.0128 32.263 88.7462 32.1C88.4795 31.937 88.1832 31.8556 87.8573 31.8556C87.5314 31.8556 87.2351 31.937 86.9684 32.1C86.7017 32.263 86.4869 32.4815 86.324 32.7556C86.1684 33.0296 86.0906 33.3333 86.0906 33.6667C86.0906 34 86.1684 34.3037 86.324 34.5778C86.4869 34.8519 86.7017 35.0704 86.9684 35.2333C87.2351 35.3963 87.5314 35.4778 87.8573 35.4778ZM92.8427 37V30.3333H94.576V31.4778C94.8057 31.0926 95.0946 30.7963 95.4427 30.5889C95.7983 30.3741 96.2131 30.2667 96.6872 30.2667L97.1094 31.9778C96.9686 31.9333 96.8094 31.9111 96.6316 31.9111C96.076 31.9111 95.6279 32.0926 95.2872 32.4556C94.9464 32.8111 94.776 33.3222 94.776 33.9889V37H92.8427ZM100.733 37.1778C100.119 37.1778 99.5593 37.0185 99.0556 36.7C98.5519 36.3815 98.1481 35.9593 97.8444 35.4333C97.5481 34.9 97.4 34.3111 97.4 33.6667C97.4 33.0222 97.5481 32.4333 97.8444 31.9C98.1481 31.3667 98.5519 30.9444 99.0556 30.6333C99.5593 30.3148 100.119 30.1556 100.733 30.1556C101.163 30.1556 101.556 30.2333 101.911 30.3889C102.267 30.537 102.57 30.7444 102.822 31.0111V30.3333H104.489V37H102.822V36.3222C102.57 36.5889 102.267 36.8 101.911 36.9556C101.556 37.1037 101.163 37.1778 100.733 37.1778ZM100.967 35.4778C101.293 35.4778 101.589 35.3963 101.856 35.2333C102.122 35.0704 102.333 34.8519 102.489 34.5778C102.652 34.3037 102.733 34 102.733 33.6667C102.733 33.3333 102.652 33.0296 102.489 32.7556C102.333 32.4815 102.122 32.263 101.856 32.1C101.589 31.937 101.293 31.8556 100.967 31.8556C100.641 31.8556 100.344 31.937 100.078 32.1C99.8111 32.263 99.5963 32.4815 99.4333 32.7556C99.2778 33.0296 99.2 33.3333 99.2 33.6667C99.2 34 99.2778 34.3037 99.4333 34.5778C99.5963 34.8519 99.8111 35.0704 100.078 35.2333C100.344 35.3963 100.641 35.4778 100.967 35.4778ZM105.952 37V30.3333H107.685V31.0667C107.922 30.7556 108.215 30.5185 108.563 30.3556C108.919 30.1926 109.289 30.1111 109.674 30.1111C110.067 30.1111 110.437 30.1926 110.785 30.3556C111.134 30.5185 111.426 30.7556 111.663 31.0667C111.922 30.7556 112.245 30.5185 112.63 30.3556C113.015 30.1926 113.434 30.1111 113.885 30.1111C114.359 30.1111 114.804 30.2222 115.219 30.4444C115.634 30.6593 115.971 30.9778 116.23 31.4C116.489 31.8148 116.619 32.3222 116.619 32.9222V37H114.685V33.2C114.685 32.8444 114.582 32.5296 114.374 32.2556C114.167 31.9815 113.867 31.8444 113.474 31.8444C113.267 31.8444 113.067 31.8963 112.874 32C112.689 32.0963 112.537 32.2444 112.419 32.4444C112.308 32.637 112.252 32.8815 112.252 33.1778V37H110.319V33.2C110.319 32.963 110.271 32.7407 110.174 32.5333C110.085 32.3259 109.948 32.1593 109.763 32.0333C109.585 31.9074 109.367 31.8444 109.108 31.8444C108.9 31.8444 108.7 31.8963 108.508 32C108.322 32.0963 108.171 32.2444 108.052 32.4444C107.941 32.637 107.885 32.8815 107.885 33.1778V37H105.952Z" fill="#282828"/>
<path d="M32.4 30.4494C32.8375 29.3869 33.075 28.2494 33.075 26.9994C33.075 26.0994 32.9375 25.2369 32.7 24.4369C31.8875 24.6244 31.0375 24.7244 30.15 24.7244C28.3325 24.7263 26.5411 24.2913 24.9269 23.4559C23.3127 22.6205 21.923 21.4093 20.875 19.9244C19.7549 22.6378 17.6396 24.8202 14.9625 26.0244C14.9125 26.3369 14.9125 26.6744 14.9125 26.9994C14.9125 28.1928 15.1476 29.3745 15.6042 30.477C16.0609 31.5796 16.7303 32.5814 17.5742 33.4252C19.2784 35.1295 21.5898 36.0869 24 36.0869C25.3125 36.0869 26.575 35.7994 27.7125 35.2869C28.425 36.6494 28.75 37.3244 28.725 37.3244C26.675 38.0119 25.0875 38.3494 24 38.3494C20.975 38.3494 18.0875 37.1619 15.9625 35.0244C14.6688 33.7368 13.7078 32.1538 13.1625 30.4119H11.5V24.7244H12.8625C13.2753 22.715 14.2244 20.8549 15.609 19.3414C16.9936 17.8279 18.7621 16.7174 20.7269 16.1278C22.6917 15.5383 24.7794 15.4916 26.7686 15.9928C28.7577 16.4939 30.5741 17.5243 32.025 18.9744C33.5997 20.5439 34.6741 22.5447 35.1125 24.7244H36.5V30.4119H36.425L31.975 34.4994L25.35 33.7494V31.6619H31.3875L32.4 30.4494ZM20.5875 26.7119C20.9625 26.7119 21.325 26.8619 21.5875 27.1369C21.8513 27.4028 21.9993 27.7623 21.9993 28.1369C21.9993 28.5115 21.8513 28.8709 21.5875 29.1369C21.325 29.3994 20.9625 29.5494 20.5875 29.5494C19.8 29.5494 19.1625 28.9244 19.1625 28.1369C19.1625 27.3494 19.8 26.7119 20.5875 26.7119ZM27.4 26.7119C28.1875 26.7119 28.8125 27.3494 28.8125 28.1369C28.8125 28.9244 28.1875 29.5494 27.4 29.5494C26.6125 29.5494 25.975 28.9244 25.975 28.1369C25.975 27.759 26.1251 27.3965 26.3924 27.1293C26.6596 26.862 27.0221 26.7119 27.4 26.7119Z" fill="black"/>
</svg>
