<svg width="144" height="54" viewBox="0 0 144 54" fill="none" xmlns="http://www.w3.org/2000/svg">
<rect x="1" y="1" width="142" height="52" rx="5" fill="white" stroke="#E8E8E8" stroke-width="2"/>
<path d="M43.77 22V15H45.62C46.4333 15 47.1033 15.1433 47.63 15.43C48.1633 15.71 48.5567 16.1133 48.81 16.64C49.07 17.16 49.2 17.7867 49.2 18.52C49.2 19.24 49.07 19.86 48.81 20.38C48.5567 20.9 48.1633 21.3 47.63 21.58C47.1033 21.86 46.4333 22 45.62 22H43.77ZM44.61 21.3H45.6C46.2733 21.3 46.81 21.19 47.21 20.97C47.61 20.7433 47.8967 20.4233 48.07 20.01C48.2433 19.59 48.33 19.0933 48.33 18.52C48.33 17.9333 48.2433 17.43 48.07 17.01C47.8967 16.59 47.61 16.2667 47.21 16.04C46.81 15.8133 46.2733 15.7 45.6 15.7H44.61V21.3ZM52.6595 22.12C52.1728 22.12 51.7428 22.01 51.3695 21.79C50.9961 21.5633 50.7061 21.2467 50.4995 20.84C50.2928 20.4267 50.1895 19.9433 50.1895 19.39C50.1895 18.8367 50.2928 18.3567 50.4995 17.95C50.7128 17.5433 51.0061 17.2267 51.3795 17C51.7595 16.7733 52.1928 16.66 52.6795 16.66C53.1661 16.66 53.5928 16.7733 53.9595 17C54.3328 17.2267 54.6228 17.5433 54.8295 17.95C55.0428 18.3567 55.1495 18.8367 55.1495 19.39C55.1495 19.9433 55.0428 20.4267 54.8295 20.84C54.6161 21.2467 54.3228 21.5633 53.9495 21.79C53.5761 22.01 53.1461 22.12 52.6595 22.12ZM52.6595 21.4C52.9595 21.4 53.2328 21.3267 53.4795 21.18C53.7261 21.0267 53.9228 20.8 54.0695 20.5C54.2161 20.2 54.2895 19.83 54.2895 19.39C54.2895 18.9433 54.2161 18.5733 54.0695 18.28C53.9295 17.98 53.7361 17.7567 53.4895 17.61C53.2495 17.4567 52.9795 17.38 52.6795 17.38C52.3795 17.38 52.1061 17.4567 51.8595 17.61C51.6128 17.7567 51.4161 17.98 51.2695 18.28C51.1228 18.5733 51.0495 18.9433 51.0495 19.39C51.0495 19.83 51.1195 20.2 51.2595 20.5C51.4061 20.8 51.5995 21.0267 51.8395 21.18C52.0861 21.3267 52.3595 21.4 52.6595 21.4ZM57.2409 22L55.7109 16.78H56.5509L57.7009 20.99H57.6709L58.8909 16.78H59.8409L61.0809 20.98H61.0509L62.1909 16.78H63.0409L61.5109 22H60.6509L59.3609 17.61H59.3909L58.1009 22H57.2409ZM64.003 22V16.78H64.763L64.803 17.62C64.9563 17.32 65.1763 17.0867 65.463 16.92C65.7563 16.7467 66.093 16.66 66.473 16.66C66.8663 16.66 67.2063 16.7367 67.493 16.89C67.7796 17.0367 68.003 17.2633 68.163 17.57C68.323 17.87 68.403 18.2533 68.403 18.72V22H67.563V18.81C67.563 18.3367 67.4463 17.98 67.213 17.74C66.9863 17.5 66.6763 17.38 66.283 17.38C66.023 17.38 65.783 17.4433 65.563 17.57C65.343 17.6967 65.1663 17.8833 65.033 18.13C64.9063 18.37 64.843 18.6667 64.843 19.02V22H64.003ZM69.7745 22V14.8H70.6145V22H69.7745ZM74.2805 22.12C73.7939 22.12 73.3639 22.01 72.9905 21.79C72.6172 21.5633 72.3272 21.2467 72.1205 20.84C71.9139 20.4267 71.8105 19.9433 71.8105 19.39C71.8105 18.8367 71.9139 18.3567 72.1205 17.95C72.3339 17.5433 72.6272 17.2267 73.0005 17C73.3805 16.7733 73.8139 16.66 74.3005 16.66C74.7872 16.66 75.2139 16.7733 75.5805 17C75.9539 17.2267 76.2439 17.5433 76.4505 17.95C76.6639 18.3567 76.7705 18.8367 76.7705 19.39C76.7705 19.9433 76.6639 20.4267 76.4505 20.84C76.2372 21.2467 75.9439 21.5633 75.5705 21.79C75.1972 22.01 74.7672 22.12 74.2805 22.12ZM74.2805 21.4C74.5805 21.4 74.8539 21.3267 75.1005 21.18C75.3472 21.0267 75.5439 20.8 75.6905 20.5C75.8372 20.2 75.9105 19.83 75.9105 19.39C75.9105 18.9433 75.8372 18.5733 75.6905 18.28C75.5505 17.98 75.3572 17.7567 75.1105 17.61C74.8705 17.4567 74.6005 17.38 74.3005 17.38C74.0005 17.38 73.7272 17.4567 73.4805 17.61C73.2339 17.7567 73.0372 17.98 72.8905 18.28C72.7439 18.5733 72.6705 18.9433 72.6705 19.39C72.6705 19.83 72.7405 20.2 72.8805 20.5C73.0272 20.8 73.2205 21.0267 73.4605 21.18C73.7072 21.3267 73.9805 21.4 74.2805 21.4ZM79.6176 22.12C79.2176 22.12 78.8809 22.0467 78.6076 21.9C78.3409 21.7467 78.1409 21.5467 78.0076 21.3C77.8742 21.0533 77.8076 20.7867 77.8076 20.5C77.8076 20.16 77.8942 19.87 78.0676 19.63C78.2476 19.3833 78.4976 19.1967 78.8176 19.07C79.1376 18.9433 79.5142 18.88 79.9476 18.88H81.2576C81.2576 18.5467 81.2142 18.27 81.1276 18.05C81.0476 17.8233 80.9176 17.6533 80.7376 17.54C80.5576 17.4267 80.3209 17.37 80.0276 17.37C79.7209 17.37 79.4576 17.4467 79.2376 17.6C79.0242 17.7533 78.8909 17.98 78.8376 18.28H77.9776C78.0176 17.9267 78.1342 17.6333 78.3276 17.4C78.5276 17.16 78.7776 16.9767 79.0776 16.85C79.3776 16.7233 79.6942 16.66 80.0276 16.66C80.5009 16.66 80.8909 16.7467 81.1976 16.92C81.5042 17.0867 81.7309 17.3233 81.8776 17.63C82.0242 17.93 82.0976 18.2867 82.0976 18.7V22H81.3476L81.2976 21.1C81.2309 21.24 81.1442 21.3733 81.0376 21.5C80.9376 21.62 80.8176 21.7267 80.6776 21.82C80.5376 21.9133 80.3776 21.9867 80.1976 22.04C80.0242 22.0933 79.8309 22.12 79.6176 22.12ZM79.7376 21.41C79.9576 21.41 80.1609 21.36 80.3476 21.26C80.5409 21.16 80.7042 21.0267 80.8376 20.86C80.9709 20.6867 81.0742 20.4967 81.1476 20.29C81.2209 20.0767 81.2576 19.8533 81.2576 19.62V19.53H80.0176C79.6976 19.53 79.4376 19.57 79.2376 19.65C79.0442 19.73 78.9042 19.8433 78.8176 19.99C78.7309 20.13 78.6876 20.2867 78.6876 20.46C78.6876 20.6533 78.7276 20.82 78.8076 20.96C78.8876 21.1 79.0076 21.21 79.1676 21.29C79.3276 21.37 79.5176 21.41 79.7376 21.41ZM85.6556 22.12C85.1823 22.12 84.7656 22.0033 84.4056 21.77C84.0456 21.53 83.7656 21.2033 83.5656 20.79C83.3656 20.3767 83.2656 19.9067 83.2656 19.38C83.2656 18.8533 83.3656 18.3867 83.5656 17.98C83.7656 17.5733 84.0456 17.2533 84.4056 17.02C84.7656 16.78 85.1856 16.66 85.6656 16.66C86.079 16.66 86.4356 16.7433 86.7356 16.91C87.0356 17.0767 87.269 17.31 87.4356 17.61V14.8H88.2756V22H87.5156L87.4456 21.16C87.3456 21.3267 87.2123 21.4833 87.0456 21.63C86.8856 21.7767 86.689 21.8967 86.4556 21.99C86.229 22.0767 85.9623 22.12 85.6556 22.12ZM85.7656 21.39C86.099 21.39 86.389 21.31 86.6356 21.15C86.8823 20.9833 87.0723 20.75 87.2056 20.45C87.339 20.15 87.4056 19.7967 87.4056 19.39C87.4056 18.9833 87.339 18.63 87.2056 18.33C87.0723 18.03 86.8823 17.8 86.6356 17.64C86.389 17.4733 86.099 17.39 85.7656 17.39C85.4456 17.39 85.1623 17.4733 84.9156 17.64C84.669 17.8 84.4756 18.03 84.3356 18.33C84.1956 18.63 84.1256 18.9833 84.1256 19.39C84.1256 19.7967 84.1956 20.15 84.3356 20.45C84.4756 20.75 84.669 20.9833 84.9156 21.15C85.1623 21.31 85.4456 21.39 85.7656 21.39ZM94.6321 22.12C94.1454 22.12 93.7154 22.01 93.3421 21.79C92.9688 21.5633 92.6788 21.2467 92.4721 20.84C92.2654 20.4267 92.1621 19.9433 92.1621 19.39C92.1621 18.8367 92.2654 18.3567 92.4721 17.95C92.6854 17.5433 92.9788 17.2267 93.3521 17C93.7321 16.7733 94.1654 16.66 94.6521 16.66C95.1388 16.66 95.5654 16.7733 95.9321 17C96.3054 17.2267 96.5954 17.5433 96.8021 17.95C97.0154 18.3567 97.1221 18.8367 97.1221 19.39C97.1221 19.9433 97.0154 20.4267 96.8021 20.84C96.5888 21.2467 96.2954 21.5633 95.9221 21.79C95.5488 22.01 95.1188 22.12 94.6321 22.12ZM94.6321 21.4C94.9321 21.4 95.2054 21.3267 95.4521 21.18C95.6988 21.0267 95.8954 20.8 96.0421 20.5C96.1888 20.2 96.2621 19.83 96.2621 19.39C96.2621 18.9433 96.1888 18.5733 96.0421 18.28C95.9021 17.98 95.7088 17.7567 95.4621 17.61C95.2221 17.4567 94.9521 17.38 94.6521 17.38C94.3521 17.38 94.0788 17.4567 93.8321 17.61C93.5854 17.7567 93.3888 17.98 93.2421 18.28C93.0954 18.5733 93.0221 18.9433 93.0221 19.39C93.0221 19.83 93.0921 20.2 93.2321 20.5C93.3788 20.8 93.5721 21.0267 93.8121 21.18C94.0588 21.3267 94.3321 21.4 94.6321 21.4ZM98.3291 22V16.78H99.0891L99.1291 17.62C99.2825 17.32 99.5025 17.0867 99.7891 16.92C100.082 16.7467 100.419 16.66 100.799 16.66C101.192 16.66 101.532 16.7367 101.819 16.89C102.106 17.0367 102.329 17.2633 102.489 17.57C102.649 17.87 102.729 18.2533 102.729 18.72V22H101.889V18.81C101.889 18.3367 101.772 17.98 101.539 17.74C101.312 17.5 101.002 17.38 100.609 17.38C100.349 17.38 100.109 17.4433 99.8891 17.57C99.6691 17.6967 99.4925 17.8833 99.3591 18.13C99.2325 18.37 99.1691 18.6667 99.1691 19.02V22H98.3291ZM108.806 22C108.506 22 108.246 21.9533 108.026 21.86C107.806 21.7667 107.636 21.61 107.516 21.39C107.403 21.1633 107.346 20.86 107.346 20.48V17.49H106.426V16.78H107.346L107.456 15.49H108.186V16.78H109.666V17.49H108.186V20.48C108.186 20.7933 108.25 21.0067 108.376 21.12C108.503 21.2267 108.726 21.28 109.046 21.28H109.636V22H108.806ZM110.81 22V14.8H111.65V17.63C111.823 17.33 112.06 17.0933 112.36 16.92C112.66 16.7467 112.983 16.66 113.33 16.66C113.736 16.66 114.08 16.7367 114.36 16.89C114.646 17.0433 114.863 17.2767 115.01 17.59C115.163 17.8967 115.24 18.2867 115.24 18.76V22H114.41V18.85C114.41 18.3633 114.296 17.9967 114.07 17.75C113.85 17.5033 113.543 17.38 113.15 17.38C112.876 17.38 112.626 17.4467 112.4 17.58C112.173 17.7133 111.99 17.9067 111.85 18.16C111.716 18.4133 111.65 18.7233 111.65 19.09V22H110.81ZM118.8 22.12C118.333 22.12 117.92 22.0067 117.56 21.78C117.2 21.5533 116.917 21.2367 116.71 20.83C116.51 20.4167 116.41 19.9367 116.41 19.39C116.41 18.8433 116.51 18.3667 116.71 17.96C116.917 17.5467 117.2 17.2267 117.56 17C117.927 16.7733 118.347 16.66 118.82 16.66C119.327 16.66 119.75 16.7733 120.09 17C120.43 17.2267 120.687 17.53 120.86 17.91C121.04 18.2833 121.13 18.6933 121.13 19.14C121.13 19.2067 121.13 19.2733 121.13 19.34C121.13 19.4067 121.127 19.4867 121.12 19.58H117.04V18.93H120.31C120.297 18.43 120.147 18.0467 119.86 17.78C119.58 17.5067 119.227 17.37 118.8 17.37C118.52 17.37 118.26 17.44 118.02 17.58C117.787 17.7133 117.597 17.9133 117.45 18.18C117.303 18.44 117.23 18.7667 117.23 19.16V19.44C117.23 19.8733 117.303 20.2367 117.45 20.53C117.597 20.8233 117.787 21.0433 118.02 21.19C118.26 21.3367 118.52 21.41 118.8 21.41C119.173 21.41 119.467 21.3367 119.68 21.19C119.9 21.0433 120.06 20.8367 120.16 20.57H120.99C120.91 20.8633 120.77 21.13 120.57 21.37C120.377 21.6033 120.13 21.7867 119.83 21.92C119.537 22.0533 119.193 22.12 118.8 22.12Z" fill="#282828"/>
<path d="M43.4667 28.8V27H50.4222V28.8H47.9778V37H45.9111V28.8H43.4667ZM53.7514 37.2222C53.0032 37.2222 52.344 37.0667 51.7736 36.7556C51.2032 36.4444 50.7588 36.0185 50.4403 35.4778C50.1218 34.9296 49.9625 34.3037 49.9625 33.6C49.9625 32.9259 50.1181 32.3296 50.4292 31.8111C50.7403 31.2852 51.1588 30.8704 51.6847 30.5667C52.2181 30.263 52.8069 30.1111 53.4514 30.1111C54.1106 30.1111 54.6995 30.263 55.2181 30.5667C55.7366 30.863 56.144 31.2704 56.4403 31.7889C56.744 32.3074 56.8958 32.8963 56.8958 33.5556V34.2333H52.8292C52.644 34.2333 52.4662 34.2222 52.2958 34.2C52.1255 34.1778 51.9551 34.1519 51.7847 34.1222C51.8736 34.5667 52.0921 34.9296 52.4403 35.2111C52.7958 35.4852 53.2477 35.6222 53.7958 35.6222C54.2181 35.6222 54.5958 35.537 54.9292 35.3667C55.2699 35.1963 55.5477 34.9852 55.7625 34.7333L56.1847 36.4667C55.8514 36.7185 55.4736 36.9074 55.0514 37.0333C54.6366 37.1593 54.2032 37.2222 53.7514 37.2222ZM51.7403 32.9556C52.1106 32.8741 52.4736 32.8333 52.8292 32.8333H54.0069C54.2144 32.8333 54.4106 32.8407 54.5958 32.8556C54.781 32.8704 54.9551 32.8963 55.1181 32.9333C55.0069 32.5333 54.8032 32.2185 54.5069 31.9889C54.2181 31.7593 53.8588 31.6444 53.4292 31.6444C53.0218 31.6444 52.6662 31.763 52.3625 32C52.0662 32.2296 51.8588 32.5481 51.7403 32.9556ZM57.9899 37V26.3333H59.9233V37H57.9899ZM64.8608 37.2222C64.1126 37.2222 63.4534 37.0667 62.883 36.7556C62.3126 36.4444 61.8682 36.0185 61.5497 35.4778C61.2311 34.9296 61.0719 34.3037 61.0719 33.6C61.0719 32.9259 61.2274 32.3296 61.5385 31.8111C61.8497 31.2852 62.2682 30.8704 62.7941 30.5667C63.3274 30.263 63.9163 30.1111 64.5608 30.1111C65.22 30.1111 65.8089 30.263 66.3274 30.5667C66.8459 30.863 67.2534 31.2704 67.5497 31.7889C67.8534 32.3074 68.0052 32.8963 68.0052 33.5556V34.2333H63.9385C63.7534 34.2333 63.5756 34.2222 63.4052 34.2C63.2348 34.1778 63.0645 34.1519 62.8941 34.1222C62.983 34.5667 63.2015 34.9296 63.5497 35.2111C63.9052 35.4852 64.3571 35.6222 64.9052 35.6222C65.3274 35.6222 65.7052 35.537 66.0385 35.3667C66.3793 35.1963 66.6571 34.9852 66.8719 34.7333L67.2941 36.4667C66.9608 36.7185 66.583 36.9074 66.1608 37.0333C65.7459 37.1593 65.3126 37.2222 64.8608 37.2222ZM62.8497 32.9556C63.22 32.8741 63.583 32.8333 63.9385 32.8333H65.1163C65.3237 32.8333 65.52 32.8407 65.7052 32.8556C65.8904 32.8704 66.0645 32.8963 66.2274 32.9333C66.1163 32.5333 65.9126 32.2185 65.6163 31.9889C65.3274 31.7593 64.9682 31.6444 64.5385 31.6444C64.1311 31.6444 63.7756 31.763 63.4719 32C63.1756 32.2296 62.9682 32.5481 62.8497 32.9556ZM71.9882 40.5556C71.4697 40.5556 70.9734 40.4778 70.4993 40.3222C70.0326 40.1741 69.6289 39.9704 69.2882 39.7111L69.7549 37.8C69.9919 38.1185 70.303 38.3778 70.6882 38.5778C71.0734 38.7852 71.5067 38.8889 71.9882 38.8889C72.6697 38.8889 73.1993 38.6926 73.5771 38.3C73.9549 37.9148 74.1438 37.4185 74.1438 36.8111V36.3444C73.8919 36.6037 73.5882 36.8074 73.2326 36.9556C72.8845 37.1037 72.4993 37.1778 72.0771 37.1778C71.4623 37.1778 70.903 37.0185 70.3993 36.7C69.8956 36.3815 69.4919 35.9593 69.1882 35.4333C68.8919 34.9 68.7438 34.3111 68.7438 33.6667C68.7438 33.0222 68.8919 32.4333 69.1882 31.9C69.4919 31.3667 69.8956 30.9444 70.3993 30.6333C70.903 30.3148 71.4623 30.1556 72.0771 30.1556C72.5067 30.1556 72.8993 30.2333 73.2549 30.3889C73.6104 30.537 73.9141 30.7444 74.166 31.0111V30.3333H75.8326V37.0889C75.8326 37.8148 75.6549 38.437 75.2993 38.9556C74.9438 39.4741 74.4734 39.8704 73.8882 40.1444C73.303 40.4185 72.6697 40.5556 71.9882 40.5556ZM72.3104 35.4778C72.6363 35.4778 72.9326 35.3963 73.1993 35.2333C73.466 35.0704 73.6771 34.8519 73.8326 34.5778C73.9956 34.3037 74.0771 34 74.0771 33.6667C74.0771 33.3333 73.9956 33.0296 73.8326 32.7556C73.6771 32.4815 73.466 32.263 73.1993 32.1C72.9326 31.937 72.6363 31.8556 72.3104 31.8556C71.9845 31.8556 71.6882 31.937 71.4215 32.1C71.1549 32.263 70.94 32.4815 70.7771 32.7556C70.6215 33.0296 70.5438 33.3333 70.5438 33.6667C70.5438 34 70.6215 34.3037 70.7771 34.5778C70.94 34.8519 71.1549 35.0704 71.4215 35.2333C71.6882 35.3963 71.9845 35.4778 72.3104 35.4778ZM77.2958 37V30.3333H79.0292V31.4778C79.2588 31.0926 79.5477 30.7963 79.8958 30.5889C80.2514 30.3741 80.6662 30.2667 81.1403 30.2667L81.5625 31.9778C81.4218 31.9333 81.2625 31.9111 81.0847 31.9111C80.5292 31.9111 80.081 32.0926 79.7403 32.4556C79.3995 32.8111 79.2292 33.3222 79.2292 33.9889V37H77.2958ZM85.1865 37.1778C84.5716 37.1778 84.0124 37.0185 83.5087 36.7C83.005 36.3815 82.6013 35.9593 82.2976 35.4333C82.0013 34.9 81.8531 34.3111 81.8531 33.6667C81.8531 33.0222 82.0013 32.4333 82.2976 31.9C82.6013 31.3667 83.005 30.9444 83.5087 30.6333C84.0124 30.3148 84.5716 30.1556 85.1865 30.1556C85.6161 30.1556 86.0087 30.2333 86.3642 30.3889C86.7198 30.537 87.0235 30.7444 87.2753 31.0111V30.3333H88.942V37H87.2753V36.3222C87.0235 36.5889 86.7198 36.8 86.3642 36.9556C86.0087 37.1037 85.6161 37.1778 85.1865 37.1778ZM85.4198 35.4778C85.7457 35.4778 86.042 35.3963 86.3087 35.2333C86.5753 35.0704 86.7865 34.8519 86.942 34.5778C87.105 34.3037 87.1865 34 87.1865 33.6667C87.1865 33.3333 87.105 33.0296 86.942 32.7556C86.7865 32.4815 86.5753 32.263 86.3087 32.1C86.042 31.937 85.7457 31.8556 85.4198 31.8556C85.0939 31.8556 84.7976 31.937 84.5309 32.1C84.2642 32.263 84.0494 32.4815 83.8865 32.7556C83.7309 33.0296 83.6531 33.3333 83.6531 33.6667C83.6531 34 83.7309 34.3037 83.8865 34.5778C84.0494 34.8519 84.2642 35.0704 84.5309 35.2333C84.7976 35.3963 85.0939 35.4778 85.4198 35.4778ZM90.4052 37V30.3333H92.1385V31.0667C92.3756 30.7556 92.6682 30.5185 93.0163 30.3556C93.3719 30.1926 93.7422 30.1111 94.1274 30.1111C94.52 30.1111 94.8904 30.1926 95.2385 30.3556C95.5867 30.5185 95.8793 30.7556 96.1163 31.0667C96.3756 30.7556 96.6978 30.5185 97.083 30.3556C97.4682 30.1926 97.8867 30.1111 98.3385 30.1111C98.8126 30.1111 99.2571 30.2222 99.6719 30.4444C100.087 30.6593 100.424 30.9778 100.683 31.4C100.942 31.8148 101.072 32.3222 101.072 32.9222V37H99.1385V33.2C99.1385 32.8444 99.0348 32.5296 98.8274 32.2556C98.62 31.9815 98.32 31.8444 97.9274 31.8444C97.72 31.8444 97.52 31.8963 97.3274 32C97.1422 32.0963 96.9904 32.2444 96.8719 32.4444C96.7608 32.637 96.7052 32.8815 96.7052 33.1778V37H94.7719V33.2C94.7719 32.963 94.7237 32.7407 94.6274 32.5333C94.5385 32.3259 94.4015 32.1593 94.2163 32.0333C94.0385 31.9074 93.82 31.8444 93.5608 31.8444C93.3534 31.8444 93.1534 31.8963 92.9608 32C92.7756 32.0963 92.6237 32.2444 92.5052 32.4444C92.3941 32.637 92.3385 32.8815 92.3385 33.1778V37H90.4052ZM109.478 37.1778C109.056 37.1778 108.667 37.1037 108.311 36.9556C107.963 36.8074 107.659 36.6037 107.4 36.3444V37H105.733V26.3333H107.667V30.7556C107.911 30.563 108.185 30.4148 108.489 30.3111C108.793 30.2074 109.122 30.1556 109.478 30.1556C110.1 30.1556 110.663 30.3148 111.167 30.6333C111.67 30.9444 112.07 31.3667 112.367 31.9C112.67 32.4333 112.822 33.0222 112.822 33.6667C112.822 34.3111 112.67 34.9 112.367 35.4333C112.07 35.9593 111.67 36.3815 111.167 36.7C110.663 37.0185 110.1 37.1778 109.478 37.1778ZM109.256 35.4778C109.581 35.4778 109.878 35.3963 110.144 35.2333C110.411 35.0704 110.622 34.8519 110.778 34.5778C110.941 34.3037 111.022 34 111.022 33.6667C111.022 33.3333 110.941 33.0296 110.778 32.7556C110.622 32.4815 110.411 32.263 110.144 32.1C109.878 31.937 109.581 31.8556 109.256 31.8556C108.93 31.8556 108.633 31.937 108.367 32.1C108.1 32.263 107.885 32.4815 107.722 32.7556C107.567 33.0296 107.489 33.3333 107.489 33.6667C107.489 34 107.567 34.3037 107.722 34.5778C107.885 34.8519 108.1 35.0704 108.367 35.2333C108.633 35.3963 108.93 35.4778 109.256 35.4778ZM117.219 37.2222C116.559 37.2222 115.956 37.063 115.408 36.7444C114.859 36.4259 114.422 35.9963 114.097 35.4556C113.778 34.9148 113.619 34.3185 113.619 33.6667C113.619 33.0074 113.778 32.4111 114.097 31.8778C114.422 31.337 114.859 30.9074 115.408 30.5889C115.956 30.2704 116.559 30.1111 117.219 30.1111C117.885 30.1111 118.489 30.2704 119.03 30.5889C119.578 30.9074 120.011 31.337 120.33 31.8778C120.656 32.4111 120.819 33.0074 120.819 33.6667C120.819 34.3185 120.656 34.9148 120.33 35.4556C120.011 35.9963 119.578 36.4259 119.03 36.7444C118.489 37.063 117.885 37.2222 117.219 37.2222ZM117.219 35.4889C117.552 35.4889 117.852 35.4074 118.119 35.2444C118.393 35.0815 118.608 34.863 118.763 34.5889C118.926 34.3074 119.008 34 119.008 33.6667C119.008 33.3259 118.926 33.0185 118.763 32.7444C118.608 32.4704 118.393 32.2519 118.119 32.0889C117.852 31.9259 117.552 31.8444 117.219 31.8444C116.885 31.8444 116.582 31.9259 116.308 32.0889C116.041 32.2519 115.826 32.4704 115.663 32.7444C115.508 33.0185 115.43 33.3259 115.43 33.6667C115.43 34 115.508 34.3074 115.663 34.5889C115.826 34.863 116.041 35.0815 116.308 35.2444C116.582 35.4074 116.885 35.4889 117.219 35.4889ZM122.402 37V31.8667H121.157V30.3333H122.435V28.1111H124.302V30.3333H125.624V31.8667H124.335V37H122.402Z" fill="#282828"/>
<g clip-path="url(#clip0_4985_18427)">
<path d="M24 13C20.2878 13 16.7244 14.4759 14.1016 17.1005C11.4761 19.7261 10.0008 23.2869 10 27C10 30.7115 11.4766 34.275 14.1016 36.8995C16.7244 39.5241 20.2878 41 24 41C27.7122 41 31.2756 39.5241 33.8984 36.8995C36.5234 34.275 38 30.7115 38 27C38 23.2885 36.5234 19.725 33.8984 17.1005C31.2756 14.4759 27.7122 13 24 13Z" fill="url(#paint0_linear_4985_18427)"/>
<path d="M16.338 26.8521C20.4198 25.0741 23.1411 23.9018 24.5017 23.3354C28.3911 21.7182 29.1983 21.4373 29.7255 21.4278C29.8414 21.426 30.0995 21.4546 30.268 21.5908C30.408 21.7056 30.4473 21.8609 30.467 21.97C30.4845 22.0789 30.5086 22.3272 30.4889 22.521C30.2789 24.7348 29.3667 30.1068 28.903 32.5864C28.7083 33.6355 28.3211 33.9872 27.947 34.0216C27.1333 34.0964 26.5164 33.4843 25.7289 32.9683C24.4973 32.1605 23.8017 31.6578 22.6052 30.8696C21.2227 29.9587 22.1195 29.458 22.907 28.6399C23.1127 28.4257 26.6958 25.1675 26.7636 24.8719C26.7723 24.835 26.7811 24.6971 26.698 24.6245C26.617 24.5517 26.4967 24.5766 26.4092 24.5963C26.2845 24.6243 24.318 25.9254 20.503 28.4995C19.9452 28.8831 19.4398 29.0702 18.9848 29.0603C18.4861 29.0496 17.5236 28.7777 16.8083 28.5454C15.9333 28.2604 15.2355 28.1096 15.2967 27.6256C15.3273 27.3736 15.6752 27.1156 16.338 26.8521Z" fill="white"/>
</g>
<defs>
<linearGradient id="paint0_linear_4985_18427" x1="1410" y1="13" x2="1410" y2="2813" gradientUnits="userSpaceOnUse">
<stop stop-color="#2AABEE"/>
<stop offset="1" stop-color="#229ED9"/>
</linearGradient>
<clipPath id="clip0_4985_18427">
<rect width="28" height="28" fill="white" transform="translate(10 13)"/>
</clipPath>
</defs>
</svg>
