<svg aria-hidden="true" xmlns="http://www.w3.org/2000/svg" xmlns:xlink="http://www.w3.org/1999/xlink"><symbol viewBox="0 0 32 32" id="icon-check" xmlns="http://www.w3.org/2000/svg">
<path d="M16 0c-8.816 0-16 7.184-16 16s7.184 16 16 16c8.816 0 16-7.184 16-16s-7.184-16-16-16zM23.648 12.32l-9.072 9.072c-0.224 0.224-0.528 0.352-0.848 0.352s-0.624-0.128-0.848-0.352l-4.528-4.528c-0.464-0.464-0.464-1.232 0-1.696s1.232-0.464 1.696 0l3.68 3.68 8.224-8.224c0.464-0.464 1.232-0.464 1.696 0s0.464 1.216 0 1.696z"/>
</symbol><symbol viewBox="0 0 32 32" id="icon-facebook" xmlns="http://www.w3.org/2000/svg">
<path d="M31.238 22.385c0 5.547-3.307 8.853-8.853 8.853h-1.813c-0.838 0-1.524-0.686-1.524-1.524v-8.792c0-0.411 0.335-0.762 0.747-0.762l2.682-0.046c0.213-0.015 0.396-0.168 0.442-0.381l0.533-2.91c0.046-0.274-0.168-0.533-0.457-0.533l-3.246 0.046c-0.427 0-0.762-0.335-0.777-0.747l-0.061-3.733c0-0.244 0.198-0.457 0.457-0.457l3.657-0.061c0.259 0 0.457-0.198 0.457-0.457l-0.061-3.657c0-0.259-0.198-0.457-0.457-0.457l-4.114 0.061c-2.53 0.046-4.541 2.118-4.495 4.648l0.076 4.19c0.015 0.427-0.32 0.762-0.747 0.777l-1.829 0.030c-0.259 0-0.457 0.198-0.457 0.457l0.046 2.895c0 0.259 0.198 0.457 0.457 0.457l1.829-0.030c0.427 0 0.762 0.335 0.777 0.747l0.137 8.686c0.015 0.853-0.67 1.554-1.524 1.554h-3.505c-5.547 0-8.853-3.307-8.853-8.869v-12.754c0-5.547 3.307-8.853 8.853-8.853h12.77c5.547 0 8.853 3.307 8.853 8.853v12.77z"/>
</symbol><symbol viewBox="0 0 28 32" id="icon-geo" xmlns="http://www.w3.org/2000/svg">
<path d="M26.356 10.836c-1.527-6.72-7.389-9.745-12.538-9.745 0 0 0 0-0.015 0-5.135 0-11.011 3.011-12.538 9.731-1.702 7.505 2.895 13.862 7.055 17.862 1.542 1.484 3.52 2.225 5.498 2.225s3.956-0.742 5.484-2.225c4.16-4 8.756-10.342 7.055-17.847zM13.818 18.124c-2.531 0-4.582-2.051-4.582-4.582s2.051-4.582 4.582-4.582c2.531 0 4.582 2.051 4.582 4.582s-2.051 4.582-4.582 4.582z"/>
</symbol><symbol viewBox="0 0 34 32" id="icon-server" xmlns="http://www.w3.org/2000/svg">
<path d="M23.504 0h-13.408c-5.824 0-9.296 3.472-9.296 9.296v13.392c0 5.84 3.472 9.312 9.296 9.312h13.392c5.824 0 9.296-3.472 9.296-9.296v-13.408c0.016-5.824-3.456-9.296-9.28-9.296zM23.52 26c-1.808 0-3.28-1.472-3.28-3.28 0-1.056 0.512-1.984 1.296-2.592-0.672-1.76-2.352-2.976-4.24-2.912l-3.312 0.016c-0.976 0-1.904-0.288-2.688-0.784v3.232c1.216 0.48 2.080 1.664 2.080 3.040 0 1.808-1.472 3.28-3.28 3.28s-3.28-1.472-3.28-3.28c0-1.392 0.864-2.56 2.080-3.040v-6.96c-1.216-0.56-2.080-1.776-2.080-3.2 0-1.936 1.584-3.52 3.52-3.52s3.52 1.584 3.52 3.52c0 1.568-1.040 2.88-2.464 3.344 0.32 1.168 1.376 1.984 2.592 1.984 0 0 0 0 0.016 0l3.296-0.016c0.016 0 0.016 0 0.032 0 2.944 0 5.584 1.872 6.544 4.656 1.648 0.176 2.944 1.552 2.944 3.248-0.016 1.792-1.488 3.264-3.296 3.264z"/>
</symbol><symbol viewBox="0 0 32 32" id="icon-telegram" xmlns="http://www.w3.org/2000/svg">
<path d="M16 0c-8.832 0-16 7.168-16 16s7.168 16 16 16c8.832 0 16-7.168 16-16s-7.168-16-16-16zM23.424 10.88c-0.24 2.528-1.28 8.672-1.808 11.504-0.224 1.2-0.672 1.6-1.088 1.648-0.928 0.080-1.632-0.608-2.528-1.2-1.408-0.928-2.208-1.504-3.568-2.4-1.584-1.040-0.56-1.616 0.352-2.544 0.24-0.24 4.336-3.968 4.416-4.304 0.011-0.051 0.010-0.104-0.004-0.154s-0.040-0.096-0.076-0.134c-0.096-0.080-0.224-0.048-0.336-0.032-0.144 0.032-2.384 1.52-6.752 4.464-0.64 0.432-1.216 0.656-1.728 0.64-0.576-0.016-1.664-0.32-2.48-0.592-1.008-0.32-1.792-0.496-1.728-1.056 0.032-0.288 0.432-0.576 1.184-0.88 4.672-2.032 7.776-3.376 9.328-4.016 4.448-1.856 5.36-2.176 5.968-2.176 0.128 0 0.432 0.032 0.624 0.192 0.16 0.128 0.208 0.304 0.224 0.432-0.016 0.096 0.016 0.384 0 0.608z"/>
</symbol><symbol viewBox="0 0 33 32" id="icon-user" xmlns="http://www.w3.org/2000/svg">
<path d="M16.667 16c3.682 0 6.667-2.985 6.667-6.667s-2.985-6.667-6.667-6.667c-3.682 0-6.667 2.985-6.667 6.667s2.985 6.667 6.667 6.667z"/>
<path d="M16.667 19.333c-6.68 0-12.12 4.48-12.12 10 0 0.373 0.293 0.667 0.667 0.667h22.907c0.373 0 0.667-0.293 0.667-0.667 0-5.52-5.44-10-12.12-10z"/>
</symbol><symbol viewBox="0 0 40 32" id="icon-youtube" xmlns="http://www.w3.org/2000/svg">
<path d="M29.176 0.941h-18.824c-5.647 0-9.412 3.765-9.412 9.412v11.294c0 5.647 3.765 9.412 9.412 9.412h18.824c5.647 0 9.412-3.765 9.412-9.412v-11.294c0-5.647-3.765-9.412-9.412-9.412zM23.322 17.939l-4.649 2.786c-1.882 1.129-3.426 0.264-3.426-1.939v-5.591c0-2.202 1.544-3.068 3.426-1.939l4.649 2.786c1.788 1.092 1.788 2.824 0 3.897z"/>
</symbol><symbol viewBox="0 0 32 32" id="star" xmlns="http://www.w3.org/2000/svg">
<path d="M18.6 3.249l2.64 5.28c0.36 0.72 1.32 1.44 2.12 1.56l4.78 0.8c3.060 0.52 3.78 2.72 1.58 4.92l-3.72 3.74c-0.62 0.62-0.98 1.84-0.78 2.72l1.060 4.62c0.84 3.64-1.1 5.060-4.32 3.16l-4.48-2.66c-0.82-0.48-2.14-0.48-2.96 0l-4.5 2.64c-3.22 1.9-5.16 0.48-4.32-3.16l1.060-4.62c0.2-0.86-0.16-2.080-0.78-2.72l-3.7-3.7c-2.2-2.2-1.48-4.42 1.58-4.92l4.78-0.8c0.8-0.14 1.76-0.84 2.12-1.56l2.64-5.28c1.42-2.88 3.78-2.88 5.2-0.020z"/>
</symbol></svg>