<svg width="62" height="62" viewBox="0 0 62 62" fill="none" xmlns="http://www.w3.org/2000/svg">
<mask id="mask0_14_4152" style="mask-type:luminance" maskUnits="userSpaceOnUse" x="0" y="0" width="62" height="62">
<path d="M0.661713 0.810791H61.4512V61.6128H0.661713V0.810791Z" fill="white"/>
</mask>
<g mask="url(#mask0_14_4152)">
<path d="M45.7835 54.9532L37.1297 44.3523C37.0921 44.3053 37.0545 44.2551 37.02 44.2206L32.0472 38.1285L36.2644 32.9614L50.888 50.8803C49.3579 52.4229 47.6428 53.7868 45.7835 54.9532ZM26.4913 58.7815L30.5172 53.8464L34.6496 58.9163C33.4707 59.0731 32.2667 59.1578 31.0376 59.1578C29.495 59.1578 27.9743 59.0229 26.4913 58.7815ZM23.8293 58.2109C21.6659 57.6277 19.5996 56.7999 17.6808 55.7433L30.4921 40.0505L34.5744 45.0452L23.8293 58.2109ZM43.6326 56.1572C41.673 57.1385 39.5848 57.9067 37.4088 58.4178L32.1068 51.9118L36.1452 46.9673L43.6326 56.1572ZM11.1998 50.8677L31.0502 26.5557L34.7092 31.0299L15.5769 54.4672C13.9966 53.4199 12.5387 52.2065 11.1998 50.8677ZM31.0502 3.24387C46.0625 3.24387 58.3408 15.1302 58.9711 29.9858H54.2303C53.5625 17.9741 43.5824 8.33579 31.4515 8.26368C31.4045 8.26368 31.3543 8.26368 31.3167 8.26368C25.2779 8.26368 19.5651 10.6341 15.2132 14.9358C11.1027 19.0087 8.70719 24.3076 8.39365 29.9858H3.12929C3.76264 15.1302 16.0378 3.24387 31.0502 3.24387ZM54.1206 46.9673C53.622 47.6821 53.1016 48.3876 52.5403 49.0554L50.8409 46.9673H54.1206ZM57.5977 39.9659C57.0773 41.5555 56.4188 43.0762 55.6287 44.5342H48.8719L45.1376 39.9659H57.5977ZM53.0514 32.4158H58.9711C58.8989 34.1654 58.6575 35.8804 58.2656 37.5328H43.1466L38.9765 32.4158H53.0514ZM25.118 29.9858H18.104C19.0541 23.6523 24.4627 18.7893 30.9279 18.6921C30.9906 18.6921 31.0627 18.6921 31.1223 18.6921C37.6032 18.6921 43.1936 23.6147 44.1531 29.9858H36.9698L31.9751 23.8718C31.5142 23.298 30.5516 23.298 30.0907 23.8718L25.118 29.9858ZM46.6112 29.9858C45.6142 22.2037 38.7821 16.1649 30.8934 16.2621C23.1019 16.3844 16.6335 22.326 15.6615 29.9858H10.8361C11.1528 24.9629 13.2786 20.2723 16.9251 16.676C20.8162 12.8226 25.9206 10.6936 31.3167 10.6936C31.3543 10.6936 31.4045 10.6936 31.439 10.6936C42.2342 10.7563 51.1325 19.3003 51.8004 29.9858H46.6112ZM18.9443 37.5453C18.8942 37.5328 18.8471 37.5328 18.797 37.5328H3.82221C3.43342 35.8804 3.2014 34.1654 3.11674 32.4158H23.1238L18.9443 37.5453ZM13.2441 44.5342H6.48418C5.69406 43.0887 5.03875 41.5555 4.51514 39.9659H16.9753L13.2441 44.5342ZM7.97978 46.9673H11.2626L9.56003 49.0554C9.00192 48.3751 8.46577 47.6821 7.97978 46.9673ZM57.2936 46.5032C57.3689 46.406 57.441 46.2963 57.488 46.1771C58.7296 44.0012 59.7016 41.6527 60.382 39.1852C60.4071 39.113 60.429 39.0409 60.4416 38.9688C61.1 36.4887 61.4512 33.8863 61.4512 31.1992C61.4386 14.4373 47.8121 0.810791 31.0502 0.810791C14.2882 0.810791 0.661713 14.4373 0.661713 31.1992C0.661713 33.8863 1.01288 36.4762 1.67132 38.9563C1.68386 39.0535 1.70894 39.1381 1.74343 39.2228C2.41128 41.6778 3.38325 44.0106 4.62488 46.1771C4.67191 46.2963 4.73462 46.406 4.81928 46.5032C5.90099 48.3531 7.16457 50.0776 8.60059 51.6578C8.66016 51.7425 8.73228 51.8272 8.81693 51.8899C8.82947 51.8899 8.82947 51.9024 8.84202 51.9024C10.6794 53.8714 12.7582 55.5834 15.0407 57.0194C15.0533 57.0319 15.0533 57.0319 15.0658 57.0445C15.0909 57.0664 15.1285 57.079 15.163 57.1041C17.825 58.7439 20.7566 59.9855 23.8669 60.738C23.892 60.7506 23.914 60.7506 23.9516 60.7631C26.2373 61.3087 28.6202 61.6128 31.0627 61.6128C36.4964 61.6128 41.6008 60.1674 46.0249 57.6622C46.1221 57.6277 46.2099 57.5775 46.2946 57.5179C46.2946 57.5179 46.2946 57.5054 46.3071 57.5054C48.8938 55.9973 51.2517 54.1129 53.2834 51.9369C53.296 51.9244 53.296 51.9244 53.3085 51.9244C53.3932 51.8522 53.4653 51.7801 53.5248 51.6955C54.9483 50.0776 56.2119 48.3531 57.2936 46.5032Z" fill="#D8AE5E"/>
</g>
</svg>
