<svg width="218" height="114" viewBox="0 0 218 114" fill="none" xmlns="http://www.w3.org/2000/svg">
<g clip-path="url(#clip0_14_4151)">
<mask id="mask0_14_4151" style="mask-type:luminance" maskUnits="userSpaceOnUse" x="78" y="0" width="62" height="62">
<path d="M78.6617 0.810791H139.451V61.6128H78.6617V0.810791Z" fill="white"/>
</mask>
<g mask="url(#mask0_14_4151)">
<path d="M123.783 54.9532L115.13 44.3523C115.092 44.3053 115.054 44.2551 115.02 44.2206L110.047 38.1285L114.264 32.9614L128.888 50.8803C127.358 52.4229 125.643 53.7868 123.783 54.9532ZM104.491 58.7815L108.517 53.8464L112.65 58.9163C111.471 59.0731 110.267 59.1578 109.038 59.1578C107.495 59.1578 105.974 59.0229 104.491 58.7815ZM101.829 58.2109C99.6659 57.6277 97.5996 56.7999 95.6808 55.7433L108.492 40.0505L112.574 45.0452L101.829 58.2109ZM121.633 56.1572C119.673 57.1385 117.585 57.9067 115.409 58.4178L110.107 51.9118L114.145 46.9673L121.633 56.1572ZM89.1998 50.8677L109.05 26.5557L112.709 31.0299L93.5769 54.4672C91.9966 53.4199 90.5387 52.2065 89.1998 50.8677ZM109.05 3.24387C124.063 3.24387 136.341 15.1302 136.971 29.9858H132.23C131.562 17.9741 121.582 8.33579 109.452 8.26368C109.404 8.26368 109.354 8.26368 109.317 8.26368C103.278 8.26368 97.5651 10.6341 93.2132 14.9358C89.1027 19.0087 86.7072 24.3076 86.3937 29.9858H81.1293C81.7626 15.1302 94.0378 3.24387 109.05 3.24387ZM132.121 46.9673C131.622 47.6821 131.102 48.3876 130.54 49.0554L128.841 46.9673H132.121ZM135.598 39.9659C135.077 41.5555 134.419 43.0762 133.629 44.5342H126.872L123.138 39.9659H135.598ZM131.051 32.4158H136.971C136.899 34.1654 136.658 35.8804 136.266 37.5328H121.147L116.977 32.4158H131.051ZM103.118 29.9858H96.104C97.0541 23.6523 102.463 18.7893 108.928 18.6921C108.991 18.6921 109.063 18.6921 109.122 18.6921C115.603 18.6921 121.194 23.6147 122.153 29.9858H114.97L109.975 23.8718C109.514 23.298 108.552 23.298 108.091 23.8718L103.118 29.9858ZM124.611 29.9858C123.614 22.2037 116.782 16.1649 108.893 16.2621C101.102 16.3844 94.6335 22.326 93.6615 29.9858H88.8361C89.1528 24.9629 91.2786 20.2723 94.9251 16.676C98.8162 12.8226 103.921 10.6936 109.317 10.6936C109.354 10.6936 109.404 10.6936 109.439 10.6936C120.234 10.7563 129.133 19.3003 129.8 29.9858H124.611ZM96.9443 37.5453C96.8942 37.5328 96.8471 37.5328 96.797 37.5328H81.8222C81.4334 35.8804 81.2014 34.1654 81.1167 32.4158H101.124L96.9443 37.5453ZM91.2441 44.5342H84.4842C83.6941 43.0887 83.0388 41.5555 82.5151 39.9659H94.9753L91.2441 44.5342ZM85.9798 46.9673H89.2626L87.56 49.0554C87.0019 48.3751 86.4658 47.6821 85.9798 46.9673ZM135.294 46.5032C135.369 46.406 135.441 46.2963 135.488 46.1771C136.73 44.0012 137.702 41.6527 138.382 39.1852C138.407 39.113 138.429 39.0409 138.442 38.9688C139.1 36.4887 139.451 33.8863 139.451 31.1992C139.439 14.4373 125.812 0.810791 109.05 0.810791C92.2882 0.810791 78.6617 14.4373 78.6617 31.1992C78.6617 33.8863 79.0129 36.4762 79.6713 38.9563C79.6839 39.0535 79.7089 39.1381 79.7434 39.2228C80.4113 41.6778 81.3833 44.0106 82.6249 46.1771C82.6719 46.2963 82.7346 46.406 82.8193 46.5032C83.901 48.3531 85.1646 50.0776 86.6006 51.6578C86.6602 51.7425 86.7323 51.8272 86.8169 51.8899C86.8295 51.8899 86.8295 51.9024 86.842 51.9024C88.6794 53.8714 90.7582 55.5834 93.0407 57.0194C93.0533 57.0319 93.0533 57.0319 93.0658 57.0445C93.0909 57.0664 93.1285 57.079 93.163 57.1041C95.825 58.7439 98.7566 59.9855 101.867 60.738C101.892 60.7506 101.914 60.7506 101.952 60.7631C104.237 61.3087 106.62 61.6128 109.063 61.6128C114.496 61.6128 119.601 60.1674 124.025 57.6622C124.122 57.6277 124.21 57.5775 124.295 57.5179C124.295 57.5179 124.295 57.5054 124.307 57.5054C126.894 55.9973 129.252 54.1129 131.283 51.9369C131.296 51.9244 131.296 51.9244 131.308 51.9244C131.393 51.8522 131.465 51.7801 131.525 51.6955C132.948 50.0776 134.212 48.3531 135.294 46.5032Z" fill="#D8AE5E"/>
</g>
<path d="M1.98509 99.5356H216.297" stroke="#F4F4F4" stroke-width="2.00131" stroke-linecap="round"/>
<path d="M23.6127 90.9338H24.1896C24.6317 90.9338 24.9829 90.7958 25.2431 90.5199C25.5002 90.244 25.6319 89.8552 25.6319 89.3535V77.2132C25.6319 76.9216 25.5347 76.6802 25.3434 76.4858C25.149 76.2945 24.9108 76.1973 24.6286 76.1973H23.6127V75.4824H28.529L34.0223 87.0333L39.2145 75.4824H43.9804V76.1973H42.1117V90.9338H43.9804V91.6612H37.4838V90.9338H38.4997C38.7818 90.9338 39.0201 90.8397 39.2145 90.6453C39.4058 90.454 39.503 90.2157 39.503 89.9304V76.7742L33.4328 90.0684H32.7179L26.3593 76.7742V90.9338H28.3785V91.6612H23.6127V90.9338Z" fill="#F4F4F4"/>
<path d="M45.7177 90.9338H46.7335C47.0157 90.9338 47.254 90.8397 47.4484 90.6453C47.6397 90.454 47.7369 90.2157 47.7369 89.9304V77.2132C47.7369 76.9216 47.6397 76.6802 47.4484 76.4858C47.254 76.2945 47.0157 76.1973 46.7335 76.1973H45.7177V75.4824H52.2268V76.1973H50.3455V90.9338H52.2268V91.6612H45.7177V90.9338Z" fill="#F4F4F4"/>
<path d="M62.7698 92.1001C61.5721 92.1001 60.4653 91.8869 59.4463 91.4605C58.4242 91.0341 57.54 90.4415 56.7875 89.6796C56.035 88.9208 55.4455 88.0209 55.0191 86.9831C54.599 85.939 54.392 84.8009 54.392 83.5718C54.392 82.3364 54.599 81.1983 55.0191 80.1604C55.4455 79.1258 56.035 78.2259 56.7875 77.464C57.54 76.7052 58.4242 76.1095 59.4463 75.6831C60.4653 75.2567 61.5721 75.0434 62.7698 75.0434C63.9644 75.0434 65.0712 75.2567 66.0934 75.6831C67.1124 76.1095 67.9997 76.7052 68.7522 77.464C69.5047 78.2259 70.0879 79.1258 70.5081 80.1604C70.9345 81.1983 71.1477 82.3364 71.1477 83.5718C71.1477 84.8009 70.9345 85.939 70.5081 86.9831C70.0879 88.0209 69.5047 88.9208 68.7522 89.6796C67.9997 90.4415 67.1124 91.0341 66.0934 91.4605C65.0712 91.8869 63.9644 92.1001 62.7698 92.1001ZM62.7698 91.5107C63.4785 91.5107 64.1776 91.3445 64.8643 91.009C65.5478 90.6766 66.1498 90.175 66.6703 89.504C67.1876 88.8267 67.6047 87.999 67.9245 87.0207C68.2411 86.0362 68.4011 84.8855 68.4011 83.5718C68.4011 82.2863 68.2411 81.145 67.9245 80.1479C67.6047 79.154 67.1876 78.3231 66.6703 77.6521C66.1498 76.9749 65.5478 76.4701 64.8643 76.1346C64.1776 75.7928 63.4785 75.6204 62.7698 75.6204C62.033 75.6204 61.3276 75.7928 60.6503 76.1346C59.9793 76.4701 59.3867 76.9749 58.8694 77.6521C58.3489 78.3231 57.9319 79.154 57.6152 80.1479C57.2954 81.145 57.1386 82.2863 57.1386 83.5718C57.1386 84.8855 57.2954 86.0362 57.6152 87.0207C57.9319 87.999 58.3489 88.8267 58.8694 89.504C59.3867 90.175 59.9793 90.6766 60.6503 91.009C61.3276 91.3445 62.033 91.5107 62.7698 91.5107ZM60.8886 73.3127L65.6544 69.1238L67.0967 69.9892L61.3276 73.4632L60.8886 73.3127Z" fill="#F4F4F4"/>
<path d="M73.3134 90.9338H74.3293C74.6115 90.9338 74.8498 90.8397 75.0442 90.6453C75.2354 90.454 75.3326 90.2157 75.3326 89.9304V77.2132C75.3326 76.9216 75.2354 76.6802 75.0442 76.4858C74.8498 76.2945 74.6115 76.1973 74.3293 76.1973H73.3134V75.4824H80.8259C82.08 75.4824 83.2213 75.68 84.2498 76.0719C85.2782 76.4669 86.1592 77.0219 86.896 77.7399C87.6297 78.4517 88.2004 79.3045 88.6017 80.2984C89.003 81.2861 89.2037 82.3772 89.2037 83.5718C89.2037 84.7695 89.0062 85.8638 88.6143 86.8577C88.2192 87.8454 87.6548 88.6982 86.9211 89.4162C86.1937 90.128 85.3095 90.6798 84.2748 91.0717C83.2464 91.4668 82.0957 91.6612 80.8259 91.6612H73.3134V90.9338ZM80.6879 90.9338C81.4718 90.9338 82.218 90.777 82.9203 90.4572C83.6227 90.1405 84.2309 89.6733 84.7514 89.0525C85.2782 88.4254 85.692 87.6572 85.993 86.7448C86.3003 85.8262 86.4571 84.7695 86.4571 83.5718C86.4571 82.3772 86.3003 81.3237 85.993 80.4113C85.692 79.4926 85.2782 78.7182 84.7514 78.0911C84.2309 77.464 83.6227 76.9937 82.9203 76.6739C82.218 76.3572 81.4718 76.1973 80.6879 76.1973H77.9413V90.9338H80.6879Z" fill="#F4F4F4"/>
<path d="M99.7538 90.9338H100.331C100.773 90.9338 101.124 90.7958 101.384 90.5199C101.641 90.244 101.773 89.8552 101.773 89.3535V77.2132C101.773 76.9216 101.676 76.6802 101.485 76.4858C101.29 76.2945 101.052 76.1973 100.77 76.1973H99.7538V75.4824H104.67L110.163 87.0333L115.356 75.4824H120.121V76.1973H118.253V90.9338H120.121V91.6612H113.625V90.9338H114.641C114.923 90.9338 115.161 90.8397 115.356 90.6453C115.547 90.454 115.644 90.2157 115.644 89.9304V76.7742L109.574 90.0684H108.859L102.5 76.7742V90.9338H104.52V91.6612H99.7538V90.9338Z" fill="#F4F4F4"/>
<path d="M120.554 90.9337H121.144C121.721 90.9337 122.154 90.8083 122.448 90.5575C122.749 90.3067 122.966 90.0025 123.1 89.642L128.506 75.0435H129.233L135.153 89.9304C135.269 90.2157 135.423 90.454 135.617 90.6453C135.808 90.8397 136.087 90.9337 136.457 90.9337H137.611V91.6612H131.253V90.9337H132.845L131.102 86.6069H124.919L123.301 90.9337H125.182V91.6612H120.554V90.9337ZM130.901 86.03L127.929 78.5175L125.157 86.03H130.901Z" fill="#F4F4F4"/>
<path d="M138.041 90.9338H139.056C139.339 90.9338 139.577 90.8397 139.771 90.6453C139.963 90.454 140.06 90.2157 140.06 89.9304V77.2132C140.06 76.9216 139.963 76.6802 139.771 76.4858C139.577 76.2945 139.339 76.1973 139.056 76.1973H138.041V75.4824H144.55V76.1973H142.668V90.9338H145.992C147.278 90.9338 148.218 90.7017 148.814 90.2314C149.416 89.7642 149.82 89.087 150.03 88.1997L150.319 87.0333H150.896V91.6612H138.041V90.9338Z" fill="#F4F4F4"/>
<path d="M152.922 90.9338H153.938C154.22 90.9338 154.458 90.8397 154.653 90.6453C154.844 90.454 154.941 90.2157 154.941 89.9304V77.2132C154.941 76.9216 154.844 76.6802 154.653 76.4858C154.458 76.2945 154.22 76.1973 153.938 76.1973H152.922V75.4824H159.431V76.1973H157.55V90.9338H159.431V91.6612H152.922V90.9338Z" fill="#F4F4F4"/>
<path d="M163.766 78.0785V90.9338H165.635V91.6612H160.869V90.9338H161.596C162.556 90.9338 163.039 90.4258 163.039 89.4037V77.2132C163.039 76.9216 162.941 76.6802 162.75 76.4858C162.556 76.2945 162.314 76.1973 162.023 76.1973H160.869V75.4824H165.121L175.317 87.6102V76.1973H173.298V75.4824H178.214V76.1973H177.487C177.041 76.1973 176.69 76.3415 176.433 76.6237C176.173 76.8996 176.044 77.2884 176.044 77.7901V91.9496H175.467L163.766 78.0785Z" fill="#F4F4F4"/>
<path d="M178.347 90.9337H178.936C179.513 90.9337 179.946 90.8083 180.24 90.5575C180.541 90.3067 180.758 90.0025 180.893 89.642L186.298 75.0435H187.025L192.945 89.9304C193.061 90.2157 193.215 90.454 193.409 90.6453C193.6 90.8397 193.879 90.9337 194.249 90.9337H195.403V91.6612H189.045V90.9337H190.637L188.894 86.6069H182.711L181.093 90.9337H182.974V91.6612H178.347V90.9337ZM188.693 86.03L185.721 78.5175L182.949 86.03H188.693Z" fill="#F4F4F4"/>
<path d="M77.0818 113.442C78.2638 113.442 79.4867 112.138 79.4867 110.464C79.4867 108.793 78.2638 107.488 77.0818 107.488C75.8966 107.488 74.6738 108.793 74.6738 110.464C74.6738 112.138 75.8966 113.442 77.0818 113.442ZM77.0818 113.157C75.9374 113.157 75.652 111.853 75.652 110.464C75.652 109.078 75.9374 107.774 77.0818 107.774C78.2231 107.774 78.5084 109.078 78.5084 110.464C78.5084 111.853 78.2231 113.157 77.0818 113.157Z" fill="#F4F4F4"/>
<path d="M83.3208 113.442C84.3869 113.442 84.9983 112.75 84.9983 111.828C84.9983 111.094 84.6158 110.498 83.6375 110.097L83.139 109.893C82.2015 109.511 81.7688 109.307 81.7688 108.67C81.7688 108.172 82.1858 107.774 82.838 107.774C83.6689 107.774 84.0859 108.354 84.3649 109.031C84.4935 109.357 84.5092 109.567 84.6314 109.567C84.713 109.567 84.7474 109.501 84.7474 109.429C84.7224 108.67 84.7474 108.278 84.7474 107.683C84.7474 107.57 84.7318 107.529 84.6408 107.529C84.575 107.529 84.5499 107.56 84.5092 107.626C84.4214 107.764 84.3053 108.002 84.2019 108.002C84.0357 108.002 83.7692 107.488 82.8693 107.488C81.9256 107.488 81.2891 108.15 81.2797 108.949C81.2734 109.862 81.8911 110.382 82.7 110.718L83.5466 111.069C84.1831 111.329 84.4684 111.63 84.4684 112.144C84.4684 112.756 84.0451 113.157 83.3616 113.157C82.3645 113.157 81.8597 112.367 81.6058 111.216C81.565 111.028 81.5493 110.947 81.4364 110.947C81.3612 110.947 81.3204 111.003 81.3204 111.085C81.3455 111.828 81.3361 112.414 81.3204 113.248C81.3204 113.361 81.3455 113.402 81.427 113.402C81.6058 113.402 81.6308 112.797 81.819 112.797C81.9068 112.797 81.9977 112.922 82.1764 113.06C82.4304 113.239 82.7659 113.442 83.3208 113.442Z" fill="#F4F4F4"/>
<path d="M86.4178 113.361C86.6216 113.361 86.8599 113.32 87.3146 113.32H87.4212C87.7567 113.32 88.042 113.361 88.1956 113.361C88.2928 113.361 88.3587 113.311 88.3587 113.182C88.3587 113.051 88.2928 113.003 88.1956 113.003C88.0733 113.003 87.9605 113.035 87.8288 113.035C87.5999 113.035 87.5121 112.944 87.5121 112.815C87.5121 112.765 87.5278 112.709 87.5529 112.634L87.926 111.549C87.9855 111.395 88.089 111.323 88.2521 111.323H89.3777C89.5407 111.323 89.6473 111.395 89.7038 111.549L90.08 112.627C90.1709 112.897 90.033 113.035 89.8104 113.035C89.6818 113.035 89.5407 113.003 89.4184 113.003C89.3212 113.003 89.2554 113.051 89.2554 113.182C89.2554 113.311 89.3212 113.361 89.4184 113.361C89.6222 113.361 89.7477 113.32 90.243 113.32H90.8482C91.3028 113.32 91.4596 113.361 91.6634 113.361C91.7606 113.361 91.8264 113.311 91.8264 113.182C91.8264 113.051 91.7606 113.003 91.6634 113.003C91.5411 113.003 91.4659 113.035 91.3624 113.035C91.1492 113.035 91.0363 112.887 90.9705 112.709L89.641 108.849C89.5094 108.457 89.3777 108.075 89.2648 107.683C89.224 107.545 89.1519 107.488 89.061 107.488C88.9638 107.488 88.9074 107.57 88.8572 107.723C88.7255 108.15 88.6377 108.41 88.4496 108.956L87.2174 112.602C87.1202 112.903 86.9477 113.035 86.7533 113.035C86.5715 113.035 86.5401 113.003 86.4178 113.003C86.3206 113.003 86.2548 113.051 86.2548 113.182C86.2548 113.311 86.3206 113.361 86.4178 113.361ZM88.3022 111.038C88.1392 111.038 88.1141 110.997 88.1643 110.84L88.6847 109.282C88.7098 109.21 88.7443 109.159 88.7914 109.159C88.8572 109.159 88.898 109.21 88.923 109.291L89.4592 110.84C89.5188 110.997 89.4843 111.038 89.3212 111.038H88.3022Z" fill="#F4F4F4"/>
<path d="M93.1297 113.361C93.3335 113.361 93.4558 113.32 94.0264 113.32H94.6378C94.9639 113.32 95.2273 113.361 95.5941 113.361C96.8671 113.361 98.0648 112.138 98.0648 110.464C98.0648 108.793 96.8577 107.57 95.5941 107.57C95.2273 107.57 94.9639 107.611 94.6378 107.611H94.0264C93.4558 107.611 93.3335 107.57 93.1297 107.57C93.0325 107.57 92.9666 107.617 92.9666 107.749C92.9666 107.88 93.0325 107.927 93.1297 107.927C93.252 107.927 93.368 107.896 93.6031 107.896C93.8163 107.896 93.9449 108.028 93.9449 108.231V112.699C93.9449 112.903 93.8163 113.035 93.6031 113.035C93.368 113.035 93.252 113.004 93.1297 113.004C93.0325 113.004 92.9666 113.051 92.9666 113.182C92.9666 113.311 93.0325 113.361 93.1297 113.361ZM95.268 113.076C94.942 113.076 94.7601 112.897 94.7601 112.571V108.36C94.7601 108.034 94.942 107.855 95.268 107.855H95.5784C96.7197 107.855 97.0866 109.078 97.0866 110.464C97.0866 111.853 96.7197 113.076 95.5784 113.076H95.268Z" fill="#F4F4F4"/>
<path d="M99.4503 113.361C99.6541 113.361 99.8924 113.32 100.347 113.32H100.454C100.789 113.32 101.074 113.361 101.228 113.361C101.325 113.361 101.391 113.311 101.391 113.182C101.391 113.051 101.325 113.003 101.228 113.003C101.106 113.003 100.993 113.035 100.861 113.035C100.632 113.035 100.545 112.944 100.545 112.815C100.545 112.765 100.56 112.709 100.585 112.634L100.958 111.549C101.018 111.395 101.121 111.323 101.285 111.323H102.41C102.573 111.323 102.68 111.395 102.736 111.549L103.112 112.627C103.203 112.897 103.065 113.035 102.843 113.035C102.714 113.035 102.573 113.003 102.451 113.003C102.354 113.003 102.288 113.051 102.288 113.182C102.288 113.311 102.354 113.361 102.451 113.361C102.655 113.361 102.78 113.32 103.276 113.32H103.881C104.335 113.32 104.492 113.361 104.696 113.361C104.793 113.361 104.859 113.311 104.859 113.182C104.859 113.051 104.793 113.003 104.696 113.003C104.574 113.003 104.498 113.035 104.395 113.035C104.182 113.035 104.069 112.887 104.003 112.709L102.674 108.849C102.542 108.457 102.41 108.075 102.297 107.683C102.257 107.545 102.184 107.488 102.093 107.488C101.996 107.488 101.94 107.57 101.89 107.723C101.758 108.15 101.67 108.41 101.482 108.956L100.25 112.602C100.153 112.903 99.9802 113.035 99.7858 113.035C99.604 113.035 99.5726 113.003 99.4503 113.003C99.3531 113.003 99.2873 113.051 99.2873 113.182C99.2873 113.311 99.3531 113.361 99.4503 113.361ZM101.335 111.038C101.172 111.038 101.147 110.997 101.197 110.84L101.717 109.282C101.742 109.21 101.777 109.159 101.824 109.159C101.89 109.159 101.93 109.21 101.956 109.291L102.492 110.84C102.551 110.997 102.517 111.038 102.354 111.038H101.335Z" fill="#F4F4F4"/>
<path d="M109.71 113.361C109.914 113.361 110.036 113.32 110.607 113.32H111.259C111.833 113.32 111.955 113.361 112.159 113.361C112.256 113.361 112.322 113.311 112.322 113.182C112.322 113.051 112.256 113.004 112.159 113.004C112.036 113.004 111.92 113.035 111.685 113.035C111.472 113.035 111.34 112.903 111.34 112.699V108.231C111.34 108.028 111.472 107.896 111.685 107.896C111.92 107.896 112.036 107.927 112.159 107.927C112.256 107.927 112.322 107.88 112.322 107.749C112.322 107.617 112.256 107.57 112.159 107.57C111.955 107.57 111.833 107.611 111.259 107.611H110.607C110.036 107.611 109.914 107.57 109.71 107.57C109.613 107.57 109.547 107.617 109.547 107.749C109.547 107.88 109.613 107.927 109.71 107.927C109.832 107.927 109.948 107.896 110.183 107.896C110.397 107.896 110.525 108.028 110.525 108.231V112.699C110.525 112.903 110.397 113.035 110.183 113.035C109.948 113.035 109.832 113.004 109.71 113.004C109.613 113.004 109.547 113.051 109.547 113.182C109.547 113.311 109.613 113.361 109.71 113.361Z" fill="#F4F4F4"/>
<path d="M116.073 113.442C117.14 113.442 117.751 112.75 117.751 111.828C117.751 111.094 117.368 110.498 116.39 110.097L115.892 109.893C114.954 109.511 114.521 109.307 114.521 108.67C114.521 108.172 114.938 107.774 115.591 107.774C116.422 107.774 116.839 108.354 117.118 109.031C117.246 109.357 117.262 109.567 117.384 109.567C117.466 109.567 117.5 109.501 117.5 109.429C117.475 108.67 117.5 108.278 117.5 107.683C117.5 107.57 117.484 107.529 117.394 107.529C117.328 107.529 117.303 107.56 117.262 107.626C117.174 107.764 117.058 108.002 116.955 108.002C116.788 108.002 116.522 107.488 115.622 107.488C114.678 107.488 114.042 108.15 114.032 108.949C114.026 109.862 114.644 110.382 115.453 110.718L116.299 111.069C116.936 111.329 117.221 111.63 117.221 112.144C117.221 112.756 116.798 113.157 116.114 113.157C115.117 113.157 114.612 112.367 114.358 111.216C114.318 111.028 114.302 110.947 114.189 110.947C114.114 110.947 114.073 111.003 114.073 111.085C114.098 111.828 114.089 112.414 114.073 113.248C114.073 113.361 114.098 113.402 114.18 113.402C114.358 113.402 114.384 112.797 114.572 112.797C114.659 112.797 114.75 112.922 114.929 113.06C115.183 113.239 115.519 113.442 116.073 113.442Z" fill="#F4F4F4"/>
<path d="M120.393 113.361C120.597 113.361 120.719 113.32 121.29 113.32H121.945C122.516 113.32 122.638 113.361 122.842 113.361C122.939 113.361 123.005 113.311 123.005 113.182C123.005 113.051 122.939 113.004 122.842 113.004C122.72 113.004 122.604 113.035 122.369 113.035C122.155 113.035 122.027 112.903 122.027 112.699V108.14C122.027 107.977 122.108 107.896 122.271 107.896H122.638C123.403 107.896 123.591 108.727 123.861 109.617C123.886 109.699 123.892 109.771 123.999 109.771C124.081 109.771 124.106 109.699 124.106 109.649C124.09 109.031 124.074 108.517 124.081 107.855C124.081 107.626 123.974 107.57 123.795 107.57C123.485 107.57 122.883 107.611 122.516 107.611H120.719C120.353 107.611 119.751 107.57 119.44 107.57C119.261 107.57 119.155 107.626 119.155 107.855C119.161 108.517 119.145 109.031 119.13 109.649C119.13 109.699 119.155 109.771 119.236 109.771C119.343 109.771 119.349 109.699 119.374 109.617C119.644 108.727 119.832 107.896 120.597 107.896H120.964C121.127 107.896 121.209 107.977 121.209 108.14V112.699C121.209 112.903 121.08 113.035 120.867 113.035C120.632 113.035 120.516 113.004 120.393 113.004C120.296 113.004 120.23 113.051 120.23 113.182C120.23 113.311 120.296 113.361 120.393 113.361Z" fill="#F4F4F4"/>
<path d="M125.532 113.361C125.735 113.361 125.858 113.32 126.428 113.32H128.796C129.162 113.32 129.764 113.361 130.075 113.361C130.254 113.361 130.36 113.305 130.36 113.076C130.354 112.414 130.37 111.9 130.385 111.282C130.385 111.232 130.376 111.16 130.279 111.16C130.172 111.16 130.166 111.232 130.141 111.314C129.871 112.204 129.683 113.035 128.918 113.035H127.407C127.244 113.035 127.162 112.953 127.162 112.79V110.708C127.162 110.545 127.244 110.464 127.407 110.464H127.742C128.369 110.464 128.492 110.661 128.598 111.517C128.617 111.649 128.633 111.771 128.761 111.771C128.843 111.771 128.883 111.712 128.883 111.63C128.861 110.693 128.861 110 128.883 109.062C128.883 108.981 128.843 108.915 128.761 108.915C128.633 108.915 128.617 109.037 128.598 109.169C128.492 110.025 128.369 110.219 127.742 110.219H127.407C127.244 110.219 127.162 110.138 127.162 109.975V108.14C127.162 107.977 127.244 107.896 127.407 107.896H128.959C129.57 107.896 129.724 108.394 130.018 109.373C130.044 109.454 130.059 109.526 130.156 109.526C130.254 109.526 130.263 109.454 130.263 109.404C130.247 108.89 130.232 108.416 130.238 107.855C130.238 107.626 130.131 107.57 129.953 107.57C129.642 107.57 129.203 107.611 128.836 107.611H126.428C125.858 107.611 125.735 107.57 125.532 107.57C125.434 107.57 125.369 107.617 125.369 107.749C125.369 107.88 125.434 107.927 125.532 107.927C125.654 107.927 125.77 107.896 126.005 107.896C126.218 107.896 126.347 108.028 126.347 108.231V112.699C126.347 112.903 126.218 113.035 126.005 113.035C125.77 113.035 125.654 113.004 125.532 113.004C125.434 113.004 125.369 113.051 125.369 113.182C125.369 113.311 125.434 113.361 125.532 113.361Z" fill="#F4F4F4"/>
<path d="M132.26 113.361C132.464 113.361 132.586 113.32 133.157 113.32H134.953C136.258 113.32 136.91 112.571 136.91 111.752C136.91 110.978 136.264 110.458 135.612 110.32C135.612 110.32 135.59 110.31 135.59 110.295C135.59 110.279 135.612 110.269 135.612 110.269C136.16 110.091 136.706 109.746 136.706 109.037C136.706 107.977 135.637 107.611 134.586 107.611H133.157C132.586 107.611 132.464 107.57 132.26 107.57C132.163 107.57 132.097 107.617 132.097 107.749C132.097 107.88 132.163 107.927 132.26 107.927C132.382 107.927 132.498 107.896 132.733 107.896C132.947 107.896 133.075 108.028 133.075 108.231V112.699C133.075 112.903 132.947 113.035 132.733 113.035C132.498 113.035 132.382 113.004 132.26 113.004C132.163 113.004 132.097 113.051 132.097 113.182C132.097 113.311 132.163 113.361 132.26 113.361ZM134.094 110.178C133.931 110.178 133.89 110.138 133.89 109.975V108.15C133.89 107.993 133.991 107.896 134.144 107.896H134.674C135.377 107.896 135.809 108.263 135.809 109.037C135.809 109.812 135.377 110.178 134.674 110.178H134.094ZM134.144 113.035C133.991 113.035 133.89 112.938 133.89 112.781V110.627C133.89 110.464 133.931 110.423 134.094 110.423H134.749C135.442 110.423 135.972 110.834 135.972 111.771C135.972 112.709 135.442 113.035 134.749 113.035H134.144Z" fill="#F4F4F4"/>
<path d="M142.838 113.402C142.936 113.402 142.945 113.279 142.945 113.198V108.231C142.945 108.028 143.077 107.896 143.287 107.896C143.525 107.896 143.638 107.927 143.76 107.927C143.857 107.927 143.923 107.88 143.923 107.749C143.923 107.617 143.857 107.57 143.76 107.57C143.556 107.57 143.434 107.611 142.863 107.611H142.7C142.13 107.611 142.007 107.57 141.804 107.57C141.706 107.57 141.641 107.617 141.641 107.749C141.641 107.88 141.706 107.927 141.804 107.927C141.926 107.927 142.039 107.896 142.277 107.896C142.487 107.896 142.619 108.028 142.619 108.231V111.395C142.619 111.517 142.594 111.567 142.537 111.567C142.472 111.567 142.431 111.492 142.399 111.445L140.026 107.855C139.904 107.667 139.7 107.611 139.487 107.611H139.045C138.875 107.611 138.54 107.586 138.443 107.586C138.336 107.586 138.295 107.676 138.295 107.758C138.295 107.855 138.386 107.905 138.499 107.921C138.784 107.968 139.176 108.1 139.314 108.416C139.349 108.492 139.355 108.564 139.355 108.639V112.699C139.355 112.903 139.226 113.035 139.013 113.035C138.778 113.035 138.662 113.004 138.54 113.004C138.443 113.004 138.377 113.051 138.377 113.182C138.377 113.311 138.443 113.361 138.54 113.361C138.744 113.361 138.866 113.32 139.436 113.32H139.599C140.17 113.32 140.292 113.361 140.496 113.361C140.597 113.361 140.662 113.311 140.662 113.182C140.662 113.051 140.597 113.004 140.496 113.004C140.374 113.004 140.261 113.035 140.026 113.035C139.813 113.035 139.681 112.903 139.681 112.699V109.21C139.681 109.087 139.706 109.037 139.763 109.037C139.828 109.037 139.869 109.112 139.904 109.159L142.578 113.207C142.7 113.392 142.757 113.402 142.838 113.402Z" fill="#F4F4F4"/>
<path d="M145.064 113.361C145.268 113.361 145.506 113.32 145.961 113.32H146.068C146.403 113.32 146.688 113.361 146.842 113.361C146.939 113.361 147.005 113.311 147.005 113.182C147.005 113.051 146.939 113.003 146.842 113.003C146.72 113.003 146.607 113.035 146.475 113.035C146.246 113.035 146.158 112.944 146.158 112.815C146.158 112.765 146.174 112.709 146.199 112.634L146.572 111.549C146.632 111.395 146.735 111.323 146.898 111.323H148.024C148.187 111.323 148.294 111.395 148.35 111.549L148.726 112.627C148.817 112.897 148.679 113.035 148.457 113.035C148.328 113.035 148.187 113.003 148.065 113.003C147.968 113.003 147.902 113.051 147.902 113.182C147.902 113.311 147.968 113.361 148.065 113.361C148.269 113.361 148.394 113.32 148.889 113.32H149.495C149.949 113.32 150.106 113.361 150.31 113.361C150.407 113.361 150.473 113.311 150.473 113.182C150.473 113.051 150.407 113.003 150.31 113.003C150.187 113.003 150.112 113.035 150.009 113.035C149.796 113.035 149.683 112.887 149.617 112.709L148.287 108.849C148.156 108.457 148.024 108.075 147.911 107.683C147.87 107.545 147.798 107.488 147.707 107.488C147.61 107.488 147.554 107.57 147.504 107.723C147.372 108.15 147.284 108.41 147.096 108.956L145.864 112.602C145.767 112.903 145.594 113.035 145.4 113.035C145.218 113.035 145.186 113.003 145.064 113.003C144.967 113.003 144.901 113.051 144.901 113.182C144.901 113.311 144.967 113.361 145.064 113.361ZM146.949 111.038C146.786 111.038 146.76 110.997 146.811 110.84L147.331 109.282C147.356 109.21 147.391 109.159 147.438 109.159C147.504 109.159 147.544 109.21 147.569 109.291L148.106 110.84C148.165 110.997 148.131 111.038 147.968 111.038H146.949Z" fill="#F4F4F4"/>
</g>
<defs>
<clipPath id="clip0_14_4151">
<rect width="217" height="114" fill="white" transform="translate(0.5)"/>
</clipPath>
</defs>
</svg>
