<svg width="32" height="32" viewBox="0 0 32 32" fill="none" xmlns="http://www.w3.org/2000/svg">
<path fill-rule="evenodd" clip-rule="evenodd" d="M18.9599 2.95952C19.8802 2.03917 21.1795 1.66663 22.667 1.66663H25.3337C26.8211 1.66663 28.1204 2.03917 29.0408 2.95952C29.9611 3.87987 30.3337 5.17915 30.3337 6.66663V9.33329C30.3337 10.8208 29.9611 12.1201 29.0408 13.0404C28.1204 13.9607 26.8211 14.3333 25.3337 14.3333H22.667C21.1795 14.3333 19.8802 13.9607 18.9599 13.0404C18.0395 12.1201 17.667 10.8208 17.667 9.33329V6.66663C17.667 5.17915 18.0395 3.87987 18.9599 2.95952ZM20.3741 4.37373C19.9611 4.78672 19.667 5.48744 19.667 6.66663V9.33329C19.667 10.5125 19.9611 11.2132 20.3741 11.6262C20.7871 12.0392 21.4878 12.3333 22.667 12.3333H25.3337C26.5128 12.3333 27.2136 12.0392 27.6266 11.6262C28.0395 11.2132 28.3337 10.5125 28.3337 9.33329V6.66663C28.3337 5.48744 28.0395 4.78672 27.6266 4.37373C27.2136 3.96075 26.5128 3.66663 25.3337 3.66663H22.667C21.4878 3.66663 20.7871 3.96075 20.3741 4.37373Z" fill="#A4A4A4"/>
<path fill-rule="evenodd" clip-rule="evenodd" d="M2.95989 18.9595C3.88023 18.0392 5.17951 17.6666 6.66699 17.6666H9.33366C10.8211 17.6666 12.1204 18.0392 13.0408 18.9595C13.9611 19.8799 14.3337 21.1791 14.3337 22.6666V25.3333C14.3337 26.8208 13.9611 28.1201 13.0408 29.0404C12.1204 29.9607 10.8211 30.3333 9.33366 30.3333H6.66699C5.17951 30.3333 3.88023 29.9607 2.95989 29.0404C2.03954 28.1201 1.66699 26.8208 1.66699 25.3333V22.6666C1.66699 21.1791 2.03954 19.8799 2.95989 18.9595ZM4.3741 20.3737C3.96111 20.7867 3.66699 21.4874 3.66699 22.6666V25.3333C3.66699 26.5125 3.96111 27.2132 4.3741 27.6262C4.78709 28.0392 5.4878 28.3333 6.66699 28.3333H9.33366C10.5128 28.3333 11.2136 28.0392 11.6266 27.6262C12.0395 27.2132 12.3337 26.5125 12.3337 25.3333V22.6666C12.3337 21.4874 12.0395 20.7867 11.6266 20.3737C11.2136 19.9607 10.5128 19.6666 9.33366 19.6666H6.66699C5.4878 19.6666 4.78709 19.9607 4.3741 20.3737Z" fill="#A4A4A4"/>
<path fill-rule="evenodd" clip-rule="evenodd" d="M8.00033 3.66663C5.60709 3.66663 3.66699 5.60673 3.66699 7.99996C3.66699 10.3932 5.60709 12.3333 8.00033 12.3333C10.3936 12.3333 12.3337 10.3932 12.3337 7.99996C12.3337 5.60673 10.3936 3.66663 8.00033 3.66663ZM1.66699 7.99996C1.66699 4.50216 4.50252 1.66663 8.00033 1.66663C11.4981 1.66663 14.3337 4.50216 14.3337 7.99996C14.3337 11.4978 11.4981 14.3333 8.00033 14.3333C4.50252 14.3333 1.66699 11.4978 1.66699 7.99996Z" fill="#A4A4A4"/>
<path fill-rule="evenodd" clip-rule="evenodd" d="M24.0003 19.6666C21.6071 19.6666 19.667 21.6067 19.667 24C19.667 26.3932 21.6071 28.3333 24.0003 28.3333C26.3936 28.3333 28.3337 26.3932 28.3337 24C28.3337 21.6067 26.3936 19.6666 24.0003 19.6666ZM17.667 24C17.667 20.5022 20.5025 17.6666 24.0003 17.6666C27.4981 17.6666 30.3337 20.5022 30.3337 24C30.3337 27.4978 27.4981 30.3333 24.0003 30.3333C20.5025 30.3333 17.667 27.4978 17.667 24Z" fill="#A4A4A4"/>
</svg>
