<svg width="32" height="34" viewBox="0 0 32 34" fill="none" xmlns="http://www.w3.org/2000/svg">
<g id="Instagram">
<path id="Vector" d="M12.6676 16.588C12.6676 14.6794 14.1595 13.1319 16.0004 13.1319C17.8412 13.1319 19.334 14.6794 19.334 16.588C19.334 18.4965 17.8412 20.0441 16.0004 20.0441C14.1595 20.0441 12.6676 18.4965 12.6676 16.588ZM10.8655 16.588C10.8655 19.5282 13.1644 21.9116 16.0004 21.9116C18.8364 21.9116 21.1352 19.5282 21.1352 16.588C21.1352 13.6477 18.8364 11.2644 16.0004 11.2644C13.1644 11.2644 10.8655 13.6477 10.8655 16.588ZM20.1385 11.0533C20.1384 11.2994 20.2087 11.5399 20.3405 11.7446C20.4723 11.9492 20.6596 12.1087 20.8789 12.203C21.0981 12.2973 21.3394 12.322 21.5722 12.2741C21.805 12.2262 22.0188 12.1078 22.1867 11.9339C22.3546 11.7599 22.469 11.5383 22.5154 11.297C22.5618 11.0557 22.5381 10.8055 22.4474 10.5782C22.3566 10.3508 22.2029 10.1564 22.0056 10.0196C21.8083 9.88285 21.5763 9.80979 21.339 9.80969H21.3385C21.0204 9.80984 20.7153 9.9409 20.4903 10.1741C20.2653 10.4072 20.1388 10.7235 20.1385 11.0533ZM11.9604 25.0269C10.9854 24.9808 10.4555 24.8125 10.1033 24.6702C9.63645 24.4818 9.30333 24.2574 8.95309 23.8947C8.60285 23.5321 8.38605 23.1871 8.20509 22.7031C8.06781 22.3381 7.90541 21.7886 7.86109 20.7778C7.81261 19.6849 7.80293 19.3567 7.80293 16.5881C7.80293 13.8194 7.81341 13.4921 7.86109 12.3983C7.90549 11.3875 8.06909 10.8391 8.20509 10.473C8.38685 9.98901 8.60333 9.64364 8.95309 9.28053C9.30285 8.91742 9.63565 8.69265 10.1033 8.50504C10.4553 8.36272 10.9854 8.19435 11.9604 8.1484C13.0144 8.09814 13.3311 8.0881 16.0004 8.0881C18.6696 8.0881 18.9866 8.09897 20.0416 8.1484C21.0165 8.19443 21.5456 8.36405 21.8986 8.50504C22.3655 8.69265 22.6986 8.91792 23.0488 9.28053C23.3991 9.64315 23.6151 9.98901 23.7968 10.473C23.9341 10.838 24.0965 11.3875 24.1408 12.3983C24.1893 13.4921 24.199 13.8194 24.199 16.5881C24.199 19.3567 24.1893 19.684 24.1408 20.7778C24.0964 21.7886 23.9332 22.338 23.7968 22.7031C23.6151 23.1871 23.3986 23.5325 23.0488 23.8947C22.6991 24.257 22.3655 24.4818 21.8986 24.6702C21.5466 24.8126 21.0165 24.9809 20.0416 25.0269C18.9875 25.0771 18.6708 25.0872 16.0004 25.0872C13.3299 25.0872 13.0141 25.0771 11.9604 25.0269ZM11.8776 6.28324C10.813 6.33351 10.0856 6.50851 9.45029 6.76479C8.79237 7.02946 8.23541 7.38452 7.67885 7.96062C7.12229 8.53673 6.78069 9.11507 6.52541 9.79717C6.27821 10.4562 6.10941 11.21 6.06093 12.3137C6.01165 13.4191 6.00037 13.7725 6.00037 16.588C6.00037 19.4035 6.01165 19.7569 6.06093 20.8623C6.10941 21.9661 6.27821 22.7197 6.52541 23.3788C6.78069 24.0605 7.12237 24.6395 7.67885 25.2153C8.23533 25.7912 8.79237 26.1457 9.45029 26.4111C10.0868 26.6674 10.813 26.8424 11.8776 26.8927C12.9444 26.943 13.2847 26.9555 16.0004 26.9555C18.716 26.9555 19.0569 26.9438 20.1232 26.8927C21.1878 26.8424 21.9148 26.6674 22.5504 26.4111C23.208 26.1457 23.7653 25.7914 24.3219 25.2153C24.8784 24.6392 25.2193 24.0605 25.4753 23.3788C25.7225 22.7197 25.8921 21.966 25.9398 20.8623C25.9883 19.756 25.9996 19.4035 25.9996 16.588C25.9996 13.7725 25.9883 13.4191 25.9398 12.3137C25.8913 11.2099 25.7225 10.4558 25.4753 9.79717C25.2193 9.11548 24.8776 8.53764 24.3219 7.96062C23.7662 7.38361 23.208 7.02946 22.5512 6.76479C21.9148 6.50851 21.1877 6.33268 20.124 6.28324C19.0577 6.23298 18.7168 6.22046 16.0012 6.22046C13.2855 6.22046 12.9444 6.23215 11.8776 6.28324Z" fill="#121212" fill-opacity="0.6"/>
</g>
</svg>
