<svg width="32" height="34" viewBox="0 0 32 34" fill="none" xmlns="http://www.w3.org/2000/svg">
<g id="Twitter">
<path id="Path" d="M23.8415 13.0025C23.8415 13.1839 23.8415 13.3654 23.8415 13.5209C23.8415 18.8861 19.8915 25.0807 12.6915 25.0807C10.4665 25.0807 8.41653 24.4068 6.66653 23.2663C6.96653 23.2923 7.29153 23.3182 7.59153 23.3182C9.41653 23.3182 11.1165 22.6702 12.4665 21.5816C10.7415 21.5557 9.29153 20.3634 8.81653 18.7565C9.06653 18.8083 9.29153 18.8342 9.56653 18.8342C9.91653 18.8342 10.2665 18.7824 10.5915 18.6787C8.79153 18.3159 7.44153 16.683 7.44153 14.7132C7.44153 14.6872 7.44153 14.6872 7.44153 14.6613C7.96653 14.9723 8.56653 15.1538 9.21653 15.1797C8.16653 14.454 7.46653 13.2099 7.46653 11.7843C7.46653 11.0327 7.66653 10.3329 7.99153 9.73675C9.91653 12.199 12.8165 13.806 16.0665 13.9874C15.9915 13.7023 15.9665 13.3654 15.9665 13.0544C15.9665 10.7994 17.7165 8.98511 19.8915 8.98511C21.0165 8.98511 22.0415 9.47756 22.7415 10.2551C23.6415 10.0737 24.4665 9.73675 25.2415 9.27021C24.9415 10.2292 24.3165 11.0068 23.5165 11.5251C24.3165 11.4215 25.0665 11.2141 25.7665 10.8772C25.2665 11.7066 24.6165 12.4323 23.8415 13.0025Z" fill="#121212" fill-opacity="0.6"/>
</g>
</svg>
