<svg width="32" height="32" viewBox="0 0 32 32" fill="none" xmlns="http://www.w3.org/2000/svg">
<g clip-path="url(#clip0_14_4364)">
<path fill-rule="evenodd" clip-rule="evenodd" d="M32 6.14422C32 2.75333 29.3064 0.000366211 25.9901 0.000366211H6.00987C2.69362 0.000366211 9.53674e-07 2.75333 9.53674e-07 6.14422V25.8562C9.53674e-07 29.2462 2.69362 32.0001 6.00989 32.0001H25.9901C29.3064 32.0001 32 29.2462 32 25.8562L32 6.14422Z" fill="#D8AE5E"/>
<path fill-rule="evenodd" clip-rule="evenodd" d="M0.0010891 19.88H15.9832V31.9999H0.00110081L0.0010891 19.88Z" fill="#D8AE5E"/>
<path d="M14.5433 21.181L11.966 21.1784V18.0273C11.966 17.354 12.2214 17.0036 12.7849 16.9235H14.5433C15.7974 16.9235 16.6086 17.732 16.6086 19.0405C16.6086 20.3844 15.8179 21.1797 14.5433 21.181ZM11.966 12.6818V11.8523C11.966 11.1266 12.2663 10.7814 12.9248 10.7368H14.2443C15.3751 10.7368 16.0528 11.4284 16.0528 12.5873C16.0528 13.4692 15.5881 14.4995 14.2853 14.4995H11.966V12.6818ZM17.8343 15.8264L17.3684 15.5586L17.7753 15.2029C18.2489 14.7869 19.0422 13.8511 19.0422 12.2369C19.0422 9.76425 17.1669 8.16965 14.2648 8.16965H10.9532V8.16833H10.5759C9.71588 8.20115 9.02661 8.91643 9.01763 9.80101V23.8308H14.3302C17.5558 23.8308 19.6377 22.0354 19.6377 19.2544C19.6377 17.7569 18.9652 16.4773 17.8343 15.8264Z" fill="white"/>
<path d="M21.0214 21.8928C21.0214 20.8211 21.8667 19.954 22.9083 19.954C23.9525 19.954 24.8019 20.8211 24.8019 21.8928C24.8019 22.9632 23.9525 23.8317 22.9083 23.8317C21.8667 23.8317 21.0214 22.9632 21.0214 21.8928Z" fill="#F4F4F4"/>
</g>
<defs>
<clipPath id="clip0_14_4364">
<rect width="32" height="32" fill="white"/>
</clipPath>
</defs>
</svg>
