<svg width="25" height="24" viewBox="0 0 25 24" fill="none" xmlns="http://www.w3.org/2000/svg">
<path d="M22.04 15H17.5C16.9696 15 16.4609 15.2107 16.0858 15.5858C15.7107 15.9609 15.5 16.4696 15.5 17V21.54" stroke="#D8AE5E" stroke-width="2" stroke-linecap="round" stroke-linejoin="round"/>
<path d="M7.5 3.33997V4.99997C7.5 5.79562 7.81607 6.55868 8.37868 7.12129C8.94129 7.6839 9.70435 7.99997 10.5 7.99997C11.0304 7.99997 11.5391 8.21068 11.9142 8.58575C12.2893 8.96083 12.5 9.46953 12.5 9.99997C12.5 11.1 13.4 12 14.5 12C15.0304 12 15.5391 11.7893 15.9142 11.4142C16.2893 11.0391 16.5 10.5304 16.5 9.99997C16.5 8.89997 17.4 7.99997 18.5 7.99997H21.67" stroke="#D8AE5E" stroke-width="2" stroke-linecap="round" stroke-linejoin="round"/>
<path d="M11.5 21.95V18C11.5 17.4696 11.2893 16.9609 10.9142 16.5858C10.5391 16.2107 10.0304 16 9.5 16C8.96957 16 8.46086 15.7893 8.08579 15.4142C7.71072 15.0391 7.5 14.5304 7.5 14V13C7.5 12.4696 7.28929 11.9609 6.91422 11.5858C6.53914 11.2107 6.03044 11 5.5 11H2.55" stroke="#D8AE5E" stroke-width="2" stroke-linecap="round" stroke-linejoin="round"/>
<path d="M12.5 22C18.0228 22 22.5 17.5228 22.5 12C22.5 6.47715 18.0228 2 12.5 2C6.97715 2 2.5 6.47715 2.5 12C2.5 17.5228 6.97715 22 12.5 22Z" stroke="#D8AE5E" stroke-width="2" stroke-linecap="round" stroke-linejoin="round"/>
</svg>
