<svg width="56" height="56" viewBox="0 0 56 56" fill="none" xmlns="http://www.w3.org/2000/svg">
<g id="fluent:inprivate-account-28-regular">
<g id="Group">
<path id="Vector" d="M42 32C44.612 32 46.836 33.67 47.66 36H28V35H14C13.2545 35 12.5358 35.2775 11.9838 35.7785C11.4318 36.2795 11.0861 36.968 11.014 37.71L11 38V39.43C11 44.778 17.778 49 28 49V48H42.942C39.362 50.486 34.122 52 28 52C16.42 52 8 46.866 8 39.43V38C8 36.4087 8.63214 34.8826 9.75736 33.7574C10.8826 32.6321 12.4087 32 14 32H42ZM48 38V39.43C48 39.964 47.954 40.488 47.86 41H28V38H48ZM47.258 43H28V46H45.268C46.122 45.078 46.794 44.072 47.258 43ZM39.908 14.5C40.0321 15.4961 40.0321 16.5038 39.908 17.5H28V14.5H39.908ZM39.482 12.5C39.1587 11.4402 38.6895 10.4305 38.088 9.5H28V12.5H39.48H39.482ZM28 4C31.306 4 34.3 5.338 36.47 7.5H28V7C25.6131 7 23.3239 7.94821 21.636 9.63604C19.9482 11.3239 19 13.613 19 16C19 18.3869 19.9482 20.6761 21.636 22.364C23.3239 24.0518 25.6131 25 28 25V24.5H36.47C35.0728 25.8924 33.3539 26.9189 31.4654 27.4886C29.5769 28.0583 27.5771 28.1537 25.6429 27.7663C23.7088 27.379 21.9 26.5208 20.3765 25.2677C18.8531 24.0147 17.6621 22.4054 16.9088 20.5823C16.1556 18.7593 15.8634 16.7786 16.058 14.8157C16.2527 12.8528 16.9283 10.9681 18.0249 9.32849C19.1216 7.68889 20.6055 6.3449 22.3454 5.4155C24.0853 4.48609 26.0274 3.99991 28 4ZM38.088 22.5H28V19.5H39.48C39.156 20.572 38.684 21.58 38.088 22.5Z" fill="#23B123"/>
</g>
</g>
</svg>
