<svg width="56" height="56" viewBox="0 0 56 56" fill="none" xmlns="http://www.w3.org/2000/svg">
<g id="carbon:currency-dollar">
<path id="Vector" d="M40.2502 35.9012C40.2502 27.825 33.6352 26.9045 28.3204 26.166C22.5279 25.361 19.2502 24.661 19.2502 19.6735C19.2502 15.4875 23.6374 14 27.3947 14C29.2671 13.9395 31.1271 14.325 32.8212 15.1246C34.5154 15.9242 35.9952 17.1151 37.1387 18.599L39.8617 16.401C38.6371 14.8263 37.1134 13.5092 35.3781 12.5253C33.6428 11.5414 31.7302 10.9102 29.7502 10.668V5.25H26.2502V10.5385C19.9239 10.9235 15.7502 14.4935 15.7502 19.6735C15.7502 27.951 22.4527 28.8837 27.8374 29.631C33.5302 30.4237 36.7502 31.1045 36.7502 35.9012C36.7502 41.2072 31.2674 42 28.0002 42C21.9977 42 19.4637 40.313 17.1117 37.401L14.3887 39.599C15.776 41.4272 17.5704 42.9068 19.6293 43.9205C21.6883 44.9342 23.9552 45.4541 26.2502 45.4388V50.75H29.7502V45.4212C36.2707 44.8893 40.2502 41.349 40.2502 35.9012Z" fill="#23B123"/>
</g>
</svg>
