<svg width="178" height="225" viewBox="0 0 178 225" fill="none" xmlns="http://www.w3.org/2000/svg">
<g opacity="0.502697">
<path fill-rule="evenodd" clip-rule="evenodd" d="M132.072 99.0577L46.4026 50.3367L49.8865 44.2263L135.556 92.9473L132.072 99.0577Z" stroke="#010202"/>
<path d="M35.3845 1.8859L151.957 223.714" stroke="#010202"/>
<path fill-rule="evenodd" clip-rule="evenodd" d="M49.5858 114.175C25.294 113.327 6.28894 92.9734 7.1361 68.714C7.98326 44.4546 28.3617 25.4769 52.6536 26.3251C76.9455 27.1734 95.9505 47.5265 95.1033 71.7859C94.2562 96.0453 73.8777 115.023 49.5858 114.175Z" fill="#010202"/>
<path d="M85.6367 97.52L48.2527 26.3768" stroke="#FEFEFE"/>
<path fill-rule="evenodd" clip-rule="evenodd" d="M100.885 154.503L13.8083 200.654L10.507 194.441L97.5837 148.292L100.885 154.503Z" stroke="#010202"/>
<path fill-rule="evenodd" clip-rule="evenodd" d="M74.9731 143.781C69.9825 143.606 66.0771 139.424 66.2511 134.44C66.4252 129.456 70.6128 125.556 75.6035 125.731C80.5941 125.905 84.4995 130.087 84.3255 135.071C84.1514 140.055 79.9638 143.955 74.9731 143.781Z" stroke="#010202"/>
</g>
</svg>
