<!-- Generated by IcoMoon.io -->
<svg version="1.1" xmlns="http://www.w3.org/2000/svg" width="24" height="24" viewBox="0 0 24 24">
<title>qr_code_2</title>
<path d="M15 21h-2.016v-2.016h2.016v2.016zM12.984 14.016h-1.969v4.969h1.969v-4.969zM21 12h-2.016v3.984h2.016v-3.984zM18.984 9.984h-1.969v2.016h1.969v-2.016zM6.984 12h-1.969v2.016h1.969v-2.016zM5.016 9.984h-2.016v2.016h2.016v-2.016zM12 5.016h2.016v-2.016h-2.016v2.016zM4.5 4.5v3h3v-3h-3zM9 9h-6v-6h6v6zM4.5 16.5v3h3v-3h-3zM9 21h-6v-6h6v6zM16.5 4.5v3h3v-3h-3zM21 9h-6v-6h6v6zM18.984 18.984v-3h-3.984v2.016h2.016v3h3.984v-2.016h-2.016zM17.016 12h-4.031v2.016h4.031v-2.016zM12.984 9.984h-6v2.016h2.016v2.016h2.016v-2.016h1.969v-2.016zM14.016 9v-2.016h-2.016v-1.969h-2.016v3.984h4.031zM6.75 5.25h-1.5v1.5h1.5v-1.5zM6.75 17.25h-1.5v1.5h1.5v-1.5zM18.75 5.25h-1.5v1.5h1.5v-1.5z"></path>
</svg>
