<svg width="41" height="40" viewBox="0 0 41 40" fill="none" xmlns="http://www.w3.org/2000/svg">
<path d="M28.8333 3.3335H12.1667C7.56429 3.3335 3.83333 7.06446 3.83333 11.6668V28.3335C3.83333 32.9359 7.56429 36.6668 12.1667 36.6668H28.8333C33.4357 36.6668 37.1667 32.9359 37.1667 28.3335V11.6668C37.1667 7.06446 33.4357 3.3335 28.8333 3.3335Z" stroke="black" stroke-width="4" stroke-linecap="round" stroke-linejoin="round"/>
<path d="M27.1667 18.95C27.3724 20.3371 27.1354 21.7537 26.4896 22.9984C25.8438 24.243 24.8219 25.2524 23.5694 25.8828C22.3168 26.5132 20.8974 26.7327 19.513 26.5099C18.1285 26.2871 16.8496 25.6335 15.8581 24.6419C14.8665 23.6504 14.2129 22.3715 13.9901 20.987C13.7673 19.6026 13.9868 18.1832 14.6172 16.9306C15.2476 15.6781 16.257 14.6562 17.5016 14.0104C18.7463 13.3646 20.1629 13.1277 21.55 13.3333C22.9649 13.5432 24.2748 14.2025 25.2862 15.2139C26.2976 16.2253 26.9569 17.5351 27.1667 18.95Z" stroke="black" stroke-width="4" stroke-linecap="round" stroke-linejoin="round"/>
<path d="M29.6667 10.8335H29.6833" stroke="black" stroke-width="4" stroke-linecap="round" stroke-linejoin="round"/>
</svg>
