<svg aria-hidden="true" xmlns="http://www.w3.org/2000/svg" xmlns:xlink="http://www.w3.org/1999/xlink"><symbol viewBox="0 0 203 203" fill="none" id="circle-text" xmlns="http://www.w3.org/2000/svg">
<path d="M131.232 167.124L126.851 168.845C125.857 169.235 124.959 169.413 124.155 169.379C123.345 169.347 122.645 169.105 122.054 168.651C121.46 168.206 120.993 167.554 120.655 166.693C120.417 166.087 120.324 165.484 120.375 164.883C120.422 164.291 120.607 163.729 120.929 163.197C121.248 162.673 121.692 162.201 122.262 161.781L122.678 161.398L126.796 159.781L127.374 161.2L124.266 162.421C123.635 162.669 123.154 162.984 122.822 163.366C122.491 163.755 122.294 164.178 122.23 164.637C122.165 165.096 122.222 165.553 122.401 166.008C122.6 166.517 122.875 166.923 123.225 167.226C123.575 167.529 124.006 167.699 124.517 167.736C125.024 167.782 125.614 167.673 126.287 167.408L128.914 166.377L124.28 154.578L126.034 153.889L131.232 167.124ZM118.299 156.927L123.873 161.663L122.05 162.389L116.47 157.772L116.427 157.663L118.299 156.927Z" fill="currentColor"/>
<path d="M109.885 158.359C110.61 158.237 111.289 158.249 111.921 158.394C112.547 158.546 113.11 158.812 113.609 159.19C114.102 159.569 114.512 160.049 114.84 160.627C115.168 161.206 115.394 161.861 115.516 162.593L115.584 162.998C115.726 163.845 115.728 164.621 115.588 165.324C115.45 166.034 115.204 166.656 114.852 167.19C114.499 167.725 114.07 168.157 113.564 168.486C113.058 168.815 112.513 169.028 111.929 169.126C111.184 169.251 110.52 169.231 109.938 169.064C109.349 168.899 108.842 168.614 108.418 168.21C107.995 167.812 107.648 167.316 107.376 166.721C107.106 166.133 106.909 165.473 106.787 164.741L106.652 163.941L114.434 162.636L114.678 164.09L108.678 165.097L108.701 165.232C108.804 165.69 108.976 166.123 109.216 166.532C109.45 166.941 109.767 167.258 110.167 167.481C110.568 167.704 111.073 167.765 111.683 167.662C112.088 167.595 112.445 167.445 112.757 167.215C113.069 166.991 113.319 166.692 113.507 166.317C113.695 165.942 113.816 165.502 113.87 164.998C113.924 164.494 113.898 163.927 113.793 163.298L113.725 162.894C113.642 162.399 113.497 161.945 113.289 161.531C113.075 161.125 112.809 160.78 112.491 160.496C112.167 160.214 111.799 160.012 111.389 159.889C110.973 159.768 110.521 159.748 110.033 159.83C109.403 159.935 108.892 160.153 108.498 160.483C108.105 160.813 107.78 161.221 107.525 161.706L106.303 161.029C106.47 160.651 106.702 160.279 106.997 159.913C107.292 159.547 107.677 159.225 108.152 158.947C108.62 158.67 109.198 158.474 109.885 158.359Z" fill="currentColor"/>
<path d="M96.802 160.771L96.6408 166.208C96.6285 166.624 96.7024 166.988 96.8625 167.299C97.0159 167.616 97.2561 167.864 97.583 168.043C97.9098 168.222 98.3173 168.319 98.8054 168.334C99.2609 168.347 99.6634 168.281 100.013 168.135C100.356 167.989 100.629 167.792 100.832 167.544C101.028 167.296 101.13 167.025 101.139 166.732L102.945 166.786C102.934 167.163 102.825 167.534 102.619 167.9C102.413 168.265 102.123 168.592 101.749 168.88C101.369 169.175 100.92 169.403 100.401 169.563C99.8745 169.73 99.2926 169.804 98.6549 169.785C97.887 169.762 97.2141 169.612 96.6361 169.334C96.0516 169.056 95.6013 168.649 95.285 168.112C94.962 167.581 94.8122 166.922 94.8356 166.135L94.9814 161.215C94.9918 160.864 94.9736 160.489 94.9268 160.09C94.8735 159.691 94.7893 159.347 94.6742 159.057L94.6788 158.901L96.5627 158.956C96.6477 159.167 96.711 159.446 96.7529 159.792C96.7945 160.145 96.8109 160.472 96.802 160.771ZM96.3534 165.359L96.3715 164.09L98.1968 164.144C98.7109 164.159 99.171 164.13 99.5769 164.058C99.9827 163.992 100.325 163.881 100.603 163.727C100.881 163.572 101.095 163.373 101.246 163.13C101.396 162.894 101.476 162.613 101.486 162.287C101.496 161.955 101.43 161.651 101.288 161.373C101.147 161.095 100.928 160.87 100.634 160.699C100.333 160.534 99.9609 160.444 99.5184 160.431C98.9652 160.415 98.4737 160.518 98.0437 160.739C97.6138 160.961 97.2702 161.237 97.0129 161.569C96.749 161.899 96.6026 162.224 96.5737 162.542L95.8283 161.651C95.8819 161.379 96.0145 161.08 96.2261 160.754C96.4377 160.428 96.7172 160.117 97.0647 159.821C97.4054 159.532 97.8098 159.293 98.2778 159.105C98.7391 158.923 99.2561 158.841 99.8288 158.858C100.545 158.879 101.168 159.038 101.7 159.333C102.226 159.629 102.631 160.016 102.916 160.493C103.195 160.977 103.326 161.511 103.309 162.097C103.292 162.663 103.166 163.158 102.932 163.581C102.698 164.01 102.369 164.362 101.944 164.636C101.518 164.916 101.011 165.123 100.421 165.255C99.8306 165.387 99.1744 165.443 98.4521 165.421L96.3534 165.359Z" fill="currentColor"/>
<path d="M84.9566 158.772L81.9846 171.375L80.2167 170.958L83.6594 156.359L85.2752 156.74L84.9566 158.772ZM91.1612 163.435L91.1142 163.635C90.9289 164.421 90.6657 165.111 90.3247 165.706C89.9759 166.306 89.5695 166.796 89.1056 167.175C88.6353 167.552 88.1239 167.806 87.5714 167.937C87.011 168.072 86.4235 168.067 85.8088 167.922C85.1625 167.77 84.6254 167.523 84.1977 167.181C83.762 166.844 83.4271 166.421 83.1929 165.911C82.9508 165.406 82.8025 164.829 82.748 164.181C82.6936 163.532 82.7179 162.819 82.8212 162.041L83.0274 161.166C83.2749 160.429 83.571 159.783 83.9158 159.228C84.2542 158.673 84.6445 158.223 85.0868 157.879C85.5227 157.534 86.0116 157.305 86.5533 157.192C87.0935 157.085 87.6899 157.108 88.3426 157.262C88.9446 157.404 89.4653 157.664 89.9046 158.042C90.3376 158.418 90.6794 158.884 90.93 159.438C91.1743 159.99 91.3199 160.607 91.3669 161.287C91.4061 161.971 91.3376 162.688 91.1612 163.435ZM89.3463 163.218L89.3933 163.018C89.5144 162.505 89.5772 162.012 89.5819 161.538C89.5803 161.063 89.5089 160.628 89.3678 160.233C89.2267 159.839 89.0083 159.503 88.7124 159.226C88.4151 158.955 88.0288 158.764 87.5535 158.651C86.9705 158.514 86.463 158.525 86.0308 158.684C85.5924 158.841 85.2113 159.096 84.8875 159.448C84.5638 159.799 84.2825 160.198 84.0437 160.643L83.5035 162.934C83.4974 163.3 83.5291 163.662 83.5986 164.02C83.6603 164.382 83.7754 164.717 83.9437 165.024C84.1042 165.336 84.3313 165.607 84.625 165.837C84.9123 166.065 85.2777 166.232 85.7213 166.337C86.2028 166.45 86.6418 166.447 87.0381 166.326C87.4266 166.21 87.7729 166.004 88.0768 165.708C88.3793 165.418 88.6382 165.058 88.8535 164.627C89.061 164.201 89.2252 163.731 89.3463 163.218Z" fill="currentColor"/>
<path d="M65.433 163.495L63.9245 162.466L66.6097 150.265L56.2368 157.221L54.7202 156.186L67.5095 147.699L68.6873 148.503L65.433 163.495ZM65.9251 163.831L64.594 162.923L69.2637 155.611L72.3899 151.029L73.9388 152.086L65.9251 163.831ZM55.5672 156.764L54.2362 155.856L62.2499 144.111L63.7987 145.167L60.6725 149.749L55.5672 156.764Z" fill="currentColor"/>
<path d="M57.6628 146.071L57.495 146.22C56.9261 146.726 56.3248 147.113 55.6913 147.381C55.053 147.653 54.4154 147.793 53.7785 147.802C53.1367 147.816 52.5192 147.69 51.9259 147.425C51.3278 147.164 50.7842 146.759 50.2951 146.209C49.8016 145.655 49.4601 145.065 49.2705 144.441C49.0716 143.816 49.0161 143.186 49.1038 142.55C49.1823 141.914 49.3936 141.294 49.7376 140.692C50.0768 140.093 50.5309 139.541 51.0999 139.035L51.2676 138.885C51.8366 138.379 52.4379 137.992 53.0714 137.725C53.7048 137.457 54.3446 137.319 54.9907 137.311C55.6276 137.301 56.2451 137.427 56.8432 137.688C57.4322 137.948 57.9734 138.356 58.4668 138.91C58.9603 139.464 59.3042 140.052 59.4987 140.672C59.6883 141.296 59.7439 141.926 59.6654 142.563C59.5776 143.199 59.3642 143.816 59.025 144.414C58.6859 145.012 58.2318 145.564 57.6628 146.071ZM56.2939 144.871L56.4617 144.721C56.8556 144.371 57.1865 143.993 57.4544 143.589C57.7175 143.19 57.9005 142.778 58.0035 142.355C58.1022 141.928 58.1038 141.504 58.0084 141.083C57.9081 140.667 57.6913 140.271 57.358 139.897C57.0291 139.527 56.6658 139.271 56.2684 139.128C55.8617 138.984 55.4424 138.939 55.0104 138.992C54.5785 139.046 54.1487 139.18 53.7212 139.395C53.2845 139.609 52.8692 139.892 52.4753 140.242L52.3075 140.392C51.9184 140.738 51.5945 141.113 51.3358 141.518C51.0679 141.922 50.8846 142.338 50.7859 142.765C50.6781 143.193 50.6719 143.617 50.7673 144.037C50.8584 144.453 51.0706 144.848 51.4039 145.222C51.7328 145.592 52.1006 145.849 52.5073 145.992C52.9096 146.131 53.3314 146.174 53.7725 146.121C54.2045 146.068 54.6367 145.932 55.069 145.712C55.4966 145.497 55.9049 145.217 56.2939 144.871Z" fill="currentColor"/>
<path d="M45.1334 135.923L52.7271 131.269L53.6711 132.809L44.662 138.33L43.7435 136.832L45.1334 135.923ZM41.9432 134.006L43.3805 133.137C43.431 133.282 43.4892 133.414 43.555 133.534C43.612 133.652 43.6847 133.783 43.7731 133.927C43.9908 134.282 44.2386 134.562 44.5163 134.766C44.794 134.97 45.0906 135.105 45.4061 135.171C45.7216 135.238 46.0521 135.241 46.3977 135.182C46.7343 135.121 47.0766 135.007 47.4245 134.839L47.9397 135.119C47.3957 135.452 46.8527 135.713 46.3107 135.9C45.7652 136.081 45.2396 136.171 44.7338 136.167C44.2224 136.168 43.7568 136.056 43.3371 135.832C42.9085 135.606 42.5445 135.249 42.2451 134.76C42.1771 134.649 42.1127 134.513 42.052 134.352C41.9858 134.194 41.9495 134.079 41.9432 134.006Z" fill="currentColor"/>
<path d="M48.202 121.413C48.4738 122.097 48.6055 122.762 48.5969 123.41C48.5799 124.055 48.439 124.661 48.1743 125.228C47.9072 125.79 47.5253 126.292 47.0288 126.735C46.5322 127.178 45.9391 127.536 45.2494 127.81L44.8683 127.962C44.0697 128.279 43.312 128.444 42.595 128.456C41.8721 128.47 41.2122 128.361 40.6154 128.129C40.0187 127.897 39.5062 127.568 39.0778 127.143C38.6495 126.718 38.3259 126.23 38.107 125.679C37.8279 124.978 37.7084 124.325 37.7483 123.72C37.7858 123.11 37.9574 122.555 38.2631 122.055C38.5627 121.557 38.9746 121.113 39.4989 120.723C40.0171 120.334 40.6211 120.003 41.3107 119.729L42.0639 119.429L44.9795 126.762L43.6093 127.306L41.3612 121.653L41.2342 121.704C40.8082 121.901 40.4208 122.16 40.072 122.481C39.7208 122.796 39.4782 123.172 39.3443 123.611C39.2105 124.05 39.2578 124.556 39.4863 125.131C39.6379 125.512 39.8591 125.831 40.1499 126.086C40.4347 126.344 40.7801 126.526 41.1861 126.631C41.5921 126.735 42.0472 126.761 42.5515 126.708C43.0557 126.654 43.6042 126.51 44.1971 126.274L44.5782 126.122C45.0441 125.937 45.4574 125.699 45.8183 125.409C46.1707 125.114 46.4518 124.782 46.6617 124.411C46.8692 124.034 46.9897 123.633 47.0232 123.206C47.0543 122.773 46.9785 122.327 46.7957 121.867C46.5599 121.274 46.2392 120.82 45.8337 120.505C45.4281 120.19 44.9613 119.959 44.4333 119.811L44.8368 118.474C45.2416 118.558 45.6542 118.706 46.0745 118.917C46.4948 119.128 46.8907 119.437 47.2622 119.843C47.6313 120.242 47.9446 120.766 48.202 121.413Z" fill="currentColor"/>
<path d="M43.8866 107.887C43.5818 107.915 43.3172 107.844 43.0926 107.675C42.8609 107.5 42.7285 107.231 42.6954 106.868C42.6623 106.505 42.7442 106.22 42.941 106.012C43.1308 105.799 43.378 105.678 43.6828 105.65C43.981 105.623 44.2427 105.697 44.4679 105.873C44.6925 106.042 44.8214 106.308 44.8545 106.671C44.8875 107.034 44.8092 107.323 44.6194 107.536C44.4291 107.743 44.1848 107.86 43.8866 107.887Z" fill="currentColor"/>
<path d="M31.163 90.1173L32.1395 85.5127C32.3611 84.4682 32.7073 83.6199 33.1784 82.9678C33.6508 82.3093 34.239 81.8583 34.9428 81.6149C35.6416 81.3638 36.4432 81.3342 37.3476 81.526C37.9844 81.661 38.5395 81.9152 39.0127 82.2884C39.4809 82.6539 39.8484 83.1179 40.1151 83.6802C40.3768 84.2349 40.5259 84.8655 40.5624 85.572L40.6537 86.1304L39.7358 90.458L38.2319 90.159L38.9249 86.8918C39.0653 86.2295 39.0675 85.6543 38.9315 85.1662C38.789 84.6768 38.544 84.2788 38.1964 83.9721C37.8488 83.6655 37.4362 83.4615 36.9586 83.3602C36.4236 83.2467 35.9332 83.2525 35.4874 83.3776C35.0416 83.5027 34.6625 83.7683 34.35 84.1746C34.0326 84.5731 33.7989 85.1259 33.6489 85.8328L33.0634 88.5937L45.4634 91.2235L45.0723 93.0673L31.163 90.1173ZM46.7965 84.9375L39.7742 86.9821L40.1719 85.0599L47.0993 82.9453L47.2139 82.9696L46.7965 84.9375Z" fill="currentColor"/>
<path d="M50.2357 77.1249C49.9377 77.7975 49.5543 78.3575 49.0855 78.8049C48.6134 79.2437 48.082 79.5673 47.4913 79.7755C46.9032 79.9778 46.2773 80.0566 45.6136 80.0117C44.9498 79.9669 44.2787 79.7942 43.6001 79.4935L43.2251 79.3274C42.4394 78.9793 41.7914 78.5534 41.2812 78.0496C40.7649 77.5432 40.3809 76.9956 40.129 76.407C39.8771 75.8183 39.7532 75.2222 39.7571 74.6186C39.761 74.0151 39.8829 73.4425 40.1229 72.9008C40.4288 72.2104 40.8116 71.6679 41.2712 71.2733C41.7335 70.8729 42.2501 70.6069 42.821 70.4753C43.3861 70.3411 43.9916 70.3245 44.6375 70.4256C45.2775 70.524 45.9368 70.7235 46.6154 71.0241L47.3564 71.3525L44.1602 78.5668L42.812 77.9695L45.2764 72.4069L45.1514 72.3516C44.7123 72.1855 44.2561 72.0902 43.7827 72.0656C43.312 72.0351 42.8732 72.1255 42.4663 72.3369C42.0593 72.5482 41.7306 72.9366 41.4801 73.5021C41.3139 73.8771 41.2413 74.2579 41.2623 74.6446C41.2773 75.0287 41.3894 75.4024 41.5987 75.7657C41.8081 76.129 42.1082 76.4721 42.4993 76.7948C42.8903 77.1176 43.3775 77.4082 43.9609 77.6667L44.3359 77.8328C44.7942 78.0359 45.2534 78.1646 45.7136 78.2189C46.1704 78.2646 46.6047 78.2327 47.0164 78.1232C47.4307 78.0077 47.802 77.8125 48.1302 77.5378C48.461 77.2572 48.7267 76.8906 48.9271 76.4383C49.1855 75.8549 49.2854 75.3081 49.2266 74.7979C49.1678 74.2876 49.0063 73.7924 48.742 73.3121L49.9796 72.6642C50.2028 73.0123 50.3861 73.4103 50.5294 73.8583C50.6727 74.3064 50.7294 74.805 50.6997 75.3544C50.6726 75.8978 50.5179 76.4879 50.2357 77.1249Z" fill="currentColor"/>
<path d="M55.4268 64.877L50.9773 61.7481C50.6365 61.5084 50.2922 61.3698 49.9446 61.3323C49.5953 61.2857 49.256 61.3495 48.9265 61.5237C48.5971 61.6979 48.2919 61.9848 48.011 62.3842C47.7489 62.757 47.5825 63.1294 47.5118 63.5016C47.4449 63.8684 47.4591 64.2047 47.5544 64.5105C47.6535 64.811 47.8229 65.0455 48.0626 65.214L47.0234 66.6918C46.7145 66.4746 46.4644 66.1794 46.2732 65.8062C46.082 65.433 45.9688 65.0111 45.9335 64.5406C45.8967 64.061 45.9543 63.5604 46.1063 63.0385C46.2568 62.5076 46.5156 61.9812 46.8826 61.4593C47.3245 60.8309 47.8204 60.352 48.3705 60.0225C48.9243 59.6876 49.5124 59.5361 50.1347 59.5678C50.7555 59.5905 51.3881 59.8284 52.0325 60.2815L56.0586 63.1127C56.3462 63.3149 56.6692 63.5062 57.0278 63.6868C57.3901 63.8619 57.724 63.9813 58.0295 64.0449L58.1573 64.1348L57.0731 65.6765C56.8503 65.6313 56.5828 65.5307 56.2706 65.3748C55.953 65.2152 55.6718 65.0492 55.4268 64.877ZM51.8441 61.9756L52.8938 62.6899L51.8433 64.1837C51.5475 64.6044 51.3181 65.0042 51.1551 65.383C50.9868 65.7582 50.8906 66.1044 50.8665 66.4217C50.8423 66.739 50.8903 67.0273 51.0102 67.2868C51.1249 67.5425 51.3154 67.764 51.5816 67.9513C51.8532 68.1423 52.1439 68.2551 52.4538 68.2899C52.7636 68.3247 53.0712 68.2665 53.3766 68.1151C53.6804 67.9547 53.9596 67.6934 54.2143 67.3313C54.5326 66.8786 54.7176 66.4118 54.7693 65.9308C54.821 65.4498 54.7795 65.0108 54.6449 64.6137C54.514 64.2113 54.3237 63.9103 54.074 63.7108L55.2288 63.5797C55.4262 63.7743 55.6027 64.0496 55.7582 64.4057C55.9137 64.7617 56.0193 65.1663 56.0748 65.6192C56.1288 66.0631 56.1054 66.5321 56.0046 67.0263C55.9022 67.5114 55.6863 67.9883 55.3567 68.457C54.9448 69.0428 54.4689 69.4762 53.9291 69.7572C53.393 70.0328 52.8471 70.1583 52.2914 70.1337C51.7341 70.0999 51.2158 69.9146 50.7365 69.5775C50.2732 69.2517 49.9295 68.8747 49.7053 68.4465C49.4758 68.0145 49.3638 67.5457 49.3691 67.0401C49.3691 66.5307 49.4764 65.9933 49.691 65.4279C49.9055 64.8625 50.2206 64.2842 50.6363 63.6931L51.8441 61.9756Z" fill="currentColor"/>
<path d="M63.6196 56.0911L54.7363 46.6693L56.058 45.4232L66.3481 56.3371L65.1401 57.476L63.6196 56.0911ZM56.3098 58.7015L56.1691 58.5523C55.6153 57.9649 55.1839 57.365 54.8749 56.7526C54.5662 56.131 54.3815 55.5222 54.3207 54.9263C54.2647 54.3259 54.3343 53.7592 54.5296 53.2261C54.7252 52.6838 55.0527 52.196 55.5122 51.7628C55.9954 51.3073 56.4974 50.995 57.0182 50.8261C57.5392 50.648 58.0771 50.6017 58.6319 50.6871C59.1869 50.7633 59.75 50.9572 60.3211 51.2687C60.8923 51.5803 61.4742 51.9935 62.067 52.5083L62.6833 53.162C63.1627 53.7748 63.5387 54.3777 63.8115 54.9707C64.0889 55.5591 64.2493 56.1326 64.2928 56.6912C64.341 57.2453 64.2631 57.7795 64.0591 58.2939C63.8507 58.8036 63.5025 59.2885 63.0146 59.7485C62.5646 60.1728 62.0609 60.4642 61.5036 60.6228C60.951 60.777 60.3744 60.8061 59.7739 60.7101C59.1782 60.6097 58.5836 60.3919 57.9901 60.0566C57.3969 59.7122 56.8368 59.2605 56.3098 58.7015ZM57.4907 57.3062L57.6314 57.4554C57.9932 57.8391 58.3705 58.1634 58.7634 58.4283C59.161 58.6887 59.5633 58.8686 59.9703 58.9681C60.3772 59.0676 60.7778 59.0702 61.1721 58.9758C61.5619 58.8768 61.9344 58.6597 62.2897 58.3248C62.7255 57.9139 62.996 57.4843 63.1013 57.0361C63.2113 56.5834 63.2087 56.125 63.0934 55.6611C62.9781 55.1971 62.8003 54.7429 62.5601 54.2983L60.9456 52.5859C60.6431 52.3789 60.3235 52.206 59.9868 52.0672C59.6503 51.9191 59.3075 51.8307 58.9583 51.802C58.6094 51.7641 58.2582 51.8045 57.9047 51.923C57.5559 52.0371 57.2157 52.2505 56.8842 52.5631C56.5241 52.9025 56.2853 53.2708 56.1677 53.6681C56.0504 54.0561 56.0316 54.4585 56.1115 54.8754C56.1869 55.2875 56.3451 55.702 56.5861 56.119C56.8274 56.5268 57.1289 56.9225 57.4907 57.3062Z" fill="currentColor"/>
<path d="M70.4294 37.1934L72.1192 36.5011L80.8242 45.4617L80.7312 32.973L82.4301 32.277L82.4707 47.626L81.1513 48.1666L70.4294 37.1934ZM69.8781 37.4192L71.3692 36.8084L74.9007 44.733L77.0035 49.8658L75.2685 50.5766L69.8781 37.4192ZM81.4812 32.6657L82.9723 32.0548L88.3626 45.2123L86.6276 45.9231L84.5248 40.7902L81.4812 32.6657Z" fill="currentColor"/>
<path d="M89.2524 40.3035L89.2202 40.0813C89.1108 39.3274 89.119 38.6125 89.2446 37.9364C89.3693 37.2539 89.6032 36.6443 89.9464 36.1077C90.2886 35.5647 90.7338 35.1186 91.2818 34.7694C91.8288 34.4137 92.4664 34.1831 93.1944 34.0775C93.9289 33.9709 94.609 34.0105 95.2345 34.196C95.8656 34.3742 96.4224 34.675 96.9048 35.0984C97.3928 35.5144 97.7935 36.0319 98.1069 36.6509C98.4194 37.2634 98.6304 37.9466 98.7397 38.7004L98.7719 38.9227C98.8813 39.6766 98.8732 40.3915 98.7476 41.0676C98.6219 41.7437 98.3848 42.3537 98.0361 42.8977C97.6929 43.4342 97.2478 43.8804 96.7007 44.236C96.1592 44.5843 95.5211 44.8117 94.7866 44.9182C94.0521 45.0248 93.3726 44.9885 92.7479 44.8094C92.1224 44.6238 91.5656 44.323 91.0777 43.907C90.5952 43.4836 90.1977 42.9656 89.8852 42.3531C89.5727 41.7405 89.3618 41.0574 89.2524 40.3035ZM91.0081 39.8219L91.0404 40.0442C91.1161 40.5661 91.2488 41.0501 91.4385 41.4962C91.6272 41.9359 91.8697 42.3152 92.166 42.6341C92.4687 42.952 92.8218 43.1869 93.2254 43.3389C93.6281 43.4844 94.0774 43.5212 94.5736 43.4492C95.0632 43.3782 95.4772 43.2162 95.8155 42.9632C96.1593 42.7028 96.4279 42.3777 96.6213 41.9878C96.8147 41.5979 96.9395 41.1654 96.9955 40.6902C97.0571 40.2076 97.0501 39.7054 96.9744 39.1835L96.9421 38.9612C96.8673 38.4457 96.7324 37.9686 96.5371 37.5299C96.3474 37.0837 96.1012 36.7017 95.7986 36.3838C95.5014 36.0585 95.151 35.8199 94.7474 35.6679C94.3503 35.515 93.9036 35.4745 93.4075 35.5465C92.9178 35.6175 92.5011 35.7832 92.1573 36.0436C91.82 36.303 91.5518 36.6314 91.3529 37.0287C91.1595 37.4185 91.0352 37.8543 90.9801 38.3359C90.924 38.8112 90.9334 39.3065 91.0081 39.8219Z" fill="currentColor"/>
<path d="M104.623 35.4343L104.326 44.3356L102.52 44.2752L102.873 33.7147L104.63 33.7734L104.623 35.4343ZM107.979 33.8268L107.914 35.5052C107.765 35.4677 107.623 35.4434 107.486 35.4323C107.356 35.4149 107.207 35.4034 107.038 35.3978C106.621 35.3838 106.252 35.4366 105.928 35.5561C105.605 35.6756 105.329 35.8487 105.1 36.0756C104.871 36.3024 104.686 36.5764 104.545 36.8973C104.411 37.212 104.318 37.5607 104.266 37.9433L103.748 38.2191C103.77 37.5815 103.851 36.9849 103.994 36.4295C104.143 35.8742 104.358 35.3863 104.639 34.9658C104.92 34.5388 105.27 34.2117 105.688 33.9847C106.112 33.7513 106.611 33.6442 107.184 33.6634C107.314 33.6677 107.463 33.689 107.631 33.7272C107.799 33.7589 107.915 33.7921 107.979 33.8268Z" fill="currentColor"/>
<path d="M115.044 45.9868C114.324 45.8372 113.696 45.5804 113.16 45.2164C112.631 44.8473 112.203 44.396 111.875 43.8624C111.553 43.3301 111.344 42.7349 111.248 42.0766C111.152 41.4183 111.18 40.7258 111.331 39.9992L111.414 39.5976C111.589 38.7561 111.869 38.033 112.254 37.428C112.64 36.8167 113.094 36.3259 113.617 35.9557C114.139 35.5854 114.696 35.3386 115.286 35.2153C115.877 35.0919 116.463 35.0905 117.043 35.211C117.782 35.3645 118.393 35.6244 118.876 35.9906C119.364 36.3581 119.733 36.807 119.982 37.3375C120.232 37.8615 120.376 38.4499 120.414 39.1027C120.452 39.749 120.396 40.4356 120.245 41.1622L120.08 41.9559L112.355 40.3514L112.654 38.9076L118.611 40.1447L118.639 40.0108C118.709 39.5466 118.706 39.0805 118.63 38.6126C118.561 38.1461 118.38 37.7362 118.088 37.3829C117.795 37.0296 117.346 36.7901 116.741 36.6643C116.339 36.5809 115.952 36.5902 115.578 36.6922C115.206 36.7877 114.864 36.9761 114.553 37.2573C114.242 37.5384 113.97 37.9042 113.737 38.3544C113.504 38.8047 113.322 39.3422 113.192 39.9669L113.109 40.3685C113.007 40.8593 112.978 41.3354 113.022 41.7966C113.073 42.2528 113.196 42.6706 113.39 43.05C113.59 43.4307 113.859 43.7525 114.197 44.0155C114.541 44.2798 114.955 44.4622 115.44 44.5628C116.064 44.6925 116.62 44.6749 117.106 44.51C117.593 44.345 118.043 44.0827 118.457 43.7232L119.351 44.7965C119.058 45.0881 118.707 45.3511 118.299 45.5855C117.891 45.82 117.416 45.9806 116.873 46.0673C116.336 46.1552 115.726 46.1284 115.044 45.9868Z" fill="currentColor"/>
<path d="M128.711 49.8337C128.855 49.564 129.06 49.382 129.325 49.2877C129.598 49.1907 129.896 49.2284 130.217 49.4007C130.538 49.5731 130.732 49.7985 130.796 50.0771C130.87 50.353 130.834 50.6258 130.69 50.8954C130.548 51.1593 130.342 51.3369 130.072 51.4282C129.807 51.5225 129.514 51.4835 129.192 51.3112C128.871 51.1388 128.674 50.9147 128.6 50.6388C128.532 50.3659 128.569 50.0976 128.711 49.8337Z" fill="currentColor"/>
<path d="M150.55 49.0003L153.856 52.3513C154.605 53.1114 155.123 53.8677 155.408 54.62C155.697 55.377 155.75 56.1162 155.565 56.8377C155.39 57.5593 154.973 58.2447 154.315 58.894C153.852 59.3512 153.334 59.6745 152.762 59.8639C152.199 60.0534 151.609 60.1047 150.993 60.0176C150.386 59.9306 149.777 59.7078 149.167 59.3491L148.651 59.1177L145.544 55.9683L146.622 54.8777L148.968 57.2554C149.443 57.7374 149.922 58.056 150.404 58.2112C150.891 58.3619 151.358 58.3766 151.806 58.2553C152.253 58.1341 152.651 57.902 152.998 57.5591C153.388 57.1751 153.653 56.7625 153.794 56.3216C153.935 55.8806 153.922 55.4178 153.755 54.9333C153.597 54.4488 153.265 53.9494 152.757 53.4349L150.775 51.4257L141.751 60.3274L140.428 58.9856L150.55 49.0003ZM146.264 64.902L148.425 57.9146L149.81 59.3052L147.76 66.2519L147.676 66.3342L146.264 64.902Z" fill="currentColor"/>
<path d="M150.89 72.0743C150.493 71.4551 150.237 70.8267 150.122 70.189C150.015 69.5532 150.038 68.9315 150.189 68.3237C150.344 67.7214 150.623 67.1556 151.026 66.6263C151.429 66.097 151.943 65.6319 152.568 65.2311L152.913 65.0096C153.636 64.5455 154.349 64.2392 155.05 64.0907C155.757 63.9388 156.426 63.9198 157.056 64.0337C157.686 64.1477 158.252 64.3725 158.753 64.7081C159.255 65.0438 159.666 65.4609 159.986 65.9595C160.393 66.5951 160.635 67.2134 160.712 67.8143C160.791 68.4207 160.729 68.9984 160.524 69.5474C160.325 70.0929 160.005 70.6075 159.565 71.091C159.131 71.571 158.601 72.0114 157.976 72.4122L157.294 72.85L153.033 66.209L154.274 65.4127L157.56 70.5331L157.675 70.4592C158.055 70.1842 158.386 69.8559 158.667 69.4743C158.952 69.0982 159.118 68.6822 159.166 68.2261C159.213 67.77 159.07 67.2817 158.736 66.7612C158.515 66.416 158.237 66.1456 157.903 65.9502C157.574 65.7512 157.2 65.639 156.781 65.6136C156.363 65.5882 155.911 65.6499 155.427 65.7985C154.942 65.9472 154.431 66.1938 153.894 66.5383L153.549 66.7598C153.127 67.0306 152.766 67.343 152.468 67.6972C152.178 68.0533 151.965 68.4333 151.83 68.8373C151.698 69.2468 151.657 69.6641 151.705 70.0894C151.757 70.5201 151.917 70.9437 152.184 71.3601C152.529 71.8971 152.93 72.2815 153.388 72.5135C153.847 72.7454 154.349 72.8833 154.895 72.9272L154.755 74.3171C154.341 74.3117 153.908 74.2454 153.455 74.1183C153.002 73.9912 152.555 73.764 152.113 73.4366C151.674 73.1147 151.267 72.6606 150.89 72.0743Z" fill="currentColor"/>
<path d="M158.255 83.1527L163.317 81.1619C163.705 81.0094 164.01 80.7984 164.233 80.5289C164.465 80.263 164.598 79.9446 164.634 79.5737C164.67 79.2028 164.599 78.7901 164.42 78.3357C164.253 77.9116 164.034 77.5675 163.762 77.3036C163.493 77.0458 163.205 76.8724 162.897 76.7836C162.591 76.7008 162.302 76.713 162.03 76.8202L161.369 75.1389C161.72 75.0007 162.104 74.9546 162.521 75.0006C162.938 75.0465 163.352 75.1843 163.764 75.414C164.185 75.6474 164.571 75.9712 164.923 76.3855C165.283 76.8035 165.58 77.3094 165.814 77.9031C166.095 78.618 166.221 79.2958 166.193 79.9364C166.168 80.583 165.971 81.1574 165.601 81.6594C165.241 82.165 164.694 82.562 163.96 82.8503L159.38 84.6517C159.053 84.7803 158.715 84.9446 158.367 85.1445C158.021 85.3504 157.738 85.5634 157.517 85.7833L157.371 85.8405L156.681 84.0865C156.842 83.9254 157.073 83.7575 157.375 83.5828C157.683 83.4056 157.977 83.2623 158.255 83.1527ZM162.65 81.7601L161.476 82.2429L160.808 80.5434C160.619 80.0648 160.412 79.6531 160.185 79.3085C159.965 78.9614 159.729 78.6904 159.478 78.4955C159.226 78.3006 158.959 78.1818 158.676 78.1391C158.4 78.0939 158.11 78.1309 157.807 78.2501C157.498 78.3716 157.244 78.5521 157.044 78.7915C156.844 79.0309 156.724 79.3198 156.682 79.658C156.648 80 156.713 80.377 156.875 80.789C157.077 81.3039 157.365 81.7155 157.738 82.0235C158.111 82.3315 158.5 82.5387 158.906 82.645C159.314 82.7574 159.67 82.7643 159.974 82.6658L159.447 83.7018C159.176 83.7595 158.849 83.7552 158.466 83.6889C158.083 83.6226 157.688 83.4879 157.279 83.2848C156.879 83.0854 156.5 82.8076 156.143 82.4513C155.795 82.0986 155.515 81.6557 155.306 81.1226C155.044 80.4561 154.944 79.8202 155.007 79.2149C155.072 78.6156 155.268 78.0909 155.594 77.6406C155.929 77.194 156.37 76.8635 156.915 76.6491C157.442 76.4418 157.946 76.3625 158.427 76.4112C158.914 76.4576 159.367 76.6222 159.786 76.9051C160.211 77.1857 160.601 77.5712 160.954 78.0616C161.308 78.5521 161.617 79.1336 161.882 79.8061L162.65 81.7601Z" fill="currentColor"/>
<path d="M161.076 94.83L173.833 92.6041L174.145 94.3934L159.368 96.9719L159.083 95.3364L161.076 94.83ZM162.923 87.2909L163.125 87.2557C163.921 87.1169 164.659 87.0872 165.34 87.1666C166.029 87.2512 166.639 87.4323 167.17 87.7098C167.702 87.9937 168.136 88.3639 168.474 88.8205C168.819 89.2824 169.046 89.8244 169.154 90.4465C169.268 91.1007 169.252 91.6916 169.107 92.2194C168.968 92.7524 168.711 93.2269 168.334 93.6429C167.965 94.0642 167.493 94.4274 166.918 94.7326C166.344 95.0377 165.678 95.2959 164.922 95.5071L164.037 95.6616C163.261 95.7242 162.551 95.7061 161.906 95.6071C161.262 95.5146 160.695 95.3327 160.205 95.0614C159.716 94.7964 159.313 94.4372 158.996 93.9836C158.685 93.529 158.472 92.9713 158.357 92.3107C158.251 91.7015 158.285 91.1205 158.459 90.568C158.635 90.0219 158.928 89.5246 159.339 89.0762C159.751 88.6342 160.26 88.2579 160.867 87.9472C161.481 87.6417 162.166 87.423 162.923 87.2909ZM163.438 89.045L163.235 89.0803C162.716 89.1709 162.238 89.3073 161.8 89.4894C161.364 89.6779 160.992 89.9146 160.685 90.1995C160.378 90.4844 160.155 90.8173 160.017 91.1983C159.885 91.5783 159.861 92.0087 159.944 92.4897C160.047 93.0798 160.257 93.5422 160.573 93.8769C160.89 94.2181 161.274 94.4683 161.725 94.6276C162.176 94.7868 162.653 94.8886 163.156 94.933L165.475 94.5284C165.814 94.3899 166.134 94.2183 166.436 94.0138C166.745 93.8145 167.007 93.577 167.224 93.3013C167.447 93.031 167.607 92.7156 167.703 92.3553C167.8 92.0013 167.809 91.5999 167.731 91.1509C167.646 90.6635 167.47 90.2613 167.203 89.9444C166.944 89.6328 166.618 89.3955 166.226 89.2325C165.841 89.0685 165.407 88.9723 164.927 88.9438C164.453 88.9206 163.957 88.9544 163.438 89.045Z" fill="currentColor"/>
<path d="M173.1 110.922L172.747 112.713L160.474 115.044L170.949 121.845L170.595 123.646L157.761 115.227L158.036 113.828L173.1 110.922ZM173.215 110.337L172.904 111.918L164.345 110.501L158.902 109.43L159.264 107.59L173.215 110.337ZM170.793 122.64L170.482 124.221L156.531 121.474L156.893 119.634L162.335 120.706L170.793 122.64Z" fill="currentColor"/>
<path d="M160.137 124.92L160.34 125.015C161.029 125.339 161.622 125.74 162.117 126.217C162.618 126.697 162.998 127.228 163.257 127.81C163.522 128.394 163.649 129.012 163.638 129.661C163.634 130.314 163.475 130.973 163.163 131.639C162.847 132.311 162.44 132.857 161.94 133.276C161.444 133.705 160.886 134.004 160.267 134.174C159.651 134.352 158.998 134.401 158.309 134.322C157.626 134.246 156.939 134.045 156.25 133.721L156.047 133.626C155.357 133.302 154.765 132.902 154.27 132.424C153.775 131.947 153.396 131.413 153.134 130.823C152.875 130.241 152.748 129.623 152.752 128.971C152.76 128.327 152.922 127.669 153.237 126.998C153.553 126.326 153.957 125.779 154.451 125.356C154.95 124.936 155.508 124.637 156.124 124.459C156.743 124.289 157.394 124.243 158.078 124.319C158.761 124.396 159.447 124.596 160.137 124.92ZM159.572 126.65L159.369 126.555C158.891 126.331 158.414 126.175 157.937 126.088C157.466 126.003 157.016 125.996 156.587 126.068C156.155 126.146 155.764 126.311 155.415 126.564C155.072 126.82 154.794 127.175 154.581 127.629C154.37 128.077 154.277 128.511 154.302 128.933C154.33 129.363 154.454 129.767 154.673 130.143C154.892 130.519 155.184 130.861 155.55 131.17C155.919 131.487 156.342 131.758 156.819 131.982L157.022 132.077C157.494 132.299 157.966 132.449 158.44 132.528C158.917 132.615 159.371 132.62 159.803 132.542C160.239 132.473 160.631 132.312 160.98 132.059C161.326 131.812 161.606 131.461 161.819 131.008C162.029 130.56 162.121 130.121 162.093 129.69C162.062 129.266 161.935 128.861 161.713 128.477C161.495 128.1 161.199 127.757 160.828 127.445C160.462 127.137 160.043 126.872 159.572 126.65Z" fill="currentColor"/>
<path d="M155.737 140.431L148.471 135.281L149.516 133.807L158.136 139.917L157.12 141.351L155.737 140.431ZM155.23 144.118L153.866 143.139C153.979 143.035 154.078 142.93 154.162 142.822C154.248 142.723 154.34 142.605 154.438 142.467C154.679 142.127 154.838 141.789 154.917 141.453C154.995 141.118 155.002 140.792 154.939 140.476C154.876 140.16 154.749 139.854 154.559 139.56C154.37 139.275 154.131 139.005 153.84 138.751L153.894 138.167C154.415 138.536 154.868 138.933 155.253 139.358C155.635 139.788 155.923 140.236 156.12 140.702C156.321 141.172 156.401 141.644 156.361 142.118C156.322 142.601 156.136 143.076 155.805 143.544C155.73 143.65 155.63 143.763 155.505 143.882C155.386 144.005 155.295 144.084 155.23 144.118Z" fill="currentColor"/>
<path d="M141.19 143.318C141.711 142.799 142.272 142.416 142.871 142.169C143.47 141.931 144.082 141.822 144.708 141.842C145.33 141.867 145.942 142.02 146.544 142.303C147.146 142.585 147.709 142.989 148.233 143.515L148.522 143.806C149.128 144.415 149.577 145.047 149.87 145.702C150.168 146.361 150.327 147.01 150.349 147.65C150.37 148.29 150.27 148.891 150.047 149.452C149.825 150.013 149.503 150.502 149.083 150.92C148.548 151.453 147.995 151.82 147.423 152.021C146.847 152.226 146.269 152.287 145.69 152.203C145.114 152.123 144.544 151.919 143.979 151.59C143.418 151.267 142.876 150.842 142.352 150.316L141.781 149.741L147.375 144.176L148.415 145.221L144.101 149.512L144.198 149.609C144.547 149.923 144.938 150.177 145.37 150.372C145.797 150.571 146.239 150.646 146.695 150.596C147.151 150.547 147.598 150.304 148.037 149.868C148.327 149.578 148.533 149.25 148.654 148.882C148.779 148.519 148.81 148.13 148.746 147.715C148.683 147.301 148.528 146.872 148.28 146.43C148.033 145.987 147.684 145.539 147.234 145.087L146.945 144.796C146.591 144.441 146.21 144.155 145.801 143.937C145.392 143.729 144.975 143.601 144.552 143.554C144.124 143.512 143.707 143.559 143.302 143.696C142.892 143.838 142.511 144.083 142.16 144.432C141.708 144.882 141.417 145.355 141.287 145.852C141.156 146.349 141.127 146.869 141.2 147.412L139.811 147.568C139.73 147.162 139.703 146.725 139.732 146.255C139.761 145.786 139.889 145.301 140.115 144.799C140.338 144.303 140.696 143.809 141.19 143.318Z" fill="currentColor"/>
<path d="M130.452 152.606C130.597 152.875 130.636 153.146 130.569 153.42C130.5 153.701 130.304 153.929 129.984 154.102C129.663 154.275 129.368 154.312 129.1 154.213C128.829 154.123 128.621 153.943 128.476 153.673C128.333 153.41 128.299 153.14 128.371 152.864C128.439 152.591 128.633 152.368 128.953 152.195C129.274 152.021 129.57 151.98 129.841 152.07C130.106 152.164 130.31 152.343 130.452 152.606Z" fill="currentColor"/>
</symbol><symbol viewBox="0 0 889 759" fill="none" id="icon-line" xmlns="http://www.w3.org/2000/svg">
<path d="M0.170709 2.07716C91.4438 -5.392 140.815 36.5099 148.284 127.783C155.753 219.056 205.124 260.958 296.397 253.489C387.67 246.02 437.042 287.922 444.511 379.195C451.98 470.468 501.351 512.37 592.624 504.901C683.897 497.431 733.268 539.333 740.737 630.606C748.207 721.879 797.578 763.781 888.851 756.312" stroke="currentColor" stroke-width="2"/>
</symbol><symbol viewBox="0 0 34 34" fill="none" id="icon-star" xmlns="http://www.w3.org/2000/svg">
<path d="M12.4932 0C10.7681 9.36987 9.36987 10.7681 0 12.4932C9.36987 14.2182 10.7681 15.6164 12.4932 24.9863C14.2168 15.6164 15.6164 14.2182 24.9892 12.4932C15.6164 10.7681 14.2168 9.36987 12.4932 0Z" fill="currentColor"/>
<path d="M26.0538 17.5813C24.9546 23.5399 24.0672 24.4295 18.1086 25.5266C24.0672 26.6258 24.9568 27.5132 26.0538 33.4718C27.1531 27.5132 28.0405 26.6236 33.9991 25.5266C28.0383 24.4266 27.1494 23.5369 26.0538 17.5813Z" fill="currentColor" fill-opacity="0.6"/>
</symbol><symbol viewBox="0 0 38 38" fill="none" id="srar-one" xmlns="http://www.w3.org/2000/svg">
<path d="M18.7399 0C16.1523 14.0549 14.0549 16.1523 0 18.7399C14.0549 21.3275 16.1523 23.4249 18.7399 37.4798C21.3253 23.4249 23.4249 21.3275 37.4842 18.7399C23.4249 16.1523 21.3253 14.0549 18.7399 0Z" fill="currentColor"/>
</symbol></svg>